G04 (created by PCBNEW-RS274X (2012-01-19 BZR 3256)-stable) date 14/12/2555 14:56:42*
G01*
G70*
G90*
%MOIN*%
G04 Gerber Fmt 3.4, Leading zero omitted, Abs format*
%FSLAX34Y34*%
G04 APERTURE LIST*
%ADD10C,0.006000*%
%ADD11C,0.012000*%
G04 APERTURE END LIST*
G54D10*
G54D11*
X33934Y-33585D02*
X33934Y-33528D01*
X33972Y-33471D01*
X34010Y-33442D01*
X34086Y-33413D01*
X34239Y-33385D01*
X34429Y-33385D01*
X34581Y-33413D01*
X34658Y-33442D01*
X34696Y-33471D01*
X34734Y-33528D01*
X34734Y-33585D01*
X34696Y-33642D01*
X34658Y-33671D01*
X34581Y-33699D01*
X34429Y-33728D01*
X34239Y-33728D01*
X34086Y-33699D01*
X34010Y-33671D01*
X33972Y-33642D01*
X33934Y-33585D01*
X34658Y-33128D02*
X34696Y-33100D01*
X34734Y-33128D01*
X34696Y-33157D01*
X34658Y-33128D01*
X34734Y-33128D01*
X33934Y-32899D02*
X33934Y-32499D01*
X34734Y-32756D01*
X34010Y-32300D02*
X33972Y-32271D01*
X33934Y-32214D01*
X33934Y-32071D01*
X33972Y-32014D01*
X34010Y-31985D01*
X34086Y-31957D01*
X34162Y-31957D01*
X34277Y-31985D01*
X34734Y-32328D01*
X34734Y-31957D01*
X33934Y-31757D02*
X33934Y-31386D01*
X34239Y-31586D01*
X34239Y-31500D01*
X34277Y-31443D01*
X34315Y-31414D01*
X34391Y-31386D01*
X34581Y-31386D01*
X34658Y-31414D01*
X34696Y-31443D01*
X34734Y-31500D01*
X34734Y-31672D01*
X34696Y-31729D01*
X34658Y-31757D01*
X33934Y-31015D02*
X33934Y-30958D01*
X33972Y-30901D01*
X34010Y-30872D01*
X34086Y-30843D01*
X34239Y-30815D01*
X34429Y-30815D01*
X34581Y-30843D01*
X34658Y-30872D01*
X34696Y-30901D01*
X34734Y-30958D01*
X34734Y-31015D01*
X34696Y-31072D01*
X34658Y-31101D01*
X34581Y-31129D01*
X34429Y-31158D01*
X34239Y-31158D01*
X34086Y-31129D01*
X34010Y-31101D01*
X33972Y-31072D01*
X33934Y-31015D01*
X33934Y-30130D02*
X34086Y-30130D01*
X33934Y-29901D02*
X34086Y-29901D01*
X35050Y-35430D02*
X35050Y-28200D01*
X48030Y-35430D02*
X33770Y-35430D01*
X48030Y-28200D02*
X33770Y-28200D01*
X35050Y-28200D02*
X35280Y-28643D01*
X35050Y-28200D02*
X34820Y-28643D01*
X35050Y-35430D02*
X35280Y-34987D01*
X35050Y-35430D02*
X34820Y-34987D01*
X33934Y-41105D02*
X33934Y-41048D01*
X33972Y-40991D01*
X34010Y-40962D01*
X34086Y-40933D01*
X34239Y-40905D01*
X34429Y-40905D01*
X34581Y-40933D01*
X34658Y-40962D01*
X34696Y-40991D01*
X34734Y-41048D01*
X34734Y-41105D01*
X34696Y-41162D01*
X34658Y-41191D01*
X34581Y-41219D01*
X34429Y-41248D01*
X34239Y-41248D01*
X34086Y-41219D01*
X34010Y-41191D01*
X33972Y-41162D01*
X33934Y-41105D01*
X34658Y-40648D02*
X34696Y-40620D01*
X34734Y-40648D01*
X34696Y-40677D01*
X34658Y-40648D01*
X34734Y-40648D01*
X33934Y-40419D02*
X33934Y-40019D01*
X34734Y-40276D01*
X33934Y-39848D02*
X33934Y-39448D01*
X34734Y-39705D01*
X34734Y-39192D02*
X34734Y-39077D01*
X34696Y-39020D01*
X34658Y-38992D01*
X34543Y-38934D01*
X34391Y-38906D01*
X34086Y-38906D01*
X34010Y-38934D01*
X33972Y-38963D01*
X33934Y-39020D01*
X33934Y-39134D01*
X33972Y-39192D01*
X34010Y-39220D01*
X34086Y-39249D01*
X34277Y-39249D01*
X34353Y-39220D01*
X34391Y-39192D01*
X34429Y-39134D01*
X34429Y-39020D01*
X34391Y-38963D01*
X34353Y-38934D01*
X34277Y-38906D01*
X33934Y-38535D02*
X33934Y-38478D01*
X33972Y-38421D01*
X34010Y-38392D01*
X34086Y-38363D01*
X34239Y-38335D01*
X34429Y-38335D01*
X34581Y-38363D01*
X34658Y-38392D01*
X34696Y-38421D01*
X34734Y-38478D01*
X34734Y-38535D01*
X34696Y-38592D01*
X34658Y-38621D01*
X34581Y-38649D01*
X34429Y-38678D01*
X34239Y-38678D01*
X34086Y-38649D01*
X34010Y-38621D01*
X33972Y-38592D01*
X33934Y-38535D01*
X33934Y-37650D02*
X34086Y-37650D01*
X33934Y-37421D02*
X34086Y-37421D01*
X35050Y-43230D02*
X35050Y-35440D01*
X43580Y-43230D02*
X33770Y-43230D01*
X43580Y-35440D02*
X33770Y-35440D01*
X35050Y-35440D02*
X35280Y-35883D01*
X35050Y-35440D02*
X34820Y-35883D01*
X35050Y-43230D02*
X35280Y-42787D01*
X35050Y-43230D02*
X34820Y-42787D01*
X33934Y-48510D02*
X33934Y-48453D01*
X33972Y-48396D01*
X34010Y-48367D01*
X34086Y-48338D01*
X34239Y-48310D01*
X34429Y-48310D01*
X34581Y-48338D01*
X34658Y-48367D01*
X34696Y-48396D01*
X34734Y-48453D01*
X34734Y-48510D01*
X34696Y-48567D01*
X34658Y-48596D01*
X34581Y-48624D01*
X34429Y-48653D01*
X34239Y-48653D01*
X34086Y-48624D01*
X34010Y-48596D01*
X33972Y-48567D01*
X33934Y-48510D01*
X34658Y-48053D02*
X34696Y-48025D01*
X34734Y-48053D01*
X34696Y-48082D01*
X34658Y-48053D01*
X34734Y-48053D01*
X33934Y-47824D02*
X33934Y-47424D01*
X34734Y-47681D01*
X33934Y-47082D02*
X33934Y-47025D01*
X33972Y-46968D01*
X34010Y-46939D01*
X34086Y-46910D01*
X34239Y-46882D01*
X34429Y-46882D01*
X34581Y-46910D01*
X34658Y-46939D01*
X34696Y-46968D01*
X34734Y-47025D01*
X34734Y-47082D01*
X34696Y-47139D01*
X34658Y-47168D01*
X34581Y-47196D01*
X34429Y-47225D01*
X34239Y-47225D01*
X34086Y-47196D01*
X34010Y-47168D01*
X33972Y-47139D01*
X33934Y-47082D01*
X33934Y-46511D02*
X33934Y-46454D01*
X33972Y-46397D01*
X34010Y-46368D01*
X34086Y-46339D01*
X34239Y-46311D01*
X34429Y-46311D01*
X34581Y-46339D01*
X34658Y-46368D01*
X34696Y-46397D01*
X34734Y-46454D01*
X34734Y-46511D01*
X34696Y-46568D01*
X34658Y-46597D01*
X34581Y-46625D01*
X34429Y-46654D01*
X34239Y-46654D01*
X34086Y-46625D01*
X34010Y-46597D01*
X33972Y-46568D01*
X33934Y-46511D01*
X33934Y-45940D02*
X33934Y-45883D01*
X33972Y-45826D01*
X34010Y-45797D01*
X34086Y-45768D01*
X34239Y-45740D01*
X34429Y-45740D01*
X34581Y-45768D01*
X34658Y-45797D01*
X34696Y-45826D01*
X34734Y-45883D01*
X34734Y-45940D01*
X34696Y-45997D01*
X34658Y-46026D01*
X34581Y-46054D01*
X34429Y-46083D01*
X34239Y-46083D01*
X34086Y-46054D01*
X34010Y-46026D01*
X33972Y-45997D01*
X33934Y-45940D01*
X33934Y-45055D02*
X34086Y-45055D01*
X33934Y-44826D02*
X34086Y-44826D01*
X35050Y-50240D02*
X35050Y-43240D01*
X39460Y-50240D02*
X33770Y-50240D01*
X39460Y-43240D02*
X33770Y-43240D01*
X35050Y-43240D02*
X35280Y-43683D01*
X35050Y-43240D02*
X34820Y-43683D01*
X35050Y-50240D02*
X35280Y-49797D01*
X35050Y-50240D02*
X34820Y-49797D01*
X39745Y-24715D02*
X39802Y-24715D01*
X39859Y-24753D01*
X39888Y-24791D01*
X39917Y-24867D01*
X39945Y-25020D01*
X39945Y-25210D01*
X39917Y-25362D01*
X39888Y-25439D01*
X39859Y-25477D01*
X39802Y-25515D01*
X39745Y-25515D01*
X39688Y-25477D01*
X39659Y-25439D01*
X39631Y-25362D01*
X39602Y-25210D01*
X39602Y-25020D01*
X39631Y-24867D01*
X39659Y-24791D01*
X39688Y-24753D01*
X39745Y-24715D01*
X40202Y-25439D02*
X40230Y-25477D01*
X40202Y-25515D01*
X40173Y-25477D01*
X40202Y-25439D01*
X40202Y-25515D01*
X40745Y-24981D02*
X40745Y-25515D01*
X40602Y-24677D02*
X40459Y-25248D01*
X40831Y-25248D01*
X41373Y-25515D02*
X41030Y-25515D01*
X41202Y-25515D02*
X41202Y-24715D01*
X41145Y-24829D01*
X41087Y-24905D01*
X41030Y-24943D01*
X41573Y-24715D02*
X41944Y-24715D01*
X41744Y-25020D01*
X41830Y-25020D01*
X41887Y-25058D01*
X41916Y-25096D01*
X41944Y-25172D01*
X41944Y-25362D01*
X41916Y-25439D01*
X41887Y-25477D01*
X41830Y-25515D01*
X41658Y-25515D01*
X41601Y-25477D01*
X41573Y-25439D01*
X42315Y-24715D02*
X42372Y-24715D01*
X42429Y-24753D01*
X42458Y-24791D01*
X42487Y-24867D01*
X42515Y-25020D01*
X42515Y-25210D01*
X42487Y-25362D01*
X42458Y-25439D01*
X42429Y-25477D01*
X42372Y-25515D01*
X42315Y-25515D01*
X42258Y-25477D01*
X42229Y-25439D01*
X42201Y-25362D01*
X42172Y-25210D01*
X42172Y-25020D01*
X42201Y-24867D01*
X42229Y-24791D01*
X42258Y-24753D01*
X42315Y-24715D01*
X43200Y-24715D02*
X43200Y-24867D01*
X43429Y-24715D02*
X43429Y-24867D01*
X43580Y-25831D02*
X39450Y-25831D01*
X43580Y-43230D02*
X43580Y-24551D01*
X39450Y-43230D02*
X39450Y-24551D01*
X39450Y-25831D02*
X39893Y-25601D01*
X39450Y-25831D02*
X39893Y-26061D01*
X43580Y-25831D02*
X43137Y-25601D01*
X43580Y-25831D02*
X43137Y-26061D01*
X44040Y-24715D02*
X44097Y-24715D01*
X44154Y-24753D01*
X44183Y-24791D01*
X44212Y-24867D01*
X44240Y-25020D01*
X44240Y-25210D01*
X44212Y-25362D01*
X44183Y-25439D01*
X44154Y-25477D01*
X44097Y-25515D01*
X44040Y-25515D01*
X43983Y-25477D01*
X43954Y-25439D01*
X43926Y-25362D01*
X43897Y-25210D01*
X43897Y-25020D01*
X43926Y-24867D01*
X43954Y-24791D01*
X43983Y-24753D01*
X44040Y-24715D01*
X44497Y-25439D02*
X44525Y-25477D01*
X44497Y-25515D01*
X44468Y-25477D01*
X44497Y-25439D01*
X44497Y-25515D01*
X45040Y-24981D02*
X45040Y-25515D01*
X44897Y-24677D02*
X44754Y-25248D01*
X45126Y-25248D01*
X45611Y-24981D02*
X45611Y-25515D01*
X45468Y-24677D02*
X45325Y-25248D01*
X45697Y-25248D01*
X46182Y-24981D02*
X46182Y-25515D01*
X46039Y-24677D02*
X45896Y-25248D01*
X46268Y-25248D01*
X46610Y-24715D02*
X46667Y-24715D01*
X46724Y-24753D01*
X46753Y-24791D01*
X46782Y-24867D01*
X46810Y-25020D01*
X46810Y-25210D01*
X46782Y-25362D01*
X46753Y-25439D01*
X46724Y-25477D01*
X46667Y-25515D01*
X46610Y-25515D01*
X46553Y-25477D01*
X46524Y-25439D01*
X46496Y-25362D01*
X46467Y-25210D01*
X46467Y-25020D01*
X46496Y-24867D01*
X46524Y-24791D01*
X46553Y-24753D01*
X46610Y-24715D01*
X47495Y-24715D02*
X47495Y-24867D01*
X47724Y-24715D02*
X47724Y-24867D01*
X48030Y-25831D02*
X43590Y-25831D01*
X48030Y-35430D02*
X48030Y-24551D01*
X43590Y-35430D02*
X43590Y-24551D01*
X43590Y-25831D02*
X44033Y-25601D01*
X43590Y-25831D02*
X44033Y-26061D01*
X48030Y-25831D02*
X47587Y-25601D01*
X48030Y-25831D02*
X47587Y-26061D01*
X58567Y-24801D02*
X58596Y-24763D01*
X58653Y-24725D01*
X58796Y-24725D01*
X58853Y-24763D01*
X58882Y-24801D01*
X58910Y-24877D01*
X58910Y-24953D01*
X58882Y-25068D01*
X58539Y-25525D01*
X58910Y-25525D01*
X59167Y-25449D02*
X59195Y-25487D01*
X59167Y-25525D01*
X59138Y-25487D01*
X59167Y-25449D01*
X59167Y-25525D01*
X59710Y-24991D02*
X59710Y-25525D01*
X59567Y-24687D02*
X59424Y-25258D01*
X59796Y-25258D01*
X60110Y-25068D02*
X60052Y-25030D01*
X60024Y-24991D01*
X59995Y-24915D01*
X59995Y-24877D01*
X60024Y-24801D01*
X60052Y-24763D01*
X60110Y-24725D01*
X60224Y-24725D01*
X60281Y-24763D01*
X60310Y-24801D01*
X60338Y-24877D01*
X60338Y-24915D01*
X60310Y-24991D01*
X60281Y-25030D01*
X60224Y-25068D01*
X60110Y-25068D01*
X60052Y-25106D01*
X60024Y-25144D01*
X59995Y-25220D01*
X59995Y-25372D01*
X60024Y-25449D01*
X60052Y-25487D01*
X60110Y-25525D01*
X60224Y-25525D01*
X60281Y-25487D01*
X60310Y-25449D01*
X60338Y-25372D01*
X60338Y-25220D01*
X60310Y-25144D01*
X60281Y-25106D01*
X60224Y-25068D01*
X60681Y-25068D02*
X60623Y-25030D01*
X60595Y-24991D01*
X60566Y-24915D01*
X60566Y-24877D01*
X60595Y-24801D01*
X60623Y-24763D01*
X60681Y-24725D01*
X60795Y-24725D01*
X60852Y-24763D01*
X60881Y-24801D01*
X60909Y-24877D01*
X60909Y-24915D01*
X60881Y-24991D01*
X60852Y-25030D01*
X60795Y-25068D01*
X60681Y-25068D01*
X60623Y-25106D01*
X60595Y-25144D01*
X60566Y-25220D01*
X60566Y-25372D01*
X60595Y-25449D01*
X60623Y-25487D01*
X60681Y-25525D01*
X60795Y-25525D01*
X60852Y-25487D01*
X60881Y-25449D01*
X60909Y-25372D01*
X60909Y-25220D01*
X60881Y-25144D01*
X60852Y-25106D01*
X60795Y-25068D01*
X61280Y-24725D02*
X61337Y-24725D01*
X61394Y-24763D01*
X61423Y-24801D01*
X61452Y-24877D01*
X61480Y-25030D01*
X61480Y-25220D01*
X61452Y-25372D01*
X61423Y-25449D01*
X61394Y-25487D01*
X61337Y-25525D01*
X61280Y-25525D01*
X61223Y-25487D01*
X61194Y-25449D01*
X61166Y-25372D01*
X61137Y-25220D01*
X61137Y-25030D01*
X61166Y-24877D01*
X61194Y-24801D01*
X61223Y-24763D01*
X61280Y-24725D01*
X62165Y-24725D02*
X62165Y-24877D01*
X62394Y-24725D02*
X62394Y-24877D01*
X72920Y-25841D02*
X48040Y-25841D01*
X72920Y-28200D02*
X72920Y-24561D01*
X48040Y-28200D02*
X48040Y-24561D01*
X48040Y-25841D02*
X48483Y-25611D01*
X48040Y-25841D02*
X48483Y-26071D01*
X72920Y-25841D02*
X72477Y-25611D01*
X72920Y-25841D02*
X72477Y-26071D01*
X53233Y-51526D02*
X53290Y-51526D01*
X53347Y-51564D01*
X53376Y-51602D01*
X53405Y-51678D01*
X53432Y-51831D01*
X53432Y-52021D01*
X53404Y-52173D01*
X53375Y-52250D01*
X53346Y-52288D01*
X53288Y-52326D01*
X53231Y-52326D01*
X53175Y-52288D01*
X53146Y-52250D01*
X53118Y-52173D01*
X53089Y-52021D01*
X53089Y-51831D01*
X53119Y-51678D01*
X53147Y-51602D01*
X53176Y-51564D01*
X53233Y-51526D01*
X53689Y-52251D02*
X53717Y-52289D01*
X53688Y-52327D01*
X53660Y-52289D01*
X53689Y-52251D01*
X53688Y-52327D01*
X54232Y-51794D02*
X54231Y-52328D01*
X54090Y-51489D02*
X53946Y-52060D01*
X54318Y-52061D01*
X54804Y-51529D02*
X54690Y-51528D01*
X54633Y-51566D01*
X54604Y-51604D01*
X54546Y-51718D01*
X54517Y-51871D01*
X54517Y-52175D01*
X54546Y-52252D01*
X54574Y-52290D01*
X54631Y-52328D01*
X54745Y-52329D01*
X54803Y-52291D01*
X54832Y-52253D01*
X54860Y-52176D01*
X54860Y-51986D01*
X54832Y-51910D01*
X54803Y-51872D01*
X54746Y-51834D01*
X54632Y-51833D01*
X54574Y-51871D01*
X54546Y-51909D01*
X54517Y-51985D01*
X55061Y-51529D02*
X55461Y-51530D01*
X55202Y-52329D01*
X55803Y-51530D02*
X55860Y-51530D01*
X55917Y-51569D01*
X55946Y-51607D01*
X55975Y-51683D01*
X56002Y-51836D01*
X56002Y-52026D01*
X55974Y-52178D01*
X55945Y-52255D01*
X55915Y-52293D01*
X55858Y-52330D01*
X55801Y-52330D01*
X55744Y-52292D01*
X55716Y-52254D01*
X55688Y-52177D01*
X55659Y-52025D01*
X55659Y-51835D01*
X55689Y-51682D01*
X55717Y-51606D01*
X55746Y-51568D01*
X55803Y-51530D01*
X56688Y-51532D02*
X56688Y-51684D01*
X56917Y-51532D02*
X56917Y-51684D01*
X52668Y-51360D02*
X57338Y-51370D01*
X52670Y-50240D02*
X52666Y-52640D01*
X57340Y-50250D02*
X57336Y-52650D01*
X57338Y-51370D02*
X56895Y-51599D01*
X57338Y-51370D02*
X56895Y-51139D01*
X52668Y-51360D02*
X53111Y-51591D01*
X52668Y-51360D02*
X53111Y-51131D01*
X56338Y-45896D02*
X56338Y-45953D01*
X56300Y-46010D01*
X56262Y-46039D01*
X56186Y-46068D01*
X56033Y-46097D01*
X55843Y-46097D01*
X55691Y-46069D01*
X55614Y-46040D01*
X55576Y-46012D01*
X55538Y-45955D01*
X55538Y-45898D01*
X55576Y-45841D01*
X55614Y-45811D01*
X55691Y-45783D01*
X55843Y-45754D01*
X56033Y-45754D01*
X56186Y-45782D01*
X56262Y-45810D01*
X56300Y-45839D01*
X56338Y-45896D01*
X55615Y-46354D02*
X55577Y-46383D01*
X55539Y-46355D01*
X55577Y-46326D01*
X55615Y-46354D01*
X55539Y-46355D01*
X56340Y-46925D02*
X56339Y-46639D01*
X55958Y-46611D01*
X55996Y-46640D01*
X56034Y-46697D01*
X56035Y-46840D01*
X55997Y-46897D01*
X55959Y-46926D01*
X55883Y-46954D01*
X55693Y-46954D01*
X55616Y-46926D01*
X55578Y-46898D01*
X55540Y-46841D01*
X55539Y-46698D01*
X55577Y-46641D01*
X55615Y-46611D01*
X55541Y-47526D02*
X55540Y-47183D01*
X55540Y-47355D02*
X56340Y-47353D01*
X56226Y-47296D01*
X56150Y-47239D01*
X56112Y-47182D01*
X56342Y-48067D02*
X56341Y-47781D01*
X55960Y-47753D01*
X55998Y-47782D01*
X56036Y-47839D01*
X56037Y-47982D01*
X55999Y-48039D01*
X55961Y-48068D01*
X55885Y-48096D01*
X55695Y-48096D01*
X55618Y-48068D01*
X55580Y-48039D01*
X55542Y-47983D01*
X55541Y-47840D01*
X55579Y-47782D01*
X55617Y-47753D01*
X56342Y-48466D02*
X56342Y-48523D01*
X56305Y-48580D01*
X56267Y-48609D01*
X56191Y-48638D01*
X56038Y-48667D01*
X55848Y-48667D01*
X55696Y-48639D01*
X55619Y-48610D01*
X55581Y-48581D01*
X55542Y-48525D01*
X55542Y-48468D01*
X55580Y-48410D01*
X55618Y-48381D01*
X55695Y-48353D01*
X55847Y-48324D01*
X56037Y-48324D01*
X56190Y-48352D01*
X56266Y-48380D01*
X56304Y-48409D01*
X56342Y-48466D01*
X56344Y-49351D02*
X56192Y-49351D01*
X56344Y-49580D02*
X56192Y-49580D01*
X56510Y-50241D02*
X56500Y-45091D01*
X57330Y-50240D02*
X55230Y-50243D01*
X57320Y-45090D02*
X55220Y-45093D01*
X56500Y-45091D02*
X56731Y-45534D01*
X56500Y-45091D02*
X56270Y-45534D01*
X56510Y-50241D02*
X56740Y-49798D01*
X56510Y-50241D02*
X56279Y-49798D01*
X54249Y-53403D02*
X54620Y-53403D01*
X54420Y-53708D01*
X54506Y-53708D01*
X54563Y-53746D01*
X54592Y-53784D01*
X54620Y-53860D01*
X54620Y-54050D01*
X54592Y-54127D01*
X54563Y-54165D01*
X54506Y-54203D01*
X54334Y-54203D01*
X54277Y-54165D01*
X54249Y-54127D01*
X54877Y-54127D02*
X54905Y-54165D01*
X54877Y-54203D01*
X54848Y-54165D01*
X54877Y-54127D01*
X54877Y-54203D01*
X55106Y-53403D02*
X55477Y-53403D01*
X55277Y-53708D01*
X55363Y-53708D01*
X55420Y-53746D01*
X55449Y-53784D01*
X55477Y-53860D01*
X55477Y-54050D01*
X55449Y-54127D01*
X55420Y-54165D01*
X55363Y-54203D01*
X55191Y-54203D01*
X55134Y-54165D01*
X55106Y-54127D01*
X55991Y-53669D02*
X55991Y-54203D01*
X55848Y-53365D02*
X55705Y-53936D01*
X56077Y-53936D01*
X56562Y-53403D02*
X56448Y-53403D01*
X56391Y-53441D01*
X56362Y-53479D01*
X56305Y-53593D01*
X56276Y-53746D01*
X56276Y-54050D01*
X56305Y-54127D01*
X56333Y-54165D01*
X56391Y-54203D01*
X56505Y-54203D01*
X56562Y-54165D01*
X56591Y-54127D01*
X56619Y-54050D01*
X56619Y-53860D01*
X56591Y-53784D01*
X56562Y-53746D01*
X56505Y-53708D01*
X56391Y-53708D01*
X56333Y-53746D01*
X56305Y-53784D01*
X56276Y-53860D01*
X56990Y-53403D02*
X57047Y-53403D01*
X57104Y-53441D01*
X57133Y-53479D01*
X57162Y-53555D01*
X57190Y-53708D01*
X57190Y-53898D01*
X57162Y-54050D01*
X57133Y-54127D01*
X57104Y-54165D01*
X57047Y-54203D01*
X56990Y-54203D01*
X56933Y-54165D01*
X56904Y-54127D01*
X56876Y-54050D01*
X56847Y-53898D01*
X56847Y-53708D01*
X56876Y-53555D01*
X56904Y-53479D01*
X56933Y-53441D01*
X56990Y-53403D01*
X57875Y-53403D02*
X57875Y-53555D01*
X58104Y-53403D02*
X58104Y-53555D01*
X39460Y-53239D02*
X72920Y-53239D01*
X39460Y-50240D02*
X39460Y-54519D01*
X72920Y-50240D02*
X72920Y-54519D01*
X72920Y-53239D02*
X72477Y-53469D01*
X72920Y-53239D02*
X72477Y-53009D01*
X39460Y-53239D02*
X39903Y-53469D01*
X39460Y-53239D02*
X39903Y-53009D01*
X79339Y-37307D02*
X79377Y-37336D01*
X79415Y-37393D01*
X79415Y-37536D01*
X79377Y-37593D01*
X79339Y-37622D01*
X79263Y-37650D01*
X79187Y-37650D01*
X79072Y-37622D01*
X78615Y-37279D01*
X78615Y-37650D01*
X78691Y-37907D02*
X78653Y-37935D01*
X78615Y-37907D01*
X78653Y-37878D01*
X78691Y-37907D01*
X78615Y-37907D01*
X79339Y-38164D02*
X79377Y-38193D01*
X79415Y-38250D01*
X79415Y-38393D01*
X79377Y-38450D01*
X79339Y-38479D01*
X79263Y-38507D01*
X79187Y-38507D01*
X79072Y-38479D01*
X78615Y-38136D01*
X78615Y-38507D01*
X79415Y-38878D02*
X79415Y-38935D01*
X79377Y-38992D01*
X79339Y-39021D01*
X79263Y-39050D01*
X79110Y-39078D01*
X78920Y-39078D01*
X78768Y-39050D01*
X78691Y-39021D01*
X78653Y-38992D01*
X78615Y-38935D01*
X78615Y-38878D01*
X78653Y-38821D01*
X78691Y-38792D01*
X78768Y-38764D01*
X78920Y-38735D01*
X79110Y-38735D01*
X79263Y-38764D01*
X79339Y-38792D01*
X79377Y-38821D01*
X79415Y-38878D01*
X79149Y-39592D02*
X78615Y-39592D01*
X79453Y-39449D02*
X78882Y-39306D01*
X78882Y-39678D01*
X79415Y-40020D02*
X79415Y-40077D01*
X79377Y-40134D01*
X79339Y-40163D01*
X79263Y-40192D01*
X79110Y-40220D01*
X78920Y-40220D01*
X78768Y-40192D01*
X78691Y-40163D01*
X78653Y-40134D01*
X78615Y-40077D01*
X78615Y-40020D01*
X78653Y-39963D01*
X78691Y-39934D01*
X78768Y-39906D01*
X78920Y-39877D01*
X79110Y-39877D01*
X79263Y-39906D01*
X79339Y-39934D01*
X79377Y-39963D01*
X79415Y-40020D01*
X79415Y-40905D02*
X79263Y-40905D01*
X79415Y-41134D02*
X79263Y-41134D01*
X78299Y-28200D02*
X78299Y-50240D01*
X72920Y-28200D02*
X79579Y-28200D01*
X72920Y-50240D02*
X79579Y-50240D01*
X78299Y-50240D02*
X78069Y-49797D01*
X78299Y-50240D02*
X78529Y-49797D01*
X78299Y-28200D02*
X78069Y-28643D01*
X78299Y-28200D02*
X78529Y-28643D01*
M02*
