G04 (created by PCBNEW-RS274X (2012-01-19 BZR 3256)-stable) date 5/6/2556 16:26:55*
G01*
G70*
G90*
%MOIN*%
G04 Gerber Fmt 3.4, Leading zero omitted, Abs format*
%FSLAX34Y34*%
G04 APERTURE LIST*
%ADD10C,0.006000*%
%ADD11O,0.060000X0.065000*%
%ADD12C,0.150000*%
%ADD13C,0.138100*%
%ADD14O,0.060000X0.085000*%
%ADD15R,0.062900X0.070900*%
%ADD16O,0.085000X0.055000*%
%ADD17O,0.085000X0.060000*%
%ADD18O,0.095000X0.064000*%
%ADD19O,0.060000X0.090000*%
%ADD20O,0.100000X0.070000*%
%ADD21R,0.070900X0.062900*%
%ADD22R,0.010000X0.060000*%
%ADD23R,0.060000X0.010000*%
%ADD24O,0.055000X0.085000*%
%ADD25R,0.144000X0.080000*%
%ADD26R,0.040000X0.080000*%
%ADD27R,0.078700X0.019700*%
%ADD28R,0.078700X0.078700*%
%ADD29O,0.075000X0.060000*%
%ADD30R,0.045000X0.080000*%
%ADD31R,0.080000X0.060000*%
%ADD32R,0.055000X0.035000*%
%ADD33C,0.060000*%
%ADD34R,0.160000X0.080000*%
%ADD35R,0.070900X0.086600*%
%ADD36R,0.098400X0.047200*%
%ADD37R,0.060000X0.080000*%
%ADD38R,0.160000X0.060000*%
%ADD39R,0.053100X0.015700*%
%ADD40R,0.055100X0.063000*%
%ADD41R,0.074800X0.074800*%
%ADD42O,0.098400X0.059400*%
%ADD43O,0.098400X0.060000*%
%ADD44C,0.040000*%
%ADD45C,0.010000*%
%ADD46C,0.008000*%
%ADD47C,0.015000*%
%ADD48C,0.024000*%
G04 APERTURE END LIST*
G54D10*
G54D11*
X71949Y-48170D03*
X71949Y-49170D03*
X70949Y-48170D03*
X70949Y-49170D03*
X69949Y-48170D03*
X69949Y-49170D03*
X68949Y-48170D03*
X68949Y-49170D03*
X67949Y-48170D03*
X67949Y-49170D03*
X66949Y-48170D03*
X66949Y-49170D03*
X65949Y-48170D03*
X65949Y-49170D03*
X64949Y-48170D03*
X64949Y-49170D03*
X63949Y-48170D03*
X63949Y-49170D03*
X62949Y-48170D03*
X62949Y-49170D03*
X61949Y-48170D03*
X61949Y-49170D03*
X60949Y-48170D03*
X60949Y-49170D03*
X59949Y-48170D03*
X59949Y-49170D03*
G54D12*
X41402Y-45342D03*
G54D13*
X62898Y-35283D03*
G54D14*
X64943Y-36027D03*
X65943Y-36027D03*
X66943Y-36027D03*
X67943Y-36027D03*
G54D15*
X70841Y-44145D03*
X71959Y-44145D03*
G54D16*
X58246Y-48116D03*
X58246Y-46116D03*
G54D17*
X41678Y-48737D03*
X41678Y-47737D03*
G54D18*
X68016Y-32897D03*
X68016Y-34897D03*
X65016Y-32897D03*
X65016Y-34897D03*
G54D19*
X67210Y-30530D03*
X67210Y-31550D03*
X66410Y-30530D03*
X66410Y-31550D03*
X65610Y-30530D03*
X65610Y-31550D03*
G54D20*
X64410Y-31040D03*
X68410Y-31040D03*
G54D14*
X48186Y-45737D03*
X49186Y-45737D03*
X50186Y-45737D03*
X51186Y-45737D03*
G54D17*
X47064Y-48745D03*
X47064Y-47745D03*
G54D16*
X61914Y-43204D03*
X59914Y-43204D03*
G54D21*
X63018Y-30269D03*
X63018Y-29151D03*
X63815Y-30268D03*
X63815Y-29150D03*
G54D22*
X59743Y-37071D03*
X59548Y-37071D03*
X59353Y-37071D03*
X59153Y-37071D03*
X58958Y-37071D03*
X58763Y-37071D03*
X58563Y-37071D03*
X58368Y-37071D03*
X58173Y-37071D03*
X57973Y-37071D03*
X57778Y-37071D03*
X59743Y-41671D03*
X59548Y-41671D03*
X59353Y-41671D03*
X59153Y-41671D03*
X58958Y-41671D03*
X58763Y-41671D03*
X58563Y-41671D03*
X58368Y-41671D03*
X58173Y-41671D03*
X57973Y-41671D03*
X57778Y-41671D03*
G54D23*
X61553Y-37896D03*
X61553Y-38091D03*
X61553Y-38291D03*
X61553Y-38486D03*
X61553Y-38681D03*
X61553Y-38881D03*
X61553Y-39076D03*
X61553Y-39271D03*
X61553Y-39471D03*
X61553Y-39666D03*
X61553Y-39861D03*
X56953Y-39861D03*
X56953Y-39666D03*
X56953Y-39471D03*
X56953Y-39271D03*
X56953Y-39076D03*
X56953Y-38881D03*
X56953Y-38681D03*
X56953Y-38486D03*
X56953Y-38291D03*
X56953Y-38091D03*
X56953Y-37896D03*
X56953Y-40061D03*
X56953Y-40256D03*
X56953Y-40451D03*
X56953Y-40651D03*
X56953Y-40846D03*
X61553Y-40846D03*
X61553Y-40651D03*
X61553Y-40451D03*
X61553Y-40256D03*
X61553Y-40061D03*
G54D22*
X59943Y-41671D03*
X60138Y-41671D03*
X60333Y-41671D03*
X60533Y-41671D03*
X60728Y-41671D03*
X59943Y-37071D03*
X60138Y-37071D03*
X60333Y-37071D03*
X60533Y-37071D03*
X60728Y-37071D03*
G54D14*
X51538Y-29692D03*
X51538Y-30692D03*
X51538Y-31692D03*
X52538Y-29692D03*
X52538Y-30692D03*
X52538Y-31692D03*
G54D24*
X52423Y-36816D03*
X47423Y-36816D03*
X47423Y-39808D03*
X52423Y-39808D03*
X51423Y-39808D03*
X50423Y-39808D03*
X49423Y-39808D03*
X48423Y-39808D03*
X51423Y-36816D03*
X50423Y-36816D03*
X49423Y-36816D03*
X48423Y-36816D03*
G54D25*
X68880Y-43980D03*
G54D26*
X68880Y-41380D03*
X67980Y-41380D03*
X69780Y-41380D03*
G54D14*
X42804Y-44564D03*
X43804Y-44564D03*
X44804Y-44564D03*
X45804Y-44564D03*
X46804Y-44564D03*
X47804Y-44564D03*
X48804Y-44564D03*
X49804Y-44564D03*
X50804Y-44564D03*
X61538Y-31692D03*
X61538Y-30692D03*
X61538Y-29692D03*
X56538Y-31692D03*
X56538Y-30692D03*
X56538Y-29692D03*
X54538Y-31692D03*
X54538Y-30692D03*
X54538Y-29692D03*
X49538Y-31692D03*
X49538Y-30692D03*
X49538Y-29692D03*
G54D27*
X51763Y-35643D03*
X51764Y-35249D03*
X51764Y-34856D03*
X51764Y-34462D03*
X51764Y-34068D03*
X51764Y-33674D03*
X51764Y-33281D03*
X49401Y-35643D03*
X49401Y-35249D03*
X49401Y-34856D03*
X49401Y-34462D03*
X49401Y-34068D03*
X49401Y-33674D03*
X49401Y-33281D03*
X61471Y-35631D03*
X61472Y-35237D03*
X61472Y-34844D03*
X61472Y-34450D03*
X61472Y-34056D03*
X61472Y-33662D03*
X61472Y-33269D03*
X59109Y-35631D03*
X59109Y-35237D03*
X59109Y-34844D03*
X59109Y-34450D03*
X59109Y-34056D03*
X59109Y-33662D03*
X59109Y-33269D03*
G54D17*
X44237Y-41361D03*
X44237Y-42361D03*
X44237Y-43361D03*
G54D28*
X56580Y-32700D03*
X56580Y-35100D03*
G54D16*
X61914Y-44136D03*
X59914Y-44136D03*
G54D14*
X58538Y-29692D03*
X58538Y-30692D03*
X58538Y-31692D03*
X59538Y-29692D03*
X59538Y-30692D03*
X59538Y-31692D03*
G54D29*
X71950Y-43150D03*
X71950Y-42150D03*
X71950Y-41150D03*
X71950Y-40150D03*
X71950Y-39150D03*
X71950Y-38150D03*
X70950Y-43150D03*
X70950Y-42150D03*
X70950Y-41150D03*
X70950Y-40150D03*
X70950Y-39150D03*
G54D14*
X51186Y-47737D03*
G54D17*
X51186Y-48737D03*
G54D14*
X50186Y-47737D03*
X50186Y-48737D03*
X49186Y-47737D03*
X49186Y-48737D03*
X48186Y-47737D03*
X48186Y-48737D03*
X42800Y-45737D03*
X43800Y-45737D03*
X44800Y-45737D03*
X45800Y-45737D03*
X45800Y-47737D03*
X45800Y-48737D03*
X44800Y-47737D03*
X44800Y-48737D03*
X43800Y-47737D03*
X43800Y-48737D03*
X42800Y-47737D03*
X42800Y-48737D03*
G54D30*
X53412Y-33317D03*
X54112Y-33317D03*
X53762Y-34517D03*
X62344Y-32570D03*
X63044Y-32570D03*
X62694Y-33770D03*
G54D31*
X40627Y-48855D03*
X40627Y-47555D03*
G54D32*
X69950Y-37245D03*
X69950Y-36495D03*
X69940Y-35855D03*
X69940Y-35105D03*
X63770Y-34238D03*
X63770Y-33488D03*
X64407Y-34239D03*
X64407Y-33489D03*
G54D33*
X71875Y-34030D02*
X72025Y-34030D01*
X71875Y-35030D02*
X72025Y-35030D01*
X71875Y-36030D02*
X72025Y-36030D01*
X71875Y-37030D02*
X72025Y-37030D01*
G54D32*
X69952Y-34487D03*
X69952Y-33737D03*
G54D34*
X64526Y-40348D03*
X64526Y-42548D03*
G54D14*
X70944Y-29016D03*
X71944Y-29016D03*
G54D17*
X70930Y-38150D03*
X69930Y-38150D03*
G54D21*
X57540Y-28981D03*
X57540Y-30099D03*
X60537Y-28985D03*
X60537Y-30103D03*
G54D35*
X66836Y-43828D03*
X65256Y-43828D03*
X64410Y-43820D03*
X62830Y-43820D03*
G54D36*
X68660Y-38060D03*
X66160Y-38060D03*
G54D31*
X54943Y-33307D03*
X54943Y-34607D03*
G54D37*
X69614Y-40118D03*
X68314Y-40118D03*
G54D28*
X66416Y-40002D03*
X66416Y-42402D03*
G54D21*
X50540Y-28967D03*
X50540Y-30085D03*
X53543Y-28974D03*
X53543Y-30092D03*
G54D34*
X64530Y-39290D03*
G54D38*
X64530Y-37090D03*
G54D18*
X50976Y-41378D03*
X50976Y-43378D03*
X47976Y-41378D03*
X47976Y-43378D03*
G54D32*
X51909Y-42915D03*
X51909Y-43665D03*
G54D11*
X71951Y-45149D03*
X71951Y-46149D03*
X70951Y-45149D03*
X70951Y-46149D03*
X69951Y-45149D03*
X69951Y-46149D03*
X68951Y-45149D03*
X68951Y-46149D03*
X67951Y-45149D03*
X67951Y-46149D03*
X66951Y-45149D03*
X66951Y-46149D03*
X65951Y-45149D03*
X65951Y-46149D03*
X64951Y-45149D03*
X64951Y-46149D03*
X63951Y-45149D03*
X63951Y-46149D03*
X62951Y-45149D03*
X62951Y-46149D03*
X61951Y-45149D03*
X61951Y-46149D03*
X60951Y-45149D03*
X60951Y-46149D03*
X59951Y-45149D03*
X59951Y-46149D03*
G54D33*
X70878Y-34032D02*
X71028Y-34032D01*
X70878Y-35032D02*
X71028Y-35032D01*
X70878Y-36032D02*
X71028Y-36032D01*
X70878Y-37032D02*
X71028Y-37032D01*
G54D21*
X50540Y-31277D03*
X50540Y-32395D03*
X53543Y-31277D03*
X53543Y-32395D03*
X57540Y-31284D03*
X57540Y-32402D03*
X60534Y-31288D03*
X60534Y-32406D03*
G54D39*
X71050Y-31444D03*
X71050Y-31188D03*
X71050Y-31700D03*
X71050Y-31956D03*
X71050Y-30932D03*
G54D40*
X71090Y-32704D03*
X71090Y-30184D03*
G54D41*
X72192Y-31916D03*
X72192Y-30972D03*
G54D42*
X72192Y-32822D03*
G54D43*
X72192Y-30066D03*
G54D14*
X64944Y-29015D03*
X65944Y-29015D03*
X66944Y-29015D03*
X67944Y-29015D03*
X69944Y-29016D03*
X68944Y-29016D03*
G54D16*
X56183Y-42714D03*
X53383Y-42714D03*
G54D44*
X68964Y-39742D03*
X62684Y-39741D03*
X52605Y-42915D03*
X59153Y-38505D03*
X54941Y-33975D03*
X60926Y-40111D03*
X59265Y-39030D03*
X67118Y-42544D03*
X59703Y-40266D03*
X59160Y-40881D03*
X58149Y-44313D03*
X68880Y-42546D03*
X56637Y-44325D03*
X58152Y-42874D03*
X69207Y-32601D03*
X54102Y-35292D03*
X62184Y-33780D03*
X68667Y-37266D03*
X64101Y-37932D03*
X69206Y-33518D03*
X62609Y-31883D03*
X61554Y-36648D03*
X56640Y-36195D03*
X49532Y-32796D03*
X52668Y-35681D03*
X59316Y-36393D03*
X58830Y-36393D03*
X57129Y-36201D03*
X58314Y-33660D03*
X60660Y-38034D03*
X54634Y-35286D03*
X53715Y-36681D03*
X52668Y-33906D03*
X61554Y-36098D03*
X61638Y-32844D03*
X69909Y-33153D03*
X62290Y-39410D03*
X60375Y-35631D03*
X70353Y-30929D03*
X62430Y-29712D03*
X51032Y-33624D03*
X66628Y-37136D03*
X59577Y-42405D03*
X60462Y-44645D03*
X66441Y-34128D03*
X53382Y-44308D03*
X66420Y-40916D03*
X59716Y-38506D03*
X65351Y-38129D03*
X55776Y-39374D03*
X57408Y-35334D03*
X59716Y-37767D03*
X50199Y-35643D03*
X57798Y-40766D03*
X60736Y-33268D03*
X69780Y-42544D03*
X61128Y-43628D03*
X55782Y-34902D03*
X66459Y-39225D03*
X57661Y-39931D03*
X66417Y-41694D03*
X55756Y-33082D03*
X60847Y-36343D03*
X70106Y-31446D03*
X54537Y-40854D03*
X57417Y-46845D03*
X70998Y-33375D03*
X55056Y-40851D03*
X71534Y-33378D03*
X70353Y-31932D03*
X57416Y-47399D03*
X58763Y-39456D03*
X46192Y-43361D03*
X56259Y-41619D03*
X63762Y-44342D03*
X61128Y-44130D03*
X51233Y-32360D03*
X52668Y-34952D03*
X59853Y-34848D03*
X60341Y-34848D03*
X58049Y-39454D03*
X62637Y-42444D03*
X61396Y-42200D03*
X62446Y-41716D03*
X62868Y-41356D03*
X69462Y-29867D03*
X68450Y-29866D03*
X70194Y-44146D03*
X54642Y-39431D03*
X55182Y-35284D03*
X60660Y-39436D03*
X60660Y-38940D03*
X59703Y-39759D03*
X61553Y-41292D03*
X61553Y-37141D03*
X69206Y-34079D03*
X61205Y-32508D03*
X59855Y-33273D03*
X53542Y-30690D03*
X52668Y-33318D03*
X52668Y-32502D03*
X50540Y-30682D03*
X57542Y-30690D03*
X60536Y-30696D03*
X62874Y-38478D03*
X62289Y-40095D03*
X62640Y-43012D03*
X66084Y-44036D03*
X60288Y-36352D03*
X62902Y-36953D03*
X62906Y-37769D03*
X57369Y-42279D03*
X60105Y-40692D03*
X54033Y-43176D03*
X57370Y-41546D03*
X67928Y-46991D03*
X67587Y-43596D03*
X61131Y-43089D03*
X69903Y-32594D03*
X52671Y-34395D03*
X64098Y-36126D03*
X62181Y-34439D03*
X55936Y-34394D03*
G54D45*
X59153Y-38460D02*
X59153Y-38505D01*
G54D46*
X59153Y-38654D02*
X59265Y-38766D01*
G54D45*
X59740Y-40303D02*
X59703Y-40266D01*
X59740Y-41072D02*
X59545Y-41267D01*
G54D47*
X40966Y-48237D02*
X40627Y-47898D01*
G54D45*
X54941Y-34605D02*
X54943Y-34607D01*
X61553Y-39861D02*
X61934Y-39861D01*
G54D46*
X67118Y-42544D02*
X67118Y-42383D01*
G54D45*
X58915Y-41126D02*
X59160Y-40881D01*
G54D46*
X66975Y-41979D02*
X66975Y-40561D01*
G54D47*
X70215Y-38435D02*
X69930Y-38150D01*
G54D45*
X58152Y-42382D02*
X57973Y-42203D01*
G54D47*
X69432Y-34487D02*
X69952Y-34487D01*
G54D45*
X57973Y-42203D02*
X58152Y-42382D01*
G54D47*
X40627Y-47898D02*
X40627Y-47555D01*
G54D45*
X58152Y-42874D02*
X58152Y-42382D01*
G54D47*
X70215Y-39060D02*
X70215Y-39722D01*
G54D45*
X57973Y-41239D02*
X58100Y-41112D01*
G54D47*
X70215Y-39722D02*
X70215Y-41415D01*
X69201Y-34794D02*
X69201Y-34718D01*
G54D45*
X58353Y-41126D02*
X58915Y-41126D01*
G54D47*
X69984Y-39414D02*
X70215Y-39645D01*
G54D46*
X66975Y-40561D02*
X66416Y-40002D01*
G54D47*
X47670Y-47221D02*
X48186Y-47737D01*
G54D45*
X61934Y-39861D02*
X62054Y-39741D01*
X43530Y-43917D02*
X44183Y-43917D01*
G54D47*
X68964Y-39742D02*
X68964Y-39558D01*
G54D45*
X61176Y-39861D02*
X61553Y-39861D01*
G54D47*
X42324Y-48237D02*
X40966Y-48237D01*
G54D46*
X59153Y-38460D02*
X59153Y-38654D01*
X44856Y-42300D02*
X44856Y-42430D01*
G54D45*
X44856Y-42430D02*
X44856Y-43629D01*
X57973Y-42203D02*
X57973Y-41671D01*
G54D48*
X40249Y-47555D02*
X39981Y-47287D01*
G54D45*
X59153Y-37770D02*
X59153Y-38460D01*
X61176Y-39861D02*
X60926Y-40111D01*
X59545Y-41267D02*
X59548Y-41267D01*
X59740Y-40814D02*
X59740Y-41072D01*
G54D47*
X45800Y-47737D02*
X45800Y-47608D01*
G54D48*
X40627Y-47555D02*
X40249Y-47555D01*
X40410Y-44079D02*
X42319Y-44079D01*
G54D46*
X59265Y-38766D02*
X59265Y-39030D01*
G54D47*
X56637Y-44325D02*
X58137Y-44325D01*
G54D45*
X58929Y-41112D02*
X59160Y-40881D01*
X59153Y-37071D02*
X59153Y-37770D01*
G54D46*
X44237Y-41361D02*
X44744Y-41361D01*
X44856Y-42300D02*
X44856Y-41473D01*
G54D47*
X70215Y-41415D02*
X70950Y-42150D01*
X69201Y-34718D02*
X69432Y-34487D01*
G54D45*
X58929Y-41112D02*
X59160Y-40881D01*
X44856Y-43629D02*
X44667Y-43818D01*
X58100Y-41112D02*
X58929Y-41112D01*
G54D47*
X70215Y-39060D02*
X70215Y-38435D01*
X69201Y-34794D02*
X69201Y-37421D01*
X69201Y-37421D02*
X69930Y-38150D01*
G54D45*
X54943Y-33973D02*
X54941Y-33975D01*
X57973Y-41671D02*
X57973Y-41239D01*
X44183Y-43917D02*
X44282Y-43818D01*
G54D46*
X44856Y-41473D02*
X44744Y-41361D01*
X66975Y-42240D02*
X66975Y-41979D01*
G54D47*
X70215Y-39722D02*
X70215Y-39645D01*
X68964Y-39558D02*
X69108Y-39414D01*
G54D45*
X54941Y-33975D02*
X54941Y-34605D01*
G54D47*
X68880Y-41380D02*
X68880Y-42546D01*
G54D45*
X57778Y-41671D02*
X57973Y-41671D01*
X51909Y-42915D02*
X52605Y-42915D01*
X59740Y-40814D02*
X59740Y-40303D01*
G54D47*
X58137Y-44325D02*
X58149Y-44313D01*
G54D45*
X57973Y-41239D02*
X58086Y-41126D01*
G54D47*
X42800Y-47737D02*
X42800Y-47761D01*
G54D45*
X62054Y-39741D02*
X62684Y-39741D01*
X44667Y-43818D02*
X44282Y-43818D01*
X42481Y-43917D02*
X42319Y-44079D01*
X43530Y-43917D02*
X42481Y-43917D01*
G54D47*
X46187Y-47221D02*
X47670Y-47221D01*
G54D48*
X39981Y-47287D02*
X39981Y-44508D01*
G54D47*
X42800Y-47761D02*
X42324Y-48237D01*
G54D45*
X59548Y-41671D02*
X59548Y-41267D01*
X57973Y-41671D02*
X57973Y-42203D01*
G54D47*
X69108Y-39414D02*
X69984Y-39414D01*
G54D46*
X67118Y-42383D02*
X66975Y-42240D01*
G54D45*
X58086Y-41126D02*
X58353Y-41126D01*
G54D48*
X39981Y-44508D02*
X40410Y-44079D01*
G54D45*
X58100Y-41112D02*
X58929Y-41112D01*
X57973Y-41239D02*
X58100Y-41112D01*
G54D48*
X42319Y-44079D02*
X42804Y-44564D01*
G54D47*
X45800Y-47608D02*
X46187Y-47221D01*
G54D48*
X68660Y-38776D02*
X68660Y-38060D01*
G54D47*
X68963Y-33525D02*
X68802Y-33686D01*
G54D48*
X64101Y-38861D02*
X64530Y-39290D01*
G54D47*
X68667Y-38053D02*
X68660Y-38060D01*
X62194Y-33770D02*
X62184Y-33780D01*
G54D48*
X68314Y-39122D02*
X68660Y-38776D01*
X68314Y-40118D02*
X68314Y-39122D01*
X64530Y-40344D02*
X64526Y-40348D01*
X64101Y-37932D02*
X64101Y-38861D01*
X68314Y-40118D02*
X68314Y-40312D01*
G54D47*
X68667Y-37266D02*
X68667Y-38053D01*
X68667Y-37266D02*
X68667Y-35850D01*
X62694Y-33770D02*
X62194Y-33770D01*
G54D46*
X53762Y-34952D02*
X54102Y-35292D01*
G54D47*
X69207Y-32601D02*
X69207Y-33525D01*
X69207Y-33525D02*
X69207Y-33517D01*
G54D48*
X68314Y-40312D02*
X67980Y-40646D01*
X67980Y-40646D02*
X67980Y-41380D01*
G54D47*
X69207Y-33525D02*
X68963Y-33525D01*
X68802Y-33686D02*
X68802Y-35715D01*
X68802Y-35715D02*
X68667Y-35850D01*
G54D48*
X64530Y-39290D02*
X64530Y-40344D01*
G54D46*
X53762Y-34517D02*
X53762Y-34952D01*
G54D47*
X69207Y-33517D02*
X69206Y-33518D01*
G54D46*
X62226Y-36781D02*
X62093Y-36648D01*
X62048Y-38091D02*
X62226Y-37913D01*
X62226Y-37913D02*
X62226Y-36781D01*
X61553Y-38091D02*
X62048Y-38091D01*
X63044Y-32030D02*
X63044Y-32570D01*
X62897Y-31883D02*
X63044Y-32030D01*
X62053Y-38091D02*
X61553Y-38091D01*
X62053Y-38091D02*
X61553Y-38091D01*
X62093Y-36648D02*
X61554Y-36648D01*
X62609Y-31883D02*
X62897Y-31883D01*
X52669Y-35682D02*
X52668Y-35681D01*
X48785Y-33552D02*
X48785Y-32890D01*
X49401Y-33674D02*
X48907Y-33674D01*
G54D45*
X59548Y-36625D02*
X59316Y-36393D01*
X59548Y-36625D02*
X59548Y-37071D01*
G54D46*
X53560Y-36072D02*
X54023Y-36072D01*
X48785Y-32890D02*
X48879Y-32796D01*
X52669Y-35682D02*
X53170Y-35682D01*
X53560Y-36072D02*
X53170Y-35682D01*
X56640Y-36195D02*
X54146Y-36195D01*
X48879Y-32796D02*
X49532Y-32796D01*
X48907Y-33674D02*
X48785Y-33552D01*
X54146Y-36195D02*
X54023Y-36072D01*
X53565Y-36077D02*
X53560Y-36072D01*
X52890Y-36069D02*
X48910Y-36069D01*
X48582Y-35411D02*
X48582Y-35923D01*
X54041Y-36344D02*
X54228Y-36531D01*
G54D45*
X58958Y-37071D02*
X58958Y-36521D01*
G54D46*
X48582Y-35923D02*
X48728Y-36069D01*
X54228Y-36531D02*
X54228Y-36528D01*
G54D45*
X58958Y-36521D02*
X58830Y-36393D01*
G54D46*
X56910Y-36531D02*
X56390Y-36531D01*
X53595Y-36344D02*
X54041Y-36344D01*
X57042Y-36531D02*
X56910Y-36531D01*
X54228Y-36528D02*
X54225Y-36531D01*
X48744Y-35249D02*
X48582Y-35411D01*
X48744Y-35249D02*
X49401Y-35249D01*
X53165Y-36344D02*
X52890Y-36069D01*
X56910Y-36531D02*
X54225Y-36531D01*
X57129Y-36201D02*
X57129Y-36444D01*
X57129Y-36444D02*
X57042Y-36531D01*
X53595Y-36344D02*
X53165Y-36344D01*
X48728Y-36069D02*
X48910Y-36069D01*
X60761Y-38486D02*
X60660Y-38385D01*
G54D47*
X58316Y-33662D02*
X59109Y-33662D01*
X58316Y-33662D02*
X58314Y-33660D01*
G54D46*
X61553Y-38486D02*
X60761Y-38486D01*
X60660Y-38385D02*
X60660Y-38034D01*
X62020Y-35368D02*
X61889Y-35237D01*
X61889Y-35237D02*
X61472Y-35237D01*
X62550Y-38634D02*
X62550Y-36262D01*
X62020Y-35666D02*
X62020Y-35368D01*
X62550Y-36196D02*
X62020Y-35666D01*
X61553Y-38881D02*
X62303Y-38881D01*
X62303Y-38881D02*
X62550Y-38634D01*
X62550Y-36262D02*
X62550Y-36196D01*
X56953Y-39271D02*
X56405Y-39271D01*
X56186Y-39052D02*
X51628Y-39052D01*
X51628Y-39052D02*
X51423Y-39257D01*
X51423Y-39257D02*
X51423Y-39808D01*
X56405Y-39271D02*
X56186Y-39052D01*
G54D45*
X47787Y-38293D02*
X47423Y-38657D01*
X56017Y-38291D02*
X56015Y-38293D01*
X47423Y-38657D02*
X47423Y-39808D01*
X56015Y-38293D02*
X47787Y-38293D01*
X56953Y-38291D02*
X56017Y-38291D01*
G54D46*
X50892Y-37686D02*
X50914Y-37686D01*
X49423Y-37338D02*
X49771Y-37686D01*
X49771Y-37686D02*
X50800Y-37686D01*
X58368Y-37500D02*
X58368Y-37071D01*
X58182Y-37686D02*
X58368Y-37500D01*
X49423Y-36816D02*
X49423Y-37338D01*
X50800Y-37686D02*
X50892Y-37686D01*
X50800Y-37686D02*
X58182Y-37686D01*
X57973Y-37071D02*
X57973Y-36652D01*
X51423Y-36816D02*
X51423Y-36507D01*
X57588Y-36570D02*
X57141Y-37017D01*
X56714Y-37017D02*
X53357Y-37017D01*
X51423Y-36507D02*
X51672Y-36258D01*
X51672Y-36258D02*
X52598Y-36258D01*
X53357Y-37017D02*
X52598Y-36258D01*
X52598Y-36258D02*
X53346Y-37006D01*
X57891Y-36570D02*
X57588Y-36570D01*
X56714Y-37017D02*
X56580Y-37017D01*
X57141Y-37017D02*
X56714Y-37017D01*
X57973Y-36652D02*
X57891Y-36570D01*
X52476Y-39861D02*
X52423Y-39808D01*
X56953Y-39861D02*
X52476Y-39861D01*
G54D45*
X49423Y-39107D02*
X49423Y-39808D01*
X56027Y-38681D02*
X49849Y-38681D01*
X56953Y-38681D02*
X56027Y-38681D01*
X49849Y-38681D02*
X49423Y-39107D01*
X56120Y-38486D02*
X48864Y-38486D01*
X56120Y-38486D02*
X56085Y-38486D01*
X48864Y-38486D02*
X48423Y-38927D01*
X56085Y-38486D02*
X56084Y-38487D01*
X56953Y-38486D02*
X56120Y-38486D01*
X48423Y-38927D02*
X48423Y-39808D01*
X55981Y-38091D02*
X47731Y-38091D01*
X47731Y-38091D02*
X47423Y-37783D01*
X55981Y-38091D02*
X55979Y-38089D01*
X55981Y-38091D02*
X55981Y-38091D01*
X47423Y-37783D02*
X47423Y-36816D01*
X56953Y-38091D02*
X55981Y-38091D01*
G54D46*
X58173Y-37437D02*
X58085Y-37525D01*
X50655Y-37465D02*
X56978Y-37465D01*
X50423Y-36816D02*
X50423Y-37233D01*
X50423Y-37233D02*
X50655Y-37465D01*
X58085Y-37525D02*
X57758Y-37525D01*
X56978Y-37465D02*
X57038Y-37525D01*
X57038Y-37525D02*
X57758Y-37525D01*
X58173Y-37071D02*
X58173Y-37437D01*
G54D45*
X52817Y-37237D02*
X57612Y-37237D01*
X52423Y-36816D02*
X52423Y-36843D01*
X52423Y-36843D02*
X52817Y-37237D01*
X57612Y-37237D02*
X57778Y-37071D01*
G54D46*
X50423Y-39157D02*
X50423Y-39808D01*
X50699Y-38881D02*
X50423Y-39157D01*
X55983Y-38881D02*
X50699Y-38881D01*
X56953Y-38881D02*
X55983Y-38881D01*
G54D45*
X48423Y-37623D02*
X48423Y-36816D01*
X56953Y-37896D02*
X55976Y-37896D01*
X55973Y-37896D02*
X55972Y-37897D01*
X55976Y-37896D02*
X55973Y-37896D01*
X48696Y-37896D02*
X48423Y-37623D01*
X55976Y-37896D02*
X48696Y-37896D01*
G54D46*
X57504Y-36408D02*
X57156Y-36756D01*
G54D45*
X54257Y-34912D02*
X54257Y-33462D01*
G54D46*
X56574Y-36756D02*
X53790Y-36756D01*
X58563Y-37071D02*
X58563Y-36645D01*
X56574Y-36756D02*
X56376Y-36756D01*
X58563Y-36645D02*
X58326Y-36408D01*
X58326Y-36408D02*
X57510Y-36408D01*
X53790Y-36756D02*
X53715Y-36681D01*
G54D45*
X54631Y-35286D02*
X54257Y-34912D01*
X54257Y-33462D02*
X54112Y-33317D01*
X54634Y-35286D02*
X54631Y-35286D01*
G54D46*
X57156Y-36756D02*
X56574Y-36756D01*
X54222Y-33427D02*
X54112Y-33317D01*
X54222Y-33427D02*
X54112Y-33317D01*
X57510Y-36408D02*
X57504Y-36408D01*
X59202Y-35864D02*
X57968Y-35864D01*
X53996Y-35685D02*
X53150Y-34839D01*
X59943Y-36125D02*
X59682Y-35864D01*
X59943Y-37071D02*
X59943Y-36125D01*
X59682Y-35864D02*
X59202Y-35864D01*
X57176Y-35685D02*
X53996Y-35685D01*
X57968Y-35864D02*
X57789Y-35685D01*
X57789Y-35685D02*
X57176Y-35685D01*
X57176Y-35685D02*
X57132Y-35685D01*
X59202Y-35864D02*
X59139Y-35864D01*
X53031Y-33906D02*
X53150Y-34025D01*
X53971Y-35660D02*
X53150Y-34839D01*
G54D45*
X51764Y-33674D02*
X52436Y-33674D01*
G54D46*
X52668Y-33906D02*
X53031Y-33906D01*
G54D45*
X52436Y-33674D02*
X52668Y-33906D01*
G54D46*
X53150Y-34025D02*
X53150Y-34839D01*
X59315Y-36048D02*
X57770Y-36048D01*
X57150Y-35872D02*
X56680Y-35872D01*
X53820Y-35872D02*
X53269Y-35321D01*
X57594Y-35872D02*
X57150Y-35872D01*
X53807Y-35859D02*
X53269Y-35321D01*
X57150Y-35872D02*
X53820Y-35872D01*
X52403Y-35249D02*
X52475Y-35321D01*
X59498Y-36048D02*
X59315Y-36048D01*
X52475Y-35321D02*
X53269Y-35321D01*
X59743Y-37071D02*
X59743Y-36293D01*
X51764Y-35249D02*
X52403Y-35249D01*
X59743Y-36293D02*
X59498Y-36048D01*
X59315Y-36048D02*
X59172Y-36048D01*
X57770Y-36048D02*
X57594Y-35872D01*
X59691Y-35237D02*
X60698Y-35237D01*
X60843Y-35382D02*
X60843Y-35853D01*
X61226Y-36459D02*
X61226Y-36819D01*
X61062Y-36983D02*
X61226Y-36819D01*
X60698Y-35237D02*
X60843Y-35382D01*
X61226Y-36459D02*
X61226Y-36098D01*
X61062Y-38157D02*
X61062Y-36983D01*
X61095Y-35967D02*
X60957Y-35967D01*
X61196Y-38291D02*
X61062Y-38157D01*
X60843Y-35853D02*
X60957Y-35967D01*
X61226Y-36098D02*
X61095Y-35967D01*
X61553Y-38291D02*
X61196Y-38291D01*
X59109Y-35237D02*
X59691Y-35237D01*
G54D45*
X61554Y-36098D02*
X61885Y-36098D01*
G54D46*
X62176Y-38681D02*
X62388Y-38469D01*
X61553Y-38681D02*
X62176Y-38681D01*
X62098Y-36098D02*
X61554Y-36098D01*
X62388Y-38469D02*
X62388Y-36388D01*
G54D45*
X61602Y-32880D02*
X61638Y-32844D01*
G54D46*
X60414Y-33057D02*
X60591Y-32880D01*
X62388Y-36388D02*
X62098Y-36098D01*
G54D47*
X61554Y-31708D02*
X61538Y-31692D01*
G54D46*
X61472Y-33662D02*
X60533Y-33662D01*
X60414Y-33543D02*
X60414Y-33057D01*
X60768Y-32880D02*
X61602Y-32880D01*
G54D47*
X61554Y-31708D02*
X61538Y-31692D01*
G54D46*
X60533Y-33662D02*
X60414Y-33543D01*
X60591Y-32880D02*
X60768Y-32880D01*
X60533Y-33662D02*
X60414Y-33543D01*
G54D45*
X43191Y-45150D02*
X44136Y-45150D01*
X46221Y-40420D02*
X45449Y-40420D01*
X52242Y-40420D02*
X52731Y-40420D01*
X42800Y-45737D02*
X42800Y-45541D01*
X45449Y-40420D02*
X45153Y-40716D01*
X44136Y-45150D02*
X44307Y-44979D01*
X45153Y-43278D02*
X45153Y-43866D01*
X44307Y-44979D02*
X44307Y-44169D01*
X56953Y-40061D02*
X55838Y-40061D01*
X52731Y-40420D02*
X53090Y-40061D01*
X55838Y-40061D02*
X53090Y-40061D01*
X42800Y-45541D02*
X43191Y-45150D01*
X44469Y-44007D02*
X44307Y-44169D01*
X45012Y-44007D02*
X44469Y-44007D01*
X45153Y-40716D02*
X45153Y-43278D01*
X52242Y-40420D02*
X46221Y-40420D01*
X45153Y-43866D02*
X45012Y-44007D01*
X53530Y-40256D02*
X53354Y-40432D01*
X45780Y-40614D02*
X45500Y-40894D01*
X55963Y-40256D02*
X56953Y-40256D01*
X44995Y-44564D02*
X44804Y-44564D01*
X46928Y-40614D02*
X45780Y-40614D01*
X53172Y-40614D02*
X53354Y-40432D01*
X45500Y-44059D02*
X44995Y-44564D01*
X45500Y-40894D02*
X45500Y-43572D01*
X46928Y-40614D02*
X53172Y-40614D01*
X45500Y-43572D02*
X45500Y-44059D01*
X55963Y-40256D02*
X53530Y-40256D01*
X54570Y-41190D02*
X53592Y-41190D01*
X53589Y-41190D02*
X53523Y-41190D01*
X45804Y-43078D02*
X45804Y-41680D01*
X51715Y-40846D02*
X46006Y-40846D01*
X53523Y-41190D02*
X53179Y-40846D01*
X45804Y-41048D02*
X45804Y-41680D01*
X56807Y-41190D02*
X54570Y-41190D01*
X56953Y-41044D02*
X56807Y-41190D01*
X45804Y-43078D02*
X45804Y-44564D01*
X56953Y-40846D02*
X56953Y-41044D01*
X54570Y-41190D02*
X53589Y-41190D01*
X46006Y-40846D02*
X45804Y-41048D01*
X53179Y-40846D02*
X51715Y-40846D01*
X58563Y-42737D02*
X58563Y-42980D01*
X46804Y-44564D02*
X46804Y-42481D01*
X52090Y-41840D02*
X53101Y-41840D01*
X51797Y-42133D02*
X52090Y-41840D01*
X55748Y-43232D02*
X55494Y-42978D01*
X58563Y-42737D02*
X58563Y-41671D01*
X46804Y-42481D02*
X47152Y-42133D01*
X55494Y-42978D02*
X55494Y-42348D01*
X58311Y-43232D02*
X55748Y-43232D01*
X53101Y-41840D02*
X55374Y-41840D01*
X47152Y-42133D02*
X51561Y-42133D01*
X55494Y-41960D02*
X55494Y-42348D01*
X55374Y-41840D02*
X55494Y-41960D01*
X58563Y-42980D02*
X58311Y-43232D01*
X51561Y-42133D02*
X51797Y-42133D01*
X58763Y-43131D02*
X58480Y-43414D01*
X48304Y-45174D02*
X48304Y-44009D01*
X58480Y-43414D02*
X55587Y-43414D01*
X48186Y-45737D02*
X48186Y-45292D01*
X55058Y-42062D02*
X55230Y-42234D01*
X48730Y-42670D02*
X48730Y-43583D01*
X55230Y-43057D02*
X55230Y-42690D01*
X49020Y-42380D02*
X48730Y-42670D01*
X51594Y-42380D02*
X52012Y-42380D01*
X51594Y-42380D02*
X49020Y-42380D01*
X52012Y-42380D02*
X52330Y-42062D01*
X58763Y-42890D02*
X58763Y-43131D01*
X52330Y-42062D02*
X55058Y-42062D01*
X55230Y-42234D02*
X55230Y-42690D01*
X48186Y-45292D02*
X48304Y-45174D01*
X55587Y-43414D02*
X55230Y-43057D01*
X48304Y-44009D02*
X48730Y-43583D01*
X58763Y-42890D02*
X58763Y-41671D01*
G54D46*
X54740Y-42759D02*
X54740Y-42513D01*
G54D45*
X48804Y-44564D02*
X48804Y-44499D01*
X54740Y-43253D02*
X54740Y-42840D01*
G54D46*
X54740Y-42513D02*
X54461Y-42234D01*
G54D45*
X54740Y-42759D02*
X54740Y-42840D01*
G54D46*
X49461Y-42555D02*
X49196Y-42820D01*
G54D45*
X49196Y-44107D02*
X49196Y-42820D01*
G54D46*
X53019Y-42234D02*
X52569Y-42234D01*
G54D45*
X48804Y-44499D02*
X49196Y-44107D01*
G54D46*
X54461Y-42234D02*
X53019Y-42234D01*
G54D45*
X58958Y-42917D02*
X58958Y-43242D01*
X58958Y-42917D02*
X58958Y-41671D01*
X58604Y-43596D02*
X55083Y-43596D01*
X55083Y-43596D02*
X54740Y-43253D01*
X58958Y-43242D02*
X58604Y-43596D01*
G54D46*
X52248Y-42555D02*
X49461Y-42555D01*
X52569Y-42234D02*
X52248Y-42555D01*
G54D45*
X50804Y-44564D02*
X50804Y-44539D01*
X59334Y-43224D02*
X59334Y-43020D01*
X59334Y-43290D02*
X59334Y-43224D01*
X59956Y-42277D02*
X59956Y-42644D01*
X55143Y-43960D02*
X52939Y-43960D01*
X59956Y-42644D02*
X59835Y-42765D01*
X59743Y-41671D02*
X59743Y-41985D01*
X51614Y-44190D02*
X52709Y-44190D01*
X59109Y-43960D02*
X55143Y-43960D01*
X52939Y-43960D02*
X52709Y-44190D01*
X59835Y-42765D02*
X59589Y-42765D01*
X59743Y-41985D02*
X59743Y-42064D01*
X59743Y-42064D02*
X59956Y-42277D01*
X59334Y-43290D02*
X59334Y-43735D01*
X51153Y-44190D02*
X51614Y-44190D01*
X50804Y-44539D02*
X51153Y-44190D01*
X59334Y-43735D02*
X59109Y-43960D01*
X59334Y-43020D02*
X59589Y-42765D01*
X49804Y-44347D02*
X50162Y-43989D01*
X59153Y-43137D02*
X59153Y-41671D01*
X58867Y-43778D02*
X55412Y-43778D01*
X49804Y-44564D02*
X49804Y-44347D01*
X50162Y-43989D02*
X52512Y-43989D01*
X52723Y-43778D02*
X52512Y-43989D01*
X59153Y-43492D02*
X58867Y-43778D01*
X59153Y-43137D02*
X59153Y-43492D01*
X55412Y-43778D02*
X52723Y-43778D01*
X64440Y-45540D02*
X64440Y-46440D01*
X63949Y-46931D02*
X64440Y-46440D01*
X64049Y-45149D02*
X64440Y-45540D01*
X63949Y-48170D02*
X63949Y-46931D01*
X63951Y-45149D02*
X64049Y-45149D01*
X59353Y-37457D02*
X59663Y-37767D01*
G54D47*
X62430Y-29712D02*
X62922Y-29712D01*
G54D48*
X69614Y-40118D02*
X69614Y-41214D01*
G54D47*
X66440Y-33226D02*
X66769Y-32897D01*
G54D46*
X55782Y-34902D02*
X55782Y-34897D01*
G54D45*
X51211Y-33281D02*
X51764Y-33281D01*
G54D47*
X63018Y-29151D02*
X63815Y-29150D01*
X66420Y-40916D02*
X66432Y-40914D01*
G54D45*
X67756Y-44156D02*
X67164Y-44156D01*
X59353Y-42181D02*
X59577Y-42405D01*
X67930Y-43982D02*
X67756Y-44156D01*
X59448Y-42276D02*
X59353Y-42181D01*
G54D47*
X55782Y-33108D02*
X55756Y-33082D01*
X45800Y-48737D02*
X45800Y-48658D01*
G54D45*
X59353Y-42023D02*
X59353Y-42181D01*
G54D47*
X52608Y-44532D02*
X52884Y-44532D01*
X52884Y-44532D02*
X53108Y-44308D01*
G54D45*
X60411Y-44594D02*
X60462Y-44645D01*
X59353Y-42023D02*
X59353Y-41671D01*
X69951Y-46459D02*
X69440Y-46970D01*
G54D47*
X46213Y-48245D02*
X47694Y-48245D01*
G54D45*
X59540Y-41013D02*
X59353Y-41200D01*
G54D47*
X58598Y-35631D02*
X58301Y-35334D01*
G54D45*
X67442Y-42084D02*
X67784Y-42426D01*
G54D48*
X69614Y-41214D02*
X69780Y-41380D01*
G54D46*
X59577Y-42405D02*
X59448Y-42276D01*
X67442Y-42084D02*
X67784Y-42426D01*
G54D45*
X58532Y-44699D02*
X58743Y-44699D01*
G54D47*
X55782Y-33108D02*
X55756Y-33082D01*
X52348Y-44532D02*
X51975Y-44905D01*
X66628Y-37136D02*
X66628Y-37592D01*
G54D45*
X58848Y-44594D02*
X60411Y-44594D01*
X59353Y-41214D02*
X59353Y-41671D01*
G54D47*
X66091Y-38129D02*
X66160Y-38060D01*
X51975Y-44905D02*
X51975Y-45305D01*
X70953Y-33924D02*
X70953Y-34032D01*
G54D45*
X66441Y-36375D02*
X66662Y-36596D01*
G54D47*
X40627Y-49115D02*
X40938Y-49426D01*
X63018Y-29616D02*
X63018Y-29151D01*
X51583Y-48737D02*
X51186Y-48737D01*
X58532Y-44699D02*
X56305Y-44699D01*
G54D45*
X59353Y-37071D02*
X59353Y-37457D01*
G54D47*
X58301Y-35334D02*
X57408Y-35334D01*
G54D45*
X58743Y-44699D02*
X58848Y-44594D01*
X57942Y-40509D02*
X59436Y-40509D01*
X59869Y-35631D02*
X60375Y-35631D01*
G54D48*
X61914Y-43683D02*
X61914Y-43204D01*
G54D47*
X66416Y-41695D02*
X66416Y-42402D01*
X47694Y-48245D02*
X48186Y-48737D01*
X66160Y-38060D02*
X66160Y-38669D01*
G54D45*
X66441Y-35874D02*
X66441Y-35523D01*
X62151Y-39271D02*
X61553Y-39271D01*
X55166Y-33084D02*
X54943Y-33307D01*
X66441Y-35874D02*
X66441Y-36375D01*
X67442Y-37076D02*
X67442Y-36784D01*
G54D47*
X53108Y-44308D02*
X53382Y-44308D01*
X66769Y-32897D02*
X68016Y-32897D01*
X69909Y-33153D02*
X70182Y-33153D01*
G54D45*
X69440Y-46970D02*
X69440Y-48661D01*
G54D47*
X55168Y-33082D02*
X54943Y-33307D01*
G54D45*
X67442Y-37744D02*
X67442Y-41724D01*
G54D47*
X65857Y-39825D02*
X65857Y-40777D01*
G54D45*
X61859Y-43628D02*
X61914Y-43683D01*
G54D47*
X65994Y-40914D02*
X65857Y-40777D01*
G54D45*
X61128Y-43628D02*
X61859Y-43628D01*
X56953Y-39471D02*
X57334Y-39471D01*
G54D47*
X65857Y-39825D02*
X65857Y-39855D01*
G54D45*
X59540Y-40613D02*
X59540Y-41013D01*
X59663Y-37767D02*
X59716Y-37767D01*
X69440Y-48661D02*
X69949Y-49170D01*
G54D47*
X63950Y-29015D02*
X63815Y-29150D01*
G54D45*
X59436Y-40509D02*
X59540Y-40613D01*
X51032Y-33624D02*
X51032Y-33460D01*
G54D47*
X40627Y-48855D02*
X40627Y-49115D01*
G54D46*
X55782Y-34897D02*
X55607Y-34722D01*
G54D47*
X52608Y-44532D02*
X52348Y-44532D01*
X42800Y-49119D02*
X42800Y-48737D01*
G54D45*
X57798Y-40766D02*
X57798Y-40653D01*
X67442Y-36784D02*
X67254Y-36596D01*
G54D46*
X55607Y-34217D02*
X55782Y-34042D01*
G54D47*
X51975Y-48345D02*
X51583Y-48737D01*
G54D45*
X59716Y-37767D02*
X59716Y-38506D01*
G54D47*
X69780Y-41380D02*
X69780Y-42544D01*
X70356Y-30932D02*
X70353Y-30929D01*
X66459Y-39225D02*
X66459Y-38968D01*
X55756Y-33084D02*
X55737Y-33084D01*
G54D45*
X59716Y-39201D02*
X59716Y-37767D01*
G54D47*
X42493Y-49426D02*
X42800Y-49119D01*
X64944Y-29015D02*
X63950Y-29015D01*
X55756Y-33082D02*
X55756Y-33084D01*
X66416Y-41695D02*
X66417Y-41694D01*
X45800Y-48658D02*
X46213Y-48245D01*
X62922Y-29712D02*
X63018Y-29616D01*
G54D45*
X67442Y-42084D02*
X67930Y-42572D01*
G54D47*
X66160Y-38669D02*
X65857Y-38972D01*
G54D45*
X67442Y-41724D02*
X67442Y-42084D01*
G54D47*
X51975Y-45305D02*
X51975Y-48345D01*
X71050Y-30932D02*
X70356Y-30932D01*
G54D45*
X62151Y-39271D02*
X62290Y-39410D01*
G54D46*
X56953Y-39471D02*
X55873Y-39471D01*
G54D45*
X59353Y-41214D02*
X59353Y-41200D01*
X57661Y-39798D02*
X57661Y-39931D01*
X69951Y-46149D02*
X69951Y-46459D01*
G54D47*
X65351Y-38129D02*
X66091Y-38129D01*
G54D45*
X60737Y-33269D02*
X60736Y-33268D01*
X67164Y-44156D02*
X66836Y-43828D01*
G54D46*
X55873Y-39471D02*
X55776Y-39374D01*
G54D45*
X57798Y-40653D02*
X57942Y-40509D01*
X55737Y-33084D02*
X55166Y-33084D01*
G54D47*
X50199Y-35643D02*
X49401Y-35643D01*
X55756Y-33082D02*
X55168Y-33082D01*
G54D45*
X60737Y-33269D02*
X61472Y-33269D01*
G54D47*
X66441Y-34128D02*
X66440Y-33226D01*
G54D45*
X51032Y-33460D02*
X51211Y-33281D01*
G54D48*
X61914Y-44136D02*
X61914Y-43683D01*
G54D45*
X67254Y-36596D02*
X66662Y-36596D01*
G54D47*
X66420Y-40916D02*
X66417Y-41694D01*
G54D46*
X55782Y-34042D02*
X56580Y-33244D01*
G54D47*
X65857Y-38972D02*
X65857Y-39825D01*
X53382Y-44308D02*
X55914Y-44308D01*
G54D45*
X59353Y-41258D02*
X59353Y-41214D01*
G54D47*
X66432Y-40914D02*
X65994Y-40914D01*
G54D46*
X55607Y-34722D02*
X55607Y-34217D01*
G54D45*
X59109Y-35631D02*
X59869Y-35631D01*
X67930Y-42572D02*
X67930Y-43982D01*
X58986Y-39931D02*
X59716Y-39201D01*
X57661Y-39931D02*
X58986Y-39931D01*
G54D47*
X40938Y-49426D02*
X42493Y-49426D01*
G54D45*
X57661Y-39798D02*
X57334Y-39471D01*
X66441Y-35340D02*
X66441Y-34128D01*
G54D46*
X56580Y-33244D02*
X56580Y-32700D01*
G54D47*
X59109Y-35631D02*
X58598Y-35631D01*
X70182Y-33153D02*
X70953Y-33924D01*
X55914Y-44308D02*
X56305Y-44699D01*
X66628Y-37592D02*
X66160Y-38060D01*
X66459Y-38968D02*
X66160Y-38669D01*
G54D45*
X66441Y-35523D02*
X66441Y-35340D01*
X67442Y-37744D02*
X67442Y-37076D01*
X60728Y-36462D02*
X60847Y-36343D01*
X60728Y-37071D02*
X60728Y-36600D01*
X60728Y-36600D02*
X60728Y-36581D01*
X60728Y-36600D02*
X60728Y-36462D01*
G54D47*
X70108Y-31444D02*
X71050Y-31444D01*
G54D46*
X72455Y-34696D02*
X72455Y-35249D01*
G54D45*
X57551Y-47867D02*
X57551Y-49361D01*
G54D46*
X72455Y-35249D02*
X72455Y-44622D01*
X71450Y-34400D02*
X71570Y-34520D01*
G54D45*
X56953Y-40451D02*
X54621Y-40451D01*
G54D46*
X72455Y-49477D02*
X72212Y-49720D01*
G54D47*
X70108Y-31444D02*
X70106Y-31446D01*
G54D45*
X57758Y-47052D02*
X57758Y-47660D01*
G54D46*
X70998Y-33411D02*
X71004Y-33411D01*
X72212Y-49720D02*
X57910Y-49720D01*
X57910Y-49720D02*
X57638Y-49448D01*
X72455Y-44622D02*
X72455Y-45266D01*
G54D45*
X57417Y-46845D02*
X57551Y-46845D01*
G54D46*
X72279Y-34520D02*
X72455Y-34696D01*
X72455Y-45266D02*
X72455Y-49477D01*
X71450Y-33857D02*
X71450Y-34400D01*
G54D45*
X57551Y-49361D02*
X57910Y-49720D01*
X57551Y-46845D02*
X57758Y-47052D01*
X54537Y-40535D02*
X54621Y-40451D01*
X57758Y-47660D02*
X57551Y-47867D01*
X54537Y-40854D02*
X54537Y-40535D01*
G54D46*
X71570Y-34520D02*
X72279Y-34520D01*
X70998Y-33375D02*
X70998Y-33411D01*
X71004Y-33411D02*
X71450Y-33857D01*
X72617Y-43680D02*
X72617Y-49717D01*
G54D47*
X70359Y-31925D02*
X70359Y-31899D01*
G54D45*
X55256Y-40651D02*
X55056Y-40851D01*
G54D46*
X72411Y-49923D02*
X72140Y-49923D01*
G54D45*
X56953Y-40651D02*
X55256Y-40651D01*
G54D46*
X72140Y-49923D02*
X71906Y-49923D01*
G54D47*
X70359Y-31925D02*
X70353Y-31932D01*
X70558Y-31700D02*
X71050Y-31700D01*
G54D46*
X72617Y-33606D02*
X72617Y-43680D01*
G54D47*
X70359Y-31899D02*
X70558Y-31700D01*
G54D46*
X72389Y-33378D02*
X72617Y-33606D01*
X71534Y-33378D02*
X72389Y-33378D01*
G54D47*
X71050Y-31700D02*
X70558Y-31700D01*
G54D46*
X72140Y-49923D02*
X57528Y-49923D01*
X72617Y-49717D02*
X72411Y-49923D01*
G54D45*
X57261Y-47554D02*
X57261Y-48137D01*
X57261Y-48137D02*
X57261Y-49338D01*
X57261Y-47554D02*
X57416Y-47399D01*
X57261Y-49656D02*
X57528Y-49923D01*
X57261Y-49338D02*
X57261Y-49656D01*
X70951Y-45149D02*
X71269Y-45149D01*
X71269Y-45149D02*
X71450Y-45330D01*
X71450Y-45330D02*
X71450Y-46450D01*
X70949Y-48170D02*
X70949Y-46951D01*
X70949Y-46951D02*
X71450Y-46450D01*
X69951Y-45149D02*
X70189Y-45149D01*
X70450Y-45410D02*
X70450Y-46430D01*
X69949Y-48170D02*
X69949Y-46931D01*
X69949Y-46931D02*
X70450Y-46430D01*
X70189Y-45149D02*
X70450Y-45410D01*
X63089Y-45149D02*
X63450Y-45510D01*
X63450Y-45510D02*
X63450Y-46440D01*
X62951Y-45149D02*
X63089Y-45149D01*
X62949Y-48170D02*
X62949Y-46941D01*
X62949Y-46941D02*
X63450Y-46440D01*
X61109Y-45149D02*
X61450Y-45490D01*
X61450Y-45490D02*
X61450Y-46400D01*
X60949Y-48170D02*
X60949Y-46901D01*
X60951Y-45149D02*
X61109Y-45149D01*
X60949Y-46901D02*
X61450Y-46400D01*
X66949Y-48170D02*
X66949Y-46921D01*
X66949Y-46921D02*
X67450Y-46420D01*
X67159Y-45149D02*
X67450Y-45440D01*
X67450Y-45440D02*
X67450Y-46420D01*
X66951Y-45149D02*
X67159Y-45149D01*
X66440Y-48661D02*
X66949Y-49170D01*
X66440Y-48303D02*
X66440Y-48661D01*
X66440Y-46960D02*
X66440Y-48303D01*
X66951Y-46449D02*
X66440Y-46960D01*
X66951Y-46149D02*
X66951Y-46449D01*
X66440Y-48661D02*
X66949Y-49170D01*
X66440Y-45470D02*
X66440Y-46460D01*
X65949Y-46951D02*
X66440Y-46460D01*
X65951Y-45149D02*
X66119Y-45149D01*
X65949Y-48170D02*
X65949Y-46951D01*
X66119Y-45149D02*
X66440Y-45470D01*
X65450Y-45510D02*
X65450Y-46430D01*
X64949Y-48170D02*
X64949Y-46931D01*
X64951Y-45149D02*
X65089Y-45149D01*
X65089Y-45149D02*
X65450Y-45510D01*
X64949Y-46931D02*
X65450Y-46430D01*
X64951Y-46439D02*
X64450Y-46940D01*
X64450Y-48671D02*
X64949Y-49170D01*
X64951Y-46149D02*
X64951Y-46439D01*
X64450Y-46940D02*
X64450Y-48671D01*
X63440Y-48661D02*
X63949Y-49170D01*
X63951Y-46409D02*
X63440Y-46920D01*
X63440Y-46920D02*
X63440Y-48661D01*
X63951Y-46149D02*
X63951Y-46409D01*
X61440Y-48661D02*
X61949Y-49170D01*
X61440Y-46870D02*
X61440Y-48661D01*
X61951Y-46359D02*
X61440Y-46870D01*
X61951Y-46149D02*
X61951Y-46359D01*
X68951Y-45149D02*
X69169Y-45149D01*
X69169Y-45149D02*
X69440Y-45420D01*
X69440Y-45420D02*
X69440Y-46430D01*
X68949Y-46921D02*
X69440Y-46430D01*
X68949Y-48170D02*
X68949Y-46921D01*
X59440Y-46930D02*
X59440Y-48661D01*
X59440Y-48661D02*
X59949Y-49170D01*
X59951Y-46419D02*
X59440Y-46930D01*
X59951Y-46149D02*
X59951Y-46419D01*
X60951Y-46149D02*
X60951Y-46419D01*
X60440Y-48661D02*
X60949Y-49170D01*
X60951Y-46419D02*
X60440Y-46930D01*
X60440Y-46930D02*
X60440Y-48661D01*
X61949Y-48170D02*
X61949Y-46911D01*
X61949Y-46911D02*
X62440Y-46420D01*
X62109Y-45149D02*
X62440Y-45480D01*
X61951Y-45149D02*
X62109Y-45149D01*
X62440Y-45480D02*
X62440Y-46420D01*
X46192Y-43361D02*
X46192Y-43360D01*
X46589Y-41881D02*
X51605Y-41881D01*
X46192Y-43361D02*
X46192Y-42278D01*
X46193Y-43360D02*
X46192Y-43360D01*
X51867Y-41619D02*
X51605Y-41881D01*
X58763Y-39103D02*
X58763Y-38833D01*
X58763Y-38833D02*
X58763Y-37071D01*
X53244Y-41619D02*
X51867Y-41619D01*
X53244Y-41619D02*
X56259Y-41619D01*
X46192Y-42278D02*
X46589Y-41881D01*
X58763Y-39103D02*
X58763Y-39145D01*
X58763Y-38833D02*
X58763Y-39456D01*
G54D46*
X65201Y-38724D02*
X64990Y-38724D01*
X65499Y-40770D02*
X65499Y-41318D01*
X61572Y-44589D02*
X60878Y-44589D01*
X63410Y-43205D02*
X63410Y-44335D01*
X63410Y-44335D02*
X63156Y-44589D01*
X65201Y-38724D02*
X65387Y-38724D01*
X65499Y-38836D02*
X65499Y-39438D01*
X60878Y-44589D02*
X60494Y-44205D01*
X64990Y-38724D02*
X64845Y-38579D01*
X65499Y-41118D02*
X65499Y-41157D01*
X63309Y-41821D02*
X63309Y-43104D01*
X64845Y-38151D02*
X64845Y-38151D01*
G54D45*
X60138Y-41671D02*
X60138Y-42691D01*
G54D46*
X65499Y-39438D02*
X65499Y-40770D01*
X63156Y-44589D02*
X61572Y-44589D01*
X65336Y-41481D02*
X63649Y-41481D01*
G54D45*
X60138Y-42691D02*
X60490Y-43043D01*
X60490Y-43043D02*
X60490Y-44201D01*
G54D46*
X64845Y-38151D02*
X64845Y-38276D01*
X65499Y-40770D02*
X65499Y-41118D01*
X65499Y-41318D02*
X65336Y-41481D01*
X65619Y-37305D02*
X65385Y-37539D01*
X65385Y-37539D02*
X65019Y-37539D01*
X65619Y-37047D02*
X65619Y-37305D01*
X65334Y-36576D02*
X64608Y-36576D01*
X65334Y-36576D02*
X65424Y-36576D01*
X63770Y-34238D02*
X63770Y-34288D01*
X64421Y-36389D02*
X64608Y-36576D01*
X64421Y-34939D02*
X64421Y-36389D01*
X63770Y-34288D02*
X64421Y-34939D01*
X65619Y-36771D02*
X65619Y-37047D01*
X64845Y-38151D02*
X64845Y-37713D01*
X64845Y-38579D02*
X64845Y-38483D01*
X63649Y-41481D02*
X63309Y-41821D01*
X64845Y-38276D02*
X64845Y-38483D01*
X65387Y-38724D02*
X65499Y-38836D01*
G54D45*
X60490Y-44201D02*
X60494Y-44205D01*
G54D46*
X63309Y-43104D02*
X63410Y-43205D01*
X65499Y-39438D02*
X65499Y-39585D01*
X65424Y-36576D02*
X65619Y-36771D01*
X64845Y-37713D02*
X65019Y-37539D01*
X65660Y-38756D02*
X65660Y-39168D01*
X65025Y-37810D02*
X65134Y-37701D01*
X65134Y-37701D02*
X65239Y-37701D01*
X65025Y-38182D02*
X65025Y-37810D01*
G54D45*
X60840Y-44130D02*
X61128Y-44130D01*
X60738Y-43020D02*
X60738Y-43629D01*
G54D46*
X65660Y-41229D02*
X65660Y-41208D01*
X65136Y-38562D02*
X65466Y-38562D01*
G54D45*
X60738Y-43629D02*
X60738Y-44028D01*
G54D46*
X63762Y-43281D02*
X63762Y-44342D01*
G54D45*
X60333Y-41671D02*
X60333Y-42063D01*
G54D46*
X65025Y-38451D02*
X65136Y-38562D01*
X65466Y-38562D02*
X65660Y-38756D01*
G54D45*
X60333Y-42615D02*
X60738Y-43020D01*
G54D46*
X65025Y-38182D02*
X65025Y-38451D01*
X65660Y-40937D02*
X65660Y-39168D01*
X65730Y-37701D02*
X65898Y-37533D01*
X65660Y-41208D02*
X65660Y-40937D01*
X65651Y-34791D02*
X65651Y-35395D01*
X65660Y-41607D02*
X65466Y-41801D01*
X65509Y-34239D02*
X65651Y-34381D01*
X65898Y-36753D02*
X65457Y-36312D01*
X65651Y-34381D02*
X65651Y-34453D01*
X63471Y-42990D02*
X63762Y-43281D01*
X65651Y-35395D02*
X65457Y-35589D01*
X65466Y-41801D02*
X63670Y-41801D01*
G54D45*
X60738Y-44028D02*
X60840Y-44130D01*
G54D46*
X65660Y-40937D02*
X65660Y-41607D01*
X65898Y-37533D02*
X65898Y-36753D01*
X64407Y-34239D02*
X65509Y-34239D01*
X63670Y-41801D02*
X63471Y-42000D01*
G54D45*
X60333Y-42063D02*
X60333Y-42615D01*
G54D46*
X63471Y-42000D02*
X63471Y-42990D01*
X65457Y-36312D02*
X65457Y-35589D01*
X65651Y-34791D02*
X65651Y-34453D01*
X65239Y-37701D02*
X65730Y-37701D01*
X48582Y-33885D02*
X48582Y-32901D01*
X51233Y-32360D02*
X50755Y-32360D01*
G54D47*
X50540Y-28967D02*
X51346Y-28967D01*
G54D46*
X48702Y-32448D02*
X50487Y-32448D01*
X48582Y-32568D02*
X48702Y-32448D01*
X50487Y-32448D02*
X50540Y-32395D01*
G54D47*
X51538Y-29159D02*
X51538Y-29692D01*
G54D46*
X48765Y-34068D02*
X48582Y-33885D01*
G54D47*
X51538Y-29692D02*
X51538Y-30692D01*
X51346Y-28967D02*
X51538Y-29159D01*
G54D46*
X49401Y-34068D02*
X48765Y-34068D01*
X48582Y-32901D02*
X48582Y-32568D01*
X50755Y-32360D02*
X50540Y-32395D01*
X49455Y-32283D02*
X49919Y-32283D01*
X48405Y-32418D02*
X48555Y-32268D01*
X49455Y-32283D02*
X48540Y-32283D01*
X48540Y-32283D02*
X48405Y-32418D01*
X48688Y-34856D02*
X48405Y-34573D01*
X51370Y-31860D02*
X51538Y-31692D01*
X49919Y-32283D02*
X50040Y-32162D01*
X50040Y-32009D02*
X50189Y-31860D01*
X49401Y-34856D02*
X48688Y-34856D01*
X50189Y-31860D02*
X51370Y-31860D01*
X50040Y-32162D02*
X50040Y-32009D01*
X49934Y-32268D02*
X50040Y-32162D01*
X48405Y-34573D02*
X48405Y-32631D01*
X48555Y-32268D02*
X49934Y-32268D01*
X48405Y-32631D02*
X48405Y-32418D01*
X52872Y-32886D02*
X53363Y-32395D01*
X51175Y-32999D02*
X50964Y-33210D01*
X51825Y-32999D02*
X52381Y-32999D01*
G54D45*
X53251Y-32395D02*
X53543Y-32395D01*
G54D46*
X53211Y-32147D02*
X53543Y-32395D01*
X50540Y-33377D02*
X50540Y-33904D01*
G54D45*
X53026Y-30934D02*
X53026Y-32170D01*
G54D46*
X53363Y-32395D02*
X53543Y-32395D01*
G54D45*
X52538Y-30692D02*
X52784Y-30692D01*
X53026Y-32170D02*
X53251Y-32395D01*
G54D46*
X52494Y-32886D02*
X52872Y-32886D01*
G54D47*
X52538Y-29180D02*
X52538Y-29692D01*
G54D46*
X50707Y-33210D02*
X50540Y-33377D01*
G54D47*
X52538Y-29692D02*
X52538Y-30692D01*
G54D46*
X51825Y-32999D02*
X51175Y-32999D01*
X52381Y-32999D02*
X52494Y-32886D01*
G54D47*
X52744Y-28974D02*
X52538Y-29180D01*
G54D46*
X50540Y-33904D02*
X50704Y-34068D01*
X50704Y-34068D02*
X51764Y-34068D01*
G54D45*
X52784Y-30692D02*
X53026Y-30934D01*
G54D47*
X53543Y-28974D02*
X52744Y-28974D01*
G54D46*
X50964Y-33210D02*
X50707Y-33210D01*
X51663Y-32999D02*
X51825Y-32999D01*
G54D47*
X51764Y-34856D02*
X52572Y-34856D01*
X52572Y-34856D02*
X52668Y-34952D01*
X58375Y-28981D02*
X58538Y-29144D01*
X59109Y-34056D02*
X57780Y-34056D01*
X57540Y-28981D02*
X58375Y-28981D01*
G54D45*
X57863Y-32402D02*
X58056Y-32209D01*
G54D47*
X58538Y-29144D02*
X58538Y-29692D01*
G54D45*
X58056Y-32209D02*
X58056Y-31174D01*
X58056Y-31174D02*
X58538Y-30692D01*
G54D47*
X57780Y-34056D02*
X57540Y-33816D01*
G54D45*
X57540Y-32402D02*
X57863Y-32402D01*
G54D47*
X57540Y-33816D02*
X57540Y-32402D01*
X58538Y-29692D02*
X58538Y-30692D01*
G54D45*
X59849Y-34844D02*
X59853Y-34848D01*
X59109Y-34844D02*
X59849Y-34844D01*
G54D46*
X60426Y-34056D02*
X60188Y-33818D01*
G54D45*
X60039Y-32004D02*
X60039Y-31193D01*
G54D47*
X59726Y-28985D02*
X60537Y-28985D01*
X59538Y-29173D02*
X59726Y-28985D01*
X59538Y-29692D02*
X59538Y-30692D01*
G54D45*
X60039Y-31193D02*
X59538Y-30692D01*
X60534Y-32406D02*
X60441Y-32406D01*
G54D46*
X60188Y-33818D02*
X60188Y-32752D01*
G54D47*
X59538Y-29692D02*
X59538Y-29173D01*
G54D45*
X60441Y-32406D02*
X60039Y-32004D01*
G54D46*
X60188Y-32752D02*
X60534Y-32406D01*
X61472Y-34056D02*
X60426Y-34056D01*
G54D47*
X60341Y-34848D02*
X61468Y-34848D01*
X61468Y-34848D02*
X61472Y-34844D01*
G54D48*
X70990Y-43150D02*
X70950Y-43150D01*
G54D45*
X61396Y-42364D02*
X61476Y-42444D01*
X58049Y-39229D02*
X58049Y-39454D01*
X61396Y-42200D02*
X61396Y-42364D01*
X56953Y-39076D02*
X57896Y-39076D01*
X61476Y-42444D02*
X62637Y-42444D01*
G54D48*
X71959Y-44119D02*
X70990Y-43150D01*
X71959Y-44145D02*
X71959Y-44119D01*
G54D45*
X57896Y-39076D02*
X58049Y-39229D01*
G54D46*
X60976Y-41640D02*
X60976Y-41082D01*
X61156Y-41820D02*
X61896Y-41820D01*
X61896Y-41820D02*
X62342Y-41820D01*
X60976Y-41082D02*
X60138Y-40244D01*
X60976Y-41640D02*
X61156Y-41820D01*
X60138Y-40244D02*
X60138Y-37071D01*
X62342Y-41820D02*
X62446Y-41716D01*
X61186Y-41518D02*
X61186Y-41056D01*
X61326Y-41658D02*
X61186Y-41518D01*
X61186Y-41056D02*
X60333Y-40203D01*
X61086Y-40956D02*
X60333Y-40203D01*
X61956Y-41658D02*
X61326Y-41658D01*
X62844Y-41356D02*
X62258Y-41356D01*
X60333Y-40203D02*
X60333Y-39960D01*
X62258Y-41356D02*
X61956Y-41658D01*
X60333Y-37071D02*
X60333Y-40203D01*
X62868Y-41356D02*
X62844Y-41356D01*
X60333Y-37071D02*
X60333Y-40006D01*
G54D45*
X71536Y-30564D02*
X71575Y-30603D01*
X71536Y-29249D02*
X71536Y-30564D01*
X71050Y-31956D02*
X71434Y-31956D01*
X71434Y-31956D02*
X71575Y-31815D01*
X71575Y-31815D02*
X71575Y-30603D01*
X71769Y-29016D02*
X71536Y-29249D01*
X71944Y-29016D02*
X71769Y-29016D01*
G54D47*
X68451Y-29867D02*
X68450Y-29866D01*
X69462Y-29867D02*
X68451Y-29867D01*
G54D48*
X65248Y-43820D02*
X65256Y-43828D01*
X64834Y-43820D02*
X65248Y-43820D01*
X64834Y-42856D02*
X64526Y-42548D01*
X64834Y-43820D02*
X64834Y-42856D01*
X64410Y-43820D02*
X64834Y-43820D01*
G54D47*
X70841Y-44145D02*
X70195Y-44145D01*
X70195Y-44145D02*
X70194Y-44146D01*
G54D46*
X56337Y-39666D02*
X56953Y-39666D01*
X55182Y-35284D02*
X56396Y-35284D01*
X54910Y-39699D02*
X54642Y-39431D01*
X55674Y-39699D02*
X54910Y-39699D01*
X56304Y-39699D02*
X55674Y-39699D01*
X56580Y-35100D02*
X56396Y-35284D01*
X56337Y-39666D02*
X56304Y-39699D01*
G54D45*
X60660Y-39436D02*
X60660Y-39556D01*
X60770Y-39666D02*
X60890Y-39666D01*
X60890Y-39666D02*
X61553Y-39666D01*
X60660Y-39556D02*
X60770Y-39666D01*
G54D47*
X63834Y-30114D02*
X63552Y-30396D01*
X64260Y-31822D02*
X64260Y-33342D01*
X63556Y-31118D02*
X64260Y-31822D01*
X63552Y-30396D02*
X63552Y-31074D01*
X63556Y-31078D02*
X63552Y-31074D01*
X63556Y-31078D02*
X63556Y-31118D01*
X64260Y-33342D02*
X64407Y-33489D01*
X63815Y-30268D02*
X63834Y-30114D01*
G54D45*
X61191Y-39471D02*
X60660Y-38940D01*
X61553Y-39471D02*
X61191Y-39471D01*
X57459Y-40806D02*
X57459Y-40947D01*
X56548Y-42349D02*
X56183Y-42714D01*
X56548Y-41864D02*
X56548Y-42349D01*
X57383Y-41171D02*
X57241Y-41171D01*
G54D46*
X57459Y-40469D02*
X57459Y-40806D01*
G54D45*
X59204Y-40258D02*
X57852Y-40258D01*
X61553Y-40846D02*
X61553Y-41292D01*
X59204Y-40258D02*
X59703Y-39759D01*
X56548Y-42349D02*
X56183Y-42714D01*
G54D46*
X57852Y-40258D02*
X57670Y-40258D01*
X57670Y-40258D02*
X57459Y-40469D01*
G54D45*
X57459Y-40947D02*
X57459Y-41095D01*
X57459Y-41095D02*
X57383Y-41171D01*
X57241Y-41171D02*
X56548Y-41864D01*
G54D47*
X69950Y-37245D02*
X70025Y-37245D01*
G54D45*
X69940Y-35855D02*
X69721Y-35855D01*
X69440Y-36136D02*
X69440Y-37080D01*
G54D47*
X70025Y-37245D02*
X70930Y-38150D01*
G54D45*
X69721Y-35855D02*
X69440Y-36136D01*
X69440Y-37080D02*
X69605Y-37245D01*
X69605Y-37245D02*
X69950Y-37245D01*
G54D47*
X63770Y-31670D02*
X63014Y-30914D01*
X63770Y-33488D02*
X63770Y-31670D01*
X63018Y-30269D02*
X63014Y-30914D01*
G54D45*
X61553Y-37896D02*
X61553Y-37141D01*
G54D47*
X69206Y-34079D02*
X69610Y-34079D01*
X69610Y-34079D02*
X69952Y-33737D01*
X59109Y-33269D02*
X59851Y-33269D01*
G54D46*
X61205Y-32508D02*
X62515Y-32508D01*
G54D47*
X59851Y-33269D02*
X59855Y-33273D01*
X62344Y-32570D02*
X62515Y-32508D01*
G54D45*
X53542Y-31276D02*
X53543Y-31277D01*
X53542Y-30690D02*
X53542Y-31276D01*
X53543Y-30689D02*
X53542Y-30690D01*
X53543Y-30092D02*
X53543Y-30689D01*
G54D46*
X52106Y-32739D02*
X51187Y-32739D01*
X50373Y-32916D02*
X51010Y-32916D01*
X52669Y-33317D02*
X52668Y-33318D01*
X53412Y-33317D02*
X52669Y-33317D01*
X50008Y-33281D02*
X50373Y-32916D01*
X52106Y-32739D02*
X52278Y-32739D01*
X51187Y-32739D02*
X51010Y-32916D01*
X51561Y-32739D02*
X52106Y-32739D01*
X52278Y-32739D02*
X52515Y-32502D01*
X49401Y-33281D02*
X50008Y-33281D01*
X52515Y-32502D02*
X52668Y-32502D01*
G54D45*
X50540Y-30682D02*
X50540Y-31277D01*
X50540Y-30085D02*
X50540Y-30682D01*
G54D47*
X57540Y-30688D02*
X57542Y-30690D01*
X57540Y-30099D02*
X57540Y-30688D01*
X57542Y-31282D02*
X57540Y-31284D01*
X57542Y-30690D02*
X57542Y-31282D01*
X60537Y-30103D02*
X60536Y-30696D01*
X60536Y-31286D02*
X60534Y-31288D01*
X60536Y-30696D02*
X60536Y-31286D01*
G54D45*
X61553Y-39076D02*
X62013Y-39076D01*
X62412Y-39076D02*
X62417Y-39076D01*
X62720Y-39076D02*
X62874Y-38922D01*
X62318Y-39076D02*
X62412Y-39076D01*
X62720Y-39076D02*
X62073Y-39076D01*
X62874Y-38922D02*
X62874Y-38478D01*
X62013Y-39076D02*
X62073Y-39076D01*
X62073Y-39076D02*
X62148Y-39076D01*
X62148Y-39076D02*
X62318Y-39076D01*
X61553Y-40061D02*
X62255Y-40061D01*
X62255Y-40061D02*
X62289Y-40095D01*
X62640Y-43005D02*
X62340Y-42705D01*
X67123Y-29722D02*
X67522Y-29722D01*
X66944Y-29015D02*
X66944Y-29543D01*
X68733Y-32165D02*
X69188Y-31710D01*
G54D46*
X68418Y-46616D02*
X67951Y-46149D01*
G54D45*
X67770Y-37557D02*
X67770Y-36676D01*
X66083Y-44324D02*
X66254Y-44495D01*
G54D46*
X67636Y-41673D02*
X67636Y-41919D01*
G54D45*
X68859Y-30282D02*
X68082Y-30282D01*
X69188Y-30611D02*
X68859Y-30282D01*
G54D46*
X68840Y-49170D02*
X68418Y-48748D01*
X68949Y-49170D02*
X68840Y-49170D01*
G54D45*
X62340Y-42705D02*
X61335Y-42705D01*
G54D46*
X69846Y-44478D02*
X69740Y-44584D01*
G54D45*
X68733Y-32691D02*
X68733Y-32165D01*
G54D46*
X68452Y-45048D02*
X68452Y-44738D01*
G54D45*
X68452Y-45048D02*
X68452Y-45648D01*
X62640Y-43012D02*
X62640Y-43005D01*
G54D46*
X67636Y-40484D02*
X67636Y-41673D01*
X68196Y-44584D02*
X67838Y-44584D01*
X68452Y-44738D02*
X68298Y-44584D01*
G54D45*
X66944Y-29543D02*
X67123Y-29722D01*
G54D46*
X66943Y-36027D02*
X66943Y-34960D01*
G54D45*
X61146Y-42705D02*
X61335Y-42705D01*
G54D46*
X67838Y-44584D02*
X67749Y-44495D01*
G54D45*
X69188Y-31066D02*
X69188Y-30611D01*
G54D46*
X66943Y-34960D02*
X68733Y-33170D01*
G54D45*
X67121Y-36027D02*
X66943Y-36027D01*
X68733Y-32691D02*
X68733Y-33170D01*
X62436Y-42808D02*
X62640Y-43012D01*
G54D46*
X67770Y-40350D02*
X67636Y-40484D01*
G54D45*
X67522Y-29722D02*
X68082Y-30282D01*
X66084Y-44036D02*
X66083Y-44324D01*
X68452Y-45648D02*
X67951Y-46149D01*
G54D46*
X67636Y-41939D02*
X68901Y-43204D01*
X68298Y-44584D02*
X68196Y-44584D01*
G54D45*
X69188Y-31226D02*
X69188Y-31066D01*
G54D46*
X69740Y-44584D02*
X68298Y-44584D01*
G54D45*
X69188Y-31185D02*
X69188Y-31226D01*
G54D46*
X62436Y-42808D02*
X62640Y-43012D01*
X67636Y-41919D02*
X67636Y-41939D01*
G54D45*
X60728Y-41671D02*
X60728Y-42287D01*
G54D46*
X68418Y-48748D02*
X68418Y-46616D01*
G54D45*
X67770Y-37557D02*
X67770Y-40350D01*
X66254Y-44495D02*
X67749Y-44495D01*
G54D46*
X69846Y-43435D02*
X69846Y-44478D01*
G54D45*
X67770Y-36676D02*
X67121Y-36027D01*
X60728Y-42287D02*
X61146Y-42705D01*
G54D46*
X68901Y-43204D02*
X69615Y-43204D01*
X69615Y-43204D02*
X69846Y-43435D01*
G54D45*
X69188Y-31710D02*
X69188Y-31185D01*
X60411Y-36352D02*
X60533Y-36474D01*
X60288Y-36352D02*
X60411Y-36352D01*
X60533Y-36474D02*
X60533Y-36687D01*
X60533Y-37071D02*
X60533Y-36687D01*
G54D48*
X69940Y-35105D02*
X70880Y-35105D01*
X69940Y-35105D02*
X70865Y-35105D01*
G54D46*
X62367Y-40651D02*
X63253Y-40651D01*
X61553Y-40651D02*
X62367Y-40651D01*
G54D48*
X70880Y-35105D02*
X70953Y-35032D01*
G54D46*
X63362Y-37863D02*
X63362Y-37126D01*
X63189Y-36953D02*
X62902Y-36953D01*
X63362Y-37126D02*
X63189Y-36953D01*
G54D48*
X70865Y-35105D02*
X70940Y-35030D01*
G54D45*
X61553Y-40651D02*
X61939Y-40651D01*
G54D46*
X63362Y-40542D02*
X63362Y-37863D01*
X63253Y-40651D02*
X63362Y-40542D01*
G54D48*
X69950Y-36495D02*
X70475Y-36495D01*
G54D45*
X61553Y-40451D02*
X62145Y-40451D01*
G54D46*
X63200Y-38063D02*
X62906Y-37769D01*
G54D48*
X70475Y-36495D02*
X70940Y-36030D01*
G54D46*
X62145Y-40451D02*
X63029Y-40451D01*
X63200Y-38101D02*
X63200Y-38063D01*
G54D48*
X70490Y-36495D02*
X70953Y-36032D01*
G54D46*
X63029Y-40451D02*
X63200Y-40280D01*
X63200Y-40280D02*
X63200Y-38101D01*
G54D48*
X69950Y-36495D02*
X70490Y-36495D01*
G54D45*
X51263Y-43665D02*
X50976Y-43378D01*
X52948Y-43176D02*
X52459Y-43665D01*
X57369Y-42279D02*
X57370Y-42280D01*
X59943Y-41671D02*
X59943Y-40854D01*
X51909Y-43665D02*
X51263Y-43665D01*
X57369Y-42272D02*
X57369Y-42279D01*
X57370Y-41546D02*
X57369Y-42258D01*
X52459Y-43665D02*
X51909Y-43665D01*
X59943Y-40854D02*
X60105Y-40692D01*
X57369Y-42258D02*
X57369Y-42272D01*
X54033Y-43176D02*
X52948Y-43176D01*
X67176Y-36999D02*
X66969Y-36792D01*
X60533Y-42491D02*
X61131Y-43089D01*
X65943Y-32757D02*
X65102Y-31916D01*
X65102Y-29864D02*
X65102Y-31776D01*
X67587Y-42525D02*
X67176Y-42114D01*
X65943Y-35430D02*
X65943Y-36027D01*
X65943Y-36027D02*
X65943Y-32757D01*
X67176Y-37450D02*
X67176Y-42114D01*
X65944Y-29594D02*
X65770Y-29768D01*
X60533Y-42346D02*
X60533Y-42491D01*
X65770Y-29768D02*
X65198Y-29768D01*
G54D46*
X67466Y-47166D02*
X67641Y-46991D01*
G54D45*
X66969Y-36792D02*
X66488Y-36792D01*
X67176Y-37301D02*
X67176Y-36999D01*
X67176Y-37431D02*
X67176Y-37301D01*
G54D46*
X67949Y-49154D02*
X67466Y-48671D01*
G54D45*
X67587Y-43596D02*
X67587Y-42525D01*
X65944Y-29015D02*
X65944Y-29594D01*
X65102Y-31776D02*
X65102Y-31916D01*
G54D46*
X65943Y-36027D02*
X65943Y-36247D01*
X67641Y-46991D02*
X67928Y-46991D01*
X67949Y-49170D02*
X67949Y-49154D01*
G54D45*
X65198Y-29768D02*
X65102Y-29864D01*
X67176Y-37450D02*
X67176Y-37431D01*
G54D46*
X65943Y-36247D02*
X66488Y-36792D01*
X67466Y-48671D02*
X67466Y-47166D01*
X65943Y-35430D02*
X65943Y-36027D01*
G54D45*
X60533Y-41671D02*
X60533Y-42346D01*
G54D48*
X69618Y-32309D02*
X69903Y-32594D01*
G54D47*
X71951Y-46149D02*
X71951Y-46549D01*
X71450Y-48671D02*
X71949Y-49170D01*
X71951Y-46549D02*
X71450Y-47050D01*
G54D48*
X69944Y-29016D02*
X69944Y-30568D01*
X69618Y-30894D02*
X69618Y-32309D01*
G54D47*
X71450Y-47050D02*
X71450Y-48671D01*
G54D48*
X69944Y-30568D02*
X69618Y-30894D01*
G54D47*
X49401Y-34462D02*
X51764Y-34462D01*
X51764Y-34462D02*
X52604Y-34462D01*
X52604Y-34462D02*
X52671Y-34395D01*
X55936Y-34394D02*
X57837Y-34394D01*
X62170Y-34450D02*
X62181Y-34439D01*
X57837Y-34394D02*
X57893Y-34450D01*
X64098Y-36126D02*
X64098Y-36658D01*
X57893Y-34450D02*
X59109Y-34450D01*
G54D45*
X64098Y-36658D02*
X64530Y-37090D01*
G54D47*
X64098Y-36658D02*
X64530Y-37090D01*
X61472Y-34450D02*
X62170Y-34450D01*
X59109Y-34450D02*
X61472Y-34450D01*
X63822Y-34989D02*
X63822Y-35840D01*
X63822Y-35840D02*
X63559Y-36103D01*
X63154Y-34254D02*
X63154Y-34321D01*
X63559Y-41210D02*
X63066Y-41703D01*
X63559Y-36491D02*
X63559Y-36103D01*
X63066Y-41829D02*
X63066Y-43584D01*
X63559Y-41043D02*
X63559Y-41210D01*
X63066Y-41703D02*
X63066Y-41829D01*
G54D48*
X63066Y-43584D02*
X62830Y-43820D01*
G54D47*
X63559Y-37527D02*
X63559Y-41043D01*
X63559Y-37527D02*
X63559Y-36491D01*
X63154Y-34321D02*
X63822Y-34989D01*
X48705Y-30510D02*
X48887Y-30692D01*
X48884Y-28440D02*
X49035Y-28440D01*
X62063Y-28759D02*
X62063Y-30404D01*
X48705Y-29678D02*
X48705Y-30510D01*
X49049Y-28476D02*
X50952Y-28476D01*
X50952Y-28440D02*
X49035Y-28440D01*
X63511Y-31852D02*
X62351Y-30692D01*
X50952Y-28476D02*
X50952Y-28440D01*
X48705Y-28820D02*
X49049Y-28476D01*
X55530Y-30692D02*
X55550Y-30692D01*
X48705Y-30510D02*
X48887Y-30692D01*
X63154Y-33903D02*
X63154Y-33936D01*
X48705Y-29052D02*
X48705Y-29652D01*
X48705Y-29052D02*
X48705Y-29678D01*
X63511Y-32424D02*
X63511Y-33012D01*
X48705Y-28619D02*
X48884Y-28440D01*
X63511Y-33012D02*
X63154Y-33369D01*
X50952Y-28476D02*
X55797Y-28476D01*
X48705Y-28903D02*
X48705Y-28820D01*
X63511Y-32142D02*
X63511Y-32424D01*
X63154Y-33936D02*
X63154Y-34254D01*
X63154Y-34254D02*
X63154Y-34257D01*
X63511Y-32142D02*
X63511Y-31852D01*
X54538Y-30692D02*
X55530Y-30692D01*
X63154Y-34257D02*
X63154Y-34259D01*
G54D46*
X63154Y-34259D02*
X63154Y-34276D01*
G54D47*
X55797Y-28476D02*
X61780Y-28476D01*
X55550Y-30692D02*
X56538Y-30692D01*
X49126Y-28440D02*
X49035Y-28440D01*
X63154Y-33369D02*
X63154Y-33903D01*
X48887Y-30692D02*
X49538Y-30692D01*
X55530Y-28743D02*
X55797Y-28476D01*
X48705Y-29678D02*
X48705Y-28903D01*
X61780Y-28476D02*
X62063Y-28759D01*
X55530Y-30692D02*
X55530Y-28743D01*
X62351Y-30692D02*
X61538Y-30692D01*
X62063Y-30404D02*
X62351Y-30692D01*
X48705Y-28903D02*
X48705Y-28619D01*
M02*
