G04 (created by PCBNEW-RS274X (2012-01-19 BZR 3256)-stable) date 5/6/2556 16:26:55*
G01*
G70*
G90*
%MOIN*%
G04 Gerber Fmt 3.4, Leading zero omitted, Abs format*
%FSLAX34Y34*%
G04 APERTURE LIST*
%ADD10C,0.006000*%
%ADD11C,0.007500*%
%ADD12C,0.012000*%
%ADD13C,0.010000*%
%ADD14C,0.030000*%
%ADD15C,0.005000*%
%ADD16C,0.005900*%
G04 APERTURE END LIST*
G54D10*
G54D11*
X66830Y-29907D02*
X66930Y-29765D01*
X67002Y-29907D02*
X67002Y-29607D01*
X66887Y-29607D01*
X66859Y-29622D01*
X66844Y-29636D01*
X66830Y-29665D01*
X66830Y-29707D01*
X66844Y-29736D01*
X66859Y-29750D01*
X66887Y-29765D01*
X67002Y-29765D01*
X66730Y-29907D02*
X66573Y-29707D01*
X66730Y-29707D02*
X66573Y-29907D01*
X66244Y-29593D02*
X66501Y-29979D01*
X66187Y-29607D02*
X66016Y-29607D01*
X66102Y-29907D02*
X66102Y-29607D01*
X65944Y-29907D02*
X65787Y-29707D01*
X65944Y-29707D02*
X65787Y-29907D01*
X65458Y-29593D02*
X65715Y-29979D01*
X65201Y-29622D02*
X65230Y-29607D01*
X65273Y-29607D01*
X65316Y-29622D01*
X65344Y-29650D01*
X65359Y-29679D01*
X65373Y-29736D01*
X65373Y-29779D01*
X65359Y-29836D01*
X65344Y-29865D01*
X65316Y-29893D01*
X65273Y-29907D01*
X65244Y-29907D01*
X65201Y-29893D01*
X65187Y-29879D01*
X65187Y-29779D01*
X65244Y-29779D01*
X65059Y-29907D02*
X65059Y-29607D01*
X64887Y-29907D01*
X64887Y-29607D01*
X64745Y-29907D02*
X64745Y-29607D01*
X64673Y-29607D01*
X64630Y-29622D01*
X64602Y-29650D01*
X64587Y-29679D01*
X64573Y-29736D01*
X64573Y-29779D01*
X64587Y-29836D01*
X64602Y-29865D01*
X64630Y-29893D01*
X64673Y-29907D01*
X64745Y-29907D01*
X69871Y-29943D02*
X69871Y-29643D01*
X69756Y-29643D01*
X69728Y-29658D01*
X69713Y-29672D01*
X69699Y-29701D01*
X69699Y-29743D01*
X69713Y-29772D01*
X69728Y-29786D01*
X69756Y-29801D01*
X69871Y-29801D01*
X69528Y-29943D02*
X69556Y-29929D01*
X69571Y-29915D01*
X69585Y-29886D01*
X69585Y-29801D01*
X69571Y-29772D01*
X69556Y-29758D01*
X69528Y-29743D01*
X69485Y-29743D01*
X69456Y-29758D01*
X69442Y-29772D01*
X69428Y-29801D01*
X69428Y-29886D01*
X69442Y-29915D01*
X69456Y-29929D01*
X69485Y-29943D01*
X69528Y-29943D01*
X69328Y-29743D02*
X69271Y-29943D01*
X69214Y-29801D01*
X69157Y-29943D01*
X69100Y-29743D01*
X68871Y-29929D02*
X68900Y-29943D01*
X68957Y-29943D01*
X68986Y-29929D01*
X69000Y-29901D01*
X69000Y-29786D01*
X68986Y-29758D01*
X68957Y-29743D01*
X68900Y-29743D01*
X68871Y-29758D01*
X68857Y-29786D01*
X68857Y-29815D01*
X69000Y-29843D01*
X68729Y-29943D02*
X68729Y-29743D01*
X68729Y-29801D02*
X68714Y-29772D01*
X68700Y-29758D01*
X68671Y-29743D01*
X68643Y-29743D01*
X69335Y-30438D02*
X69435Y-30296D01*
X69507Y-30438D02*
X69507Y-30138D01*
X69392Y-30138D01*
X69364Y-30153D01*
X69349Y-30167D01*
X69335Y-30196D01*
X69335Y-30238D01*
X69349Y-30267D01*
X69364Y-30281D01*
X69392Y-30296D01*
X69507Y-30296D01*
X69207Y-30438D02*
X69207Y-30138D01*
X69092Y-30138D01*
X69064Y-30153D01*
X69049Y-30167D01*
X69035Y-30196D01*
X69035Y-30238D01*
X69049Y-30267D01*
X69064Y-30281D01*
X69092Y-30296D01*
X69207Y-30296D01*
X71752Y-29934D02*
X71752Y-29634D01*
X71637Y-29634D01*
X71609Y-29649D01*
X71594Y-29663D01*
X71580Y-29692D01*
X71580Y-29734D01*
X71594Y-29763D01*
X71609Y-29777D01*
X71637Y-29792D01*
X71752Y-29792D01*
X71409Y-29934D02*
X71437Y-29920D01*
X71452Y-29906D01*
X71466Y-29877D01*
X71466Y-29792D01*
X71452Y-29763D01*
X71437Y-29749D01*
X71409Y-29734D01*
X71366Y-29734D01*
X71337Y-29749D01*
X71323Y-29763D01*
X71309Y-29792D01*
X71309Y-29877D01*
X71323Y-29906D01*
X71337Y-29920D01*
X71366Y-29934D01*
X71409Y-29934D01*
X71209Y-29734D02*
X71152Y-29934D01*
X71095Y-29792D01*
X71038Y-29934D01*
X70981Y-29734D01*
X70752Y-29920D02*
X70781Y-29934D01*
X70838Y-29934D01*
X70867Y-29920D01*
X70881Y-29892D01*
X70881Y-29777D01*
X70867Y-29749D01*
X70838Y-29734D01*
X70781Y-29734D01*
X70752Y-29749D01*
X70738Y-29777D01*
X70738Y-29806D01*
X70881Y-29834D01*
X70610Y-29934D02*
X70610Y-29734D01*
X70610Y-29792D02*
X70595Y-29763D01*
X70581Y-29749D01*
X70552Y-29734D01*
X70524Y-29734D01*
X71538Y-30129D02*
X71538Y-30372D01*
X71523Y-30401D01*
X71509Y-30415D01*
X71480Y-30429D01*
X71423Y-30429D01*
X71395Y-30415D01*
X71380Y-30401D01*
X71366Y-30372D01*
X71366Y-30129D01*
X71238Y-30415D02*
X71195Y-30429D01*
X71124Y-30429D01*
X71095Y-30415D01*
X71081Y-30401D01*
X71066Y-30372D01*
X71066Y-30344D01*
X71081Y-30315D01*
X71095Y-30301D01*
X71124Y-30287D01*
X71181Y-30272D01*
X71209Y-30258D01*
X71224Y-30244D01*
X71238Y-30215D01*
X71238Y-30187D01*
X71224Y-30158D01*
X71209Y-30144D01*
X71181Y-30129D01*
X71109Y-30129D01*
X71066Y-30144D01*
X70838Y-30272D02*
X70795Y-30287D01*
X70780Y-30301D01*
X70766Y-30329D01*
X70766Y-30372D01*
X70780Y-30401D01*
X70795Y-30415D01*
X70823Y-30429D01*
X70938Y-30429D01*
X70938Y-30129D01*
X70838Y-30129D01*
X70809Y-30144D01*
X70795Y-30158D01*
X70780Y-30187D01*
X70780Y-30215D01*
X70795Y-30244D01*
X70809Y-30258D01*
X70838Y-30272D01*
X70938Y-30272D01*
G54D12*
X53703Y-38589D02*
X53761Y-38551D01*
X53789Y-38475D01*
X53789Y-37789D01*
X53247Y-38551D02*
X53304Y-38589D01*
X53418Y-38589D01*
X53475Y-38551D01*
X53504Y-38475D01*
X53504Y-38170D01*
X53475Y-38094D01*
X53418Y-38055D01*
X53304Y-38055D01*
X53247Y-38094D01*
X53218Y-38170D01*
X53218Y-38246D01*
X53504Y-38322D01*
X52704Y-38589D02*
X52704Y-38170D01*
X52733Y-38094D01*
X52790Y-38055D01*
X52904Y-38055D01*
X52961Y-38094D01*
X52704Y-38551D02*
X52761Y-38589D01*
X52904Y-38589D01*
X52961Y-38551D01*
X52990Y-38475D01*
X52990Y-38398D01*
X52961Y-38322D01*
X52904Y-38284D01*
X52761Y-38284D01*
X52704Y-38246D01*
X52418Y-38589D02*
X52418Y-38055D01*
X52418Y-38208D02*
X52390Y-38132D01*
X52361Y-38094D01*
X52304Y-38055D01*
X52247Y-38055D01*
X52047Y-38055D02*
X52047Y-38589D01*
X52047Y-38132D02*
X52019Y-38094D01*
X51961Y-38055D01*
X51876Y-38055D01*
X51819Y-38094D01*
X51790Y-38170D01*
X51790Y-38589D01*
X51504Y-38589D02*
X51504Y-38055D01*
X51504Y-37789D02*
X51533Y-37827D01*
X51504Y-37865D01*
X51476Y-37827D01*
X51504Y-37789D01*
X51504Y-37865D01*
X51218Y-38055D02*
X51218Y-38589D01*
X51218Y-38132D02*
X51190Y-38094D01*
X51132Y-38055D01*
X51047Y-38055D01*
X50990Y-38094D01*
X50961Y-38170D01*
X50961Y-38589D01*
X50418Y-38055D02*
X50418Y-38703D01*
X50447Y-38779D01*
X50475Y-38817D01*
X50532Y-38855D01*
X50618Y-38855D01*
X50675Y-38817D01*
X50418Y-38551D02*
X50475Y-38589D01*
X50589Y-38589D01*
X50647Y-38551D01*
X50675Y-38513D01*
X50704Y-38436D01*
X50704Y-38208D01*
X50675Y-38132D01*
X50647Y-38094D01*
X50589Y-38055D01*
X50475Y-38055D01*
X50418Y-38094D01*
X50132Y-38589D02*
X50132Y-38055D01*
X50132Y-37789D02*
X50161Y-37827D01*
X50132Y-37865D01*
X50104Y-37827D01*
X50132Y-37789D01*
X50132Y-37865D01*
X49846Y-38055D02*
X49846Y-38589D01*
X49846Y-38132D02*
X49818Y-38094D01*
X49760Y-38055D01*
X49675Y-38055D01*
X49618Y-38094D01*
X49589Y-38170D01*
X49589Y-38589D01*
X49360Y-38055D02*
X49217Y-38589D01*
X49075Y-38055D01*
X48618Y-38551D02*
X48675Y-38589D01*
X48789Y-38589D01*
X48846Y-38551D01*
X48875Y-38475D01*
X48875Y-38170D01*
X48846Y-38094D01*
X48789Y-38055D01*
X48675Y-38055D01*
X48618Y-38094D01*
X48589Y-38170D01*
X48589Y-38246D01*
X48875Y-38322D01*
X48332Y-38055D02*
X48332Y-38589D01*
X48332Y-38132D02*
X48304Y-38094D01*
X48246Y-38055D01*
X48161Y-38055D01*
X48104Y-38094D01*
X48075Y-38170D01*
X48075Y-38589D01*
X47875Y-38055D02*
X47646Y-38055D01*
X47789Y-37789D02*
X47789Y-38475D01*
X47761Y-38551D01*
X47703Y-38589D01*
X47646Y-38589D01*
X47446Y-38589D02*
X47446Y-38055D01*
X47446Y-37789D02*
X47475Y-37827D01*
X47446Y-37865D01*
X47418Y-37827D01*
X47446Y-37789D01*
X47446Y-37865D01*
X47074Y-38589D02*
X47132Y-38551D01*
X47160Y-38513D01*
X47189Y-38436D01*
X47189Y-38208D01*
X47160Y-38132D01*
X47132Y-38094D01*
X47074Y-38055D01*
X46989Y-38055D01*
X46932Y-38094D01*
X46903Y-38132D01*
X46874Y-38208D01*
X46874Y-38436D01*
X46903Y-38513D01*
X46932Y-38551D01*
X46989Y-38589D01*
X47074Y-38589D01*
X46617Y-38055D02*
X46617Y-38589D01*
X46617Y-38132D02*
X46589Y-38094D01*
X46531Y-38055D01*
X46446Y-38055D01*
X46389Y-38094D01*
X46360Y-38170D01*
X46360Y-38589D01*
X46103Y-38551D02*
X46046Y-38589D01*
X45931Y-38589D01*
X45874Y-38551D01*
X45846Y-38475D01*
X45846Y-38436D01*
X45874Y-38360D01*
X45931Y-38322D01*
X46017Y-38322D01*
X46074Y-38284D01*
X46103Y-38208D01*
X46103Y-38170D01*
X46074Y-38094D01*
X46017Y-38055D01*
X45931Y-38055D01*
X45874Y-38094D01*
X45588Y-38513D02*
X45560Y-38551D01*
X45588Y-38589D01*
X45617Y-38551D01*
X45588Y-38513D01*
X45588Y-38589D01*
X45216Y-38589D02*
X45274Y-38551D01*
X45302Y-38513D01*
X45331Y-38436D01*
X45331Y-38208D01*
X45302Y-38132D01*
X45274Y-38094D01*
X45216Y-38055D01*
X45131Y-38055D01*
X45074Y-38094D01*
X45045Y-38132D01*
X45016Y-38208D01*
X45016Y-38436D01*
X45045Y-38513D01*
X45074Y-38551D01*
X45131Y-38589D01*
X45216Y-38589D01*
X44759Y-38589D02*
X44759Y-38055D01*
X44759Y-38208D02*
X44731Y-38132D01*
X44702Y-38094D01*
X44645Y-38055D01*
X44588Y-38055D01*
X44131Y-38055D02*
X44131Y-38703D01*
X44160Y-38779D01*
X44188Y-38817D01*
X44245Y-38855D01*
X44331Y-38855D01*
X44388Y-38817D01*
X44131Y-38551D02*
X44188Y-38589D01*
X44302Y-38589D01*
X44360Y-38551D01*
X44388Y-38513D01*
X44417Y-38436D01*
X44417Y-38208D01*
X44388Y-38132D01*
X44360Y-38094D01*
X44302Y-38055D01*
X44188Y-38055D01*
X44131Y-38094D01*
G54D13*
X67048Y-36975D02*
X67182Y-36784D01*
X67277Y-36975D02*
X67277Y-36575D01*
X67124Y-36575D01*
X67086Y-36594D01*
X67067Y-36613D01*
X67048Y-36651D01*
X67048Y-36708D01*
X67067Y-36746D01*
X67086Y-36765D01*
X67124Y-36784D01*
X67277Y-36784D01*
X66915Y-36975D02*
X66705Y-36708D01*
X66915Y-36708D02*
X66705Y-36975D01*
X66267Y-36556D02*
X66610Y-37070D01*
X66191Y-36575D02*
X65962Y-36575D01*
X66077Y-36975D02*
X66077Y-36575D01*
X65867Y-36975D02*
X65657Y-36708D01*
X65867Y-36708D02*
X65657Y-36975D01*
X65219Y-36556D02*
X65562Y-37070D01*
X64876Y-36594D02*
X64914Y-36575D01*
X64971Y-36575D01*
X65029Y-36594D01*
X65067Y-36632D01*
X65086Y-36670D01*
X65105Y-36746D01*
X65105Y-36803D01*
X65086Y-36880D01*
X65067Y-36918D01*
X65029Y-36956D01*
X64971Y-36975D01*
X64933Y-36975D01*
X64876Y-36956D01*
X64857Y-36937D01*
X64857Y-36803D01*
X64933Y-36803D01*
X64686Y-36975D02*
X64686Y-36575D01*
X64457Y-36975D01*
X64457Y-36575D01*
X64267Y-36975D02*
X64267Y-36575D01*
X64172Y-36575D01*
X64114Y-36594D01*
X64076Y-36632D01*
X64057Y-36670D01*
X64038Y-36746D01*
X64038Y-36803D01*
X64057Y-36880D01*
X64076Y-36918D01*
X64114Y-36956D01*
X64172Y-36975D01*
X64267Y-36975D01*
X69192Y-42931D02*
X68944Y-42931D01*
X69078Y-43083D01*
X69020Y-43083D01*
X68982Y-43102D01*
X68963Y-43121D01*
X68944Y-43159D01*
X68944Y-43255D01*
X68963Y-43293D01*
X68982Y-43312D01*
X69020Y-43331D01*
X69135Y-43331D01*
X69173Y-43312D01*
X69192Y-43293D01*
X68830Y-42931D02*
X68697Y-43331D01*
X68563Y-42931D01*
X68468Y-42931D02*
X68220Y-42931D01*
X68354Y-43083D01*
X68296Y-43083D01*
X68258Y-43102D01*
X68239Y-43121D01*
X68220Y-43159D01*
X68220Y-43255D01*
X68239Y-43293D01*
X68258Y-43312D01*
X68296Y-43331D01*
X68411Y-43331D01*
X68449Y-43312D01*
X68468Y-43293D01*
X67763Y-42912D02*
X68106Y-43426D01*
X67630Y-43331D02*
X67630Y-42931D01*
X67496Y-43217D01*
X67363Y-42931D01*
X67363Y-43331D01*
X66944Y-43293D02*
X66963Y-43312D01*
X67020Y-43331D01*
X67058Y-43331D01*
X67116Y-43312D01*
X67154Y-43274D01*
X67173Y-43236D01*
X67192Y-43159D01*
X67192Y-43102D01*
X67173Y-43026D01*
X67154Y-42988D01*
X67116Y-42950D01*
X67058Y-42931D01*
X67020Y-42931D01*
X66963Y-42950D01*
X66944Y-42969D01*
X66582Y-43331D02*
X66773Y-43331D01*
X66773Y-42931D01*
X66220Y-43331D02*
X66354Y-43140D01*
X66449Y-43331D02*
X66449Y-42931D01*
X66296Y-42931D01*
X66258Y-42950D01*
X66239Y-42969D01*
X66220Y-43007D01*
X66220Y-43064D01*
X66239Y-43102D01*
X66258Y-43121D01*
X66296Y-43140D01*
X66449Y-43140D01*
X69412Y-42309D02*
X69412Y-41909D01*
X69278Y-42195D01*
X69145Y-41909D01*
X69145Y-42309D01*
X68955Y-42309D02*
X68955Y-41909D01*
X68784Y-42290D02*
X68727Y-42309D01*
X68631Y-42309D01*
X68593Y-42290D01*
X68574Y-42271D01*
X68555Y-42233D01*
X68555Y-42195D01*
X68574Y-42157D01*
X68593Y-42137D01*
X68631Y-42118D01*
X68708Y-42099D01*
X68746Y-42080D01*
X68765Y-42061D01*
X68784Y-42023D01*
X68784Y-41985D01*
X68765Y-41947D01*
X68746Y-41928D01*
X68708Y-41909D01*
X68612Y-41909D01*
X68555Y-41928D01*
X68308Y-41909D02*
X68231Y-41909D01*
X68193Y-41928D01*
X68155Y-41966D01*
X68136Y-42042D01*
X68136Y-42176D01*
X68155Y-42252D01*
X68193Y-42290D01*
X68231Y-42309D01*
X68308Y-42309D01*
X68346Y-42290D01*
X68384Y-42252D01*
X68403Y-42176D01*
X68403Y-42042D01*
X68384Y-41966D01*
X68346Y-41928D01*
X68308Y-41909D01*
X67679Y-41890D02*
X68022Y-42404D01*
X67584Y-41909D02*
X67336Y-41909D01*
X67470Y-42061D01*
X67412Y-42061D01*
X67374Y-42080D01*
X67355Y-42099D01*
X67336Y-42137D01*
X67336Y-42233D01*
X67355Y-42271D01*
X67374Y-42290D01*
X67412Y-42309D01*
X67527Y-42309D01*
X67565Y-42290D01*
X67584Y-42271D01*
X67222Y-41909D02*
X67089Y-42309D01*
X66955Y-41909D01*
X66860Y-41909D02*
X66612Y-41909D01*
X66746Y-42061D01*
X66688Y-42061D01*
X66650Y-42080D01*
X66631Y-42099D01*
X66612Y-42137D01*
X66612Y-42233D01*
X66631Y-42271D01*
X66650Y-42290D01*
X66688Y-42309D01*
X66803Y-42309D01*
X66841Y-42290D01*
X66860Y-42271D01*
X69465Y-41315D02*
X69465Y-40915D01*
X69331Y-41201D01*
X69198Y-40915D01*
X69198Y-41315D01*
X68932Y-40915D02*
X68855Y-40915D01*
X68817Y-40934D01*
X68779Y-40972D01*
X68760Y-41048D01*
X68760Y-41182D01*
X68779Y-41258D01*
X68817Y-41296D01*
X68855Y-41315D01*
X68932Y-41315D01*
X68970Y-41296D01*
X69008Y-41258D01*
X69027Y-41182D01*
X69027Y-41048D01*
X69008Y-40972D01*
X68970Y-40934D01*
X68932Y-40915D01*
X68608Y-41296D02*
X68551Y-41315D01*
X68455Y-41315D01*
X68417Y-41296D01*
X68398Y-41277D01*
X68379Y-41239D01*
X68379Y-41201D01*
X68398Y-41163D01*
X68417Y-41143D01*
X68455Y-41124D01*
X68532Y-41105D01*
X68570Y-41086D01*
X68589Y-41067D01*
X68608Y-41029D01*
X68608Y-40991D01*
X68589Y-40953D01*
X68570Y-40934D01*
X68532Y-40915D01*
X68436Y-40915D01*
X68379Y-40934D01*
X68208Y-41315D02*
X68208Y-40915D01*
X67732Y-40896D02*
X68075Y-41410D01*
X67389Y-40934D02*
X67427Y-40915D01*
X67484Y-40915D01*
X67542Y-40934D01*
X67580Y-40972D01*
X67599Y-41010D01*
X67618Y-41086D01*
X67618Y-41143D01*
X67599Y-41220D01*
X67580Y-41258D01*
X67542Y-41296D01*
X67484Y-41315D01*
X67446Y-41315D01*
X67389Y-41296D01*
X67370Y-41277D01*
X67370Y-41143D01*
X67446Y-41143D01*
X67199Y-41315D02*
X67199Y-40915D01*
X66970Y-41315D01*
X66970Y-40915D01*
X66780Y-41315D02*
X66780Y-40915D01*
X66685Y-40915D01*
X66627Y-40934D01*
X66589Y-40972D01*
X66570Y-41010D01*
X66551Y-41086D01*
X66551Y-41143D01*
X66570Y-41220D01*
X66589Y-41258D01*
X66627Y-41296D01*
X66685Y-41315D01*
X66780Y-41315D01*
X69254Y-40293D02*
X69197Y-40312D01*
X69101Y-40312D01*
X69063Y-40293D01*
X69044Y-40274D01*
X69025Y-40236D01*
X69025Y-40198D01*
X69044Y-40160D01*
X69063Y-40140D01*
X69101Y-40121D01*
X69178Y-40102D01*
X69216Y-40083D01*
X69235Y-40064D01*
X69254Y-40026D01*
X69254Y-39988D01*
X69235Y-39950D01*
X69216Y-39931D01*
X69178Y-39912D01*
X69082Y-39912D01*
X69025Y-39931D01*
X68625Y-40274D02*
X68644Y-40293D01*
X68701Y-40312D01*
X68739Y-40312D01*
X68797Y-40293D01*
X68835Y-40255D01*
X68854Y-40217D01*
X68873Y-40140D01*
X68873Y-40083D01*
X68854Y-40007D01*
X68835Y-39969D01*
X68797Y-39931D01*
X68739Y-39912D01*
X68701Y-39912D01*
X68644Y-39931D01*
X68625Y-39950D01*
X68454Y-40312D02*
X68454Y-39912D01*
X68225Y-40312D02*
X68397Y-40083D01*
X68225Y-39912D02*
X68454Y-40140D01*
X67768Y-39893D02*
X68111Y-40407D01*
X67635Y-40312D02*
X67635Y-39912D01*
X67482Y-39912D01*
X67444Y-39931D01*
X67425Y-39950D01*
X67406Y-39988D01*
X67406Y-40045D01*
X67425Y-40083D01*
X67444Y-40102D01*
X67482Y-40121D01*
X67635Y-40121D01*
X67025Y-39931D02*
X67063Y-39912D01*
X67120Y-39912D01*
X67178Y-39931D01*
X67216Y-39969D01*
X67235Y-40007D01*
X67254Y-40083D01*
X67254Y-40140D01*
X67235Y-40217D01*
X67216Y-40255D01*
X67178Y-40293D01*
X67120Y-40312D01*
X67082Y-40312D01*
X67025Y-40293D01*
X67006Y-40274D01*
X67006Y-40140D01*
X67082Y-40140D01*
X66835Y-40312D02*
X66835Y-39912D01*
X66740Y-39912D01*
X66682Y-39931D01*
X66644Y-39969D01*
X66625Y-40007D01*
X66606Y-40083D01*
X66606Y-40140D01*
X66625Y-40217D01*
X66644Y-40255D01*
X66682Y-40293D01*
X66740Y-40312D01*
X66835Y-40312D01*
X69029Y-37966D02*
X69067Y-37947D01*
X69124Y-37947D01*
X69182Y-37966D01*
X69220Y-38004D01*
X69239Y-38042D01*
X69258Y-38118D01*
X69258Y-38175D01*
X69239Y-38252D01*
X69220Y-38290D01*
X69182Y-38328D01*
X69124Y-38347D01*
X69086Y-38347D01*
X69029Y-38328D01*
X69010Y-38309D01*
X69010Y-38175D01*
X69086Y-38175D01*
X68839Y-38347D02*
X68839Y-37947D01*
X68610Y-38347D01*
X68610Y-37947D01*
X68420Y-38347D02*
X68420Y-37947D01*
X68325Y-37947D01*
X68267Y-37966D01*
X68229Y-38004D01*
X68210Y-38042D01*
X68191Y-38118D01*
X68191Y-38175D01*
X68210Y-38252D01*
X68229Y-38290D01*
X68267Y-38328D01*
X68325Y-38347D01*
X68420Y-38347D01*
X67734Y-37928D02*
X68077Y-38442D01*
X67486Y-37947D02*
X67486Y-38233D01*
X67506Y-38290D01*
X67544Y-38328D01*
X67601Y-38347D01*
X67639Y-38347D01*
X67124Y-38080D02*
X67124Y-38347D01*
X67296Y-38080D02*
X67296Y-38290D01*
X67277Y-38328D01*
X67239Y-38347D01*
X67181Y-38347D01*
X67143Y-38328D01*
X67124Y-38309D01*
X66934Y-38347D02*
X66934Y-38080D01*
X66934Y-38118D02*
X66915Y-38099D01*
X66877Y-38080D01*
X66819Y-38080D01*
X66781Y-38099D01*
X66762Y-38137D01*
X66762Y-38347D01*
X66762Y-38137D02*
X66743Y-38099D01*
X66705Y-38080D01*
X66648Y-38080D01*
X66610Y-38099D01*
X66591Y-38137D01*
X66591Y-38347D01*
X66401Y-38080D02*
X66401Y-38480D01*
X66401Y-38099D02*
X66363Y-38080D01*
X66286Y-38080D01*
X66248Y-38099D01*
X66229Y-38118D01*
X66210Y-38156D01*
X66210Y-38271D01*
X66229Y-38309D01*
X66248Y-38328D01*
X66286Y-38347D01*
X66363Y-38347D01*
X66401Y-38328D01*
X65886Y-38328D02*
X65924Y-38347D01*
X66001Y-38347D01*
X66039Y-38328D01*
X66058Y-38290D01*
X66058Y-38137D01*
X66039Y-38099D01*
X66001Y-38080D01*
X65924Y-38080D01*
X65886Y-38099D01*
X65867Y-38137D01*
X65867Y-38175D01*
X66058Y-38214D01*
X65696Y-38347D02*
X65696Y-38080D01*
X65696Y-38156D02*
X65677Y-38118D01*
X65658Y-38099D01*
X65620Y-38080D01*
X65581Y-38080D01*
X65143Y-38347D02*
X65143Y-37947D01*
X64972Y-37985D02*
X64953Y-37966D01*
X64915Y-37947D01*
X64819Y-37947D01*
X64781Y-37966D01*
X64762Y-37985D01*
X64743Y-38023D01*
X64743Y-38061D01*
X64762Y-38118D01*
X64991Y-38347D01*
X64743Y-38347D01*
X64343Y-38309D02*
X64362Y-38328D01*
X64419Y-38347D01*
X64457Y-38347D01*
X64515Y-38328D01*
X64553Y-38290D01*
X64572Y-38252D01*
X64591Y-38175D01*
X64591Y-38118D01*
X64572Y-38042D01*
X64553Y-38004D01*
X64515Y-37966D01*
X64457Y-37947D01*
X64419Y-37947D01*
X64362Y-37966D01*
X64343Y-37985D01*
X68990Y-39268D02*
X69009Y-39287D01*
X69066Y-39306D01*
X69104Y-39306D01*
X69162Y-39287D01*
X69200Y-39249D01*
X69219Y-39211D01*
X69238Y-39134D01*
X69238Y-39077D01*
X69219Y-39001D01*
X69200Y-38963D01*
X69162Y-38925D01*
X69104Y-38906D01*
X69066Y-38906D01*
X69009Y-38925D01*
X68990Y-38944D01*
X68838Y-39287D02*
X68781Y-39306D01*
X68685Y-39306D01*
X68647Y-39287D01*
X68628Y-39268D01*
X68609Y-39230D01*
X68609Y-39192D01*
X68628Y-39154D01*
X68647Y-39134D01*
X68685Y-39115D01*
X68762Y-39096D01*
X68800Y-39077D01*
X68819Y-39058D01*
X68838Y-39020D01*
X68838Y-38982D01*
X68819Y-38944D01*
X68800Y-38925D01*
X68762Y-38906D01*
X68666Y-38906D01*
X68609Y-38925D01*
X68457Y-39039D02*
X68171Y-39039D01*
X68343Y-38868D02*
X68457Y-39382D01*
X68209Y-39211D02*
X68495Y-39211D01*
X68323Y-39382D02*
X68209Y-38868D01*
X67752Y-38887D02*
X68095Y-39401D01*
X67619Y-39306D02*
X67619Y-38906D01*
X67466Y-38906D01*
X67428Y-38925D01*
X67409Y-38944D01*
X67390Y-38982D01*
X67390Y-39039D01*
X67409Y-39077D01*
X67428Y-39096D01*
X67466Y-39115D01*
X67619Y-39115D01*
X67009Y-38925D02*
X67047Y-38906D01*
X67104Y-38906D01*
X67162Y-38925D01*
X67200Y-38963D01*
X67219Y-39001D01*
X67238Y-39077D01*
X67238Y-39134D01*
X67219Y-39211D01*
X67200Y-39249D01*
X67162Y-39287D01*
X67104Y-39306D01*
X67066Y-39306D01*
X67009Y-39287D01*
X66990Y-39268D01*
X66990Y-39134D01*
X67066Y-39134D01*
X66590Y-39268D02*
X66609Y-39287D01*
X66666Y-39306D01*
X66704Y-39306D01*
X66762Y-39287D01*
X66800Y-39249D01*
X66819Y-39211D01*
X66838Y-39134D01*
X66838Y-39077D01*
X66819Y-39001D01*
X66800Y-38963D01*
X66762Y-38925D01*
X66704Y-38906D01*
X66666Y-38906D01*
X66609Y-38925D01*
X66590Y-38944D01*
G54D11*
X70108Y-36879D02*
X70251Y-36879D01*
X70265Y-37022D01*
X70251Y-37008D01*
X70222Y-36994D01*
X70151Y-36994D01*
X70122Y-37008D01*
X70108Y-37022D01*
X70093Y-37051D01*
X70093Y-37122D01*
X70108Y-37151D01*
X70122Y-37165D01*
X70151Y-37179D01*
X70222Y-37179D01*
X70251Y-37165D01*
X70265Y-37151D01*
X70007Y-36879D02*
X69907Y-37179D01*
X69807Y-36879D01*
X69493Y-36865D02*
X69750Y-37251D01*
X69251Y-36879D02*
X69394Y-36879D01*
X69408Y-37022D01*
X69394Y-37008D01*
X69365Y-36994D01*
X69294Y-36994D01*
X69265Y-37008D01*
X69251Y-37022D01*
X69236Y-37051D01*
X69236Y-37122D01*
X69251Y-37151D01*
X69265Y-37165D01*
X69294Y-37179D01*
X69365Y-37179D01*
X69394Y-37165D01*
X69408Y-37151D01*
X69150Y-36879D02*
X69050Y-37179D01*
X68950Y-36879D01*
X70309Y-36179D02*
X70266Y-36193D01*
X70195Y-36193D01*
X70166Y-36179D01*
X70152Y-36165D01*
X70137Y-36136D01*
X70137Y-36108D01*
X70152Y-36079D01*
X70166Y-36065D01*
X70195Y-36051D01*
X70252Y-36036D01*
X70280Y-36022D01*
X70295Y-36008D01*
X70309Y-35979D01*
X70309Y-35951D01*
X70295Y-35922D01*
X70280Y-35908D01*
X70252Y-35893D01*
X70180Y-35893D01*
X70137Y-35908D01*
X70009Y-36193D02*
X70009Y-35893D01*
X69937Y-35893D01*
X69894Y-35908D01*
X69866Y-35936D01*
X69851Y-35965D01*
X69837Y-36022D01*
X69837Y-36065D01*
X69851Y-36122D01*
X69866Y-36151D01*
X69894Y-36179D01*
X69937Y-36193D01*
X70009Y-36193D01*
X69723Y-36108D02*
X69580Y-36108D01*
X69751Y-36193D02*
X69651Y-35893D01*
X69551Y-36193D01*
X69294Y-36193D02*
X69466Y-36193D01*
X69380Y-36193D02*
X69380Y-35893D01*
X69409Y-35936D01*
X69437Y-35965D01*
X69466Y-35979D01*
X68951Y-35879D02*
X69208Y-36265D01*
X68866Y-36179D02*
X68823Y-36193D01*
X68752Y-36193D01*
X68723Y-36179D01*
X68709Y-36165D01*
X68694Y-36136D01*
X68694Y-36108D01*
X68709Y-36079D01*
X68723Y-36065D01*
X68752Y-36051D01*
X68809Y-36036D01*
X68837Y-36022D01*
X68852Y-36008D01*
X68866Y-35979D01*
X68866Y-35951D01*
X68852Y-35922D01*
X68837Y-35908D01*
X68809Y-35893D01*
X68737Y-35893D01*
X68694Y-35908D01*
X68566Y-36193D02*
X68566Y-35893D01*
X68494Y-35893D01*
X68451Y-35908D01*
X68423Y-35936D01*
X68408Y-35965D01*
X68394Y-36022D01*
X68394Y-36065D01*
X68408Y-36122D01*
X68423Y-36151D01*
X68451Y-36179D01*
X68494Y-36193D01*
X68566Y-36193D01*
X68280Y-36108D02*
X68137Y-36108D01*
X68308Y-36193D02*
X68208Y-35893D01*
X68108Y-36193D01*
X68023Y-35922D02*
X68009Y-35908D01*
X67980Y-35893D01*
X67909Y-35893D01*
X67880Y-35908D01*
X67866Y-35922D01*
X67851Y-35951D01*
X67851Y-35979D01*
X67866Y-36022D01*
X68037Y-36193D01*
X67851Y-36193D01*
X70284Y-35149D02*
X70241Y-35163D01*
X70170Y-35163D01*
X70141Y-35149D01*
X70127Y-35135D01*
X70112Y-35106D01*
X70112Y-35078D01*
X70127Y-35049D01*
X70141Y-35035D01*
X70170Y-35021D01*
X70227Y-35006D01*
X70255Y-34992D01*
X70270Y-34978D01*
X70284Y-34949D01*
X70284Y-34921D01*
X70270Y-34892D01*
X70255Y-34878D01*
X70227Y-34863D01*
X70155Y-34863D01*
X70112Y-34878D01*
X69812Y-35135D02*
X69826Y-35149D01*
X69869Y-35163D01*
X69898Y-35163D01*
X69941Y-35149D01*
X69969Y-35121D01*
X69984Y-35092D01*
X69998Y-35035D01*
X69998Y-34992D01*
X69984Y-34935D01*
X69969Y-34906D01*
X69941Y-34878D01*
X69898Y-34863D01*
X69869Y-34863D01*
X69826Y-34878D01*
X69812Y-34892D01*
X69541Y-35163D02*
X69684Y-35163D01*
X69684Y-34863D01*
X69283Y-35163D02*
X69455Y-35163D01*
X69369Y-35163D02*
X69369Y-34863D01*
X69398Y-34906D01*
X69426Y-34935D01*
X69455Y-34949D01*
X68940Y-34849D02*
X69197Y-35235D01*
X68855Y-35149D02*
X68812Y-35163D01*
X68741Y-35163D01*
X68712Y-35149D01*
X68698Y-35135D01*
X68683Y-35106D01*
X68683Y-35078D01*
X68698Y-35049D01*
X68712Y-35035D01*
X68741Y-35021D01*
X68798Y-35006D01*
X68826Y-34992D01*
X68841Y-34978D01*
X68855Y-34949D01*
X68855Y-34921D01*
X68841Y-34892D01*
X68826Y-34878D01*
X68798Y-34863D01*
X68726Y-34863D01*
X68683Y-34878D01*
X68383Y-35135D02*
X68397Y-35149D01*
X68440Y-35163D01*
X68469Y-35163D01*
X68512Y-35149D01*
X68540Y-35121D01*
X68555Y-35092D01*
X68569Y-35035D01*
X68569Y-34992D01*
X68555Y-34935D01*
X68540Y-34906D01*
X68512Y-34878D01*
X68469Y-34863D01*
X68440Y-34863D01*
X68397Y-34878D01*
X68383Y-34892D01*
X68112Y-35163D02*
X68255Y-35163D01*
X68255Y-34863D01*
X68026Y-34892D02*
X68012Y-34878D01*
X67983Y-34863D01*
X67912Y-34863D01*
X67883Y-34878D01*
X67869Y-34892D01*
X67854Y-34921D01*
X67854Y-34949D01*
X67869Y-34992D01*
X68040Y-35163D01*
X67854Y-35163D01*
X70135Y-33877D02*
X70164Y-33862D01*
X70207Y-33862D01*
X70250Y-33877D01*
X70278Y-33905D01*
X70293Y-33934D01*
X70307Y-33991D01*
X70307Y-34034D01*
X70293Y-34091D01*
X70278Y-34120D01*
X70250Y-34148D01*
X70207Y-34162D01*
X70178Y-34162D01*
X70135Y-34148D01*
X70121Y-34134D01*
X70121Y-34034D01*
X70178Y-34034D01*
X69993Y-34162D02*
X69993Y-33862D01*
X69821Y-34162D01*
X69821Y-33862D01*
X69679Y-34162D02*
X69679Y-33862D01*
X69607Y-33862D01*
X69564Y-33877D01*
X69536Y-33905D01*
X69521Y-33934D01*
X69507Y-33991D01*
X69507Y-34034D01*
X69521Y-34091D01*
X69536Y-34120D01*
X69564Y-34148D01*
X69607Y-34162D01*
X69679Y-34162D01*
X69164Y-33848D02*
X69421Y-34234D01*
X68907Y-33877D02*
X68936Y-33862D01*
X68979Y-33862D01*
X69022Y-33877D01*
X69050Y-33905D01*
X69065Y-33934D01*
X69079Y-33991D01*
X69079Y-34034D01*
X69065Y-34091D01*
X69050Y-34120D01*
X69022Y-34148D01*
X68979Y-34162D01*
X68950Y-34162D01*
X68907Y-34148D01*
X68893Y-34134D01*
X68893Y-34034D01*
X68950Y-34034D01*
X68765Y-34162D02*
X68765Y-33862D01*
X68593Y-34162D01*
X68593Y-33862D01*
X68451Y-34162D02*
X68451Y-33862D01*
X68379Y-33862D01*
X68336Y-33877D01*
X68308Y-33905D01*
X68293Y-33934D01*
X68279Y-33991D01*
X68279Y-34034D01*
X68293Y-34091D01*
X68308Y-34120D01*
X68336Y-34148D01*
X68379Y-34162D01*
X68451Y-34162D01*
X61115Y-35555D02*
X60875Y-35555D01*
X60995Y-36105D02*
X60995Y-35555D01*
X60575Y-36078D02*
X60615Y-36105D01*
X60695Y-36105D01*
X60735Y-36078D01*
X60755Y-36026D01*
X60755Y-35817D01*
X60735Y-35764D01*
X60695Y-35738D01*
X60615Y-35738D01*
X60575Y-35764D01*
X60555Y-35817D01*
X60555Y-35869D01*
X60755Y-35921D01*
X60195Y-36078D02*
X60235Y-36105D01*
X60315Y-36105D01*
X60355Y-36078D01*
X60375Y-36052D01*
X60395Y-36000D01*
X60395Y-35843D01*
X60375Y-35790D01*
X60355Y-35764D01*
X60315Y-35738D01*
X60235Y-35738D01*
X60195Y-35764D01*
X60015Y-36105D02*
X60015Y-35555D01*
X59835Y-36105D02*
X59835Y-35817D01*
X59855Y-35764D01*
X59895Y-35738D01*
X59955Y-35738D01*
X59995Y-35764D01*
X60015Y-35790D01*
X59635Y-35738D02*
X59635Y-36105D01*
X59635Y-35790D02*
X59615Y-35764D01*
X59575Y-35738D01*
X59515Y-35738D01*
X59475Y-35764D01*
X59455Y-35817D01*
X59455Y-36105D01*
X59195Y-36105D02*
X59235Y-36078D01*
X59255Y-36052D01*
X59275Y-36000D01*
X59275Y-35843D01*
X59255Y-35790D01*
X59235Y-35764D01*
X59195Y-35738D01*
X59135Y-35738D01*
X59095Y-35764D01*
X59075Y-35790D01*
X59055Y-35843D01*
X59055Y-36000D01*
X59075Y-36052D01*
X59095Y-36078D01*
X59135Y-36105D01*
X59195Y-36105D01*
X58815Y-36105D02*
X58855Y-36078D01*
X58875Y-36026D01*
X58875Y-35555D01*
X58595Y-36105D02*
X58635Y-36078D01*
X58655Y-36052D01*
X58675Y-36000D01*
X58675Y-35843D01*
X58655Y-35790D01*
X58635Y-35764D01*
X58595Y-35738D01*
X58535Y-35738D01*
X58495Y-35764D01*
X58475Y-35790D01*
X58455Y-35843D01*
X58455Y-36000D01*
X58475Y-36052D01*
X58495Y-36078D01*
X58535Y-36105D01*
X58595Y-36105D01*
X58095Y-35738D02*
X58095Y-36183D01*
X58115Y-36236D01*
X58135Y-36262D01*
X58175Y-36288D01*
X58235Y-36288D01*
X58275Y-36262D01*
X58095Y-36078D02*
X58135Y-36105D01*
X58215Y-36105D01*
X58255Y-36078D01*
X58275Y-36052D01*
X58295Y-36000D01*
X58295Y-35843D01*
X58275Y-35790D01*
X58255Y-35764D01*
X58215Y-35738D01*
X58135Y-35738D01*
X58095Y-35764D01*
X57895Y-36105D02*
X57895Y-35738D01*
X57895Y-35555D02*
X57915Y-35581D01*
X57895Y-35607D01*
X57875Y-35581D01*
X57895Y-35555D01*
X57895Y-35607D01*
X57535Y-36078D02*
X57575Y-36105D01*
X57655Y-36105D01*
X57695Y-36078D01*
X57715Y-36026D01*
X57715Y-35817D01*
X57695Y-35764D01*
X57655Y-35738D01*
X57575Y-35738D01*
X57535Y-35764D01*
X57515Y-35817D01*
X57515Y-35869D01*
X57715Y-35921D01*
X57355Y-36078D02*
X57315Y-36105D01*
X57235Y-36105D01*
X57195Y-36078D01*
X57175Y-36026D01*
X57175Y-36000D01*
X57195Y-35947D01*
X57235Y-35921D01*
X57295Y-35921D01*
X57335Y-35895D01*
X57355Y-35843D01*
X57355Y-35817D01*
X57335Y-35764D01*
X57295Y-35738D01*
X57235Y-35738D01*
X57195Y-35764D01*
X56475Y-36105D02*
X56675Y-36105D01*
X56675Y-35555D01*
X56155Y-36105D02*
X56155Y-35817D01*
X56175Y-35764D01*
X56215Y-35738D01*
X56295Y-35738D01*
X56335Y-35764D01*
X56155Y-36078D02*
X56195Y-36105D01*
X56295Y-36105D01*
X56335Y-36078D01*
X56355Y-36026D01*
X56355Y-35974D01*
X56335Y-35921D01*
X56295Y-35895D01*
X56195Y-35895D01*
X56155Y-35869D01*
X55955Y-36105D02*
X55955Y-35555D01*
X55955Y-35764D02*
X55915Y-35738D01*
X55835Y-35738D01*
X55795Y-35764D01*
X55775Y-35790D01*
X55755Y-35843D01*
X55755Y-36000D01*
X55775Y-36052D01*
X55795Y-36078D01*
X55835Y-36105D01*
X55915Y-36105D01*
X55955Y-36078D01*
X61131Y-34966D02*
X60960Y-34966D01*
X61046Y-35266D02*
X61046Y-34966D01*
X60860Y-35266D02*
X60860Y-35066D01*
X60860Y-35124D02*
X60845Y-35095D01*
X60831Y-35081D01*
X60802Y-35066D01*
X60774Y-35066D01*
X60545Y-35266D02*
X60545Y-35109D01*
X60559Y-35081D01*
X60588Y-35066D01*
X60645Y-35066D01*
X60674Y-35081D01*
X60545Y-35252D02*
X60574Y-35266D01*
X60645Y-35266D01*
X60674Y-35252D01*
X60688Y-35224D01*
X60688Y-35195D01*
X60674Y-35166D01*
X60645Y-35152D01*
X60574Y-35152D01*
X60545Y-35138D01*
X60403Y-35066D02*
X60403Y-35266D01*
X60403Y-35095D02*
X60388Y-35081D01*
X60360Y-35066D01*
X60317Y-35066D01*
X60288Y-35081D01*
X60274Y-35109D01*
X60274Y-35266D01*
X60146Y-35252D02*
X60117Y-35266D01*
X60060Y-35266D01*
X60032Y-35252D01*
X60017Y-35224D01*
X60017Y-35209D01*
X60032Y-35181D01*
X60060Y-35166D01*
X60103Y-35166D01*
X60132Y-35152D01*
X60146Y-35124D01*
X60146Y-35109D01*
X60132Y-35081D01*
X60103Y-35066D01*
X60060Y-35066D01*
X60032Y-35081D01*
X59931Y-35066D02*
X59817Y-35066D01*
X59889Y-35266D02*
X59889Y-35009D01*
X59874Y-34981D01*
X59846Y-34966D01*
X59817Y-34966D01*
X59675Y-35266D02*
X59703Y-35252D01*
X59718Y-35238D01*
X59732Y-35209D01*
X59732Y-35124D01*
X59718Y-35095D01*
X59703Y-35081D01*
X59675Y-35066D01*
X59632Y-35066D01*
X59603Y-35081D01*
X59589Y-35095D01*
X59575Y-35124D01*
X59575Y-35209D01*
X59589Y-35238D01*
X59603Y-35252D01*
X59632Y-35266D01*
X59675Y-35266D01*
X59447Y-35266D02*
X59447Y-35066D01*
X59447Y-35124D02*
X59432Y-35095D01*
X59418Y-35081D01*
X59389Y-35066D01*
X59361Y-35066D01*
X59261Y-35266D02*
X59261Y-35066D01*
X59261Y-35095D02*
X59246Y-35081D01*
X59218Y-35066D01*
X59175Y-35066D01*
X59146Y-35081D01*
X59132Y-35109D01*
X59132Y-35266D01*
X59132Y-35109D02*
X59118Y-35081D01*
X59089Y-35066D01*
X59046Y-35066D01*
X59018Y-35081D01*
X59003Y-35109D01*
X59003Y-35266D01*
X58732Y-35266D02*
X58732Y-35109D01*
X58746Y-35081D01*
X58775Y-35066D01*
X58832Y-35066D01*
X58861Y-35081D01*
X58732Y-35252D02*
X58761Y-35266D01*
X58832Y-35266D01*
X58861Y-35252D01*
X58875Y-35224D01*
X58875Y-35195D01*
X58861Y-35166D01*
X58832Y-35152D01*
X58761Y-35152D01*
X58732Y-35138D01*
X58632Y-35066D02*
X58518Y-35066D01*
X58590Y-34966D02*
X58590Y-35224D01*
X58575Y-35252D01*
X58547Y-35266D01*
X58518Y-35266D01*
X58419Y-35266D02*
X58419Y-35066D01*
X58419Y-34966D02*
X58433Y-34981D01*
X58419Y-34995D01*
X58404Y-34981D01*
X58419Y-34966D01*
X58419Y-34995D01*
X58304Y-35066D02*
X58233Y-35266D01*
X58161Y-35066D01*
X57932Y-35252D02*
X57961Y-35266D01*
X58018Y-35266D01*
X58047Y-35252D01*
X58061Y-35224D01*
X58061Y-35109D01*
X58047Y-35081D01*
X58018Y-35066D01*
X57961Y-35066D01*
X57932Y-35081D01*
X57918Y-35109D01*
X57918Y-35138D01*
X58061Y-35166D01*
X57418Y-35266D02*
X57561Y-35266D01*
X57561Y-34966D01*
X57203Y-35252D02*
X57232Y-35266D01*
X57289Y-35266D01*
X57318Y-35252D01*
X57332Y-35224D01*
X57332Y-35109D01*
X57318Y-35081D01*
X57289Y-35066D01*
X57232Y-35066D01*
X57203Y-35081D01*
X57189Y-35109D01*
X57189Y-35138D01*
X57332Y-35166D01*
X56932Y-35266D02*
X56932Y-35109D01*
X56946Y-35081D01*
X56975Y-35066D01*
X57032Y-35066D01*
X57061Y-35081D01*
X56932Y-35252D02*
X56961Y-35266D01*
X57032Y-35266D01*
X57061Y-35252D01*
X57075Y-35224D01*
X57075Y-35195D01*
X57061Y-35166D01*
X57032Y-35152D01*
X56961Y-35152D01*
X56932Y-35138D01*
X56790Y-35266D02*
X56790Y-35066D01*
X56790Y-35124D02*
X56775Y-35095D01*
X56761Y-35081D01*
X56732Y-35066D01*
X56704Y-35066D01*
X56604Y-35066D02*
X56604Y-35266D01*
X56604Y-35095D02*
X56589Y-35081D01*
X56561Y-35066D01*
X56518Y-35066D01*
X56489Y-35081D01*
X56475Y-35109D01*
X56475Y-35266D01*
X56333Y-35266D02*
X56333Y-35066D01*
X56333Y-34966D02*
X56347Y-34981D01*
X56333Y-34995D01*
X56318Y-34981D01*
X56333Y-34966D01*
X56333Y-34995D01*
X56190Y-35066D02*
X56190Y-35266D01*
X56190Y-35095D02*
X56175Y-35081D01*
X56147Y-35066D01*
X56104Y-35066D01*
X56075Y-35081D01*
X56061Y-35109D01*
X56061Y-35266D01*
X55790Y-35066D02*
X55790Y-35309D01*
X55804Y-35338D01*
X55819Y-35352D01*
X55847Y-35366D01*
X55890Y-35366D01*
X55919Y-35352D01*
X55790Y-35252D02*
X55819Y-35266D01*
X55876Y-35266D01*
X55904Y-35252D01*
X55919Y-35238D01*
X55933Y-35209D01*
X55933Y-35124D01*
X55919Y-35095D01*
X55904Y-35081D01*
X55876Y-35066D01*
X55819Y-35066D01*
X55790Y-35081D01*
G54D14*
X61167Y-32660D02*
X60138Y-32660D01*
X60652Y-34660D02*
X60652Y-32660D01*
X58681Y-34660D02*
X59538Y-34660D01*
X59538Y-32660D01*
X58339Y-32660D02*
X57310Y-32660D01*
X57824Y-34660D02*
X57824Y-32660D01*
X55853Y-34660D02*
X56710Y-34660D01*
X56710Y-32660D01*
G54D15*
X57158Y-43458D02*
X57158Y-42558D01*
X57158Y-42558D02*
X57808Y-42558D01*
X58508Y-43458D02*
X59158Y-43458D01*
X59158Y-43458D02*
X59158Y-42558D01*
X59158Y-42558D02*
X58508Y-42558D01*
X57808Y-43458D02*
X57158Y-43458D01*
X56816Y-41229D02*
X56816Y-40329D01*
X56816Y-40329D02*
X57466Y-40329D01*
X58166Y-41229D02*
X58816Y-41229D01*
X58816Y-41229D02*
X58816Y-40329D01*
X58816Y-40329D02*
X58166Y-40329D01*
X57466Y-41229D02*
X56816Y-41229D01*
X63333Y-38933D02*
X64233Y-38933D01*
X64233Y-38933D02*
X64233Y-39583D01*
X63333Y-40283D02*
X63333Y-40933D01*
X63333Y-40933D02*
X64233Y-40933D01*
X64233Y-40933D02*
X64233Y-40283D01*
X63333Y-39583D02*
X63333Y-38933D01*
X70820Y-43842D02*
X70819Y-43851D01*
X70816Y-43861D01*
X70811Y-43869D01*
X70805Y-43877D01*
X70797Y-43883D01*
X70789Y-43888D01*
X70780Y-43890D01*
X70770Y-43891D01*
X70761Y-43891D01*
X70752Y-43888D01*
X70743Y-43883D01*
X70736Y-43877D01*
X70729Y-43870D01*
X70725Y-43861D01*
X70722Y-43852D01*
X70721Y-43842D01*
X70721Y-43833D01*
X70724Y-43824D01*
X70728Y-43815D01*
X70735Y-43808D01*
X70742Y-43801D01*
X70750Y-43797D01*
X70760Y-43794D01*
X70769Y-43793D01*
X70778Y-43793D01*
X70788Y-43796D01*
X70796Y-43800D01*
X70804Y-43806D01*
X70810Y-43814D01*
X70815Y-43822D01*
X70818Y-43831D01*
X70819Y-43841D01*
X70820Y-43842D01*
X71220Y-43842D02*
X70820Y-43842D01*
X70820Y-43842D02*
X70820Y-44442D01*
X70820Y-44442D02*
X71220Y-44442D01*
X71620Y-44442D02*
X72020Y-44442D01*
X72020Y-44442D02*
X72020Y-43842D01*
X72020Y-43842D02*
X71620Y-43842D01*
X50894Y-31186D02*
X50893Y-31195D01*
X50890Y-31205D01*
X50885Y-31213D01*
X50879Y-31221D01*
X50871Y-31227D01*
X50863Y-31232D01*
X50854Y-31234D01*
X50844Y-31235D01*
X50835Y-31235D01*
X50826Y-31232D01*
X50817Y-31227D01*
X50810Y-31221D01*
X50803Y-31214D01*
X50799Y-31205D01*
X50796Y-31196D01*
X50795Y-31186D01*
X50795Y-31177D01*
X50798Y-31168D01*
X50802Y-31159D01*
X50809Y-31152D01*
X50816Y-31145D01*
X50824Y-31141D01*
X50834Y-31138D01*
X50843Y-31137D01*
X50852Y-31137D01*
X50862Y-31140D01*
X50870Y-31144D01*
X50878Y-31150D01*
X50884Y-31158D01*
X50889Y-31166D01*
X50892Y-31175D01*
X50893Y-31185D01*
X50894Y-31186D01*
X50844Y-31636D02*
X50844Y-31236D01*
X50844Y-31236D02*
X50244Y-31236D01*
X50244Y-31236D02*
X50244Y-31636D01*
X50244Y-32036D02*
X50244Y-32436D01*
X50244Y-32436D02*
X50844Y-32436D01*
X50844Y-32436D02*
X50844Y-32036D01*
X53893Y-31193D02*
X53892Y-31202D01*
X53889Y-31212D01*
X53884Y-31220D01*
X53878Y-31228D01*
X53870Y-31234D01*
X53862Y-31239D01*
X53853Y-31241D01*
X53843Y-31242D01*
X53834Y-31242D01*
X53825Y-31239D01*
X53816Y-31234D01*
X53809Y-31228D01*
X53802Y-31221D01*
X53798Y-31212D01*
X53795Y-31203D01*
X53794Y-31193D01*
X53794Y-31184D01*
X53797Y-31175D01*
X53801Y-31166D01*
X53808Y-31159D01*
X53815Y-31152D01*
X53823Y-31148D01*
X53833Y-31145D01*
X53842Y-31144D01*
X53851Y-31144D01*
X53861Y-31147D01*
X53869Y-31151D01*
X53877Y-31157D01*
X53883Y-31165D01*
X53888Y-31173D01*
X53891Y-31182D01*
X53892Y-31192D01*
X53893Y-31193D01*
X53843Y-31643D02*
X53843Y-31243D01*
X53843Y-31243D02*
X53243Y-31243D01*
X53243Y-31243D02*
X53243Y-31643D01*
X53243Y-32043D02*
X53243Y-32443D01*
X53243Y-32443D02*
X53843Y-32443D01*
X53843Y-32443D02*
X53843Y-32043D01*
X57890Y-31207D02*
X57889Y-31216D01*
X57886Y-31226D01*
X57881Y-31234D01*
X57875Y-31242D01*
X57867Y-31248D01*
X57859Y-31253D01*
X57850Y-31255D01*
X57840Y-31256D01*
X57831Y-31256D01*
X57822Y-31253D01*
X57813Y-31248D01*
X57806Y-31242D01*
X57799Y-31235D01*
X57795Y-31226D01*
X57792Y-31217D01*
X57791Y-31207D01*
X57791Y-31198D01*
X57794Y-31189D01*
X57798Y-31180D01*
X57805Y-31173D01*
X57812Y-31166D01*
X57820Y-31162D01*
X57830Y-31159D01*
X57839Y-31158D01*
X57848Y-31158D01*
X57858Y-31161D01*
X57866Y-31165D01*
X57874Y-31171D01*
X57880Y-31179D01*
X57885Y-31187D01*
X57888Y-31196D01*
X57889Y-31206D01*
X57890Y-31207D01*
X57840Y-31657D02*
X57840Y-31257D01*
X57840Y-31257D02*
X57240Y-31257D01*
X57240Y-31257D02*
X57240Y-31657D01*
X57240Y-32057D02*
X57240Y-32457D01*
X57240Y-32457D02*
X57840Y-32457D01*
X57840Y-32457D02*
X57840Y-32057D01*
X60887Y-31174D02*
X60886Y-31183D01*
X60883Y-31193D01*
X60878Y-31201D01*
X60872Y-31209D01*
X60864Y-31215D01*
X60856Y-31220D01*
X60847Y-31222D01*
X60837Y-31223D01*
X60828Y-31223D01*
X60819Y-31220D01*
X60810Y-31215D01*
X60803Y-31209D01*
X60796Y-31202D01*
X60792Y-31193D01*
X60789Y-31184D01*
X60788Y-31174D01*
X60788Y-31165D01*
X60791Y-31156D01*
X60795Y-31147D01*
X60802Y-31140D01*
X60809Y-31133D01*
X60817Y-31129D01*
X60827Y-31126D01*
X60836Y-31125D01*
X60845Y-31125D01*
X60855Y-31128D01*
X60863Y-31132D01*
X60871Y-31138D01*
X60877Y-31146D01*
X60882Y-31154D01*
X60885Y-31163D01*
X60886Y-31173D01*
X60887Y-31174D01*
X60837Y-31624D02*
X60837Y-31224D01*
X60837Y-31224D02*
X60237Y-31224D01*
X60237Y-31224D02*
X60237Y-31624D01*
X60237Y-32024D02*
X60237Y-32424D01*
X60237Y-32424D02*
X60837Y-32424D01*
X60837Y-32424D02*
X60837Y-32024D01*
G54D16*
X51030Y-34220D02*
X51030Y-32920D01*
X52180Y-34220D02*
X51030Y-34220D01*
X50830Y-34620D02*
X52180Y-34620D01*
X50630Y-32920D02*
X50630Y-34420D01*
X52180Y-34620D02*
X52197Y-34619D01*
X52214Y-34616D01*
X52231Y-34613D01*
X52248Y-34607D01*
X52264Y-34601D01*
X52280Y-34593D01*
X52294Y-34583D01*
X52308Y-34573D01*
X52321Y-34561D01*
X52333Y-34548D01*
X52343Y-34534D01*
X52353Y-34519D01*
X52361Y-34504D01*
X52367Y-34488D01*
X52373Y-34471D01*
X52376Y-34454D01*
X52379Y-34437D01*
X52380Y-34420D01*
X52380Y-34420D02*
X52379Y-34403D01*
X52376Y-34386D01*
X52373Y-34369D01*
X52367Y-34352D01*
X52361Y-34336D01*
X52353Y-34321D01*
X52343Y-34306D01*
X52333Y-34292D01*
X52321Y-34279D01*
X52308Y-34267D01*
X52294Y-34257D01*
X52280Y-34247D01*
X52264Y-34239D01*
X52248Y-34233D01*
X52231Y-34227D01*
X52214Y-34224D01*
X52197Y-34221D01*
X52180Y-34220D01*
X50630Y-34420D02*
X50631Y-34437D01*
X50634Y-34454D01*
X50637Y-34471D01*
X50643Y-34488D01*
X50649Y-34504D01*
X50657Y-34519D01*
X50667Y-34534D01*
X50677Y-34548D01*
X50689Y-34561D01*
X50702Y-34573D01*
X50716Y-34583D01*
X50730Y-34593D01*
X50746Y-34601D01*
X50762Y-34607D01*
X50779Y-34613D01*
X50796Y-34616D01*
X50813Y-34619D01*
X50830Y-34620D01*
X50830Y-32720D02*
X50813Y-32721D01*
X50796Y-32724D01*
X50779Y-32727D01*
X50762Y-32733D01*
X50746Y-32739D01*
X50731Y-32747D01*
X50716Y-32757D01*
X50702Y-32767D01*
X50689Y-32779D01*
X50677Y-32792D01*
X50667Y-32806D01*
X50657Y-32821D01*
X50649Y-32836D01*
X50643Y-32852D01*
X50637Y-32869D01*
X50634Y-32886D01*
X50631Y-32903D01*
X50630Y-32920D01*
X51030Y-32920D02*
X51029Y-32903D01*
X51026Y-32886D01*
X51023Y-32869D01*
X51017Y-32852D01*
X51011Y-32836D01*
X51003Y-32821D01*
X50993Y-32806D01*
X50983Y-32792D01*
X50971Y-32779D01*
X50958Y-32767D01*
X50944Y-32757D01*
X50930Y-32747D01*
X50914Y-32739D01*
X50898Y-32733D01*
X50881Y-32727D01*
X50864Y-32724D01*
X50847Y-32721D01*
X50830Y-32720D01*
X50130Y-32920D02*
X50130Y-34420D01*
X50530Y-34420D02*
X50530Y-32920D01*
X50130Y-34420D02*
X50131Y-34437D01*
X50134Y-34454D01*
X50137Y-34471D01*
X50143Y-34488D01*
X50149Y-34504D01*
X50157Y-34519D01*
X50167Y-34534D01*
X50177Y-34548D01*
X50189Y-34561D01*
X50202Y-34573D01*
X50216Y-34583D01*
X50230Y-34593D01*
X50246Y-34601D01*
X50262Y-34607D01*
X50279Y-34613D01*
X50296Y-34616D01*
X50313Y-34619D01*
X50330Y-34620D01*
X50330Y-34620D02*
X50347Y-34619D01*
X50364Y-34616D01*
X50381Y-34613D01*
X50398Y-34607D01*
X50414Y-34601D01*
X50430Y-34593D01*
X50444Y-34583D01*
X50458Y-34573D01*
X50471Y-34561D01*
X50483Y-34548D01*
X50493Y-34534D01*
X50503Y-34519D01*
X50511Y-34504D01*
X50517Y-34488D01*
X50523Y-34471D01*
X50526Y-34454D01*
X50529Y-34437D01*
X50530Y-34420D01*
X50330Y-32720D02*
X50313Y-32721D01*
X50296Y-32724D01*
X50279Y-32727D01*
X50262Y-32733D01*
X50246Y-32739D01*
X50231Y-32747D01*
X50216Y-32757D01*
X50202Y-32767D01*
X50189Y-32779D01*
X50177Y-32792D01*
X50167Y-32806D01*
X50157Y-32821D01*
X50149Y-32836D01*
X50143Y-32852D01*
X50137Y-32869D01*
X50134Y-32886D01*
X50131Y-32903D01*
X50130Y-32920D01*
X50530Y-32920D02*
X50529Y-32903D01*
X50526Y-32886D01*
X50523Y-32869D01*
X50517Y-32852D01*
X50511Y-32836D01*
X50503Y-32821D01*
X50493Y-32806D01*
X50483Y-32792D01*
X50471Y-32779D01*
X50458Y-32767D01*
X50444Y-32757D01*
X50430Y-32747D01*
X50414Y-32739D01*
X50398Y-32733D01*
X50381Y-32727D01*
X50364Y-32724D01*
X50347Y-32721D01*
X50330Y-32720D01*
X48480Y-34620D02*
X49830Y-34620D01*
X49630Y-34220D02*
X48480Y-34220D01*
X48280Y-34420D02*
X48281Y-34437D01*
X48284Y-34454D01*
X48287Y-34471D01*
X48293Y-34488D01*
X48299Y-34504D01*
X48307Y-34519D01*
X48317Y-34534D01*
X48327Y-34548D01*
X48339Y-34561D01*
X48352Y-34573D01*
X48366Y-34583D01*
X48380Y-34593D01*
X48396Y-34601D01*
X48412Y-34607D01*
X48429Y-34613D01*
X48446Y-34616D01*
X48463Y-34619D01*
X48480Y-34620D01*
X48480Y-34220D02*
X48463Y-34221D01*
X48446Y-34224D01*
X48429Y-34227D01*
X48412Y-34233D01*
X48396Y-34239D01*
X48381Y-34247D01*
X48366Y-34257D01*
X48352Y-34267D01*
X48339Y-34279D01*
X48327Y-34292D01*
X48317Y-34306D01*
X48307Y-34321D01*
X48299Y-34336D01*
X48293Y-34352D01*
X48287Y-34369D01*
X48284Y-34386D01*
X48281Y-34403D01*
X48280Y-34420D01*
X49630Y-32920D02*
X49630Y-34220D01*
X50030Y-32920D02*
X50030Y-34420D01*
X49830Y-34620D02*
X49847Y-34619D01*
X49864Y-34616D01*
X49881Y-34613D01*
X49898Y-34607D01*
X49914Y-34601D01*
X49930Y-34593D01*
X49944Y-34583D01*
X49958Y-34573D01*
X49971Y-34561D01*
X49983Y-34548D01*
X49993Y-34534D01*
X50003Y-34519D01*
X50011Y-34504D01*
X50017Y-34488D01*
X50023Y-34471D01*
X50026Y-34454D01*
X50029Y-34437D01*
X50030Y-34420D01*
X49830Y-32720D02*
X49813Y-32721D01*
X49796Y-32724D01*
X49779Y-32727D01*
X49762Y-32733D01*
X49746Y-32739D01*
X49731Y-32747D01*
X49716Y-32757D01*
X49702Y-32767D01*
X49689Y-32779D01*
X49677Y-32792D01*
X49667Y-32806D01*
X49657Y-32821D01*
X49649Y-32836D01*
X49643Y-32852D01*
X49637Y-32869D01*
X49634Y-32886D01*
X49631Y-32903D01*
X49630Y-32920D01*
X50030Y-32920D02*
X50029Y-32903D01*
X50026Y-32886D01*
X50023Y-32869D01*
X50017Y-32852D01*
X50011Y-32836D01*
X50003Y-32821D01*
X49993Y-32806D01*
X49983Y-32792D01*
X49971Y-32779D01*
X49958Y-32767D01*
X49944Y-32757D01*
X49930Y-32747D01*
X49914Y-32739D01*
X49898Y-32733D01*
X49881Y-32727D01*
X49864Y-32724D01*
X49847Y-32721D01*
X49830Y-32720D01*
X52535Y-34720D02*
X48165Y-34720D01*
X52535Y-34720D02*
X52526Y-34528D01*
X52501Y-34338D01*
X52459Y-34150D01*
X52402Y-33966D01*
X52328Y-33789D01*
X52239Y-33618D01*
X52136Y-33456D01*
X52019Y-33303D01*
X51889Y-33161D01*
X51747Y-33031D01*
X51594Y-32914D01*
X51432Y-32811D01*
X51261Y-32722D01*
X51084Y-32648D01*
X50900Y-32591D01*
X50712Y-32549D01*
X50522Y-32524D01*
X50330Y-32515D01*
X50330Y-32515D02*
X50138Y-32524D01*
X49948Y-32549D01*
X49760Y-32591D01*
X49576Y-32648D01*
X49399Y-32722D01*
X49228Y-32811D01*
X49066Y-32914D01*
X48913Y-33031D01*
X48771Y-33161D01*
X48641Y-33303D01*
X48524Y-33456D01*
X48421Y-33618D01*
X48332Y-33789D01*
X48258Y-33966D01*
X48201Y-34150D01*
X48159Y-34338D01*
X48134Y-34528D01*
X48125Y-34720D01*
G54D15*
X58211Y-42714D02*
X58225Y-42728D01*
X58268Y-42742D01*
X58297Y-42742D01*
X58340Y-42728D01*
X58368Y-42700D01*
X58383Y-42671D01*
X58397Y-42614D01*
X58397Y-42571D01*
X58383Y-42514D01*
X58368Y-42485D01*
X58340Y-42457D01*
X58297Y-42442D01*
X58268Y-42442D01*
X58225Y-42457D01*
X58211Y-42471D01*
X57954Y-42442D02*
X58011Y-42442D01*
X58040Y-42457D01*
X58054Y-42471D01*
X58083Y-42514D01*
X58097Y-42571D01*
X58097Y-42685D01*
X58083Y-42714D01*
X58068Y-42728D01*
X58040Y-42742D01*
X57983Y-42742D01*
X57954Y-42728D01*
X57940Y-42714D01*
X57925Y-42685D01*
X57925Y-42614D01*
X57940Y-42585D01*
X57954Y-42571D01*
X57983Y-42557D01*
X58040Y-42557D01*
X58068Y-42571D01*
X58083Y-42585D01*
X58097Y-42614D01*
X57866Y-41316D02*
X57880Y-41330D01*
X57923Y-41344D01*
X57952Y-41344D01*
X57995Y-41330D01*
X58023Y-41302D01*
X58038Y-41273D01*
X58052Y-41216D01*
X58052Y-41173D01*
X58038Y-41116D01*
X58023Y-41087D01*
X57995Y-41059D01*
X57952Y-41044D01*
X57923Y-41044D01*
X57880Y-41059D01*
X57866Y-41073D01*
X57766Y-41044D02*
X57566Y-41044D01*
X57695Y-41344D01*
X63833Y-40026D02*
X63847Y-40040D01*
X63890Y-40054D01*
X63919Y-40054D01*
X63962Y-40040D01*
X63990Y-40012D01*
X64005Y-39983D01*
X64019Y-39926D01*
X64019Y-39883D01*
X64005Y-39826D01*
X63990Y-39797D01*
X63962Y-39769D01*
X63919Y-39754D01*
X63890Y-39754D01*
X63847Y-39769D01*
X63833Y-39783D01*
X63690Y-40054D02*
X63633Y-40054D01*
X63605Y-40040D01*
X63590Y-40026D01*
X63562Y-39983D01*
X63547Y-39926D01*
X63547Y-39812D01*
X63562Y-39783D01*
X63576Y-39769D01*
X63605Y-39754D01*
X63662Y-39754D01*
X63690Y-39769D01*
X63705Y-39783D01*
X63719Y-39812D01*
X63719Y-39883D01*
X63705Y-39912D01*
X63690Y-39926D01*
X63662Y-39940D01*
X63605Y-39940D01*
X63576Y-39926D01*
X63562Y-39912D01*
X63547Y-39883D01*
X72388Y-44131D02*
X72246Y-44031D01*
X72388Y-43959D02*
X72088Y-43959D01*
X72088Y-44074D01*
X72103Y-44102D01*
X72117Y-44117D01*
X72146Y-44131D01*
X72188Y-44131D01*
X72217Y-44117D01*
X72231Y-44102D01*
X72246Y-44074D01*
X72246Y-43959D01*
X72088Y-44231D02*
X72088Y-44417D01*
X72203Y-44317D01*
X72203Y-44359D01*
X72217Y-44388D01*
X72231Y-44402D01*
X72260Y-44417D01*
X72331Y-44417D01*
X72360Y-44402D01*
X72374Y-44388D01*
X72388Y-44359D01*
X72388Y-44274D01*
X72374Y-44245D01*
X72360Y-44231D01*
X50575Y-31981D02*
X50675Y-31839D01*
X50747Y-31981D02*
X50747Y-31681D01*
X50632Y-31681D01*
X50604Y-31696D01*
X50589Y-31710D01*
X50575Y-31739D01*
X50575Y-31781D01*
X50589Y-31810D01*
X50604Y-31824D01*
X50632Y-31839D01*
X50747Y-31839D01*
X50475Y-31681D02*
X50275Y-31681D01*
X50404Y-31981D01*
X53590Y-31997D02*
X53690Y-31855D01*
X53762Y-31997D02*
X53762Y-31697D01*
X53647Y-31697D01*
X53619Y-31712D01*
X53604Y-31726D01*
X53590Y-31755D01*
X53590Y-31797D01*
X53604Y-31826D01*
X53619Y-31840D01*
X53647Y-31855D01*
X53762Y-31855D01*
X53419Y-31826D02*
X53447Y-31812D01*
X53462Y-31797D01*
X53476Y-31769D01*
X53476Y-31755D01*
X53462Y-31726D01*
X53447Y-31712D01*
X53419Y-31697D01*
X53362Y-31697D01*
X53333Y-31712D01*
X53319Y-31726D01*
X53304Y-31755D01*
X53304Y-31769D01*
X53319Y-31797D01*
X53333Y-31812D01*
X53362Y-31826D01*
X53419Y-31826D01*
X53447Y-31840D01*
X53462Y-31855D01*
X53476Y-31883D01*
X53476Y-31940D01*
X53462Y-31969D01*
X53447Y-31983D01*
X53419Y-31997D01*
X53362Y-31997D01*
X53333Y-31983D01*
X53319Y-31969D01*
X53304Y-31940D01*
X53304Y-31883D01*
X53319Y-31855D01*
X53333Y-31840D01*
X53362Y-31826D01*
X57587Y-32010D02*
X57687Y-31868D01*
X57759Y-32010D02*
X57759Y-31710D01*
X57644Y-31710D01*
X57616Y-31725D01*
X57601Y-31739D01*
X57587Y-31768D01*
X57587Y-31810D01*
X57601Y-31839D01*
X57616Y-31853D01*
X57644Y-31868D01*
X57759Y-31868D01*
X57444Y-32010D02*
X57387Y-32010D01*
X57359Y-31996D01*
X57344Y-31982D01*
X57316Y-31939D01*
X57301Y-31882D01*
X57301Y-31768D01*
X57316Y-31739D01*
X57330Y-31725D01*
X57359Y-31710D01*
X57416Y-31710D01*
X57444Y-31725D01*
X57459Y-31739D01*
X57473Y-31768D01*
X57473Y-31839D01*
X57459Y-31868D01*
X57444Y-31882D01*
X57416Y-31896D01*
X57359Y-31896D01*
X57330Y-31882D01*
X57316Y-31868D01*
X57301Y-31839D01*
X60744Y-31947D02*
X60844Y-31805D01*
X60916Y-31947D02*
X60916Y-31647D01*
X60801Y-31647D01*
X60773Y-31662D01*
X60758Y-31676D01*
X60744Y-31705D01*
X60744Y-31747D01*
X60758Y-31776D01*
X60773Y-31790D01*
X60801Y-31805D01*
X60916Y-31805D01*
X60458Y-31947D02*
X60630Y-31947D01*
X60544Y-31947D02*
X60544Y-31647D01*
X60573Y-31690D01*
X60601Y-31719D01*
X60630Y-31733D01*
X60272Y-31647D02*
X60244Y-31647D01*
X60215Y-31662D01*
X60201Y-31676D01*
X60187Y-31705D01*
X60172Y-31762D01*
X60172Y-31833D01*
X60187Y-31890D01*
X60201Y-31919D01*
X60215Y-31933D01*
X60244Y-31947D01*
X60272Y-31947D01*
X60301Y-31933D01*
X60315Y-31919D01*
X60330Y-31890D01*
X60344Y-31833D01*
X60344Y-31762D01*
X60330Y-31705D01*
X60315Y-31676D01*
X60301Y-31662D01*
X60272Y-31647D01*
G54D12*
X52183Y-35908D02*
X52450Y-35908D01*
X52450Y-35308D01*
X51757Y-35908D02*
X51757Y-35594D01*
X51783Y-35536D01*
X51837Y-35508D01*
X51943Y-35508D01*
X51997Y-35536D01*
X51757Y-35879D02*
X51810Y-35908D01*
X51943Y-35908D01*
X51997Y-35879D01*
X52023Y-35822D01*
X52023Y-35765D01*
X51997Y-35708D01*
X51943Y-35679D01*
X51810Y-35679D01*
X51757Y-35651D01*
X51490Y-35908D02*
X51490Y-35308D01*
X51490Y-35536D02*
X51436Y-35508D01*
X51330Y-35508D01*
X51276Y-35536D01*
X51250Y-35565D01*
X51223Y-35622D01*
X51223Y-35794D01*
X51250Y-35851D01*
X51276Y-35879D01*
X51330Y-35908D01*
X51436Y-35908D01*
X51490Y-35879D01*
X50903Y-35908D02*
X50956Y-35879D01*
X50983Y-35851D01*
X51009Y-35794D01*
X51009Y-35622D01*
X50983Y-35565D01*
X50956Y-35536D01*
X50903Y-35508D01*
X50823Y-35508D01*
X50769Y-35536D01*
X50743Y-35565D01*
X50716Y-35622D01*
X50716Y-35794D01*
X50743Y-35851D01*
X50769Y-35879D01*
X50823Y-35908D01*
X50903Y-35908D01*
X50476Y-35908D02*
X50476Y-35508D01*
X50476Y-35622D02*
X50449Y-35565D01*
X50422Y-35536D01*
X50369Y-35508D01*
X50316Y-35508D01*
X49889Y-35908D02*
X49889Y-35594D01*
X49915Y-35536D01*
X49969Y-35508D01*
X50075Y-35508D01*
X50129Y-35536D01*
X49889Y-35879D02*
X49942Y-35908D01*
X50075Y-35908D01*
X50129Y-35879D01*
X50155Y-35822D01*
X50155Y-35765D01*
X50129Y-35708D01*
X50075Y-35679D01*
X49942Y-35679D01*
X49889Y-35651D01*
X49702Y-35508D02*
X49488Y-35508D01*
X49622Y-35308D02*
X49622Y-35822D01*
X49595Y-35879D01*
X49542Y-35908D01*
X49488Y-35908D01*
X49222Y-35908D02*
X49275Y-35879D01*
X49302Y-35851D01*
X49328Y-35794D01*
X49328Y-35622D01*
X49302Y-35565D01*
X49275Y-35536D01*
X49222Y-35508D01*
X49142Y-35508D01*
X49088Y-35536D01*
X49062Y-35565D01*
X49035Y-35622D01*
X49035Y-35794D01*
X49062Y-35851D01*
X49088Y-35879D01*
X49142Y-35908D01*
X49222Y-35908D01*
X48795Y-35908D02*
X48795Y-35508D01*
X48795Y-35622D02*
X48768Y-35565D01*
X48741Y-35536D01*
X48688Y-35508D01*
X48635Y-35508D01*
X48501Y-35508D02*
X48368Y-35908D01*
X48234Y-35508D02*
X48368Y-35908D01*
X48421Y-36051D01*
X48448Y-36079D01*
X48501Y-36108D01*
G54D11*
X52322Y-35117D02*
X52465Y-35117D01*
X52465Y-34817D01*
X52107Y-35103D02*
X52136Y-35117D01*
X52193Y-35117D01*
X52222Y-35103D01*
X52236Y-35075D01*
X52236Y-34960D01*
X52222Y-34932D01*
X52193Y-34917D01*
X52136Y-34917D01*
X52107Y-34932D01*
X52093Y-34960D01*
X52093Y-34989D01*
X52236Y-35017D01*
X51836Y-35117D02*
X51836Y-34960D01*
X51850Y-34932D01*
X51879Y-34917D01*
X51936Y-34917D01*
X51965Y-34932D01*
X51836Y-35103D02*
X51865Y-35117D01*
X51936Y-35117D01*
X51965Y-35103D01*
X51979Y-35075D01*
X51979Y-35046D01*
X51965Y-35017D01*
X51936Y-35003D01*
X51865Y-35003D01*
X51836Y-34989D01*
X51694Y-35117D02*
X51694Y-34917D01*
X51694Y-34975D02*
X51679Y-34946D01*
X51665Y-34932D01*
X51636Y-34917D01*
X51608Y-34917D01*
X51508Y-34917D02*
X51508Y-35117D01*
X51508Y-34946D02*
X51493Y-34932D01*
X51465Y-34917D01*
X51422Y-34917D01*
X51393Y-34932D01*
X51379Y-34960D01*
X51379Y-35117D01*
X51237Y-35117D02*
X51237Y-34917D01*
X51237Y-34817D02*
X51251Y-34832D01*
X51237Y-34846D01*
X51222Y-34832D01*
X51237Y-34817D01*
X51237Y-34846D01*
X51094Y-34917D02*
X51094Y-35117D01*
X51094Y-34946D02*
X51079Y-34932D01*
X51051Y-34917D01*
X51008Y-34917D01*
X50979Y-34932D01*
X50965Y-34960D01*
X50965Y-35117D01*
X50694Y-34917D02*
X50694Y-35160D01*
X50708Y-35189D01*
X50723Y-35203D01*
X50751Y-35217D01*
X50794Y-35217D01*
X50823Y-35203D01*
X50694Y-35103D02*
X50723Y-35117D01*
X50780Y-35117D01*
X50808Y-35103D01*
X50823Y-35089D01*
X50837Y-35060D01*
X50837Y-34975D01*
X50823Y-34946D01*
X50808Y-34932D01*
X50780Y-34917D01*
X50723Y-34917D01*
X50694Y-34932D01*
X50323Y-35117D02*
X50323Y-34817D01*
X50180Y-34917D02*
X50180Y-35117D01*
X50180Y-34946D02*
X50165Y-34932D01*
X50137Y-34917D01*
X50094Y-34917D01*
X50065Y-34932D01*
X50051Y-34960D01*
X50051Y-35117D01*
X49937Y-34917D02*
X49866Y-35117D01*
X49794Y-34917D01*
X49565Y-35103D02*
X49594Y-35117D01*
X49651Y-35117D01*
X49680Y-35103D01*
X49694Y-35075D01*
X49694Y-34960D01*
X49680Y-34932D01*
X49651Y-34917D01*
X49594Y-34917D01*
X49565Y-34932D01*
X49551Y-34960D01*
X49551Y-34989D01*
X49694Y-35017D01*
X49423Y-34917D02*
X49423Y-35117D01*
X49423Y-34946D02*
X49408Y-34932D01*
X49380Y-34917D01*
X49337Y-34917D01*
X49308Y-34932D01*
X49294Y-34960D01*
X49294Y-35117D01*
X49194Y-34917D02*
X49080Y-34917D01*
X49152Y-34817D02*
X49152Y-35075D01*
X49137Y-35103D01*
X49109Y-35117D01*
X49080Y-35117D01*
X48981Y-35117D02*
X48981Y-34917D01*
X48981Y-34817D02*
X48995Y-34832D01*
X48981Y-34846D01*
X48966Y-34832D01*
X48981Y-34817D01*
X48981Y-34846D01*
X48795Y-35117D02*
X48823Y-35103D01*
X48838Y-35089D01*
X48852Y-35060D01*
X48852Y-34975D01*
X48838Y-34946D01*
X48823Y-34932D01*
X48795Y-34917D01*
X48752Y-34917D01*
X48723Y-34932D01*
X48709Y-34946D01*
X48695Y-34975D01*
X48695Y-35060D01*
X48709Y-35089D01*
X48723Y-35103D01*
X48752Y-35117D01*
X48795Y-35117D01*
X48567Y-34917D02*
X48567Y-35117D01*
X48567Y-34946D02*
X48552Y-34932D01*
X48524Y-34917D01*
X48481Y-34917D01*
X48452Y-34932D01*
X48438Y-34960D01*
X48438Y-35117D01*
X48310Y-35103D02*
X48281Y-35117D01*
X48224Y-35117D01*
X48196Y-35103D01*
X48181Y-35075D01*
X48181Y-35060D01*
X48196Y-35032D01*
X48224Y-35017D01*
X48267Y-35017D01*
X48296Y-35003D01*
X48310Y-34975D01*
X48310Y-34960D01*
X48296Y-34932D01*
X48267Y-34917D01*
X48224Y-34917D01*
X48196Y-34932D01*
M02*
