M48
;DRILL file {Pcbnew (2012-01-19 BZR 3256)-stable} date 5/6/2556 16:26:46
;FORMAT={-:-/ absolute / inch / decimal}
FMAT,2
INCH,TZ
T1C0.020
T2C0.032
T3C0.036
T4C0.039
T5C0.040
T6C0.044
T7C0.047
T8C0.118
%
G90
G05
M72
T1
X4.619Y4.336
X4.953Y3.280
X5.020Y3.564
X5.054Y3.068
X5.103Y3.362
X5.123Y3.236
X5.261Y4.292
X5.267Y3.250
X5.267Y3.332
X5.267Y3.391
X5.267Y3.495
X5.267Y3.568
X5.267Y3.440
X5.338Y4.431
X5.354Y3.069
X5.372Y3.668
X5.403Y4.318
X5.410Y3.529
X5.454Y4.085
X5.463Y3.529
X5.464Y3.943
X5.494Y3.398
X5.506Y4.085
X5.518Y3.528
X5.576Y3.308
X5.578Y3.937
X5.578Y3.490
X5.594Y3.439
X5.626Y4.162
X5.664Y4.433
X5.664Y3.620
X5.713Y3.620
X5.737Y4.228
X5.737Y4.155
X5.741Y3.533
X5.742Y4.740
X5.742Y4.684
X5.754Y3.069
X5.766Y3.993
X5.780Y4.077
X5.805Y3.945
X5.815Y4.431
X5.815Y4.287
X5.831Y3.366
X5.876Y3.946
X5.883Y3.639
X5.915Y3.851
X5.916Y4.088
X5.926Y3.903
X5.932Y3.639
X5.958Y4.240
X5.970Y3.976
X5.970Y4.027
X5.972Y3.777
X5.972Y3.851
X5.985Y3.485
X5.986Y3.327
X6.011Y4.069
X6.029Y3.635
X6.034Y3.485
X6.038Y3.563
X6.046Y4.465
X6.054Y3.070
X6.066Y3.803
X6.066Y3.894
X6.066Y3.944
X6.074Y3.327
X6.085Y3.634
X6.093Y4.011
X6.113Y4.363
X6.113Y4.413
X6.113Y4.309
X6.121Y3.251
X6.140Y4.220
X6.155Y3.714
X6.155Y4.129
X6.155Y3.610
X6.155Y3.665
X6.164Y3.284
X6.218Y3.444
X6.218Y3.378
X6.229Y4.010
X6.229Y3.941
X6.243Y2.971
X6.245Y4.172
X6.261Y3.188
X6.264Y4.244
X6.264Y4.301
X6.268Y3.974
X6.287Y4.136
X6.287Y3.848
X6.290Y3.695
X6.291Y3.777
X6.376Y4.434
X6.410Y3.613
X6.410Y3.793
X6.535Y3.813
X6.608Y4.404
X6.642Y4.169
X6.642Y4.092
X6.644Y3.413
X6.646Y3.923
X6.663Y3.714
X6.712Y4.254
X6.759Y4.360
X6.793Y4.699
X6.845Y2.987
X6.867Y3.727
X6.888Y4.255
X6.896Y3.974
X6.921Y3.352
X6.921Y3.408
X6.921Y3.260
X6.946Y2.987
X6.978Y4.254
X6.990Y3.259
X6.991Y3.315
X7.011Y3.145
X7.019Y4.415
X7.035Y3.093
X7.035Y3.193
X7.100Y3.338
X7.153Y3.338
T2
X4.742Y3.682
X4.742Y3.981
X4.842Y3.682
X4.842Y3.981
X4.942Y3.682
X4.942Y3.981
X5.042Y3.682
X5.042Y3.981
X5.142Y3.682
X5.142Y3.981
X5.242Y3.682
X5.242Y3.981
X5.338Y4.271
X5.618Y4.271
X5.825Y4.612
X5.825Y4.812
X5.991Y4.320
X5.991Y4.414
X6.191Y4.320
X6.191Y4.414
T3
X4.280Y4.574
X4.280Y4.774
X4.280Y4.874
X4.280Y4.456
X4.380Y4.574
X4.380Y4.774
X4.380Y4.874
X4.380Y4.456
X4.424Y4.136
X4.424Y4.236
X4.424Y4.336
X4.480Y4.574
X4.480Y4.774
X4.480Y4.874
X4.480Y4.456
X4.580Y4.574
X4.580Y4.774
X4.580Y4.874
X4.580Y4.456
X4.680Y4.456
X4.780Y4.456
X4.819Y4.574
X4.819Y4.774
X4.819Y4.874
X4.880Y4.456
X4.919Y4.574
X4.919Y4.774
X4.919Y4.874
X4.980Y4.456
X5.019Y4.574
X5.019Y4.774
X5.019Y4.874
X5.080Y4.456
X5.119Y4.574
X5.119Y4.774
X5.119Y4.874
X5.154Y2.969
X5.154Y3.069
X5.154Y3.169
X5.254Y2.969
X5.254Y3.069
X5.254Y3.169
X5.854Y2.969
X5.854Y3.069
X5.854Y3.169
X5.954Y2.969
X5.954Y3.069
X5.954Y3.169
X6.494Y3.603
X6.494Y2.902
X6.594Y3.603
X6.594Y2.902
X6.694Y3.603
X6.694Y2.902
X6.794Y3.603
X6.794Y2.902
X6.894Y2.902
X6.993Y3.815
X6.994Y2.902
X7.093Y3.815
X7.094Y2.902
X7.095Y3.915
X7.095Y4.015
X7.095Y4.115
X7.095Y4.215
X7.095Y4.315
X7.095Y3.403
X7.095Y3.503
X7.095Y3.603
X7.095Y3.703
X7.194Y2.902
X7.195Y3.403
X7.195Y3.503
X7.195Y3.603
X7.195Y3.703
X7.195Y3.815
X7.195Y3.915
X7.195Y4.015
X7.195Y4.115
X7.195Y4.215
X7.195Y4.315
T5
X4.168Y4.774
X4.168Y4.874
X4.706Y4.775
X4.706Y4.875
X4.954Y2.969
X4.954Y3.069
X4.954Y3.169
X5.454Y2.969
X5.454Y3.069
X5.454Y3.169
X5.654Y2.969
X5.654Y3.069
X5.654Y3.169
X5.995Y4.817
X5.995Y4.917
X5.995Y4.515
X5.995Y4.615
X6.095Y4.817
X6.095Y4.917
X6.095Y4.515
X6.095Y4.615
X6.154Y2.969
X6.154Y3.069
X6.154Y3.169
X6.195Y4.817
X6.195Y4.917
X6.195Y4.515
X6.195Y4.615
X6.295Y4.817
X6.295Y4.917
X6.295Y4.515
X6.295Y4.615
X6.395Y4.817
X6.395Y4.917
X6.395Y4.515
X6.395Y4.615
X6.495Y4.817
X6.495Y4.917
X6.495Y4.515
X6.495Y4.615
X6.561Y3.064
X6.561Y3.144
X6.595Y4.817
X6.595Y4.917
X6.595Y4.515
X6.595Y4.615
X6.641Y3.064
X6.641Y3.144
X6.695Y4.817
X6.695Y4.917
X6.695Y4.515
X6.695Y4.615
X6.721Y3.064
X6.721Y3.144
X6.795Y4.817
X6.795Y4.917
X6.795Y4.515
X6.795Y4.615
X6.895Y4.817
X6.895Y4.917
X6.895Y4.515
X6.895Y4.615
X6.995Y4.817
X6.995Y4.917
X6.995Y4.515
X6.995Y4.615
X7.095Y4.817
X7.095Y4.917
X7.095Y4.515
X7.095Y4.615
X7.195Y4.817
X7.195Y4.917
X7.195Y4.515
X7.195Y4.615
T6
X4.798Y4.138
X4.798Y4.338
X5.098Y4.138
X5.098Y4.338
X6.502Y3.290
X6.502Y3.490
X6.802Y3.290
X6.802Y3.490
T7
X6.451Y3.104
X6.831Y3.104
T8
X4.140Y4.534
X6.290Y3.528
T4
X7.239Y3.282G85X7.200Y3.282
G05
T5
X7.239Y3.007G85X7.200Y3.007
G05
T0
M30
