M48
;DRILL file {Pcbnew (2012-01-19 BZR 3256)-stable} date 14/12/2555 14:56:39
;FORMAT={-:-/ absolute / inch / decimal}
FMAT,2
INCH,TZ
T1C0.020
T2C0.024
T3C0.032
T4C0.032
T5C0.036
T6C0.040
T7C0.044
T8C0.047
T9C0.120
%
G90
G05
M72
T1
X4.619Y4.336
X4.785Y4.236
X4.860Y3.447
X4.876Y2.880
X4.951Y3.262
X5.018Y3.565
X5.105Y3.328
X5.107Y3.565
X5.158Y4.490
X5.201Y4.449
X5.285Y3.567
X5.285Y3.486
X5.366Y3.649
X5.404Y4.059
X5.475Y4.059
X5.513Y4.296
X5.515Y2.876
X5.518Y3.936
X5.556Y3.118
X5.580Y3.935
X5.593Y2.876
X5.599Y4.235
X5.599Y4.185
X5.743Y3.439
X5.766Y3.993
X5.767Y4.581
X5.798Y4.665
X5.805Y4.078
X5.805Y3.945
X5.815Y4.301
X5.830Y4.720
X5.876Y3.946
X5.895Y4.718
X5.896Y4.453
X5.915Y3.777
X5.927Y3.968
X5.938Y4.387
X5.945Y4.302
X5.955Y4.078
X5.972Y3.777
X5.979Y4.026
X5.993Y3.565
X6.004Y4.098
X6.005Y4.425
X6.014Y4.235
X6.029Y3.635
X6.054Y4.424
X6.066Y3.849
X6.066Y3.944
X6.074Y3.565
X6.076Y3.328
X6.085Y3.634
X6.093Y4.011
X6.093Y3.896
X6.138Y4.220
X6.155Y3.714
X6.155Y4.129
X6.155Y3.610
X6.155Y3.661
X6.211Y2.872
X6.230Y4.034
X6.230Y4.085
X6.235Y3.266
X6.235Y3.333
X6.260Y4.362
X6.263Y4.197
X6.280Y2.872
X6.324Y3.947
X6.385Y3.917
X6.394Y3.188
X6.418Y4.080
X6.418Y4.034
X6.432Y3.867
X6.477Y3.954
X6.484Y4.153
X6.575Y4.388
X6.611Y3.924
X6.614Y4.128
X6.656Y3.584
X6.659Y4.317
X6.659Y4.388
X6.715Y3.871
X6.803Y3.870
X6.864Y2.863
X6.894Y3.870
X6.902Y4.702
X6.926Y2.906
X6.954Y4.701
X6.961Y4.077
X7.004Y3.486
X7.048Y4.146
X7.073Y3.640
X7.094Y4.023
X7.118Y3.665
X7.175Y4.329
X7.185Y3.690
X7.228Y4.069
T2
X6.591Y3.105
X6.622Y3.058
X6.654Y3.105
X6.685Y3.058
X6.717Y3.105
T4
X4.742Y3.682
X4.742Y3.981
X4.842Y3.682
X4.842Y3.981
X4.942Y3.682
X4.942Y3.981
X5.042Y3.682
X5.042Y3.981
X5.051Y2.927
X5.051Y3.227
X5.142Y3.682
X5.142Y3.981
X5.242Y3.682
X5.242Y3.981
X5.339Y4.298
X5.354Y2.922
X5.354Y3.222
X5.411Y3.497
X5.437Y3.357
X5.438Y3.277
X5.611Y3.497
X5.636Y3.357
X5.638Y3.277
X5.639Y4.298
X5.755Y2.917
X5.755Y3.217
X5.822Y3.307
X5.822Y3.507
X6.047Y2.918
X6.047Y3.218
X6.597Y4.206
X6.597Y4.506
X6.697Y4.206
X6.697Y4.506
X6.797Y4.206
X6.797Y4.506
X6.897Y4.206
X6.897Y4.506
T5
X4.280Y4.574
X4.280Y4.774
X4.280Y4.874
X4.280Y4.456
X4.380Y4.574
X4.380Y4.774
X4.380Y4.874
X4.380Y4.456
X4.424Y4.136
X4.424Y4.236
X4.424Y4.336
X4.480Y4.574
X4.480Y4.774
X4.480Y4.874
X4.480Y4.456
X4.580Y4.574
X4.580Y4.774
X4.580Y4.874
X4.580Y4.456
X4.680Y4.456
X4.780Y4.456
X4.819Y4.574
X4.819Y4.774
X4.819Y4.874
X4.880Y4.456
X4.919Y4.574
X4.919Y4.774
X4.919Y4.874
X4.980Y4.456
X5.019Y4.574
X5.019Y4.774
X5.019Y4.874
X5.080Y4.456
X5.119Y4.574
X5.119Y4.774
X5.119Y4.874
X5.154Y2.969
X5.154Y3.069
X5.154Y3.169
X5.254Y2.969
X5.254Y3.069
X5.254Y3.169
X5.852Y2.969
X5.852Y3.069
X5.852Y3.169
X5.952Y2.969
X5.952Y3.069
X5.952Y3.169
X5.996Y4.519
X5.996Y4.619
X6.096Y4.519
X6.096Y4.619
X6.196Y4.519
X6.196Y4.619
X6.296Y4.519
X6.296Y4.619
X6.396Y4.519
X6.396Y4.619
X6.496Y4.519
X6.510Y4.619
X6.610Y4.619
X6.710Y4.619
X6.810Y4.619
X6.910Y4.619
X7.010Y4.619
X7.010Y4.519
X7.110Y4.619
X7.110Y4.519
X7.210Y4.619
X7.210Y4.519
T6
X4.168Y4.774
X4.168Y4.874
X4.706Y4.775
X4.706Y4.875
X4.953Y2.969
X4.953Y3.069
X4.953Y3.169
X5.454Y2.969
X5.454Y3.069
X5.454Y3.169
X5.660Y2.968
X5.660Y3.068
X5.660Y3.168
X5.995Y4.817
X5.995Y4.917
X5.995Y4.917
X6.095Y4.817
X6.095Y4.817
X6.095Y4.917
X6.095Y4.917
X6.142Y2.969
X6.142Y3.069
X6.142Y3.169
X6.195Y4.817
X6.195Y4.817
X6.195Y4.917
X6.195Y4.917
X6.247Y3.091
X6.295Y4.817
X6.295Y4.817
X6.295Y4.917
X6.296Y2.960
X6.347Y3.091
X6.395Y4.817
X6.395Y4.817
X6.395Y4.917
X6.395Y4.917
X6.396Y2.960
X6.447Y3.091
X6.495Y3.236
X6.495Y3.316
X6.495Y4.817
X6.495Y4.817
X6.495Y4.917
X6.495Y4.917
X6.575Y3.236
X6.575Y3.316
X6.595Y4.817
X6.595Y4.817
X6.595Y4.917
X6.655Y3.236
X6.655Y3.316
X6.695Y4.817
X6.695Y4.817
X6.695Y4.917
X6.695Y4.917
X6.795Y4.817
X6.795Y4.917
X6.867Y3.460
X6.868Y3.368
X6.895Y4.817
X6.895Y4.817
X6.895Y4.917
X6.995Y4.817
X6.995Y4.817
X6.995Y4.917
X7.095Y4.817
X7.095Y4.817
X7.095Y4.917
X7.167Y3.460
X7.168Y3.368
X7.195Y4.817
X7.195Y4.817
X7.195Y4.917
T7
X6.450Y3.454
X6.450Y3.654
X6.750Y3.454
X6.750Y3.654
T8
X6.385Y3.276
X6.765Y3.276
T9
X4.122Y4.531
X6.307Y3.531
T3
X6.508Y2.911G85X6.508Y2.863
G05
X6.800Y2.911G85X6.800Y2.863
G05
T6
X6.922Y3.030G85X6.922Y3.110
G05
X7.162Y2.980G85X7.082Y2.980
G05
X7.162Y3.220G85X7.082Y3.220
G05
T0
M30
