G04 (created by PCBNEW-RS274X (2012-01-19 BZR 3256)-stable) date 14/12/2555 14:56:42*
G01*
G70*
G90*
%MOIN*%
G04 Gerber Fmt 3.4, Leading zero omitted, Abs format*
%FSLAX34Y34*%
G04 APERTURE LIST*
%ADD10C,0.006000*%
%ADD11O,0.060000X0.085000*%
%ADD12C,0.189000*%
%ADD13R,0.189000X0.189000*%
%ADD14O,0.055000X0.085000*%
%ADD15O,0.085000X0.060000*%
%ADD16O,0.095000X0.064000*%
%ADD17O,0.060000X0.090000*%
%ADD18O,0.100000X0.070000*%
%ADD19O,0.059100X0.100000*%
%ADD20O,0.035400X0.050000*%
%ADD21O,0.085000X0.055000*%
%ADD22R,0.144000X0.080000*%
%ADD23R,0.040000X0.080000*%
%ADD24C,0.060000*%
%ADD25R,0.078700X0.078700*%
%ADD26O,0.060000X0.075000*%
%ADD27R,0.080000X0.045000*%
%ADD28C,0.160000*%
%ADD29O,0.062000X0.090000*%
%ADD30R,0.060000X0.080000*%
%ADD31R,0.035000X0.055000*%
%ADD32R,0.055000X0.035000*%
%ADD33R,0.047200X0.098400*%
%ADD34R,0.065000X0.120000*%
%ADD35R,0.240000X0.240000*%
%ADD36C,0.040000*%
%ADD37C,0.008000*%
%ADD38C,0.010000*%
%ADD39C,0.015000*%
%ADD40C,0.024000*%
G04 APERTURE END LIST*
G54D10*
G54D11*
X68100Y-46186D03*
X67100Y-46186D03*
X66100Y-46186D03*
X65100Y-46186D03*
G54D12*
X71218Y-29796D03*
G54D13*
X71218Y-32196D03*
G54D12*
X69218Y-30696D03*
G54D14*
X54113Y-34965D03*
X56113Y-34965D03*
G54D15*
X41678Y-48737D03*
X41678Y-47737D03*
G54D16*
X67501Y-34540D03*
X67501Y-36540D03*
X64501Y-34540D03*
X64501Y-36540D03*
G54D17*
X66549Y-32246D03*
X66549Y-33266D03*
X65749Y-32246D03*
X65749Y-33266D03*
X64949Y-32246D03*
X64949Y-33266D03*
G54D18*
X63749Y-32756D03*
X67749Y-32756D03*
G54D11*
X48186Y-45737D03*
X49186Y-45737D03*
X50186Y-45737D03*
X51186Y-45737D03*
G54D15*
X47064Y-48745D03*
X47064Y-47745D03*
G54D19*
X65083Y-28867D03*
X67996Y-28867D03*
G54D20*
X66854Y-30580D03*
X66224Y-30580D03*
X66539Y-31052D03*
X65909Y-31052D03*
X67169Y-31052D03*
G54D15*
X71678Y-33682D03*
X68678Y-33682D03*
G54D21*
X54365Y-33565D03*
X56365Y-33565D03*
G54D15*
X68666Y-34599D03*
X71666Y-34599D03*
G54D11*
X59521Y-29693D03*
X59521Y-30693D03*
X59521Y-31693D03*
X58521Y-29693D03*
X58521Y-30693D03*
X58521Y-31693D03*
G54D15*
X64470Y-30910D03*
X63470Y-30910D03*
X62470Y-30910D03*
G54D21*
X56385Y-42985D03*
X53385Y-42985D03*
G54D11*
X63960Y-29600D03*
X62960Y-29600D03*
G54D14*
X52423Y-36816D03*
X47423Y-36816D03*
X47423Y-39808D03*
X52423Y-39808D03*
X51423Y-39808D03*
X50423Y-39808D03*
X49423Y-39808D03*
X48423Y-39808D03*
X51423Y-36816D03*
X50423Y-36816D03*
X49423Y-36816D03*
X48423Y-36816D03*
G54D22*
X65214Y-40521D03*
G54D23*
X65214Y-37921D03*
X66114Y-37921D03*
X64314Y-37921D03*
G54D11*
X42804Y-44564D03*
X43804Y-44564D03*
X44804Y-44564D03*
X45804Y-44564D03*
X46804Y-44564D03*
X47804Y-44564D03*
X48804Y-44564D03*
X49804Y-44564D03*
X50804Y-44564D03*
X49533Y-31693D03*
X49533Y-30693D03*
X49533Y-29693D03*
X54540Y-31690D03*
X54540Y-30690D03*
X54540Y-29690D03*
X56603Y-31682D03*
X56603Y-30682D03*
X56603Y-29682D03*
X61422Y-31686D03*
X61422Y-30686D03*
X61422Y-29686D03*
G54D24*
X44112Y-41361D02*
X44362Y-41361D01*
X44112Y-42361D02*
X44362Y-42361D01*
X44112Y-43361D02*
X44362Y-43361D01*
G54D25*
X54238Y-39407D03*
X54238Y-41807D03*
G54D14*
X58217Y-33068D03*
X58217Y-35068D03*
G54D21*
X54376Y-32767D03*
X56376Y-32767D03*
G54D11*
X52537Y-29693D03*
X52537Y-30693D03*
X52537Y-31693D03*
X51537Y-29690D03*
X51537Y-30690D03*
X51537Y-31690D03*
X59962Y-45186D03*
X60962Y-45186D03*
X61962Y-45186D03*
X62962Y-45186D03*
X63962Y-45186D03*
X64962Y-45186D03*
X59962Y-46186D03*
X60962Y-46186D03*
X61962Y-46186D03*
X62962Y-46186D03*
X63962Y-46186D03*
X51186Y-47737D03*
G54D15*
X51186Y-48737D03*
G54D11*
X50186Y-47737D03*
X50186Y-48737D03*
X49186Y-47737D03*
X49186Y-48737D03*
X48186Y-47737D03*
X48186Y-48737D03*
X42800Y-45737D03*
X43800Y-45737D03*
X44800Y-45737D03*
X45800Y-45737D03*
X45800Y-47737D03*
X45800Y-48737D03*
X44800Y-47737D03*
X44800Y-48737D03*
X43800Y-47737D03*
X43800Y-48737D03*
X42800Y-47737D03*
X42800Y-48737D03*
G54D26*
X59949Y-49169D03*
X60949Y-49169D03*
X60949Y-48169D03*
X61949Y-49169D03*
X61949Y-48169D03*
X62949Y-48169D03*
X63949Y-49169D03*
X63949Y-48169D03*
X64949Y-49169D03*
X64949Y-48169D03*
X65949Y-48169D03*
X66949Y-49169D03*
X66949Y-48169D03*
X68949Y-48169D03*
X69949Y-48169D03*
X70949Y-48169D03*
X71949Y-48169D03*
X71949Y-48169D03*
X71949Y-49169D03*
X70949Y-48169D03*
X70949Y-49169D03*
X69949Y-48169D03*
X69949Y-49169D03*
X68949Y-48169D03*
X68949Y-49169D03*
X67949Y-48169D03*
X67949Y-49169D03*
X66949Y-48169D03*
X66949Y-49169D03*
X65949Y-48169D03*
X65949Y-49169D03*
X64949Y-48169D03*
X64949Y-49169D03*
X63949Y-48169D03*
X63949Y-49169D03*
X62949Y-48169D03*
X62949Y-49169D03*
X61949Y-48169D03*
X61949Y-49169D03*
X60949Y-48169D03*
X60949Y-49169D03*
X59949Y-48169D03*
X59949Y-49169D03*
G54D27*
X60837Y-34827D03*
X60837Y-34127D03*
X59637Y-34477D03*
X51219Y-34807D03*
X51219Y-34107D03*
X50019Y-34457D03*
G54D28*
X63068Y-35308D03*
X41218Y-45308D03*
G54D29*
X65974Y-45056D03*
X66974Y-45056D03*
X67974Y-45056D03*
X68974Y-45056D03*
X68974Y-42056D03*
X67974Y-42056D03*
X66974Y-42056D03*
X65974Y-42056D03*
G54D14*
X60470Y-32182D03*
X60470Y-29182D03*
X57552Y-32170D03*
X57552Y-29170D03*
X53544Y-32217D03*
X53544Y-29217D03*
X50509Y-32268D03*
X50509Y-29268D03*
G54D30*
X57522Y-43008D03*
X58822Y-43008D03*
X57401Y-40777D03*
X58701Y-40777D03*
X60112Y-43113D03*
X61412Y-43113D03*
X71592Y-40225D03*
X70292Y-40225D03*
G54D31*
X68694Y-43863D03*
X69444Y-43863D03*
X68693Y-43170D03*
X69443Y-43170D03*
G54D32*
X58954Y-45267D03*
X58954Y-46017D03*
G54D11*
X72100Y-45186D03*
X71100Y-45186D03*
X70100Y-45186D03*
G54D33*
X71151Y-41459D03*
X71151Y-43959D03*
X63206Y-44038D03*
X63206Y-41538D03*
G54D34*
X67144Y-37749D03*
G54D35*
X68044Y-40249D03*
G54D34*
X68944Y-37749D03*
X70038Y-35949D03*
G54D35*
X70938Y-38449D03*
G54D34*
X71838Y-35949D03*
G54D11*
X72097Y-46191D03*
X71097Y-46191D03*
X70097Y-46191D03*
X69097Y-46191D03*
G54D31*
X67107Y-43173D03*
X67857Y-43173D03*
X67107Y-43860D03*
X67857Y-43860D03*
G54D36*
X59266Y-39679D03*
X60926Y-40111D03*
X66136Y-41275D03*
X58954Y-47182D03*
X59546Y-40778D03*
X58152Y-43008D03*
X59153Y-37770D03*
X68944Y-38699D03*
X68640Y-28634D03*
X71182Y-36650D03*
X70726Y-36396D03*
X70484Y-41460D03*
X72282Y-40688D03*
X70943Y-40225D03*
X53660Y-36486D03*
X60659Y-38485D03*
X57430Y-34391D03*
X49510Y-32620D03*
X52852Y-35672D03*
X61554Y-36612D03*
X61554Y-36098D03*
X62351Y-32662D03*
X66592Y-43174D03*
X65754Y-43884D03*
X58045Y-40776D03*
X50181Y-35645D03*
X47848Y-42362D03*
X69611Y-40765D03*
X71749Y-43287D03*
X55796Y-39348D03*
X55561Y-31178D03*
X57672Y-45814D03*
X59378Y-43874D03*
X60760Y-33284D03*
X62633Y-41965D03*
X51053Y-33284D03*
X59926Y-35646D03*
X64315Y-38673D03*
X57661Y-39931D03*
X63944Y-31876D03*
X68030Y-38696D03*
X66558Y-35840D03*
X64836Y-41534D03*
X59446Y-43020D03*
X59716Y-37767D03*
X62604Y-43622D03*
X69260Y-29056D03*
X64772Y-39538D03*
X71851Y-36902D03*
X63848Y-39170D03*
X60847Y-36343D03*
X69020Y-47020D03*
X58304Y-47196D03*
X52008Y-44494D03*
X54752Y-40585D03*
X57980Y-46652D03*
X51584Y-44899D03*
X54042Y-40588D03*
X69540Y-47010D03*
X46192Y-43361D03*
X58763Y-39456D03*
X55130Y-42955D03*
X55992Y-42348D03*
X60137Y-42348D03*
X60044Y-40975D03*
X55994Y-41850D03*
X52853Y-34861D03*
X61376Y-42199D03*
X58049Y-39454D03*
X59791Y-40258D03*
X61553Y-41292D03*
X55184Y-39358D03*
X60932Y-38956D03*
X58955Y-44529D03*
X60660Y-39436D03*
X61553Y-37141D03*
X51072Y-35646D03*
X60740Y-35646D03*
X66592Y-43884D03*
X60539Y-44242D03*
X63235Y-39469D03*
X60288Y-36352D03*
X64175Y-40804D03*
X62300Y-40846D03*
X62300Y-40342D03*
X64176Y-40340D03*
X60054Y-44245D03*
X66114Y-39236D03*
X67145Y-38712D03*
X70038Y-34864D03*
X62352Y-33328D03*
X62107Y-28720D03*
X48602Y-34465D03*
X62800Y-28720D03*
X55145Y-28762D03*
X48755Y-28804D03*
X55931Y-28762D03*
G54D37*
X61203Y-46186D02*
X61441Y-45948D01*
G54D38*
X66691Y-42676D02*
X67379Y-42676D01*
G54D39*
X54090Y-44894D02*
X54406Y-44894D01*
X63203Y-44041D02*
X63206Y-44038D01*
X63480Y-42882D02*
X63443Y-42882D01*
X68693Y-43170D02*
X68693Y-43862D01*
G54D38*
X62258Y-41520D02*
X62258Y-41682D01*
X67379Y-42676D02*
X67974Y-42081D01*
X66136Y-41275D02*
X66382Y-41275D01*
X59900Y-43909D02*
X61772Y-43909D01*
X66470Y-42235D02*
X66470Y-41877D01*
G54D39*
X58386Y-43574D02*
X58168Y-43356D01*
G54D37*
X61901Y-44038D02*
X61896Y-44038D01*
G54D39*
X65544Y-41280D02*
X65326Y-41498D01*
G54D38*
X61556Y-40111D02*
X61655Y-40210D01*
X66470Y-42455D02*
X66691Y-42676D01*
X59548Y-43557D02*
X59900Y-43909D01*
X58701Y-40077D02*
X58701Y-40777D01*
G54D37*
X61441Y-44498D02*
X61901Y-44038D01*
G54D39*
X61643Y-42882D02*
X61412Y-43113D01*
X66136Y-41275D02*
X65549Y-41275D01*
G54D38*
X59266Y-39679D02*
X59099Y-39679D01*
G54D37*
X61441Y-45948D02*
X61441Y-44498D01*
G54D39*
X58404Y-43574D02*
X58386Y-43574D01*
G54D38*
X66291Y-42056D02*
X66470Y-41877D01*
G54D39*
X63206Y-43119D02*
X63206Y-44038D01*
G54D38*
X62258Y-42420D02*
X62258Y-42602D01*
G54D39*
X61896Y-44041D02*
X63203Y-44041D01*
G54D38*
X59545Y-40777D02*
X59546Y-40778D01*
G54D40*
X49186Y-47737D02*
X50186Y-47737D01*
G54D39*
X52043Y-47737D02*
X51186Y-47737D01*
G54D40*
X50186Y-47737D02*
X51186Y-47737D01*
G54D37*
X58954Y-47182D02*
X58954Y-46940D01*
G54D38*
X61772Y-43909D02*
X61901Y-44038D01*
X58361Y-43549D02*
X58421Y-43549D01*
G54D37*
X67974Y-42056D02*
X67978Y-42056D01*
G54D39*
X54406Y-44894D02*
X55526Y-43774D01*
G54D38*
X59099Y-39679D02*
X58701Y-40077D01*
X66382Y-41275D02*
X66470Y-41363D01*
G54D39*
X63443Y-42882D02*
X62538Y-42882D01*
G54D38*
X66470Y-42235D02*
X66470Y-42442D01*
G54D37*
X58954Y-46017D02*
X58954Y-47182D01*
G54D39*
X58404Y-43574D02*
X58421Y-43557D01*
G54D38*
X58421Y-43549D02*
X58421Y-43557D01*
X60710Y-40111D02*
X60278Y-39679D01*
X57522Y-43008D02*
X58152Y-43008D01*
G54D39*
X54090Y-44894D02*
X52576Y-44894D01*
G54D38*
X58217Y-36834D02*
X59153Y-37770D01*
X61655Y-40917D02*
X62258Y-41520D01*
X58954Y-46940D02*
X58954Y-46867D01*
G54D39*
X66136Y-41275D02*
X66136Y-39905D01*
G54D40*
X48186Y-47737D02*
X49186Y-47737D01*
G54D38*
X66470Y-42442D02*
X66470Y-42455D01*
X66470Y-41877D02*
X66470Y-41493D01*
X61655Y-40210D02*
X61655Y-40584D01*
X62258Y-42602D02*
X62538Y-42882D01*
X58954Y-46017D02*
X58954Y-46867D01*
X58168Y-43356D02*
X58361Y-43549D01*
G54D39*
X61896Y-44043D02*
X61441Y-44498D01*
G54D38*
X58421Y-43557D02*
X58204Y-43774D01*
X67978Y-42056D02*
X68693Y-42771D01*
G54D39*
X52411Y-45059D02*
X52411Y-47369D01*
G54D40*
X44800Y-47737D02*
X45800Y-47737D01*
G54D39*
X65214Y-38983D02*
X66132Y-39901D01*
X61896Y-44041D02*
X61896Y-44043D01*
X58184Y-43774D02*
X58204Y-43774D01*
G54D38*
X61655Y-40584D02*
X61655Y-40917D01*
X67974Y-42081D02*
X67974Y-42056D01*
X58421Y-43557D02*
X59548Y-43557D01*
X68693Y-42771D02*
X68693Y-43170D01*
G54D39*
X68693Y-43862D02*
X68694Y-43863D01*
G54D38*
X58701Y-40777D02*
X59545Y-40777D01*
G54D39*
X55526Y-43774D02*
X58184Y-43774D01*
X52576Y-44894D02*
X52411Y-45059D01*
X64948Y-42882D02*
X63480Y-42882D01*
X61896Y-44038D02*
X61896Y-44041D01*
X66136Y-39905D02*
X66132Y-39901D01*
X58152Y-43340D02*
X58168Y-43356D01*
G54D38*
X58954Y-46867D02*
X58954Y-47182D01*
G54D39*
X52411Y-47369D02*
X52043Y-47737D01*
G54D38*
X62258Y-42420D02*
X62258Y-41682D01*
X60926Y-40111D02*
X60710Y-40111D01*
G54D39*
X65326Y-41498D02*
X65326Y-42504D01*
G54D38*
X60926Y-40111D02*
X61556Y-40111D01*
G54D39*
X62538Y-42882D02*
X61643Y-42882D01*
G54D38*
X65974Y-42056D02*
X66291Y-42056D01*
G54D39*
X65549Y-41275D02*
X65544Y-41280D01*
G54D38*
X60278Y-39679D02*
X59266Y-39679D01*
G54D39*
X65214Y-38983D02*
X65214Y-37921D01*
X63443Y-42882D02*
X63206Y-43119D01*
X58152Y-43008D02*
X58152Y-43340D01*
X65326Y-42504D02*
X64948Y-42882D01*
G54D38*
X58217Y-35068D02*
X58217Y-36834D01*
G54D40*
X42800Y-47737D02*
X43800Y-47737D01*
G54D39*
X58204Y-43774D02*
X58404Y-43574D01*
G54D38*
X66470Y-41363D02*
X66470Y-41493D01*
G54D37*
X60962Y-46186D02*
X61203Y-46186D01*
G54D40*
X43800Y-47737D02*
X44800Y-47737D01*
G54D39*
X72486Y-35103D02*
X72258Y-35103D01*
X70634Y-28501D02*
X69175Y-28501D01*
G54D40*
X71949Y-49169D02*
X71460Y-49169D01*
G54D39*
X72682Y-34907D02*
X72486Y-35103D01*
X62246Y-30686D02*
X62470Y-30910D01*
G54D37*
X69840Y-46760D02*
X69271Y-46191D01*
G54D39*
X71150Y-41460D02*
X71151Y-41459D01*
X68773Y-28501D02*
X69175Y-28501D01*
X71838Y-35994D02*
X71182Y-36650D01*
X49264Y-34457D02*
X50019Y-34457D01*
X59999Y-32879D02*
X60413Y-32879D01*
G54D37*
X71460Y-47370D02*
X71460Y-49169D01*
G54D39*
X60692Y-32879D02*
X61071Y-32879D01*
X61318Y-32430D02*
X61817Y-32430D01*
X71038Y-35103D02*
X70726Y-35415D01*
X71838Y-35949D02*
X71610Y-35949D01*
G54D37*
X70890Y-47110D02*
X70580Y-47110D01*
G54D39*
X71838Y-35949D02*
X71838Y-35994D01*
X49016Y-30947D02*
X49016Y-34209D01*
X71208Y-35103D02*
X71123Y-35103D01*
X72258Y-35103D02*
X71208Y-35103D01*
X60413Y-32879D02*
X60869Y-32879D01*
X72682Y-28909D02*
X72682Y-34907D01*
X71875Y-28501D02*
X70634Y-28501D01*
X49270Y-30693D02*
X49016Y-30947D01*
G54D40*
X72059Y-40225D02*
X71592Y-40225D01*
X72282Y-40448D02*
X72059Y-40225D01*
X71460Y-49169D02*
X70949Y-49169D01*
G54D39*
X60413Y-32879D02*
X60692Y-32879D01*
X70484Y-41460D02*
X71150Y-41460D01*
X72256Y-35105D02*
X72258Y-35103D01*
X68773Y-28501D02*
X68640Y-28634D01*
G54D37*
X70580Y-47110D02*
X70230Y-46760D01*
G54D39*
X71123Y-35103D02*
X71038Y-35103D01*
X61817Y-32430D02*
X62150Y-32097D01*
X70943Y-40225D02*
X71592Y-40225D01*
G54D40*
X68944Y-38699D02*
X68946Y-38701D01*
G54D39*
X59637Y-33241D02*
X59999Y-32879D01*
X70726Y-35415D02*
X70726Y-36396D01*
G54D37*
X69271Y-46191D02*
X69097Y-46191D01*
G54D39*
X71875Y-28501D02*
X72274Y-28501D01*
X62150Y-31230D02*
X62470Y-30910D01*
G54D37*
X70780Y-47110D02*
X70890Y-47110D01*
G54D39*
X62150Y-32097D02*
X62150Y-31426D01*
X60869Y-32879D02*
X61318Y-32430D01*
X49016Y-34209D02*
X49264Y-34457D01*
X70949Y-49169D02*
X70869Y-49169D01*
G54D40*
X68944Y-37749D02*
X68944Y-38699D01*
G54D39*
X61422Y-30686D02*
X62246Y-30686D01*
G54D37*
X70890Y-47110D02*
X71200Y-47110D01*
X71200Y-47110D02*
X71460Y-47370D01*
G54D39*
X62150Y-31426D02*
X62150Y-31230D01*
X49533Y-30693D02*
X49270Y-30693D01*
X72274Y-28501D02*
X72682Y-28909D01*
X59637Y-34477D02*
X59637Y-33241D01*
G54D37*
X70230Y-46760D02*
X69840Y-46760D01*
G54D40*
X72282Y-40688D02*
X72282Y-40448D01*
G54D38*
X51928Y-34342D02*
X51693Y-34107D01*
X53416Y-36486D02*
X53323Y-36486D01*
X53323Y-36486D02*
X52929Y-36092D01*
X51928Y-35812D02*
X51928Y-34342D01*
X53416Y-36486D02*
X53660Y-36486D01*
X52208Y-36092D02*
X51928Y-35812D01*
X52929Y-36092D02*
X52208Y-36092D01*
X51693Y-34107D02*
X51219Y-34107D01*
X60659Y-38485D02*
X60659Y-38480D01*
X60355Y-38176D02*
X57680Y-38176D01*
X60659Y-38480D02*
X60355Y-38176D01*
X57430Y-34392D02*
X57430Y-34391D01*
X57430Y-34391D02*
X57430Y-34391D01*
X57680Y-38176D02*
X57430Y-37926D01*
X57430Y-34391D02*
X57430Y-34392D01*
X57430Y-34391D02*
X57430Y-37926D01*
X52010Y-32980D02*
X49870Y-32980D01*
X52580Y-35672D02*
X52425Y-35672D01*
X52425Y-35672D02*
X52229Y-35476D01*
X52580Y-35672D02*
X52852Y-35672D01*
X49870Y-32980D02*
X49510Y-32620D01*
X52229Y-35476D02*
X52229Y-33199D01*
X52229Y-33199D02*
X52010Y-32980D01*
X61412Y-35414D02*
X61412Y-34442D01*
X61412Y-34442D02*
X61415Y-34445D01*
X61308Y-36612D02*
X61192Y-36496D01*
X61192Y-35634D02*
X61412Y-35414D01*
X61554Y-36612D02*
X61308Y-36612D01*
X61097Y-34127D02*
X60837Y-34127D01*
X61097Y-34127D02*
X61412Y-34442D01*
X61192Y-36496D02*
X61192Y-35634D01*
X62351Y-32662D02*
X62128Y-32662D01*
X61795Y-35857D02*
X61554Y-36098D01*
X61795Y-32995D02*
X61795Y-35857D01*
X62128Y-32662D02*
X61795Y-32995D01*
X66476Y-45006D02*
X66476Y-44720D01*
X67107Y-43173D02*
X66593Y-43173D01*
G54D37*
X67090Y-45636D02*
X67138Y-45636D01*
G54D38*
X66476Y-45422D02*
X66690Y-45636D01*
X66593Y-43173D02*
X66592Y-43174D01*
G54D37*
X66690Y-45636D02*
X67090Y-45636D01*
X67829Y-49169D02*
X67470Y-48810D01*
G54D38*
X66476Y-44720D02*
X66108Y-44352D01*
G54D37*
X67600Y-45770D02*
X67600Y-47200D01*
G54D38*
X65970Y-44352D02*
X66024Y-44352D01*
G54D37*
X67949Y-49169D02*
X67829Y-49169D01*
G54D38*
X66476Y-45006D02*
X66476Y-45422D01*
X65882Y-44352D02*
X65754Y-44224D01*
G54D37*
X67466Y-45636D02*
X67600Y-45770D01*
G54D38*
X65754Y-44224D02*
X65754Y-43884D01*
X66108Y-44352D02*
X66024Y-44352D01*
G54D37*
X67090Y-45636D02*
X67466Y-45636D01*
G54D38*
X66024Y-44352D02*
X65882Y-44352D01*
G54D37*
X67470Y-48810D02*
X67470Y-47330D01*
X67470Y-47330D02*
X67600Y-47200D01*
X67138Y-45636D02*
X67300Y-45636D01*
X67949Y-49169D02*
X67769Y-49169D01*
G54D39*
X42509Y-46615D02*
X42800Y-46324D01*
X41678Y-46894D02*
X41957Y-46615D01*
X41678Y-47737D02*
X41678Y-46894D01*
X42800Y-46324D02*
X42800Y-45737D01*
X41957Y-46615D02*
X42509Y-46615D01*
X43800Y-45737D02*
X43800Y-45568D01*
X43800Y-45568D02*
X44804Y-44564D01*
X45800Y-45737D02*
X45800Y-45568D01*
X45800Y-45568D02*
X46804Y-44564D01*
G54D40*
X47064Y-46544D02*
X47871Y-45737D01*
X47871Y-45737D02*
X48186Y-45737D01*
X47064Y-47745D02*
X47064Y-46544D01*
G54D39*
X49186Y-44946D02*
X48804Y-44564D01*
X49186Y-45737D02*
X49186Y-44946D01*
G54D37*
X68779Y-49169D02*
X68450Y-48840D01*
X68450Y-47440D02*
X68600Y-47290D01*
X68450Y-48840D02*
X68450Y-47440D01*
X67974Y-45056D02*
X67974Y-45134D01*
X68600Y-45760D02*
X68600Y-47290D01*
X68949Y-49169D02*
X68779Y-49169D01*
X67974Y-45134D02*
X68600Y-45760D01*
G54D39*
X44800Y-45737D02*
X44800Y-45568D01*
X44800Y-45568D02*
X45804Y-44564D01*
X50186Y-44946D02*
X49804Y-44564D01*
X50186Y-45737D02*
X50186Y-44946D01*
X51186Y-45737D02*
X51186Y-44946D01*
X51186Y-44946D02*
X50804Y-44564D01*
G54D38*
X67857Y-43173D02*
X67857Y-43860D01*
G54D39*
X72097Y-46191D02*
X72509Y-46191D01*
G54D38*
X65336Y-43488D02*
X65965Y-43488D01*
G54D39*
X50181Y-35645D02*
X50181Y-35646D01*
G54D38*
X65965Y-43488D02*
X66182Y-43705D01*
X64962Y-43862D02*
X65336Y-43488D01*
G54D37*
X60019Y-43020D02*
X60112Y-43113D01*
G54D38*
X66182Y-43705D02*
X66182Y-44087D01*
G54D39*
X58876Y-44165D02*
X58889Y-44165D01*
G54D38*
X67080Y-45056D02*
X67857Y-44279D01*
G54D37*
X59949Y-48169D02*
X59949Y-48385D01*
G54D38*
X67857Y-44279D02*
X67857Y-43860D01*
X66974Y-45056D02*
X67080Y-45056D01*
G54D39*
X57672Y-45814D02*
X57673Y-45814D01*
G54D38*
X55529Y-39022D02*
X54623Y-39022D01*
G54D37*
X54517Y-33169D02*
X54376Y-33310D01*
G54D38*
X66974Y-44879D02*
X66974Y-45056D01*
G54D39*
X52190Y-42535D02*
X52190Y-42780D01*
G54D38*
X54623Y-39022D02*
X54238Y-39407D01*
X57413Y-32806D02*
X56919Y-32312D01*
G54D39*
X69785Y-40225D02*
X70292Y-40225D01*
G54D38*
X64844Y-37342D02*
X64844Y-37344D01*
X58044Y-40777D02*
X58045Y-40776D01*
G54D37*
X60112Y-43113D02*
X60112Y-43308D01*
X59434Y-43008D02*
X59446Y-43020D01*
G54D39*
X55220Y-29690D02*
X55561Y-30031D01*
G54D38*
X71425Y-40801D02*
X69647Y-40801D01*
G54D37*
X55561Y-31178D02*
X55561Y-30031D01*
G54D38*
X52190Y-42780D02*
X52190Y-40847D01*
X58991Y-35378D02*
X58991Y-32774D01*
X64771Y-38793D02*
X64771Y-39537D01*
X69647Y-40801D02*
X69611Y-40765D01*
G54D39*
X72509Y-46191D02*
X72682Y-46018D01*
G54D38*
X57903Y-39931D02*
X58045Y-40073D01*
X58217Y-33068D02*
X58378Y-33068D01*
X64962Y-45186D02*
X64962Y-43862D01*
X52190Y-40847D02*
X53630Y-39407D01*
X55652Y-39022D02*
X55796Y-39166D01*
G54D39*
X60245Y-33465D02*
X60245Y-35398D01*
X52190Y-42780D02*
X52395Y-42985D01*
G54D38*
X56919Y-32312D02*
X56093Y-32312D01*
G54D39*
X60760Y-33284D02*
X60426Y-33284D01*
G54D38*
X64771Y-39537D02*
X64772Y-39538D01*
G54D37*
X57263Y-33169D02*
X54517Y-33169D01*
G54D40*
X42800Y-48737D02*
X43800Y-48737D01*
G54D39*
X49533Y-28748D02*
X49894Y-28387D01*
G54D38*
X58378Y-33068D02*
X58770Y-33460D01*
G54D39*
X52017Y-42362D02*
X52190Y-42535D01*
G54D38*
X53630Y-39407D02*
X54238Y-39407D01*
G54D40*
X43800Y-48737D02*
X44800Y-48737D01*
G54D38*
X58991Y-32774D02*
X58651Y-32434D01*
G54D39*
X68741Y-29587D02*
X71009Y-29587D01*
G54D40*
X48186Y-48737D02*
X49186Y-48737D01*
G54D39*
X50619Y-33528D02*
X50619Y-35403D01*
X55561Y-31178D02*
X55561Y-31780D01*
G54D40*
X44800Y-48737D02*
X45800Y-48737D01*
G54D39*
X60844Y-28387D02*
X60832Y-28375D01*
X60426Y-33284D02*
X60245Y-33465D01*
G54D38*
X64771Y-37417D02*
X64771Y-38793D01*
G54D39*
X65627Y-30261D02*
X65868Y-30020D01*
X59087Y-44165D02*
X59378Y-43874D01*
X72100Y-45186D02*
X72504Y-45186D01*
X51053Y-33284D02*
X50863Y-33284D01*
X61422Y-28965D02*
X61422Y-29686D01*
G54D38*
X72682Y-37166D02*
X72682Y-41701D01*
G54D39*
X49533Y-29693D02*
X49533Y-28748D01*
G54D38*
X54376Y-33554D02*
X54365Y-33565D01*
X63206Y-41726D02*
X62967Y-41965D01*
G54D39*
X64314Y-38672D02*
X64315Y-38673D01*
X60832Y-28375D02*
X61422Y-28965D01*
X57769Y-40777D02*
X58044Y-40777D01*
G54D37*
X59446Y-43020D02*
X60019Y-43020D01*
G54D39*
X56603Y-28715D02*
X56931Y-28387D01*
G54D38*
X66182Y-44087D02*
X66974Y-44879D01*
G54D40*
X49186Y-48737D02*
X50186Y-48737D01*
G54D39*
X72504Y-45186D02*
X72682Y-45008D01*
G54D38*
X57707Y-32806D02*
X57413Y-32806D01*
X64835Y-37351D02*
X64844Y-37342D01*
G54D39*
X57672Y-45814D02*
X57672Y-44419D01*
X57672Y-44419D02*
X57926Y-44165D01*
X57926Y-44165D02*
X58876Y-44165D01*
G54D37*
X60112Y-43308D02*
X60514Y-43710D01*
G54D39*
X47847Y-42361D02*
X47848Y-42362D01*
X60245Y-35499D02*
X60245Y-35398D01*
G54D38*
X72418Y-36902D02*
X72682Y-37166D01*
X57661Y-39931D02*
X57903Y-39931D01*
G54D39*
X71151Y-43454D02*
X71318Y-43287D01*
G54D40*
X54376Y-33554D02*
X54365Y-33565D01*
G54D39*
X59087Y-44165D02*
X58876Y-44165D01*
X50863Y-33284D02*
X50619Y-33528D01*
X49894Y-28387D02*
X50345Y-28387D01*
X69197Y-36491D02*
X69197Y-36036D01*
G54D38*
X58991Y-35500D02*
X58991Y-35378D01*
X59137Y-35646D02*
X58991Y-35500D01*
X58651Y-32434D02*
X58079Y-32434D01*
G54D39*
X50376Y-35646D02*
X50181Y-35646D01*
G54D38*
X71425Y-40801D02*
X71663Y-40801D01*
X58079Y-32434D02*
X57707Y-32806D01*
G54D39*
X64772Y-37418D02*
X65305Y-36885D01*
G54D38*
X57401Y-40777D02*
X57769Y-40777D01*
G54D40*
X71851Y-37200D02*
X71851Y-37536D01*
G54D38*
X71663Y-40801D02*
X71782Y-40801D01*
G54D39*
X68030Y-38696D02*
X68030Y-40235D01*
X72418Y-36902D02*
X72682Y-37166D01*
X64314Y-37921D02*
X64314Y-38672D01*
X54540Y-28664D02*
X54817Y-28387D01*
G54D38*
X64844Y-37344D02*
X64771Y-37417D01*
X62967Y-41965D02*
X62633Y-41965D01*
X65305Y-35065D02*
X64780Y-34540D01*
X64501Y-34540D02*
X64780Y-34540D01*
X64501Y-34540D02*
X64501Y-34176D01*
X64501Y-34176D02*
X64432Y-34107D01*
G54D37*
X65788Y-48666D02*
X65949Y-48827D01*
G54D39*
X64780Y-34540D02*
X64501Y-34540D01*
X71851Y-36902D02*
X72418Y-36902D01*
X67898Y-29610D02*
X68226Y-29610D01*
G54D37*
X65949Y-48827D02*
X65949Y-49169D01*
G54D39*
X65305Y-36885D02*
X65305Y-35065D01*
G54D37*
X59949Y-48385D02*
X60230Y-48666D01*
G54D38*
X64312Y-32264D02*
X64432Y-32384D01*
G54D40*
X71851Y-37536D02*
X70938Y-38449D01*
G54D38*
X64432Y-34107D02*
X64432Y-32384D01*
G54D39*
X69197Y-36491D02*
X69197Y-36646D01*
G54D38*
X64092Y-32264D02*
X64312Y-32264D01*
X63944Y-32116D02*
X64092Y-32264D01*
G54D39*
X50619Y-35403D02*
X50376Y-35646D01*
G54D38*
X56093Y-32312D02*
X55561Y-31780D01*
G54D39*
X69611Y-40399D02*
X69785Y-40225D01*
X60098Y-35646D02*
X60245Y-35499D01*
X64772Y-39538D02*
X64772Y-37418D01*
G54D38*
X59716Y-37092D02*
X59716Y-37767D01*
G54D37*
X60230Y-48666D02*
X63152Y-48666D01*
G54D39*
X71009Y-29587D02*
X71218Y-29796D01*
X72682Y-37166D02*
X72682Y-45008D01*
G54D37*
X62949Y-49169D02*
X62949Y-48869D01*
G54D39*
X60832Y-28375D02*
X63695Y-28375D01*
X56931Y-28387D02*
X60844Y-28387D01*
G54D40*
X71851Y-37200D02*
X71851Y-36902D01*
G54D37*
X54376Y-33310D02*
X54365Y-33565D01*
G54D39*
X67964Y-30020D02*
X68308Y-30020D01*
X65305Y-35065D02*
X64780Y-34540D01*
X69611Y-40765D02*
X69611Y-40399D01*
X69260Y-29056D02*
X68780Y-29056D01*
G54D37*
X62949Y-48869D02*
X63152Y-48666D01*
G54D39*
X64930Y-29610D02*
X67898Y-29610D01*
X68030Y-40235D02*
X68044Y-40249D01*
X63695Y-28375D02*
X64930Y-29610D01*
G54D38*
X71321Y-40801D02*
X71425Y-40801D01*
G54D39*
X63352Y-30261D02*
X65214Y-30261D01*
X62960Y-29600D02*
X62960Y-29869D01*
G54D38*
X64822Y-41548D02*
X64836Y-41534D01*
X58770Y-36146D02*
X59716Y-37092D01*
G54D39*
X65214Y-30261D02*
X65627Y-30261D01*
X63216Y-41548D02*
X63206Y-41538D01*
G54D38*
X58045Y-40073D02*
X58045Y-40776D01*
G54D40*
X50186Y-48737D02*
X51186Y-48737D01*
G54D39*
X52395Y-42985D02*
X53385Y-42985D01*
X54540Y-29690D02*
X55220Y-29690D01*
X56603Y-29682D02*
X56603Y-28715D01*
X62960Y-29869D02*
X63352Y-30261D01*
G54D37*
X63152Y-48666D02*
X65788Y-48666D01*
G54D39*
X71720Y-37033D02*
X71851Y-36902D01*
X65868Y-30020D02*
X67964Y-30020D01*
G54D38*
X63944Y-31876D02*
X63944Y-32116D01*
G54D37*
X60514Y-43710D02*
X62516Y-43710D01*
G54D39*
X72682Y-45008D02*
X72682Y-46018D01*
G54D38*
X55529Y-39022D02*
X55652Y-39022D01*
G54D37*
X58822Y-43008D02*
X59434Y-43008D01*
G54D39*
X64822Y-41548D02*
X63216Y-41548D01*
G54D37*
X62516Y-43710D02*
X62604Y-43622D01*
G54D39*
X69197Y-36036D02*
X69001Y-35840D01*
X50345Y-28387D02*
X54817Y-28387D01*
G54D37*
X57364Y-33068D02*
X57263Y-33169D01*
G54D39*
X68780Y-29056D02*
X68226Y-29610D01*
X55561Y-30031D02*
X55561Y-31178D01*
X67163Y-35840D02*
X66558Y-35840D01*
X47848Y-42362D02*
X52017Y-42362D01*
G54D38*
X64844Y-37342D02*
X65305Y-36881D01*
G54D40*
X68651Y-40249D02*
X68044Y-40249D01*
G54D37*
X58217Y-33068D02*
X57364Y-33068D01*
G54D40*
X70938Y-38449D02*
X70451Y-38449D01*
G54D39*
X54540Y-29690D02*
X54540Y-28664D01*
X71318Y-43287D02*
X71749Y-43287D01*
G54D38*
X71782Y-40801D02*
X72682Y-41701D01*
G54D39*
X69197Y-36646D02*
X69584Y-37033D01*
X69001Y-35840D02*
X67163Y-35840D01*
G54D38*
X59926Y-35646D02*
X59137Y-35646D01*
X58770Y-33460D02*
X58770Y-36146D01*
X52395Y-42985D02*
X52190Y-42780D01*
G54D39*
X58044Y-40777D02*
X58045Y-40776D01*
G54D38*
X53385Y-42985D02*
X52395Y-42985D01*
G54D39*
X59926Y-35646D02*
X60098Y-35646D01*
G54D37*
X55561Y-30031D02*
X55220Y-29690D01*
G54D38*
X65305Y-36881D02*
X65305Y-35065D01*
G54D40*
X54376Y-32767D02*
X54376Y-33554D01*
G54D38*
X55796Y-39166D02*
X55796Y-39348D01*
G54D39*
X54817Y-28387D02*
X56931Y-28387D01*
X71151Y-43959D02*
X71151Y-43454D01*
G54D38*
X63206Y-41726D02*
X63206Y-41538D01*
G54D39*
X47847Y-42361D02*
X44237Y-42361D01*
X69584Y-37033D02*
X71720Y-37033D01*
X55561Y-31780D02*
X56093Y-32312D01*
X68308Y-30020D02*
X68741Y-29587D01*
G54D40*
X70451Y-38449D02*
X68651Y-40249D01*
G54D38*
X60847Y-36462D02*
X60847Y-36493D01*
X60847Y-36493D02*
X60847Y-37445D01*
X63617Y-37654D02*
X63848Y-37885D01*
X61056Y-37654D02*
X63617Y-37654D01*
X60847Y-37445D02*
X61056Y-37654D01*
X63848Y-39170D02*
X63848Y-37885D01*
X60847Y-36343D02*
X60847Y-36493D01*
G54D37*
X69302Y-49808D02*
X69460Y-49650D01*
X69100Y-49808D02*
X69302Y-49808D01*
X69020Y-47190D02*
X69020Y-47020D01*
X69460Y-49650D02*
X69460Y-47630D01*
X69460Y-47630D02*
X69020Y-47190D01*
G54D38*
X54318Y-44299D02*
X54123Y-44494D01*
G54D37*
X69100Y-49808D02*
X59265Y-49808D01*
G54D38*
X54318Y-44299D02*
X54318Y-44157D01*
X54123Y-44494D02*
X52008Y-44494D01*
G54D37*
X58518Y-49808D02*
X59265Y-49808D01*
X58304Y-49594D02*
X58518Y-49808D01*
G54D38*
X54752Y-40822D02*
X54549Y-41025D01*
X54318Y-42561D02*
X54318Y-44157D01*
G54D37*
X58304Y-47196D02*
X58304Y-49594D01*
G54D38*
X53780Y-42379D02*
X54136Y-42379D01*
X53663Y-41246D02*
X53663Y-42262D01*
X53884Y-41025D02*
X53663Y-41246D01*
X54136Y-42379D02*
X54318Y-42561D01*
X54318Y-44157D02*
X54318Y-44207D01*
X54752Y-40585D02*
X54752Y-40822D01*
X54318Y-44207D02*
X54319Y-44208D01*
X53663Y-42262D02*
X53780Y-42379D01*
X54549Y-41025D02*
X53884Y-41025D01*
X52003Y-43896D02*
X51584Y-44315D01*
G54D37*
X69540Y-47010D02*
X70010Y-47010D01*
G54D38*
X53437Y-42371D02*
X53632Y-42566D01*
X53820Y-43896D02*
X52003Y-43896D01*
X54044Y-43672D02*
X53820Y-43896D01*
X53693Y-40588D02*
X53437Y-40844D01*
G54D37*
X57980Y-46652D02*
X57980Y-49823D01*
X58244Y-50087D02*
X59331Y-50087D01*
G54D38*
X53437Y-40844D02*
X53437Y-42371D01*
X53894Y-42566D02*
X54044Y-42716D01*
X53632Y-42566D02*
X53894Y-42566D01*
G54D37*
X69316Y-50087D02*
X59331Y-50087D01*
X57980Y-49823D02*
X58244Y-50087D01*
G54D38*
X54042Y-40588D02*
X53693Y-40588D01*
X51584Y-44315D02*
X51584Y-44899D01*
G54D37*
X69529Y-47021D02*
X69540Y-47010D01*
X70213Y-50087D02*
X69316Y-50087D01*
X70450Y-49850D02*
X70213Y-50087D01*
X70450Y-47450D02*
X70450Y-49850D01*
X70010Y-47010D02*
X70450Y-47450D01*
G54D38*
X54044Y-42716D02*
X54044Y-43672D01*
X56082Y-41464D02*
X55670Y-41464D01*
X58763Y-39223D02*
X58763Y-39456D01*
X45643Y-43361D02*
X45712Y-43361D01*
X45712Y-43361D02*
X46192Y-43361D01*
X46192Y-43361D02*
X46193Y-43360D01*
X56261Y-39310D02*
X56261Y-41285D01*
X46192Y-43361D02*
X46193Y-43360D01*
X58592Y-39052D02*
X58763Y-39223D01*
X56261Y-39310D02*
X56261Y-39291D01*
X55511Y-41623D02*
X55511Y-42361D01*
X44237Y-43361D02*
X45643Y-43361D01*
X56500Y-39052D02*
X58592Y-39052D01*
X56261Y-41285D02*
X56082Y-41464D01*
X56261Y-39291D02*
X56500Y-39052D01*
X55670Y-41464D02*
X55511Y-41623D01*
X46192Y-43361D02*
X46193Y-43360D01*
X55130Y-42742D02*
X55511Y-42361D01*
X55130Y-42955D02*
X55130Y-42742D01*
X55992Y-42348D02*
X60137Y-42348D01*
X56628Y-42064D02*
X56414Y-41850D01*
X61651Y-41830D02*
X61822Y-42001D01*
X58403Y-42064D02*
X59744Y-42064D01*
X61826Y-42091D02*
X61826Y-42397D01*
X60853Y-41466D02*
X60967Y-41580D01*
X60967Y-41580D02*
X60967Y-41682D01*
X60557Y-42346D02*
X60557Y-42064D01*
X61697Y-42526D02*
X60737Y-42526D01*
X59744Y-42064D02*
X59843Y-41965D01*
X60737Y-42526D02*
X60557Y-42346D01*
X61822Y-42091D02*
X61821Y-42091D01*
X60175Y-41466D02*
X60853Y-41466D01*
X56628Y-42064D02*
X58403Y-42064D01*
X60967Y-41682D02*
X61115Y-41830D01*
X61822Y-42001D02*
X61822Y-42091D01*
X56400Y-41836D02*
X56628Y-42064D01*
X61115Y-41830D02*
X61651Y-41830D01*
X60044Y-41335D02*
X60175Y-41466D01*
X56414Y-41850D02*
X55994Y-41850D01*
X61826Y-42397D02*
X61697Y-42526D01*
X56414Y-41850D02*
X56400Y-41836D01*
X60044Y-40975D02*
X60044Y-41335D01*
X61826Y-42091D02*
X61822Y-42091D01*
X60557Y-42064D02*
X60458Y-41965D01*
X59843Y-41965D02*
X60458Y-41965D01*
G54D40*
X59521Y-30693D02*
X60225Y-30693D01*
X60470Y-32182D02*
X60926Y-32182D01*
X60470Y-30938D02*
X60470Y-32182D01*
X59521Y-29693D02*
X59521Y-30693D01*
X60225Y-30693D02*
X60470Y-30938D01*
X60926Y-32182D02*
X61422Y-31686D01*
X58521Y-30693D02*
X57789Y-30693D01*
X58521Y-29693D02*
X58521Y-30693D01*
X57552Y-30930D02*
X57552Y-32170D01*
X57789Y-30693D02*
X57552Y-30930D01*
X54013Y-32217D02*
X54540Y-31690D01*
G54D39*
X53544Y-32217D02*
X53544Y-34426D01*
X52853Y-34861D02*
X53109Y-34861D01*
X53109Y-34861D02*
X53112Y-34858D01*
G54D40*
X53170Y-30693D02*
X53544Y-31067D01*
X53544Y-31067D02*
X53544Y-32217D01*
X52537Y-30693D02*
X53170Y-30693D01*
G54D39*
X53112Y-34858D02*
X53544Y-34426D01*
G54D40*
X53544Y-32217D02*
X54013Y-32217D01*
X52537Y-29693D02*
X52537Y-30693D01*
X50108Y-32268D02*
X49533Y-31693D01*
X50509Y-31111D02*
X50930Y-30690D01*
X50509Y-32268D02*
X50509Y-31111D01*
X50930Y-30690D02*
X51537Y-30690D01*
X51537Y-30690D02*
X51537Y-29690D01*
X50509Y-32268D02*
X50108Y-32268D01*
G54D38*
X57176Y-41731D02*
X57035Y-41590D01*
X58049Y-39454D02*
X57056Y-39454D01*
X57056Y-39454D02*
X56842Y-39668D01*
X60931Y-42199D02*
X60778Y-42046D01*
X61376Y-42199D02*
X60931Y-42199D01*
X56842Y-41398D02*
X57035Y-41591D01*
X60598Y-41731D02*
X57176Y-41731D01*
X60778Y-41911D02*
X60598Y-41731D01*
X56842Y-39668D02*
X56842Y-41398D01*
X60778Y-42046D02*
X60778Y-41911D01*
X57035Y-41590D02*
X57035Y-41591D01*
G54D40*
X66865Y-32040D02*
X66549Y-32356D01*
X68269Y-32040D02*
X66865Y-32040D01*
X69911Y-33682D02*
X68269Y-32040D01*
X65749Y-32356D02*
X66549Y-32356D01*
X71678Y-33682D02*
X69911Y-33682D01*
X68666Y-34599D02*
X68552Y-34599D01*
X68552Y-34599D02*
X67524Y-33571D01*
X66549Y-33156D02*
X65749Y-33156D01*
X67524Y-33571D02*
X66964Y-33571D01*
X66964Y-33571D02*
X66549Y-33156D01*
G54D39*
X42296Y-48419D02*
X42296Y-47320D01*
X42604Y-47012D02*
X43009Y-47012D01*
X43300Y-45068D02*
X43804Y-44564D01*
X42296Y-47320D02*
X42604Y-47012D01*
X41978Y-48737D02*
X42296Y-48419D01*
X43300Y-46721D02*
X43300Y-45068D01*
X41678Y-48737D02*
X41978Y-48737D01*
X43009Y-47012D02*
X43300Y-46721D01*
X47915Y-44564D02*
X47804Y-44564D01*
G54D38*
X47064Y-48745D02*
X47193Y-48745D01*
G54D39*
X48678Y-45327D02*
X47915Y-44564D01*
X48678Y-46579D02*
X48678Y-45327D01*
X47674Y-48264D02*
X47674Y-47159D01*
X47193Y-48745D02*
X47674Y-48264D01*
X48073Y-46760D02*
X48497Y-46760D01*
X47674Y-47159D02*
X48073Y-46760D01*
X48497Y-46760D02*
X48678Y-46579D01*
G54D38*
X60140Y-40258D02*
X61174Y-41292D01*
X59791Y-40258D02*
X60140Y-40258D01*
X61174Y-41292D02*
X61553Y-41292D01*
X54823Y-41807D02*
X54238Y-41807D01*
X55184Y-39358D02*
X55184Y-41446D01*
X55184Y-41446D02*
X54823Y-41807D01*
X60200Y-38956D02*
X59704Y-38460D01*
X56113Y-34965D02*
X56113Y-38289D01*
X60932Y-38956D02*
X60896Y-38956D01*
X60896Y-38956D02*
X60200Y-38956D01*
X59704Y-38460D02*
X56284Y-38460D01*
X56284Y-38460D02*
X56113Y-38289D01*
X58955Y-45266D02*
X58954Y-45267D01*
X58955Y-44529D02*
X58955Y-45266D01*
X60074Y-39436D02*
X60071Y-39433D01*
X54113Y-34965D02*
X54113Y-38203D01*
X59392Y-38764D02*
X54674Y-38764D01*
X60061Y-39433D02*
X59392Y-38764D01*
X60071Y-39433D02*
X60061Y-39433D01*
X60660Y-39436D02*
X60074Y-39436D01*
X54674Y-38764D02*
X54113Y-38203D01*
X61553Y-37141D02*
X64025Y-37141D01*
X64501Y-36665D02*
X64501Y-36540D01*
X61553Y-37141D02*
X61554Y-37142D01*
X64025Y-37141D02*
X64501Y-36665D01*
G54D39*
X51072Y-35196D02*
X51072Y-35646D01*
G54D40*
X51072Y-34954D02*
X51219Y-34807D01*
G54D39*
X51072Y-35196D02*
X51072Y-34954D01*
G54D38*
X60740Y-34924D02*
X60837Y-34827D01*
X60740Y-35646D02*
X60740Y-34924D01*
G54D40*
X60718Y-34946D02*
X60837Y-34827D01*
G54D37*
X66875Y-44347D02*
X66916Y-44347D01*
G54D38*
X66592Y-43884D02*
X67083Y-43884D01*
G54D37*
X67672Y-42694D02*
X67919Y-42694D01*
X67355Y-44347D02*
X67514Y-44188D01*
G54D38*
X67083Y-43884D02*
X67107Y-43860D01*
X60665Y-47372D02*
X60461Y-47168D01*
X60539Y-44242D02*
X60539Y-44359D01*
G54D37*
X66592Y-44160D02*
X66592Y-43884D01*
X66779Y-44347D02*
X66592Y-44160D01*
X66916Y-44347D02*
X66779Y-44347D01*
G54D38*
X60539Y-44359D02*
X60461Y-44437D01*
G54D37*
X67514Y-44188D02*
X67514Y-42852D01*
X68141Y-42694D02*
X68265Y-42818D01*
G54D38*
X60461Y-44437D02*
X60461Y-46653D01*
G54D37*
X67919Y-42694D02*
X68141Y-42694D01*
X69066Y-42148D02*
X68974Y-42056D01*
X69066Y-44245D02*
X69066Y-42148D01*
X68954Y-44357D02*
X69066Y-44245D01*
X68419Y-44357D02*
X68954Y-44357D01*
X68265Y-44203D02*
X68419Y-44357D01*
X68265Y-42818D02*
X68265Y-44203D01*
G54D38*
X60461Y-47168D02*
X60461Y-46653D01*
G54D37*
X66916Y-44347D02*
X67355Y-44347D01*
G54D38*
X66100Y-46693D02*
X66100Y-47179D01*
X66100Y-46693D02*
X66100Y-46186D01*
X66100Y-47179D02*
X65907Y-47372D01*
G54D37*
X67514Y-42852D02*
X67672Y-42694D01*
G54D38*
X65907Y-47372D02*
X60665Y-47372D01*
X60288Y-36352D02*
X60288Y-36547D01*
X60288Y-36442D02*
X60288Y-36547D01*
X60288Y-36547D02*
X60288Y-37078D01*
X60288Y-37739D02*
X60524Y-37975D01*
X63016Y-37975D02*
X63235Y-38194D01*
X63235Y-38194D02*
X63235Y-39469D01*
X60524Y-37975D02*
X63016Y-37975D01*
X60288Y-37078D02*
X60288Y-37739D01*
G54D39*
X71100Y-46188D02*
X71097Y-46191D01*
X71100Y-45186D02*
X71100Y-46188D01*
G54D37*
X62342Y-40804D02*
X62300Y-40846D01*
X64175Y-40804D02*
X62554Y-40804D01*
X62554Y-40804D02*
X62342Y-40804D01*
G54D39*
X71100Y-45186D02*
X71100Y-46186D01*
X69443Y-43170D02*
X70372Y-43170D01*
X70700Y-44786D02*
X71100Y-45186D01*
X70372Y-43170D02*
X70700Y-43498D01*
X70700Y-43498D02*
X70700Y-44786D01*
X70100Y-45186D02*
X70100Y-46188D01*
X70100Y-46188D02*
X70097Y-46191D01*
X70100Y-44835D02*
X70100Y-45186D01*
X70100Y-45186D02*
X70100Y-44123D01*
X69840Y-43863D02*
X69444Y-43863D01*
X70100Y-44123D02*
X69840Y-43863D01*
X70100Y-45186D02*
X70100Y-44835D01*
G54D37*
X62302Y-40340D02*
X62300Y-40342D01*
X64176Y-40340D02*
X62302Y-40340D01*
G54D38*
X59472Y-47252D02*
X59472Y-46870D01*
X59472Y-44827D02*
X60054Y-44245D01*
X59472Y-46870D02*
X59472Y-44827D01*
X59772Y-47552D02*
X59472Y-47252D01*
X67100Y-47336D02*
X66884Y-47552D01*
X66884Y-47552D02*
X59772Y-47552D01*
X67100Y-46790D02*
X67100Y-47336D01*
X65974Y-45056D02*
X65974Y-45231D01*
X67100Y-46186D02*
X67100Y-46790D01*
G54D37*
X65974Y-45231D02*
X66929Y-46186D01*
X66929Y-46186D02*
X67100Y-46186D01*
G54D38*
X65974Y-45231D02*
X66929Y-46186D01*
X66929Y-46186D02*
X67100Y-46186D01*
G54D40*
X66201Y-35301D02*
X69390Y-35301D01*
X64949Y-31749D02*
X64949Y-32356D01*
X66114Y-37921D02*
X66114Y-39236D01*
X65832Y-35201D02*
X65832Y-34895D01*
X67144Y-37749D02*
X67144Y-37486D01*
X64949Y-33771D02*
X64949Y-33156D01*
X69390Y-35301D02*
X70038Y-35949D01*
X65832Y-36008D02*
X65832Y-37064D01*
X70038Y-34864D02*
X70037Y-34863D01*
X64470Y-30910D02*
X64470Y-31270D01*
X65832Y-36174D02*
X65832Y-36008D01*
X65832Y-34895D02*
X65832Y-34932D01*
X65832Y-37064D02*
X66114Y-37346D01*
X64470Y-31270D02*
X64949Y-31749D01*
X65832Y-34654D02*
X64949Y-33771D01*
X65832Y-34932D02*
X66201Y-35301D01*
X67145Y-37750D02*
X67144Y-37749D01*
X65832Y-34895D02*
X65832Y-34654D01*
X65832Y-36008D02*
X65832Y-35201D01*
X70038Y-35949D02*
X70038Y-34864D01*
X67144Y-37486D02*
X65832Y-36174D01*
X67145Y-38712D02*
X67145Y-37750D01*
X66114Y-37346D02*
X66114Y-37921D01*
X64949Y-33156D02*
X64949Y-32356D01*
G54D39*
X63060Y-33010D02*
X63060Y-32160D01*
X63470Y-31750D02*
X63470Y-30910D01*
X63060Y-32475D02*
X63060Y-32620D01*
X63060Y-32160D02*
X63470Y-31750D01*
X62742Y-33328D02*
X63060Y-33010D01*
X63470Y-31750D02*
X63470Y-30910D01*
X62352Y-33328D02*
X62742Y-33328D01*
X63060Y-32160D02*
X63470Y-31750D01*
X63060Y-32475D02*
X63060Y-32160D01*
X62742Y-33328D02*
X63060Y-33010D01*
X48602Y-28957D02*
X48755Y-28804D01*
X48602Y-34465D02*
X48602Y-29269D01*
G54D38*
X55145Y-28762D02*
X55931Y-28762D01*
G54D39*
X48602Y-29269D02*
X48602Y-28957D01*
X62800Y-28720D02*
X62107Y-28720D01*
M02*
