G04 (created by PCBNEW-RS274X (2012-01-19 BZR 3256)-stable) date 30/5/2556 14:25:47*
G01*
G70*
G90*
%MOIN*%
G04 Gerber Fmt 3.4, Leading zero omitted, Abs format*
%FSLAX34Y34*%
G04 APERTURE LIST*
%ADD10C,0.006000*%
%ADD11O,0.080000X0.085000*%
%ADD12O,0.080000X0.105000*%
%ADD13O,0.105000X0.075000*%
%ADD14O,0.105000X0.080000*%
%ADD15O,0.115000X0.084000*%
%ADD16O,0.080000X0.110000*%
%ADD17O,0.120000X0.090000*%
%ADD18O,0.075000X0.105000*%
%ADD19O,0.095000X0.080000*%
%ADD20R,0.080000X0.100000*%
%ADD21R,0.100000X0.080000*%
%ADD22R,0.055000X0.075000*%
%ADD23C,0.080000*%
%ADD24R,0.075000X0.055000*%
%ADD25O,0.083000X0.055400*%
G04 APERTURE END LIST*
G54D10*
G54D11*
X71949Y-48170D03*
X71949Y-49170D03*
X70949Y-48170D03*
X70949Y-49170D03*
X69949Y-48170D03*
X69949Y-49170D03*
X68949Y-48170D03*
X68949Y-49170D03*
X67949Y-48170D03*
X67949Y-49170D03*
X66949Y-48170D03*
X66949Y-49170D03*
X65949Y-48170D03*
X65949Y-49170D03*
X64949Y-48170D03*
X64949Y-49170D03*
X63949Y-48170D03*
X63949Y-49170D03*
X62949Y-48170D03*
X62949Y-49170D03*
X61949Y-48170D03*
X61949Y-49170D03*
X60949Y-48170D03*
X60949Y-49170D03*
X59949Y-48170D03*
X59949Y-49170D03*
X41402Y-45342D03*
X62898Y-35283D03*
G54D12*
X64943Y-36027D03*
X65943Y-36027D03*
X66943Y-36027D03*
X67943Y-36027D03*
G54D13*
X58246Y-48116D03*
X58246Y-46116D03*
G54D14*
X41678Y-48737D03*
X41678Y-47737D03*
G54D15*
X68016Y-32897D03*
X68016Y-34897D03*
X65016Y-32897D03*
X65016Y-34897D03*
G54D16*
X67210Y-30530D03*
X67210Y-31550D03*
X66410Y-30530D03*
X66410Y-31550D03*
X65610Y-30530D03*
X65610Y-31550D03*
G54D17*
X64410Y-31040D03*
X68410Y-31040D03*
G54D12*
X48186Y-45737D03*
X49186Y-45737D03*
X50186Y-45737D03*
X51186Y-45737D03*
G54D14*
X47064Y-48745D03*
X47064Y-47745D03*
G54D13*
X61914Y-43204D03*
X59914Y-43204D03*
G54D12*
X51538Y-29692D03*
X51538Y-30692D03*
X51538Y-31692D03*
X52538Y-29692D03*
X52538Y-30692D03*
X52538Y-31692D03*
G54D18*
X52423Y-36816D03*
X47423Y-36816D03*
X47423Y-39808D03*
X52423Y-39808D03*
X51423Y-39808D03*
X50423Y-39808D03*
X49423Y-39808D03*
X48423Y-39808D03*
X51423Y-36816D03*
X50423Y-36816D03*
X49423Y-36816D03*
X48423Y-36816D03*
G54D12*
X42804Y-44564D03*
X43804Y-44564D03*
X44804Y-44564D03*
X45804Y-44564D03*
X46804Y-44564D03*
X47804Y-44564D03*
X48804Y-44564D03*
X49804Y-44564D03*
X50804Y-44564D03*
X61538Y-31692D03*
X61538Y-30692D03*
X61538Y-29692D03*
X56538Y-31692D03*
X56538Y-30692D03*
X56538Y-29692D03*
X54538Y-31692D03*
X54538Y-30692D03*
X54538Y-29692D03*
X49538Y-31692D03*
X49538Y-30692D03*
X49538Y-29692D03*
G54D14*
X44237Y-41361D03*
X44237Y-42361D03*
X44237Y-43361D03*
G54D13*
X61914Y-44136D03*
X59914Y-44136D03*
G54D12*
X58538Y-29692D03*
X58538Y-30692D03*
X58538Y-31692D03*
X59538Y-29692D03*
X59538Y-30692D03*
X59538Y-31692D03*
G54D19*
X71950Y-43150D03*
X71950Y-42150D03*
X71950Y-41150D03*
X71950Y-40150D03*
X71950Y-39150D03*
X71950Y-38150D03*
X70950Y-43150D03*
X70950Y-42150D03*
X70950Y-41150D03*
X70950Y-40150D03*
X70950Y-39150D03*
G54D12*
X51186Y-47737D03*
G54D14*
X51186Y-48737D03*
G54D12*
X50186Y-47737D03*
X50186Y-48737D03*
X49186Y-47737D03*
X49186Y-48737D03*
X48186Y-47737D03*
X48186Y-48737D03*
X42800Y-45737D03*
X43800Y-45737D03*
X44800Y-45737D03*
X45800Y-45737D03*
X45800Y-47737D03*
X45800Y-48737D03*
X44800Y-47737D03*
X44800Y-48737D03*
X43800Y-47737D03*
X43800Y-48737D03*
X42800Y-47737D03*
X42800Y-48737D03*
G54D20*
X57508Y-43008D03*
X58808Y-43008D03*
X57166Y-40779D03*
X58466Y-40779D03*
G54D21*
X63783Y-39283D03*
X63783Y-40583D03*
G54D22*
X71045Y-44142D03*
X71795Y-44142D03*
G54D23*
X71865Y-34030D02*
X72015Y-34030D01*
X71865Y-35030D02*
X72015Y-35030D01*
X71865Y-36030D02*
X72015Y-36030D01*
X71865Y-37030D02*
X72015Y-37030D01*
G54D12*
X70944Y-29016D03*
X71944Y-29016D03*
G54D14*
X70930Y-38150D03*
X69930Y-38150D03*
G54D24*
X50544Y-31461D03*
X50544Y-32211D03*
X53543Y-31468D03*
X53543Y-32218D03*
X57540Y-31482D03*
X57540Y-32232D03*
X60537Y-31449D03*
X60537Y-32199D03*
G54D15*
X50976Y-41378D03*
X50976Y-43378D03*
X47976Y-41378D03*
X47976Y-43378D03*
G54D11*
X71951Y-45149D03*
X71951Y-46149D03*
X70951Y-45149D03*
X70951Y-46149D03*
X69951Y-45149D03*
X69951Y-46149D03*
X68951Y-45149D03*
X68951Y-46149D03*
X67951Y-45149D03*
X67951Y-46149D03*
X66951Y-45149D03*
X66951Y-46149D03*
X65951Y-45149D03*
X65951Y-46149D03*
X64951Y-45149D03*
X64951Y-46149D03*
X63951Y-45149D03*
X63951Y-46149D03*
X62951Y-45149D03*
X62951Y-46149D03*
X61951Y-45149D03*
X61951Y-46149D03*
X60951Y-45149D03*
X60951Y-46149D03*
X59951Y-45149D03*
X59951Y-46149D03*
G54D23*
X70865Y-34030D02*
X71015Y-34030D01*
X70865Y-35030D02*
X71015Y-35030D01*
X70865Y-36030D02*
X71015Y-36030D01*
X70865Y-37030D02*
X71015Y-37030D01*
G54D25*
X72192Y-32822D03*
X72192Y-30066D03*
G54D12*
X64944Y-29015D03*
X65944Y-29015D03*
X66944Y-29015D03*
X67944Y-29015D03*
X69944Y-29016D03*
X68944Y-29016D03*
G54D13*
X56183Y-42714D03*
X53383Y-42714D03*
M02*
