G04 (created by PCBNEW (2013-07-07 BZR 4022)-stable) date 9/7/2556 23:50:31*
%MOIN*%
G04 Gerber Fmt 3.4, Leading zero omitted, Abs format*
%FSLAX34Y34*%
G01*
G70*
G90*
G04 APERTURE LIST*
%ADD10C,0.00590551*%
%ADD11C,0.01*%
%ADD12C,0.0075*%
%ADD13C,0.012*%
%ADD14C,0.03*%
%ADD15C,0.005*%
%ADD16C,0.0059*%
G04 APERTURE END LIST*
G54D10*
G54D11*
X69428Y-43361D02*
X69428Y-42961D01*
X69295Y-43247D01*
X69161Y-42961D01*
X69161Y-43361D01*
X68971Y-43361D02*
X68971Y-42961D01*
X68799Y-43342D02*
X68742Y-43361D01*
X68647Y-43361D01*
X68609Y-43342D01*
X68590Y-43323D01*
X68571Y-43285D01*
X68571Y-43247D01*
X68590Y-43209D01*
X68609Y-43190D01*
X68647Y-43171D01*
X68723Y-43152D01*
X68761Y-43133D01*
X68780Y-43114D01*
X68799Y-43076D01*
X68799Y-43038D01*
X68780Y-43000D01*
X68761Y-42980D01*
X68723Y-42961D01*
X68628Y-42961D01*
X68571Y-42980D01*
X68323Y-42961D02*
X68247Y-42961D01*
X68209Y-42980D01*
X68171Y-43019D01*
X68152Y-43095D01*
X68152Y-43228D01*
X68171Y-43304D01*
X68209Y-43342D01*
X68247Y-43361D01*
X68323Y-43361D01*
X68361Y-43342D01*
X68399Y-43304D01*
X68419Y-43228D01*
X68419Y-43095D01*
X68399Y-43019D01*
X68361Y-42980D01*
X68323Y-42961D01*
X67695Y-42942D02*
X68038Y-43457D01*
X67561Y-43361D02*
X67561Y-42961D01*
X67428Y-43247D01*
X67295Y-42961D01*
X67295Y-43361D01*
X66876Y-43323D02*
X66895Y-43342D01*
X66952Y-43361D01*
X66990Y-43361D01*
X67047Y-43342D01*
X67085Y-43304D01*
X67104Y-43266D01*
X67123Y-43190D01*
X67123Y-43133D01*
X67104Y-43057D01*
X67085Y-43019D01*
X67047Y-42980D01*
X66990Y-42961D01*
X66952Y-42961D01*
X66895Y-42980D01*
X66876Y-43000D01*
X66514Y-43361D02*
X66704Y-43361D01*
X66704Y-42961D01*
X66152Y-43361D02*
X66285Y-43171D01*
X66380Y-43361D02*
X66380Y-42961D01*
X66228Y-42961D01*
X66190Y-42980D01*
X66171Y-43000D01*
X66152Y-43038D01*
X66152Y-43095D01*
X66171Y-43133D01*
X66190Y-43152D01*
X66228Y-43171D01*
X66380Y-43171D01*
X69390Y-42361D02*
X69390Y-41961D01*
X69257Y-42247D01*
X69123Y-41961D01*
X69123Y-42361D01*
X68857Y-41961D02*
X68780Y-41961D01*
X68742Y-41980D01*
X68704Y-42019D01*
X68685Y-42095D01*
X68685Y-42228D01*
X68704Y-42304D01*
X68742Y-42342D01*
X68780Y-42361D01*
X68857Y-42361D01*
X68895Y-42342D01*
X68933Y-42304D01*
X68952Y-42228D01*
X68952Y-42095D01*
X68933Y-42019D01*
X68895Y-41980D01*
X68857Y-41961D01*
X68533Y-42342D02*
X68476Y-42361D01*
X68380Y-42361D01*
X68342Y-42342D01*
X68323Y-42323D01*
X68304Y-42285D01*
X68304Y-42247D01*
X68323Y-42209D01*
X68342Y-42190D01*
X68380Y-42171D01*
X68457Y-42152D01*
X68495Y-42133D01*
X68514Y-42114D01*
X68533Y-42076D01*
X68533Y-42038D01*
X68514Y-42000D01*
X68495Y-41980D01*
X68457Y-41961D01*
X68361Y-41961D01*
X68304Y-41980D01*
X68133Y-42361D02*
X68133Y-41961D01*
X67657Y-41942D02*
X67999Y-42457D01*
X67561Y-41961D02*
X67314Y-41961D01*
X67447Y-42114D01*
X67390Y-42114D01*
X67352Y-42133D01*
X67333Y-42152D01*
X67314Y-42190D01*
X67314Y-42285D01*
X67333Y-42323D01*
X67352Y-42342D01*
X67390Y-42361D01*
X67504Y-42361D01*
X67542Y-42342D01*
X67561Y-42323D01*
X67199Y-41961D02*
X67066Y-42361D01*
X66933Y-41961D01*
X66838Y-41961D02*
X66590Y-41961D01*
X66723Y-42114D01*
X66666Y-42114D01*
X66628Y-42133D01*
X66609Y-42152D01*
X66590Y-42190D01*
X66590Y-42285D01*
X66609Y-42323D01*
X66628Y-42342D01*
X66666Y-42361D01*
X66780Y-42361D01*
X66819Y-42342D01*
X66838Y-42323D01*
X69133Y-41342D02*
X69076Y-41361D01*
X68980Y-41361D01*
X68942Y-41342D01*
X68923Y-41323D01*
X68904Y-41285D01*
X68904Y-41247D01*
X68923Y-41209D01*
X68942Y-41190D01*
X68980Y-41171D01*
X69057Y-41152D01*
X69095Y-41133D01*
X69114Y-41114D01*
X69133Y-41076D01*
X69133Y-41038D01*
X69114Y-41000D01*
X69095Y-40980D01*
X69057Y-40961D01*
X68961Y-40961D01*
X68904Y-40980D01*
X68504Y-41323D02*
X68523Y-41342D01*
X68580Y-41361D01*
X68619Y-41361D01*
X68676Y-41342D01*
X68714Y-41304D01*
X68733Y-41266D01*
X68752Y-41190D01*
X68752Y-41133D01*
X68733Y-41057D01*
X68714Y-41019D01*
X68676Y-40980D01*
X68619Y-40961D01*
X68580Y-40961D01*
X68523Y-40980D01*
X68504Y-41000D01*
X68333Y-41361D02*
X68333Y-40961D01*
X68104Y-41361D02*
X68276Y-41133D01*
X68104Y-40961D02*
X68333Y-41190D01*
X67647Y-40942D02*
X67990Y-41457D01*
X67304Y-40980D02*
X67342Y-40961D01*
X67400Y-40961D01*
X67457Y-40980D01*
X67495Y-41019D01*
X67514Y-41057D01*
X67533Y-41133D01*
X67533Y-41190D01*
X67514Y-41266D01*
X67495Y-41304D01*
X67457Y-41342D01*
X67400Y-41361D01*
X67361Y-41361D01*
X67304Y-41342D01*
X67285Y-41323D01*
X67285Y-41190D01*
X67361Y-41190D01*
X67114Y-41361D02*
X67114Y-40961D01*
X66885Y-41361D01*
X66885Y-40961D01*
X66695Y-41361D02*
X66695Y-40961D01*
X66599Y-40961D01*
X66542Y-40980D01*
X66504Y-41019D01*
X66485Y-41057D01*
X66466Y-41133D01*
X66466Y-41190D01*
X66485Y-41266D01*
X66504Y-41304D01*
X66542Y-41342D01*
X66599Y-41361D01*
X66695Y-41361D01*
X68876Y-40423D02*
X68895Y-40442D01*
X68952Y-40461D01*
X68990Y-40461D01*
X69047Y-40442D01*
X69085Y-40404D01*
X69104Y-40366D01*
X69123Y-40290D01*
X69123Y-40233D01*
X69104Y-40157D01*
X69085Y-40119D01*
X69047Y-40080D01*
X68990Y-40061D01*
X68952Y-40061D01*
X68895Y-40080D01*
X68876Y-40100D01*
X68723Y-40442D02*
X68666Y-40461D01*
X68571Y-40461D01*
X68533Y-40442D01*
X68514Y-40423D01*
X68495Y-40385D01*
X68495Y-40347D01*
X68514Y-40309D01*
X68533Y-40290D01*
X68571Y-40271D01*
X68647Y-40252D01*
X68685Y-40233D01*
X68704Y-40214D01*
X68723Y-40176D01*
X68723Y-40138D01*
X68704Y-40100D01*
X68685Y-40080D01*
X68647Y-40061D01*
X68552Y-40061D01*
X68495Y-40080D01*
X68342Y-40195D02*
X68057Y-40195D01*
X68228Y-40023D02*
X68342Y-40538D01*
X68095Y-40366D02*
X68380Y-40366D01*
X68209Y-40538D02*
X68095Y-40023D01*
X67638Y-40042D02*
X67980Y-40557D01*
X67504Y-40461D02*
X67504Y-40061D01*
X67352Y-40061D01*
X67314Y-40080D01*
X67295Y-40100D01*
X67276Y-40138D01*
X67276Y-40195D01*
X67295Y-40233D01*
X67314Y-40252D01*
X67352Y-40271D01*
X67504Y-40271D01*
X66895Y-40080D02*
X66933Y-40061D01*
X66990Y-40061D01*
X67047Y-40080D01*
X67085Y-40119D01*
X67104Y-40157D01*
X67123Y-40233D01*
X67123Y-40290D01*
X67104Y-40366D01*
X67085Y-40404D01*
X67047Y-40442D01*
X66990Y-40461D01*
X66952Y-40461D01*
X66895Y-40442D01*
X66876Y-40423D01*
X66876Y-40290D01*
X66952Y-40290D01*
X66704Y-40461D02*
X66704Y-40061D01*
X66609Y-40061D01*
X66552Y-40080D01*
X66514Y-40119D01*
X66495Y-40157D01*
X66476Y-40233D01*
X66476Y-40290D01*
X66495Y-40366D01*
X66514Y-40404D01*
X66552Y-40442D01*
X66609Y-40461D01*
X66704Y-40461D01*
X69238Y-44261D02*
X69371Y-44071D01*
X69466Y-44261D02*
X69466Y-43861D01*
X69314Y-43861D01*
X69276Y-43880D01*
X69257Y-43900D01*
X69238Y-43938D01*
X69238Y-43995D01*
X69257Y-44033D01*
X69276Y-44052D01*
X69314Y-44071D01*
X69466Y-44071D01*
X68914Y-44242D02*
X68952Y-44261D01*
X69028Y-44261D01*
X69066Y-44242D01*
X69085Y-44204D01*
X69085Y-44052D01*
X69066Y-44014D01*
X69028Y-43995D01*
X68952Y-43995D01*
X68914Y-44014D01*
X68895Y-44052D01*
X68895Y-44090D01*
X69085Y-44128D01*
X68742Y-44242D02*
X68704Y-44261D01*
X68628Y-44261D01*
X68590Y-44242D01*
X68571Y-44204D01*
X68571Y-44185D01*
X68590Y-44147D01*
X68628Y-44128D01*
X68685Y-44128D01*
X68723Y-44109D01*
X68742Y-44071D01*
X68742Y-44052D01*
X68723Y-44014D01*
X68685Y-43995D01*
X68628Y-43995D01*
X68590Y-44014D01*
X68247Y-44242D02*
X68285Y-44261D01*
X68361Y-44261D01*
X68399Y-44242D01*
X68419Y-44204D01*
X68419Y-44052D01*
X68399Y-44014D01*
X68361Y-43995D01*
X68285Y-43995D01*
X68247Y-44014D01*
X68228Y-44052D01*
X68228Y-44090D01*
X68419Y-44128D01*
X68114Y-43995D02*
X67961Y-43995D01*
X68057Y-43861D02*
X68057Y-44204D01*
X68038Y-44242D01*
X67999Y-44261D01*
X67961Y-44261D01*
X67523Y-44261D02*
X67523Y-43861D01*
X67390Y-44147D01*
X67257Y-43861D01*
X67257Y-44261D01*
X66838Y-44223D02*
X66857Y-44242D01*
X66914Y-44261D01*
X66952Y-44261D01*
X67009Y-44242D01*
X67047Y-44204D01*
X67066Y-44166D01*
X67085Y-44090D01*
X67085Y-44033D01*
X67066Y-43957D01*
X67047Y-43919D01*
X67009Y-43880D01*
X66952Y-43861D01*
X66914Y-43861D01*
X66857Y-43880D01*
X66838Y-43900D01*
X66476Y-44261D02*
X66666Y-44261D01*
X66666Y-43861D01*
X66114Y-44261D02*
X66247Y-44071D01*
X66342Y-44261D02*
X66342Y-43861D01*
X66190Y-43861D01*
X66152Y-43880D01*
X66133Y-43900D01*
X66114Y-43938D01*
X66114Y-43995D01*
X66133Y-44033D01*
X66152Y-44052D01*
X66190Y-44071D01*
X66342Y-44071D01*
G54D12*
X51264Y-45107D02*
X51221Y-45121D01*
X51149Y-45121D01*
X51121Y-45107D01*
X51107Y-45092D01*
X51092Y-45064D01*
X51092Y-45035D01*
X51107Y-45007D01*
X51121Y-44992D01*
X51149Y-44978D01*
X51207Y-44964D01*
X51235Y-44950D01*
X51249Y-44935D01*
X51264Y-44907D01*
X51264Y-44878D01*
X51249Y-44850D01*
X51235Y-44835D01*
X51207Y-44821D01*
X51135Y-44821D01*
X51092Y-44835D01*
X50978Y-45107D02*
X50935Y-45121D01*
X50864Y-45121D01*
X50835Y-45107D01*
X50821Y-45092D01*
X50807Y-45064D01*
X50807Y-45035D01*
X50821Y-45007D01*
X50835Y-44992D01*
X50864Y-44978D01*
X50921Y-44964D01*
X50949Y-44950D01*
X50964Y-44935D01*
X50978Y-44907D01*
X50978Y-44878D01*
X50964Y-44850D01*
X50949Y-44835D01*
X50921Y-44821D01*
X50849Y-44821D01*
X50807Y-44835D01*
X50278Y-45092D02*
X50292Y-45107D01*
X50335Y-45121D01*
X50364Y-45121D01*
X50407Y-45107D01*
X50435Y-45078D01*
X50449Y-45050D01*
X50464Y-44992D01*
X50464Y-44950D01*
X50449Y-44892D01*
X50435Y-44864D01*
X50407Y-44835D01*
X50364Y-44821D01*
X50335Y-44821D01*
X50292Y-44835D01*
X50278Y-44850D01*
X50007Y-45121D02*
X50149Y-45121D01*
X50149Y-44821D01*
X49907Y-45121D02*
X49907Y-44821D01*
X49735Y-45121D02*
X49864Y-44950D01*
X49735Y-44821D02*
X49907Y-44992D01*
X49407Y-44821D02*
X49221Y-44821D01*
X49321Y-44935D01*
X49278Y-44935D01*
X49250Y-44950D01*
X49235Y-44964D01*
X49221Y-44992D01*
X49221Y-45064D01*
X49235Y-45092D01*
X49250Y-45107D01*
X49278Y-45121D01*
X49364Y-45121D01*
X49392Y-45107D01*
X49407Y-45092D01*
X49135Y-44821D02*
X49035Y-45121D01*
X48935Y-44821D01*
X48864Y-44821D02*
X48678Y-44821D01*
X48778Y-44935D01*
X48735Y-44935D01*
X48707Y-44950D01*
X48692Y-44964D01*
X48678Y-44992D01*
X48678Y-45064D01*
X48692Y-45092D01*
X48707Y-45107D01*
X48735Y-45121D01*
X48821Y-45121D01*
X48850Y-45107D01*
X48864Y-45092D01*
X48164Y-44835D02*
X48192Y-44821D01*
X48235Y-44821D01*
X48278Y-44835D01*
X48307Y-44864D01*
X48321Y-44892D01*
X48335Y-44950D01*
X48335Y-44992D01*
X48321Y-45050D01*
X48307Y-45078D01*
X48278Y-45107D01*
X48235Y-45121D01*
X48207Y-45121D01*
X48164Y-45107D01*
X48150Y-45092D01*
X48150Y-44992D01*
X48207Y-44992D01*
X48021Y-45121D02*
X48021Y-44821D01*
X47850Y-45121D01*
X47850Y-44821D01*
X47707Y-45121D02*
X47707Y-44821D01*
X47635Y-44821D01*
X47592Y-44835D01*
X47564Y-44864D01*
X47550Y-44892D01*
X47535Y-44950D01*
X47535Y-44992D01*
X47550Y-45050D01*
X47564Y-45078D01*
X47592Y-45107D01*
X47635Y-45121D01*
X47707Y-45121D01*
X47264Y-45107D02*
X47221Y-45121D01*
X47149Y-45121D01*
X47121Y-45107D01*
X47107Y-45092D01*
X47092Y-45064D01*
X47092Y-45035D01*
X47107Y-45007D01*
X47121Y-44992D01*
X47149Y-44978D01*
X47207Y-44964D01*
X47235Y-44950D01*
X47249Y-44935D01*
X47264Y-44907D01*
X47264Y-44878D01*
X47249Y-44850D01*
X47235Y-44835D01*
X47207Y-44821D01*
X47135Y-44821D01*
X47092Y-44835D01*
X46978Y-45107D02*
X46935Y-45121D01*
X46864Y-45121D01*
X46835Y-45107D01*
X46821Y-45092D01*
X46807Y-45064D01*
X46807Y-45035D01*
X46821Y-45007D01*
X46835Y-44992D01*
X46864Y-44978D01*
X46921Y-44964D01*
X46949Y-44950D01*
X46964Y-44935D01*
X46978Y-44907D01*
X46978Y-44878D01*
X46964Y-44850D01*
X46949Y-44835D01*
X46921Y-44821D01*
X46849Y-44821D01*
X46807Y-44835D01*
X46278Y-45092D02*
X46292Y-45107D01*
X46335Y-45121D01*
X46364Y-45121D01*
X46407Y-45107D01*
X46435Y-45078D01*
X46449Y-45050D01*
X46464Y-44992D01*
X46464Y-44950D01*
X46449Y-44892D01*
X46435Y-44864D01*
X46407Y-44835D01*
X46364Y-44821D01*
X46335Y-44821D01*
X46292Y-44835D01*
X46278Y-44850D01*
X46007Y-45121D02*
X46149Y-45121D01*
X46149Y-44821D01*
X45907Y-45121D02*
X45907Y-44821D01*
X45735Y-45121D02*
X45864Y-44950D01*
X45735Y-44821D02*
X45907Y-44992D01*
X45407Y-44821D02*
X45221Y-44821D01*
X45321Y-44935D01*
X45278Y-44935D01*
X45250Y-44950D01*
X45235Y-44964D01*
X45221Y-44992D01*
X45221Y-45064D01*
X45235Y-45092D01*
X45250Y-45107D01*
X45278Y-45121D01*
X45364Y-45121D01*
X45392Y-45107D01*
X45407Y-45092D01*
X45135Y-44821D02*
X45035Y-45121D01*
X44935Y-44821D01*
X44864Y-44821D02*
X44678Y-44821D01*
X44778Y-44935D01*
X44735Y-44935D01*
X44707Y-44950D01*
X44692Y-44964D01*
X44678Y-44992D01*
X44678Y-45064D01*
X44692Y-45092D01*
X44707Y-45107D01*
X44735Y-45121D01*
X44821Y-45121D01*
X44850Y-45107D01*
X44864Y-45092D01*
X44164Y-44835D02*
X44192Y-44821D01*
X44235Y-44821D01*
X44278Y-44835D01*
X44307Y-44864D01*
X44321Y-44892D01*
X44335Y-44950D01*
X44335Y-44992D01*
X44321Y-45050D01*
X44307Y-45078D01*
X44278Y-45107D01*
X44235Y-45121D01*
X44207Y-45121D01*
X44164Y-45107D01*
X44150Y-45092D01*
X44150Y-44992D01*
X44207Y-44992D01*
X44021Y-45121D02*
X44021Y-44821D01*
X43850Y-45121D01*
X43850Y-44821D01*
X43707Y-45121D02*
X43707Y-44821D01*
X43635Y-44821D01*
X43592Y-44835D01*
X43564Y-44864D01*
X43550Y-44892D01*
X43535Y-44950D01*
X43535Y-44992D01*
X43550Y-45050D01*
X43564Y-45078D01*
X43592Y-45107D01*
X43635Y-45121D01*
X43707Y-45121D01*
X66725Y-31261D02*
X66825Y-31118D01*
X66897Y-31261D02*
X66897Y-30961D01*
X66782Y-30961D01*
X66754Y-30975D01*
X66740Y-30990D01*
X66725Y-31018D01*
X66725Y-31061D01*
X66740Y-31090D01*
X66754Y-31104D01*
X66782Y-31118D01*
X66897Y-31118D01*
X66625Y-31261D02*
X66468Y-31061D01*
X66625Y-31061D02*
X66468Y-31261D01*
X66140Y-30947D02*
X66397Y-31332D01*
X66082Y-30961D02*
X65911Y-30961D01*
X65997Y-31261D02*
X65997Y-30961D01*
X65840Y-31261D02*
X65682Y-31061D01*
X65840Y-31061D02*
X65682Y-31261D01*
X65354Y-30947D02*
X65611Y-31332D01*
X65097Y-30975D02*
X65125Y-30961D01*
X65168Y-30961D01*
X65211Y-30975D01*
X65240Y-31004D01*
X65254Y-31032D01*
X65268Y-31090D01*
X65268Y-31132D01*
X65254Y-31190D01*
X65240Y-31218D01*
X65211Y-31247D01*
X65168Y-31261D01*
X65140Y-31261D01*
X65097Y-31247D01*
X65082Y-31232D01*
X65082Y-31132D01*
X65140Y-31132D01*
X64954Y-31261D02*
X64954Y-30961D01*
X64782Y-31261D01*
X64782Y-30961D01*
X64639Y-31261D02*
X64639Y-30961D01*
X64568Y-30961D01*
X64525Y-30975D01*
X64497Y-31004D01*
X64482Y-31032D01*
X64468Y-31090D01*
X64468Y-31132D01*
X64482Y-31190D01*
X64497Y-31218D01*
X64525Y-31247D01*
X64568Y-31261D01*
X64639Y-31261D01*
G54D13*
X53702Y-38588D02*
X53759Y-38550D01*
X53788Y-38474D01*
X53788Y-37788D01*
X53245Y-38550D02*
X53302Y-38588D01*
X53417Y-38588D01*
X53474Y-38550D01*
X53502Y-38474D01*
X53502Y-38169D01*
X53474Y-38093D01*
X53417Y-38055D01*
X53302Y-38055D01*
X53245Y-38093D01*
X53217Y-38169D01*
X53217Y-38245D01*
X53502Y-38322D01*
X52702Y-38588D02*
X52702Y-38169D01*
X52731Y-38093D01*
X52788Y-38055D01*
X52902Y-38055D01*
X52959Y-38093D01*
X52702Y-38550D02*
X52759Y-38588D01*
X52902Y-38588D01*
X52959Y-38550D01*
X52988Y-38474D01*
X52988Y-38398D01*
X52959Y-38322D01*
X52902Y-38284D01*
X52759Y-38284D01*
X52702Y-38245D01*
X52417Y-38588D02*
X52417Y-38055D01*
X52417Y-38207D02*
X52388Y-38131D01*
X52359Y-38093D01*
X52302Y-38055D01*
X52245Y-38055D01*
X52045Y-38055D02*
X52045Y-38588D01*
X52045Y-38131D02*
X52017Y-38093D01*
X51959Y-38055D01*
X51874Y-38055D01*
X51817Y-38093D01*
X51788Y-38169D01*
X51788Y-38588D01*
X51502Y-38588D02*
X51502Y-38055D01*
X51502Y-37788D02*
X51531Y-37826D01*
X51502Y-37865D01*
X51474Y-37826D01*
X51502Y-37788D01*
X51502Y-37865D01*
X51217Y-38055D02*
X51217Y-38588D01*
X51217Y-38131D02*
X51188Y-38093D01*
X51131Y-38055D01*
X51045Y-38055D01*
X50988Y-38093D01*
X50959Y-38169D01*
X50959Y-38588D01*
X50417Y-38055D02*
X50417Y-38703D01*
X50445Y-38779D01*
X50474Y-38817D01*
X50531Y-38855D01*
X50617Y-38855D01*
X50674Y-38817D01*
X50417Y-38550D02*
X50474Y-38588D01*
X50588Y-38588D01*
X50645Y-38550D01*
X50674Y-38512D01*
X50702Y-38436D01*
X50702Y-38207D01*
X50674Y-38131D01*
X50645Y-38093D01*
X50588Y-38055D01*
X50474Y-38055D01*
X50417Y-38093D01*
X50131Y-38588D02*
X50131Y-38055D01*
X50131Y-37788D02*
X50159Y-37826D01*
X50131Y-37865D01*
X50102Y-37826D01*
X50131Y-37788D01*
X50131Y-37865D01*
X49845Y-38055D02*
X49845Y-38588D01*
X49845Y-38131D02*
X49817Y-38093D01*
X49760Y-38055D01*
X49674Y-38055D01*
X49617Y-38093D01*
X49588Y-38169D01*
X49588Y-38588D01*
X49360Y-38055D02*
X49217Y-38588D01*
X49074Y-38055D01*
X48617Y-38550D02*
X48674Y-38588D01*
X48788Y-38588D01*
X48845Y-38550D01*
X48874Y-38474D01*
X48874Y-38169D01*
X48845Y-38093D01*
X48788Y-38055D01*
X48674Y-38055D01*
X48617Y-38093D01*
X48588Y-38169D01*
X48588Y-38245D01*
X48874Y-38322D01*
X48331Y-38055D02*
X48331Y-38588D01*
X48331Y-38131D02*
X48302Y-38093D01*
X48245Y-38055D01*
X48159Y-38055D01*
X48102Y-38093D01*
X48074Y-38169D01*
X48074Y-38588D01*
X47874Y-38055D02*
X47645Y-38055D01*
X47788Y-37788D02*
X47788Y-38474D01*
X47759Y-38550D01*
X47702Y-38588D01*
X47645Y-38588D01*
X47445Y-38588D02*
X47445Y-38055D01*
X47445Y-37788D02*
X47474Y-37826D01*
X47445Y-37865D01*
X47417Y-37826D01*
X47445Y-37788D01*
X47445Y-37865D01*
X47074Y-38588D02*
X47131Y-38550D01*
X47160Y-38512D01*
X47188Y-38436D01*
X47188Y-38207D01*
X47160Y-38131D01*
X47131Y-38093D01*
X47074Y-38055D01*
X46988Y-38055D01*
X46931Y-38093D01*
X46902Y-38131D01*
X46874Y-38207D01*
X46874Y-38436D01*
X46902Y-38512D01*
X46931Y-38550D01*
X46988Y-38588D01*
X47074Y-38588D01*
X46617Y-38055D02*
X46617Y-38588D01*
X46617Y-38131D02*
X46588Y-38093D01*
X46531Y-38055D01*
X46445Y-38055D01*
X46388Y-38093D01*
X46360Y-38169D01*
X46360Y-38588D01*
X46102Y-38550D02*
X46045Y-38588D01*
X45931Y-38588D01*
X45874Y-38550D01*
X45845Y-38474D01*
X45845Y-38436D01*
X45874Y-38360D01*
X45931Y-38322D01*
X46017Y-38322D01*
X46074Y-38284D01*
X46102Y-38207D01*
X46102Y-38169D01*
X46074Y-38093D01*
X46017Y-38055D01*
X45931Y-38055D01*
X45874Y-38093D01*
X45588Y-38512D02*
X45560Y-38550D01*
X45588Y-38588D01*
X45617Y-38550D01*
X45588Y-38512D01*
X45588Y-38588D01*
X45217Y-38588D02*
X45274Y-38550D01*
X45302Y-38512D01*
X45331Y-38436D01*
X45331Y-38207D01*
X45302Y-38131D01*
X45274Y-38093D01*
X45217Y-38055D01*
X45131Y-38055D01*
X45074Y-38093D01*
X45045Y-38131D01*
X45017Y-38207D01*
X45017Y-38436D01*
X45045Y-38512D01*
X45074Y-38550D01*
X45131Y-38588D01*
X45217Y-38588D01*
X44760Y-38588D02*
X44760Y-38055D01*
X44760Y-38207D02*
X44731Y-38131D01*
X44702Y-38093D01*
X44645Y-38055D01*
X44588Y-38055D01*
X44131Y-38055D02*
X44131Y-38703D01*
X44160Y-38779D01*
X44188Y-38817D01*
X44245Y-38855D01*
X44331Y-38855D01*
X44388Y-38817D01*
X44131Y-38550D02*
X44188Y-38588D01*
X44302Y-38588D01*
X44360Y-38550D01*
X44388Y-38512D01*
X44417Y-38436D01*
X44417Y-38207D01*
X44388Y-38131D01*
X44360Y-38093D01*
X44302Y-38055D01*
X44188Y-38055D01*
X44131Y-38093D01*
G54D11*
X69304Y-37861D02*
X69304Y-38147D01*
X69323Y-38204D01*
X69361Y-38242D01*
X69419Y-38261D01*
X69457Y-38261D01*
X68942Y-37995D02*
X68942Y-38261D01*
X69114Y-37995D02*
X69114Y-38204D01*
X69095Y-38242D01*
X69057Y-38261D01*
X69000Y-38261D01*
X68961Y-38242D01*
X68942Y-38223D01*
X68752Y-38261D02*
X68752Y-37995D01*
X68752Y-38033D02*
X68733Y-38014D01*
X68695Y-37995D01*
X68638Y-37995D01*
X68600Y-38014D01*
X68580Y-38052D01*
X68580Y-38261D01*
X68580Y-38052D02*
X68561Y-38014D01*
X68523Y-37995D01*
X68466Y-37995D01*
X68428Y-38014D01*
X68409Y-38052D01*
X68409Y-38261D01*
X68219Y-37995D02*
X68219Y-38395D01*
X68219Y-38014D02*
X68180Y-37995D01*
X68104Y-37995D01*
X68066Y-38014D01*
X68047Y-38033D01*
X68028Y-38071D01*
X68028Y-38185D01*
X68047Y-38223D01*
X68066Y-38242D01*
X68104Y-38261D01*
X68180Y-38261D01*
X68219Y-38242D01*
X67704Y-38242D02*
X67742Y-38261D01*
X67819Y-38261D01*
X67857Y-38242D01*
X67876Y-38204D01*
X67876Y-38052D01*
X67857Y-38014D01*
X67819Y-37995D01*
X67742Y-37995D01*
X67704Y-38014D01*
X67685Y-38052D01*
X67685Y-38090D01*
X67876Y-38128D01*
X67514Y-38261D02*
X67514Y-37995D01*
X67514Y-38071D02*
X67495Y-38033D01*
X67476Y-38014D01*
X67438Y-37995D01*
X67400Y-37995D01*
X66961Y-38261D02*
X66961Y-37861D01*
X66790Y-37900D02*
X66771Y-37880D01*
X66733Y-37861D01*
X66638Y-37861D01*
X66600Y-37880D01*
X66580Y-37900D01*
X66561Y-37938D01*
X66561Y-37976D01*
X66580Y-38033D01*
X66809Y-38261D01*
X66561Y-38261D01*
X66161Y-38223D02*
X66180Y-38242D01*
X66238Y-38261D01*
X66276Y-38261D01*
X66333Y-38242D01*
X66371Y-38204D01*
X66390Y-38166D01*
X66409Y-38090D01*
X66409Y-38033D01*
X66390Y-37957D01*
X66371Y-37919D01*
X66333Y-37880D01*
X66276Y-37861D01*
X66238Y-37861D01*
X66180Y-37880D01*
X66161Y-37900D01*
X69014Y-38980D02*
X69052Y-38961D01*
X69109Y-38961D01*
X69166Y-38980D01*
X69204Y-39019D01*
X69223Y-39057D01*
X69242Y-39133D01*
X69242Y-39190D01*
X69223Y-39266D01*
X69204Y-39304D01*
X69166Y-39342D01*
X69109Y-39361D01*
X69071Y-39361D01*
X69014Y-39342D01*
X68995Y-39323D01*
X68995Y-39190D01*
X69071Y-39190D01*
X68823Y-39361D02*
X68823Y-38961D01*
X68595Y-39361D01*
X68595Y-38961D01*
X68404Y-39361D02*
X68404Y-38961D01*
X68309Y-38961D01*
X68252Y-38980D01*
X68214Y-39019D01*
X68195Y-39057D01*
X68176Y-39133D01*
X68176Y-39190D01*
X68195Y-39266D01*
X68214Y-39304D01*
X68252Y-39342D01*
X68309Y-39361D01*
X68404Y-39361D01*
X67719Y-38942D02*
X68061Y-39457D01*
X67585Y-39361D02*
X67585Y-38961D01*
X67433Y-38961D01*
X67395Y-38980D01*
X67376Y-39000D01*
X67357Y-39038D01*
X67357Y-39095D01*
X67376Y-39133D01*
X67395Y-39152D01*
X67433Y-39171D01*
X67585Y-39171D01*
X66976Y-38980D02*
X67014Y-38961D01*
X67071Y-38961D01*
X67128Y-38980D01*
X67166Y-39019D01*
X67185Y-39057D01*
X67204Y-39133D01*
X67204Y-39190D01*
X67185Y-39266D01*
X67166Y-39304D01*
X67128Y-39342D01*
X67071Y-39361D01*
X67033Y-39361D01*
X66976Y-39342D01*
X66957Y-39323D01*
X66957Y-39190D01*
X67033Y-39190D01*
X66557Y-39323D02*
X66576Y-39342D01*
X66633Y-39361D01*
X66671Y-39361D01*
X66728Y-39342D01*
X66766Y-39304D01*
X66785Y-39266D01*
X66804Y-39190D01*
X66804Y-39133D01*
X66785Y-39057D01*
X66766Y-39019D01*
X66728Y-38980D01*
X66671Y-38961D01*
X66633Y-38961D01*
X66576Y-38980D01*
X66557Y-39000D01*
G54D12*
X70085Y-36821D02*
X70228Y-36821D01*
X70242Y-36964D01*
X70228Y-36950D01*
X70200Y-36935D01*
X70128Y-36935D01*
X70100Y-36950D01*
X70085Y-36964D01*
X70071Y-36992D01*
X70071Y-37064D01*
X70085Y-37092D01*
X70100Y-37107D01*
X70128Y-37121D01*
X70200Y-37121D01*
X70228Y-37107D01*
X70242Y-37092D01*
X69985Y-36821D02*
X69885Y-37121D01*
X69785Y-36821D01*
X69471Y-36807D02*
X69728Y-37192D01*
X69228Y-36821D02*
X69371Y-36821D01*
X69385Y-36964D01*
X69371Y-36950D01*
X69342Y-36935D01*
X69271Y-36935D01*
X69242Y-36950D01*
X69228Y-36964D01*
X69214Y-36992D01*
X69214Y-37064D01*
X69228Y-37092D01*
X69242Y-37107D01*
X69271Y-37121D01*
X69342Y-37121D01*
X69371Y-37107D01*
X69385Y-37092D01*
X69128Y-36821D02*
X69028Y-37121D01*
X68928Y-36821D01*
X70307Y-36107D02*
X70264Y-36121D01*
X70192Y-36121D01*
X70164Y-36107D01*
X70149Y-36092D01*
X70135Y-36064D01*
X70135Y-36035D01*
X70149Y-36007D01*
X70164Y-35992D01*
X70192Y-35978D01*
X70249Y-35964D01*
X70278Y-35950D01*
X70292Y-35935D01*
X70307Y-35907D01*
X70307Y-35878D01*
X70292Y-35850D01*
X70278Y-35835D01*
X70249Y-35821D01*
X70178Y-35821D01*
X70135Y-35835D01*
X70007Y-36121D02*
X70007Y-35821D01*
X69935Y-35821D01*
X69892Y-35835D01*
X69864Y-35864D01*
X69850Y-35892D01*
X69835Y-35950D01*
X69835Y-35992D01*
X69850Y-36050D01*
X69864Y-36078D01*
X69892Y-36107D01*
X69935Y-36121D01*
X70007Y-36121D01*
X69721Y-36035D02*
X69578Y-36035D01*
X69750Y-36121D02*
X69650Y-35821D01*
X69550Y-36121D01*
X69292Y-36121D02*
X69464Y-36121D01*
X69378Y-36121D02*
X69378Y-35821D01*
X69407Y-35864D01*
X69435Y-35892D01*
X69464Y-35907D01*
X68950Y-35807D02*
X69207Y-36192D01*
X68864Y-35850D02*
X68849Y-35835D01*
X68821Y-35821D01*
X68749Y-35821D01*
X68721Y-35835D01*
X68707Y-35850D01*
X68692Y-35878D01*
X68692Y-35907D01*
X68707Y-35950D01*
X68878Y-36121D01*
X68692Y-36121D01*
X70299Y-35007D02*
X70257Y-35021D01*
X70185Y-35021D01*
X70157Y-35007D01*
X70142Y-34992D01*
X70128Y-34964D01*
X70128Y-34935D01*
X70142Y-34907D01*
X70157Y-34892D01*
X70185Y-34878D01*
X70242Y-34864D01*
X70271Y-34850D01*
X70285Y-34835D01*
X70299Y-34807D01*
X70299Y-34778D01*
X70285Y-34750D01*
X70271Y-34735D01*
X70242Y-34721D01*
X70171Y-34721D01*
X70128Y-34735D01*
X69828Y-34992D02*
X69842Y-35007D01*
X69885Y-35021D01*
X69914Y-35021D01*
X69957Y-35007D01*
X69985Y-34978D01*
X69999Y-34950D01*
X70014Y-34892D01*
X70014Y-34850D01*
X69999Y-34792D01*
X69985Y-34764D01*
X69957Y-34735D01*
X69914Y-34721D01*
X69885Y-34721D01*
X69842Y-34735D01*
X69828Y-34750D01*
X69557Y-35021D02*
X69699Y-35021D01*
X69699Y-34721D01*
X69300Y-35021D02*
X69471Y-35021D01*
X69385Y-35021D02*
X69385Y-34721D01*
X69414Y-34764D01*
X69442Y-34792D01*
X69471Y-34807D01*
X68957Y-34707D02*
X69214Y-35092D01*
X68871Y-34750D02*
X68857Y-34735D01*
X68828Y-34721D01*
X68757Y-34721D01*
X68728Y-34735D01*
X68714Y-34750D01*
X68700Y-34778D01*
X68700Y-34807D01*
X68714Y-34850D01*
X68885Y-35021D01*
X68700Y-35021D01*
X70142Y-33735D02*
X70171Y-33721D01*
X70214Y-33721D01*
X70257Y-33735D01*
X70285Y-33764D01*
X70300Y-33792D01*
X70314Y-33850D01*
X70314Y-33892D01*
X70300Y-33950D01*
X70285Y-33978D01*
X70257Y-34007D01*
X70214Y-34021D01*
X70185Y-34021D01*
X70142Y-34007D01*
X70128Y-33992D01*
X70128Y-33892D01*
X70185Y-33892D01*
X70000Y-34021D02*
X70000Y-33721D01*
X69828Y-34021D01*
X69828Y-33721D01*
X69685Y-34021D02*
X69685Y-33721D01*
X69614Y-33721D01*
X69571Y-33735D01*
X69542Y-33764D01*
X69528Y-33792D01*
X69514Y-33850D01*
X69514Y-33892D01*
X69528Y-33950D01*
X69542Y-33978D01*
X69571Y-34007D01*
X69614Y-34021D01*
X69685Y-34021D01*
X69171Y-33707D02*
X69428Y-34092D01*
X68914Y-33735D02*
X68942Y-33721D01*
X68985Y-33721D01*
X69028Y-33735D01*
X69057Y-33764D01*
X69071Y-33792D01*
X69085Y-33850D01*
X69085Y-33892D01*
X69071Y-33950D01*
X69057Y-33978D01*
X69028Y-34007D01*
X68985Y-34021D01*
X68957Y-34021D01*
X68914Y-34007D01*
X68900Y-33992D01*
X68900Y-33892D01*
X68957Y-33892D01*
X68771Y-34021D02*
X68771Y-33721D01*
X68600Y-34021D01*
X68600Y-33721D01*
X68457Y-34021D02*
X68457Y-33721D01*
X68385Y-33721D01*
X68342Y-33735D01*
X68314Y-33764D01*
X68300Y-33792D01*
X68285Y-33850D01*
X68285Y-33892D01*
X68300Y-33950D01*
X68314Y-33978D01*
X68342Y-34007D01*
X68385Y-34021D01*
X68457Y-34021D01*
X61115Y-35554D02*
X60875Y-35554D01*
X60995Y-36104D02*
X60995Y-35554D01*
X60575Y-36078D02*
X60615Y-36104D01*
X60695Y-36104D01*
X60735Y-36078D01*
X60755Y-36026D01*
X60755Y-35816D01*
X60735Y-35764D01*
X60695Y-35737D01*
X60615Y-35737D01*
X60575Y-35764D01*
X60555Y-35816D01*
X60555Y-35868D01*
X60755Y-35921D01*
X60195Y-36078D02*
X60235Y-36104D01*
X60315Y-36104D01*
X60355Y-36078D01*
X60375Y-36052D01*
X60395Y-35999D01*
X60395Y-35842D01*
X60375Y-35790D01*
X60355Y-35764D01*
X60315Y-35737D01*
X60235Y-35737D01*
X60195Y-35764D01*
X60015Y-36104D02*
X60015Y-35554D01*
X59835Y-36104D02*
X59835Y-35816D01*
X59855Y-35764D01*
X59895Y-35737D01*
X59955Y-35737D01*
X59995Y-35764D01*
X60015Y-35790D01*
X59635Y-35737D02*
X59635Y-36104D01*
X59635Y-35790D02*
X59615Y-35764D01*
X59575Y-35737D01*
X59515Y-35737D01*
X59475Y-35764D01*
X59455Y-35816D01*
X59455Y-36104D01*
X59195Y-36104D02*
X59235Y-36078D01*
X59255Y-36052D01*
X59275Y-35999D01*
X59275Y-35842D01*
X59255Y-35790D01*
X59235Y-35764D01*
X59195Y-35737D01*
X59135Y-35737D01*
X59095Y-35764D01*
X59075Y-35790D01*
X59055Y-35842D01*
X59055Y-35999D01*
X59075Y-36052D01*
X59095Y-36078D01*
X59135Y-36104D01*
X59195Y-36104D01*
X58815Y-36104D02*
X58855Y-36078D01*
X58875Y-36026D01*
X58875Y-35554D01*
X58595Y-36104D02*
X58635Y-36078D01*
X58655Y-36052D01*
X58675Y-35999D01*
X58675Y-35842D01*
X58655Y-35790D01*
X58635Y-35764D01*
X58595Y-35737D01*
X58535Y-35737D01*
X58495Y-35764D01*
X58475Y-35790D01*
X58455Y-35842D01*
X58455Y-35999D01*
X58475Y-36052D01*
X58495Y-36078D01*
X58535Y-36104D01*
X58595Y-36104D01*
X58095Y-35737D02*
X58095Y-36183D01*
X58115Y-36235D01*
X58135Y-36261D01*
X58175Y-36287D01*
X58235Y-36287D01*
X58275Y-36261D01*
X58095Y-36078D02*
X58135Y-36104D01*
X58215Y-36104D01*
X58255Y-36078D01*
X58275Y-36052D01*
X58295Y-35999D01*
X58295Y-35842D01*
X58275Y-35790D01*
X58255Y-35764D01*
X58215Y-35737D01*
X58135Y-35737D01*
X58095Y-35764D01*
X57895Y-36104D02*
X57895Y-35737D01*
X57895Y-35554D02*
X57915Y-35580D01*
X57895Y-35607D01*
X57875Y-35580D01*
X57895Y-35554D01*
X57895Y-35607D01*
X57535Y-36078D02*
X57575Y-36104D01*
X57655Y-36104D01*
X57695Y-36078D01*
X57715Y-36026D01*
X57715Y-35816D01*
X57695Y-35764D01*
X57655Y-35737D01*
X57575Y-35737D01*
X57535Y-35764D01*
X57515Y-35816D01*
X57515Y-35868D01*
X57715Y-35921D01*
X57355Y-36078D02*
X57315Y-36104D01*
X57235Y-36104D01*
X57195Y-36078D01*
X57175Y-36026D01*
X57175Y-35999D01*
X57195Y-35947D01*
X57235Y-35921D01*
X57295Y-35921D01*
X57335Y-35895D01*
X57355Y-35842D01*
X57355Y-35816D01*
X57335Y-35764D01*
X57295Y-35737D01*
X57235Y-35737D01*
X57195Y-35764D01*
X56475Y-36104D02*
X56675Y-36104D01*
X56675Y-35554D01*
X56155Y-36104D02*
X56155Y-35816D01*
X56175Y-35764D01*
X56215Y-35737D01*
X56295Y-35737D01*
X56335Y-35764D01*
X56155Y-36078D02*
X56195Y-36104D01*
X56295Y-36104D01*
X56335Y-36078D01*
X56355Y-36026D01*
X56355Y-35973D01*
X56335Y-35921D01*
X56295Y-35895D01*
X56195Y-35895D01*
X56155Y-35868D01*
X55955Y-36104D02*
X55955Y-35554D01*
X55955Y-35764D02*
X55915Y-35737D01*
X55835Y-35737D01*
X55795Y-35764D01*
X55775Y-35790D01*
X55755Y-35842D01*
X55755Y-35999D01*
X55775Y-36052D01*
X55795Y-36078D01*
X55835Y-36104D01*
X55915Y-36104D01*
X55955Y-36078D01*
X61132Y-34966D02*
X60961Y-34966D01*
X61047Y-35266D02*
X61047Y-34966D01*
X60861Y-35266D02*
X60861Y-35066D01*
X60861Y-35123D02*
X60847Y-35095D01*
X60832Y-35080D01*
X60804Y-35066D01*
X60775Y-35066D01*
X60547Y-35266D02*
X60547Y-35109D01*
X60561Y-35080D01*
X60590Y-35066D01*
X60647Y-35066D01*
X60675Y-35080D01*
X60547Y-35252D02*
X60575Y-35266D01*
X60647Y-35266D01*
X60675Y-35252D01*
X60690Y-35223D01*
X60690Y-35195D01*
X60675Y-35166D01*
X60647Y-35152D01*
X60575Y-35152D01*
X60547Y-35137D01*
X60404Y-35066D02*
X60404Y-35266D01*
X60404Y-35095D02*
X60390Y-35080D01*
X60361Y-35066D01*
X60318Y-35066D01*
X60290Y-35080D01*
X60275Y-35109D01*
X60275Y-35266D01*
X60147Y-35252D02*
X60118Y-35266D01*
X60061Y-35266D01*
X60032Y-35252D01*
X60018Y-35223D01*
X60018Y-35209D01*
X60032Y-35180D01*
X60061Y-35166D01*
X60104Y-35166D01*
X60132Y-35152D01*
X60147Y-35123D01*
X60147Y-35109D01*
X60132Y-35080D01*
X60104Y-35066D01*
X60061Y-35066D01*
X60032Y-35080D01*
X59932Y-35066D02*
X59818Y-35066D01*
X59890Y-35266D02*
X59890Y-35009D01*
X59875Y-34980D01*
X59847Y-34966D01*
X59818Y-34966D01*
X59675Y-35266D02*
X59704Y-35252D01*
X59718Y-35237D01*
X59732Y-35209D01*
X59732Y-35123D01*
X59718Y-35095D01*
X59704Y-35080D01*
X59675Y-35066D01*
X59632Y-35066D01*
X59604Y-35080D01*
X59590Y-35095D01*
X59575Y-35123D01*
X59575Y-35209D01*
X59590Y-35237D01*
X59604Y-35252D01*
X59632Y-35266D01*
X59675Y-35266D01*
X59447Y-35266D02*
X59447Y-35066D01*
X59447Y-35123D02*
X59432Y-35095D01*
X59418Y-35080D01*
X59390Y-35066D01*
X59361Y-35066D01*
X59261Y-35266D02*
X59261Y-35066D01*
X59261Y-35095D02*
X59247Y-35080D01*
X59218Y-35066D01*
X59175Y-35066D01*
X59147Y-35080D01*
X59132Y-35109D01*
X59132Y-35266D01*
X59132Y-35109D02*
X59118Y-35080D01*
X59090Y-35066D01*
X59047Y-35066D01*
X59018Y-35080D01*
X59004Y-35109D01*
X59004Y-35266D01*
X58732Y-35266D02*
X58732Y-35109D01*
X58747Y-35080D01*
X58775Y-35066D01*
X58832Y-35066D01*
X58861Y-35080D01*
X58732Y-35252D02*
X58761Y-35266D01*
X58832Y-35266D01*
X58861Y-35252D01*
X58875Y-35223D01*
X58875Y-35195D01*
X58861Y-35166D01*
X58832Y-35152D01*
X58761Y-35152D01*
X58732Y-35137D01*
X58632Y-35066D02*
X58518Y-35066D01*
X58589Y-34966D02*
X58589Y-35223D01*
X58575Y-35252D01*
X58547Y-35266D01*
X58518Y-35266D01*
X58418Y-35266D02*
X58418Y-35066D01*
X58418Y-34966D02*
X58432Y-34980D01*
X58418Y-34995D01*
X58404Y-34980D01*
X58418Y-34966D01*
X58418Y-34995D01*
X58304Y-35066D02*
X58232Y-35266D01*
X58161Y-35066D01*
X57932Y-35252D02*
X57961Y-35266D01*
X58018Y-35266D01*
X58047Y-35252D01*
X58061Y-35223D01*
X58061Y-35109D01*
X58047Y-35080D01*
X58018Y-35066D01*
X57961Y-35066D01*
X57932Y-35080D01*
X57918Y-35109D01*
X57918Y-35137D01*
X58061Y-35166D01*
X57418Y-35266D02*
X57561Y-35266D01*
X57561Y-34966D01*
X57204Y-35252D02*
X57232Y-35266D01*
X57290Y-35266D01*
X57318Y-35252D01*
X57332Y-35223D01*
X57332Y-35109D01*
X57318Y-35080D01*
X57290Y-35066D01*
X57232Y-35066D01*
X57204Y-35080D01*
X57190Y-35109D01*
X57190Y-35137D01*
X57332Y-35166D01*
X56932Y-35266D02*
X56932Y-35109D01*
X56947Y-35080D01*
X56975Y-35066D01*
X57032Y-35066D01*
X57061Y-35080D01*
X56932Y-35252D02*
X56961Y-35266D01*
X57032Y-35266D01*
X57061Y-35252D01*
X57075Y-35223D01*
X57075Y-35195D01*
X57061Y-35166D01*
X57032Y-35152D01*
X56961Y-35152D01*
X56932Y-35137D01*
X56789Y-35266D02*
X56789Y-35066D01*
X56789Y-35123D02*
X56775Y-35095D01*
X56761Y-35080D01*
X56732Y-35066D01*
X56704Y-35066D01*
X56604Y-35066D02*
X56604Y-35266D01*
X56604Y-35095D02*
X56590Y-35080D01*
X56561Y-35066D01*
X56518Y-35066D01*
X56490Y-35080D01*
X56475Y-35109D01*
X56475Y-35266D01*
X56332Y-35266D02*
X56332Y-35066D01*
X56332Y-34966D02*
X56347Y-34980D01*
X56332Y-34995D01*
X56318Y-34980D01*
X56332Y-34966D01*
X56332Y-34995D01*
X56189Y-35066D02*
X56189Y-35266D01*
X56189Y-35095D02*
X56175Y-35080D01*
X56147Y-35066D01*
X56104Y-35066D01*
X56075Y-35080D01*
X56061Y-35109D01*
X56061Y-35266D01*
X55789Y-35066D02*
X55789Y-35309D01*
X55804Y-35337D01*
X55818Y-35352D01*
X55847Y-35366D01*
X55889Y-35366D01*
X55918Y-35352D01*
X55789Y-35252D02*
X55818Y-35266D01*
X55875Y-35266D01*
X55904Y-35252D01*
X55918Y-35237D01*
X55932Y-35209D01*
X55932Y-35123D01*
X55918Y-35095D01*
X55904Y-35080D01*
X55875Y-35066D01*
X55818Y-35066D01*
X55789Y-35080D01*
G54D14*
X61167Y-32659D02*
X60138Y-32659D01*
X60652Y-34659D02*
X60652Y-32659D01*
X58681Y-34659D02*
X59538Y-34659D01*
X59538Y-32659D01*
X58338Y-32659D02*
X57310Y-32659D01*
X57824Y-34659D02*
X57824Y-32659D01*
X55852Y-34659D02*
X56710Y-34659D01*
X56710Y-32659D01*
G54D15*
X57158Y-43458D02*
X57158Y-42558D01*
X57158Y-42558D02*
X57808Y-42558D01*
X58508Y-43458D02*
X59158Y-43458D01*
X59158Y-43458D02*
X59158Y-42558D01*
X59158Y-42558D02*
X58508Y-42558D01*
X57808Y-43458D02*
X57158Y-43458D01*
X56816Y-41229D02*
X56816Y-40329D01*
X56816Y-40329D02*
X57466Y-40329D01*
X58166Y-41229D02*
X58816Y-41229D01*
X58816Y-41229D02*
X58816Y-40329D01*
X58816Y-40329D02*
X58166Y-40329D01*
X57466Y-41229D02*
X56816Y-41229D01*
X63333Y-38933D02*
X64233Y-38933D01*
X64233Y-38933D02*
X64233Y-39583D01*
X63333Y-40283D02*
X63333Y-40933D01*
X63333Y-40933D02*
X64233Y-40933D01*
X64233Y-40933D02*
X64233Y-40283D01*
X63333Y-39583D02*
X63333Y-38933D01*
X69660Y-44360D02*
G75*
G03X69660Y-44360I-50J0D01*
G74*
G01*
X69610Y-43910D02*
X69610Y-44310D01*
X69610Y-44310D02*
X70210Y-44310D01*
X70210Y-44310D02*
X70210Y-43910D01*
X70210Y-43510D02*
X70210Y-43110D01*
X70210Y-43110D02*
X69610Y-43110D01*
X69610Y-43110D02*
X69610Y-43510D01*
X50070Y-31370D02*
G75*
G03X50070Y-31370I-50J0D01*
G74*
G01*
X50020Y-31820D02*
X50020Y-31420D01*
X50020Y-31420D02*
X49420Y-31420D01*
X49420Y-31420D02*
X49420Y-31820D01*
X49420Y-32220D02*
X49420Y-32620D01*
X49420Y-32620D02*
X50020Y-32620D01*
X50020Y-32620D02*
X50020Y-32220D01*
X54570Y-31370D02*
G75*
G03X54570Y-31370I-50J0D01*
G74*
G01*
X54520Y-31820D02*
X54520Y-31420D01*
X54520Y-31420D02*
X53920Y-31420D01*
X53920Y-31420D02*
X53920Y-31820D01*
X53920Y-32220D02*
X53920Y-32620D01*
X53920Y-32620D02*
X54520Y-32620D01*
X54520Y-32620D02*
X54520Y-32220D01*
X58570Y-31370D02*
G75*
G03X58570Y-31370I-50J0D01*
G74*
G01*
X58520Y-31820D02*
X58520Y-31420D01*
X58520Y-31420D02*
X57920Y-31420D01*
X57920Y-31420D02*
X57920Y-31820D01*
X57920Y-32220D02*
X57920Y-32620D01*
X57920Y-32620D02*
X58520Y-32620D01*
X58520Y-32620D02*
X58520Y-32220D01*
X63070Y-31370D02*
G75*
G03X63070Y-31370I-50J0D01*
G74*
G01*
X63020Y-31820D02*
X63020Y-31420D01*
X63020Y-31420D02*
X62420Y-31420D01*
X62420Y-31420D02*
X62420Y-31820D01*
X62420Y-32220D02*
X62420Y-32620D01*
X62420Y-32620D02*
X63020Y-32620D01*
X63020Y-32620D02*
X63020Y-32220D01*
G54D16*
X50800Y-34400D02*
X50800Y-33100D01*
X51950Y-34400D02*
X50800Y-34400D01*
X50600Y-34800D02*
X51950Y-34800D01*
X50400Y-33100D02*
X50400Y-34600D01*
X52150Y-34600D02*
G75*
G02X51950Y-34800I-200J0D01*
G74*
G01*
X51950Y-34400D02*
G75*
G02X52150Y-34600I0J-200D01*
G74*
G01*
X50600Y-34800D02*
G75*
G02X50400Y-34600I0J200D01*
G74*
G01*
X50400Y-33100D02*
G75*
G02X50600Y-32900I200J0D01*
G74*
G01*
X50600Y-32900D02*
G75*
G02X50800Y-33100I0J-200D01*
G74*
G01*
X49900Y-33100D02*
X49900Y-34600D01*
X50300Y-34600D02*
X50300Y-33100D01*
X50100Y-34800D02*
G75*
G02X49900Y-34600I0J200D01*
G74*
G01*
X50300Y-34600D02*
G75*
G02X50100Y-34800I-200J0D01*
G74*
G01*
X49900Y-33100D02*
G75*
G02X50100Y-32900I200J0D01*
G74*
G01*
X50100Y-32900D02*
G75*
G02X50300Y-33100I0J-200D01*
G74*
G01*
X48250Y-34800D02*
X49600Y-34800D01*
X49400Y-34400D02*
X48250Y-34400D01*
X48250Y-34800D02*
G75*
G02X48050Y-34600I0J200D01*
G74*
G01*
X48050Y-34600D02*
G75*
G02X48250Y-34400I200J0D01*
G74*
G01*
X49400Y-33100D02*
X49400Y-34400D01*
X49800Y-33100D02*
X49800Y-34600D01*
X49800Y-34600D02*
G75*
G02X49600Y-34800I-200J0D01*
G74*
G01*
X49400Y-33100D02*
G75*
G02X49600Y-32900I200J0D01*
G74*
G01*
X49600Y-32900D02*
G75*
G02X49800Y-33100I0J-200D01*
G74*
G01*
X52305Y-34900D02*
X47935Y-34900D01*
X50100Y-32695D02*
G75*
G02X52305Y-34900I0J-2205D01*
G74*
G01*
X47895Y-34900D02*
G75*
G02X50100Y-32695I2205J0D01*
G74*
G01*
G54D15*
X58208Y-43337D02*
X58222Y-43352D01*
X58265Y-43366D01*
X58293Y-43366D01*
X58336Y-43352D01*
X58365Y-43323D01*
X58379Y-43295D01*
X58393Y-43237D01*
X58393Y-43195D01*
X58379Y-43137D01*
X58365Y-43109D01*
X58336Y-43080D01*
X58293Y-43066D01*
X58265Y-43066D01*
X58222Y-43080D01*
X58208Y-43095D01*
X57950Y-43066D02*
X58008Y-43066D01*
X58036Y-43080D01*
X58050Y-43095D01*
X58079Y-43137D01*
X58093Y-43195D01*
X58093Y-43309D01*
X58079Y-43337D01*
X58065Y-43352D01*
X58036Y-43366D01*
X57979Y-43366D01*
X57950Y-43352D01*
X57936Y-43337D01*
X57922Y-43309D01*
X57922Y-43237D01*
X57936Y-43209D01*
X57950Y-43195D01*
X57979Y-43180D01*
X58036Y-43180D01*
X58065Y-43195D01*
X58079Y-43209D01*
X58093Y-43237D01*
X57871Y-41195D02*
X57885Y-41210D01*
X57928Y-41224D01*
X57956Y-41224D01*
X57999Y-41210D01*
X58028Y-41181D01*
X58042Y-41153D01*
X58056Y-41095D01*
X58056Y-41053D01*
X58042Y-40995D01*
X58028Y-40967D01*
X57999Y-40938D01*
X57956Y-40924D01*
X57928Y-40924D01*
X57885Y-40938D01*
X57871Y-40953D01*
X57771Y-40924D02*
X57571Y-40924D01*
X57699Y-41224D01*
X63833Y-40025D02*
X63847Y-40040D01*
X63890Y-40054D01*
X63918Y-40054D01*
X63961Y-40040D01*
X63990Y-40011D01*
X64004Y-39983D01*
X64018Y-39925D01*
X64018Y-39883D01*
X64004Y-39825D01*
X63990Y-39797D01*
X63961Y-39768D01*
X63918Y-39754D01*
X63890Y-39754D01*
X63847Y-39768D01*
X63833Y-39783D01*
X63690Y-40054D02*
X63633Y-40054D01*
X63604Y-40040D01*
X63590Y-40025D01*
X63561Y-39983D01*
X63547Y-39925D01*
X63547Y-39811D01*
X63561Y-39783D01*
X63575Y-39768D01*
X63604Y-39754D01*
X63661Y-39754D01*
X63690Y-39768D01*
X63704Y-39783D01*
X63718Y-39811D01*
X63718Y-39883D01*
X63704Y-39911D01*
X63690Y-39925D01*
X63661Y-39940D01*
X63604Y-39940D01*
X63575Y-39925D01*
X63561Y-39911D01*
X63547Y-39883D01*
X69949Y-43857D02*
X70049Y-43714D01*
X70120Y-43857D02*
X70120Y-43557D01*
X70006Y-43557D01*
X69977Y-43571D01*
X69963Y-43586D01*
X69949Y-43614D01*
X69949Y-43657D01*
X69963Y-43686D01*
X69977Y-43700D01*
X70006Y-43714D01*
X70120Y-43714D01*
X69849Y-43557D02*
X69663Y-43557D01*
X69763Y-43671D01*
X69720Y-43671D01*
X69691Y-43686D01*
X69677Y-43700D01*
X69663Y-43728D01*
X69663Y-43800D01*
X69677Y-43828D01*
X69691Y-43843D01*
X69720Y-43857D01*
X69806Y-43857D01*
X69834Y-43843D01*
X69849Y-43828D01*
X49751Y-32165D02*
X49851Y-32022D01*
X49922Y-32165D02*
X49922Y-31865D01*
X49808Y-31865D01*
X49779Y-31879D01*
X49765Y-31894D01*
X49751Y-31922D01*
X49751Y-31965D01*
X49765Y-31994D01*
X49779Y-32008D01*
X49808Y-32022D01*
X49922Y-32022D01*
X49651Y-31865D02*
X49451Y-31865D01*
X49579Y-32165D01*
X54267Y-32174D02*
X54367Y-32031D01*
X54438Y-32174D02*
X54438Y-31874D01*
X54324Y-31874D01*
X54295Y-31888D01*
X54281Y-31903D01*
X54267Y-31931D01*
X54267Y-31974D01*
X54281Y-32003D01*
X54295Y-32017D01*
X54324Y-32031D01*
X54438Y-32031D01*
X54095Y-32003D02*
X54124Y-31988D01*
X54138Y-31974D01*
X54152Y-31945D01*
X54152Y-31931D01*
X54138Y-31903D01*
X54124Y-31888D01*
X54095Y-31874D01*
X54038Y-31874D01*
X54009Y-31888D01*
X53995Y-31903D01*
X53981Y-31931D01*
X53981Y-31945D01*
X53995Y-31974D01*
X54009Y-31988D01*
X54038Y-32003D01*
X54095Y-32003D01*
X54124Y-32017D01*
X54138Y-32031D01*
X54152Y-32060D01*
X54152Y-32117D01*
X54138Y-32145D01*
X54124Y-32160D01*
X54095Y-32174D01*
X54038Y-32174D01*
X54009Y-32160D01*
X53995Y-32145D01*
X53981Y-32117D01*
X53981Y-32060D01*
X53995Y-32031D01*
X54009Y-32017D01*
X54038Y-32003D01*
X58267Y-32173D02*
X58367Y-32030D01*
X58438Y-32173D02*
X58438Y-31873D01*
X58324Y-31873D01*
X58295Y-31887D01*
X58281Y-31902D01*
X58267Y-31930D01*
X58267Y-31973D01*
X58281Y-32002D01*
X58295Y-32016D01*
X58324Y-32030D01*
X58438Y-32030D01*
X58124Y-32173D02*
X58067Y-32173D01*
X58038Y-32159D01*
X58024Y-32144D01*
X57995Y-32102D01*
X57981Y-32044D01*
X57981Y-31930D01*
X57995Y-31902D01*
X58009Y-31887D01*
X58038Y-31873D01*
X58095Y-31873D01*
X58124Y-31887D01*
X58138Y-31902D01*
X58152Y-31930D01*
X58152Y-32002D01*
X58138Y-32030D01*
X58124Y-32044D01*
X58095Y-32059D01*
X58038Y-32059D01*
X58009Y-32044D01*
X57995Y-32030D01*
X57981Y-32002D01*
X62926Y-32143D02*
X63026Y-32000D01*
X63098Y-32143D02*
X63098Y-31843D01*
X62984Y-31843D01*
X62955Y-31857D01*
X62941Y-31872D01*
X62926Y-31900D01*
X62926Y-31943D01*
X62941Y-31972D01*
X62955Y-31986D01*
X62984Y-32000D01*
X63098Y-32000D01*
X62641Y-32143D02*
X62812Y-32143D01*
X62726Y-32143D02*
X62726Y-31843D01*
X62755Y-31886D01*
X62784Y-31914D01*
X62812Y-31929D01*
X62455Y-31843D02*
X62426Y-31843D01*
X62398Y-31857D01*
X62384Y-31872D01*
X62369Y-31900D01*
X62355Y-31957D01*
X62355Y-32029D01*
X62369Y-32086D01*
X62384Y-32114D01*
X62398Y-32129D01*
X62426Y-32143D01*
X62455Y-32143D01*
X62484Y-32129D01*
X62498Y-32114D01*
X62512Y-32086D01*
X62526Y-32029D01*
X62526Y-31957D01*
X62512Y-31900D01*
X62498Y-31872D01*
X62484Y-31857D01*
X62455Y-31843D01*
G54D13*
X51952Y-36087D02*
X52218Y-36087D01*
X52218Y-35487D01*
X51525Y-36087D02*
X51525Y-35773D01*
X51552Y-35716D01*
X51605Y-35687D01*
X51712Y-35687D01*
X51765Y-35716D01*
X51525Y-36059D02*
X51578Y-36087D01*
X51712Y-36087D01*
X51765Y-36059D01*
X51792Y-36002D01*
X51792Y-35945D01*
X51765Y-35887D01*
X51712Y-35859D01*
X51578Y-35859D01*
X51525Y-35830D01*
X51258Y-36087D02*
X51258Y-35487D01*
X51258Y-35716D02*
X51205Y-35687D01*
X51098Y-35687D01*
X51045Y-35716D01*
X51018Y-35745D01*
X50992Y-35802D01*
X50992Y-35973D01*
X51018Y-36030D01*
X51045Y-36059D01*
X51098Y-36087D01*
X51205Y-36087D01*
X51258Y-36059D01*
X50672Y-36087D02*
X50725Y-36059D01*
X50752Y-36030D01*
X50778Y-35973D01*
X50778Y-35802D01*
X50752Y-35745D01*
X50725Y-35716D01*
X50672Y-35687D01*
X50592Y-35687D01*
X50538Y-35716D01*
X50512Y-35745D01*
X50485Y-35802D01*
X50485Y-35973D01*
X50512Y-36030D01*
X50538Y-36059D01*
X50592Y-36087D01*
X50672Y-36087D01*
X50245Y-36087D02*
X50245Y-35687D01*
X50245Y-35802D02*
X50218Y-35745D01*
X50192Y-35716D01*
X50138Y-35687D01*
X50085Y-35687D01*
X49658Y-36087D02*
X49658Y-35773D01*
X49685Y-35716D01*
X49738Y-35687D01*
X49845Y-35687D01*
X49898Y-35716D01*
X49658Y-36059D02*
X49712Y-36087D01*
X49845Y-36087D01*
X49898Y-36059D01*
X49925Y-36002D01*
X49925Y-35945D01*
X49898Y-35887D01*
X49845Y-35859D01*
X49712Y-35859D01*
X49658Y-35830D01*
X49472Y-35687D02*
X49259Y-35687D01*
X49392Y-35487D02*
X49392Y-36002D01*
X49365Y-36059D01*
X49312Y-36087D01*
X49259Y-36087D01*
X48992Y-36087D02*
X49045Y-36059D01*
X49072Y-36030D01*
X49099Y-35973D01*
X49099Y-35802D01*
X49072Y-35745D01*
X49045Y-35716D01*
X48992Y-35687D01*
X48912Y-35687D01*
X48859Y-35716D01*
X48832Y-35745D01*
X48805Y-35802D01*
X48805Y-35973D01*
X48832Y-36030D01*
X48859Y-36059D01*
X48912Y-36087D01*
X48992Y-36087D01*
X48565Y-36087D02*
X48565Y-35687D01*
X48565Y-35802D02*
X48539Y-35745D01*
X48512Y-35716D01*
X48459Y-35687D01*
X48405Y-35687D01*
X48272Y-35687D02*
X48139Y-36087D01*
X48005Y-35687D02*
X48139Y-36087D01*
X48192Y-36230D01*
X48219Y-36259D01*
X48272Y-36287D01*
G54D12*
X52092Y-35297D02*
X52235Y-35297D01*
X52235Y-34997D01*
X51878Y-35283D02*
X51907Y-35297D01*
X51964Y-35297D01*
X51992Y-35283D01*
X52007Y-35254D01*
X52007Y-35140D01*
X51992Y-35111D01*
X51964Y-35097D01*
X51907Y-35097D01*
X51878Y-35111D01*
X51864Y-35140D01*
X51864Y-35168D01*
X52007Y-35197D01*
X51607Y-35297D02*
X51607Y-35140D01*
X51621Y-35111D01*
X51650Y-35097D01*
X51707Y-35097D01*
X51735Y-35111D01*
X51607Y-35283D02*
X51635Y-35297D01*
X51707Y-35297D01*
X51735Y-35283D01*
X51750Y-35254D01*
X51750Y-35226D01*
X51735Y-35197D01*
X51707Y-35183D01*
X51635Y-35183D01*
X51607Y-35168D01*
X51464Y-35297D02*
X51464Y-35097D01*
X51464Y-35154D02*
X51450Y-35126D01*
X51435Y-35111D01*
X51407Y-35097D01*
X51378Y-35097D01*
X51278Y-35097D02*
X51278Y-35297D01*
X51278Y-35126D02*
X51264Y-35111D01*
X51235Y-35097D01*
X51192Y-35097D01*
X51164Y-35111D01*
X51150Y-35140D01*
X51150Y-35297D01*
X51007Y-35297D02*
X51007Y-35097D01*
X51007Y-34997D02*
X51021Y-35011D01*
X51007Y-35026D01*
X50992Y-35011D01*
X51007Y-34997D01*
X51007Y-35026D01*
X50864Y-35097D02*
X50864Y-35297D01*
X50864Y-35126D02*
X50850Y-35111D01*
X50821Y-35097D01*
X50778Y-35097D01*
X50750Y-35111D01*
X50735Y-35140D01*
X50735Y-35297D01*
X50464Y-35097D02*
X50464Y-35340D01*
X50478Y-35368D01*
X50492Y-35383D01*
X50521Y-35397D01*
X50564Y-35397D01*
X50592Y-35383D01*
X50464Y-35283D02*
X50492Y-35297D01*
X50550Y-35297D01*
X50578Y-35283D01*
X50592Y-35268D01*
X50607Y-35240D01*
X50607Y-35154D01*
X50592Y-35126D01*
X50578Y-35111D01*
X50550Y-35097D01*
X50492Y-35097D01*
X50464Y-35111D01*
X50092Y-35297D02*
X50092Y-34997D01*
X49950Y-35097D02*
X49950Y-35297D01*
X49950Y-35126D02*
X49935Y-35111D01*
X49907Y-35097D01*
X49864Y-35097D01*
X49835Y-35111D01*
X49821Y-35140D01*
X49821Y-35297D01*
X49707Y-35097D02*
X49635Y-35297D01*
X49564Y-35097D01*
X49335Y-35283D02*
X49364Y-35297D01*
X49421Y-35297D01*
X49450Y-35283D01*
X49464Y-35254D01*
X49464Y-35140D01*
X49450Y-35111D01*
X49421Y-35097D01*
X49364Y-35097D01*
X49335Y-35111D01*
X49321Y-35140D01*
X49321Y-35168D01*
X49464Y-35197D01*
X49192Y-35097D02*
X49192Y-35297D01*
X49192Y-35126D02*
X49178Y-35111D01*
X49150Y-35097D01*
X49107Y-35097D01*
X49078Y-35111D01*
X49064Y-35140D01*
X49064Y-35297D01*
X48964Y-35097D02*
X48850Y-35097D01*
X48921Y-34997D02*
X48921Y-35254D01*
X48907Y-35283D01*
X48878Y-35297D01*
X48850Y-35297D01*
X48749Y-35297D02*
X48749Y-35097D01*
X48749Y-34997D02*
X48764Y-35011D01*
X48749Y-35026D01*
X48735Y-35011D01*
X48749Y-34997D01*
X48749Y-35026D01*
X48564Y-35297D02*
X48592Y-35283D01*
X48607Y-35268D01*
X48621Y-35240D01*
X48621Y-35154D01*
X48607Y-35126D01*
X48592Y-35111D01*
X48564Y-35097D01*
X48521Y-35097D01*
X48492Y-35111D01*
X48478Y-35126D01*
X48464Y-35154D01*
X48464Y-35240D01*
X48478Y-35268D01*
X48492Y-35283D01*
X48521Y-35297D01*
X48564Y-35297D01*
X48335Y-35097D02*
X48335Y-35297D01*
X48335Y-35126D02*
X48321Y-35111D01*
X48292Y-35097D01*
X48249Y-35097D01*
X48221Y-35111D01*
X48207Y-35140D01*
X48207Y-35297D01*
X48078Y-35283D02*
X48049Y-35297D01*
X47992Y-35297D01*
X47964Y-35283D01*
X47949Y-35254D01*
X47949Y-35240D01*
X47964Y-35211D01*
X47992Y-35197D01*
X48035Y-35197D01*
X48064Y-35183D01*
X48078Y-35154D01*
X48078Y-35140D01*
X48064Y-35111D01*
X48035Y-35097D01*
X47992Y-35097D01*
X47964Y-35111D01*
M02*
