G04 (created by PCBNEW (2013-07-07 BZR 4022)-stable) date 9/7/2556 23:50:31*
%MOIN*%
G04 Gerber Fmt 3.4, Leading zero omitted, Abs format*
%FSLAX34Y34*%
G01*
G70*
G90*
G04 APERTURE LIST*
%ADD10C,0.00590551*%
%ADD11O,0.062X0.067*%
%ADD12C,0.152*%
%ADD13O,0.062X0.087*%
%ADD14O,0.087X0.057*%
%ADD15O,0.097X0.066*%
%ADD16O,0.062X0.092*%
%ADD17O,0.102X0.072*%
%ADD18O,0.057X0.087*%
%ADD19O,0.087X0.062*%
%ADD20O,0.077X0.062*%
%ADD21R,0.062X0.082*%
%ADD22R,0.082X0.062*%
%ADD23R,0.057X0.037*%
%ADD24O,0.1004X0.0614*%
%ADD25O,0.1004X0.062*%
%ADD26R,0.065X0.065*%
%ADD27O,0.062X0.077*%
G04 APERTURE END LIST*
G54D10*
G54D11*
X71949Y-48170D03*
X71949Y-49170D03*
X70949Y-48170D03*
X70949Y-49170D03*
X69949Y-48170D03*
X69949Y-49170D03*
X68949Y-48170D03*
X68949Y-49170D03*
X67949Y-48170D03*
X67949Y-49170D03*
X66949Y-48170D03*
X66949Y-49170D03*
X65949Y-48170D03*
X65949Y-49170D03*
X64949Y-48170D03*
X64949Y-49170D03*
X63949Y-48170D03*
X63949Y-49170D03*
X62949Y-48170D03*
X62949Y-49170D03*
X61949Y-48170D03*
X61949Y-49170D03*
X60949Y-48170D03*
X60949Y-49170D03*
X59949Y-48170D03*
X59949Y-49170D03*
G54D12*
X41402Y-45342D03*
X62898Y-35283D03*
G54D13*
X64820Y-30520D03*
X65820Y-30520D03*
X66820Y-30520D03*
X67820Y-30520D03*
G54D14*
X58246Y-48116D03*
X58246Y-46116D03*
G54D15*
X68070Y-34120D03*
X68070Y-36120D03*
X65070Y-34120D03*
X65070Y-36120D03*
G54D16*
X67670Y-31750D03*
X67670Y-32770D03*
X66870Y-31750D03*
X66870Y-32770D03*
X66070Y-31750D03*
X66070Y-32770D03*
G54D17*
X64870Y-32260D03*
X68870Y-32260D03*
G54D14*
X61914Y-43204D03*
X59914Y-43204D03*
G54D18*
X52423Y-36816D03*
X47423Y-36816D03*
X47423Y-39808D03*
X52423Y-39808D03*
X51423Y-39808D03*
X50423Y-39808D03*
X49423Y-39808D03*
X48423Y-39808D03*
X51423Y-36816D03*
X50423Y-36816D03*
X49423Y-36816D03*
X48423Y-36816D03*
G54D13*
X63720Y-31520D03*
X63720Y-30520D03*
X63720Y-29520D03*
X57220Y-31520D03*
X57220Y-30520D03*
X57220Y-29520D03*
X55220Y-31520D03*
X55220Y-30520D03*
X55220Y-29520D03*
X48720Y-31520D03*
X48720Y-30520D03*
X48720Y-29520D03*
G54D19*
X44370Y-40760D03*
X44370Y-41760D03*
X44370Y-42760D03*
G54D14*
X61914Y-44136D03*
X59914Y-44136D03*
G54D20*
X70950Y-43150D03*
X70950Y-42150D03*
X70950Y-41150D03*
X70950Y-40150D03*
X70950Y-39150D03*
G54D21*
X57508Y-43008D03*
X58808Y-43008D03*
X57166Y-40779D03*
X58466Y-40779D03*
G54D22*
X63783Y-39283D03*
X63783Y-40583D03*
G54D23*
X69910Y-44085D03*
X69910Y-43335D03*
G54D20*
X71946Y-33906D03*
X71946Y-34906D03*
X71946Y-35906D03*
X71946Y-36906D03*
X69970Y-30420D03*
X69970Y-29420D03*
X71948Y-38028D03*
X70948Y-38028D03*
G54D23*
X49720Y-31645D03*
X49720Y-32395D03*
X54220Y-31645D03*
X54220Y-32395D03*
X58220Y-31645D03*
X58220Y-32395D03*
X62720Y-31645D03*
X62720Y-32395D03*
G54D15*
X48420Y-42720D03*
X48420Y-40720D03*
X51420Y-42720D03*
X51420Y-40720D03*
G54D11*
X71951Y-45149D03*
X71951Y-46149D03*
X70951Y-45149D03*
X70951Y-46149D03*
X69951Y-45149D03*
X69951Y-46149D03*
X68951Y-45149D03*
X68951Y-46149D03*
X67951Y-45149D03*
X67951Y-46149D03*
X66951Y-45149D03*
X66951Y-46149D03*
X65951Y-45149D03*
X65951Y-46149D03*
X64951Y-45149D03*
X64951Y-46149D03*
X63951Y-45149D03*
X63951Y-46149D03*
X62951Y-45149D03*
X62951Y-46149D03*
X61951Y-45149D03*
X61951Y-46149D03*
X60951Y-45149D03*
X60951Y-46149D03*
X59951Y-45149D03*
X59951Y-46149D03*
G54D24*
X72192Y-32822D03*
G54D25*
X72192Y-30066D03*
G54D20*
X68970Y-29420D03*
X68970Y-30420D03*
G54D14*
X56183Y-42714D03*
X53383Y-42714D03*
G54D26*
X50850Y-47775D03*
X50063Y-47775D03*
X49275Y-47775D03*
X48488Y-47775D03*
X50850Y-49550D03*
X50063Y-49550D03*
X49275Y-49550D03*
X48488Y-49550D03*
X61520Y-30120D03*
X61520Y-30907D03*
G54D20*
X70947Y-44150D03*
X71947Y-44150D03*
G54D26*
X51270Y-30120D03*
X51270Y-30907D03*
X53020Y-30120D03*
X53020Y-30907D03*
X59770Y-30120D03*
X59770Y-30907D03*
X46750Y-44225D03*
X45963Y-44225D03*
X45175Y-44225D03*
X44388Y-44225D03*
X46750Y-46000D03*
X45963Y-46000D03*
X45175Y-46000D03*
X44388Y-46000D03*
X46750Y-47775D03*
X45963Y-47775D03*
X45175Y-47775D03*
X44388Y-47775D03*
X46750Y-49550D03*
X45963Y-49550D03*
X45175Y-49550D03*
X44388Y-49550D03*
X50850Y-44225D03*
X50063Y-44225D03*
X49275Y-44225D03*
X48488Y-44225D03*
X50850Y-46000D03*
X50063Y-46000D03*
X49275Y-46000D03*
X48488Y-46000D03*
G54D20*
X70952Y-33906D03*
X70952Y-34906D03*
X70952Y-35906D03*
X70952Y-36906D03*
G54D27*
X65820Y-29420D03*
X66820Y-29420D03*
X67820Y-29420D03*
X70970Y-29020D03*
X71970Y-29020D03*
G54D20*
X71950Y-43150D03*
X71950Y-42150D03*
X71950Y-41150D03*
X71950Y-40150D03*
X71950Y-39150D03*
M02*
