G04 (created by PCBNEW (2013-07-07 BZR 4022)-stable) date 9/7/2556 23:50:31*
%MOIN*%
G04 Gerber Fmt 3.4, Leading zero omitted, Abs format*
%FSLAX34Y34*%
G01*
G70*
G90*
G04 APERTURE LIST*
%ADD10C,0.00590551*%
%ADD11O,0.06X0.065*%
%ADD12C,0.15*%
%ADD13O,0.06X0.085*%
%ADD14O,0.085X0.055*%
%ADD15O,0.095X0.064*%
%ADD16O,0.06X0.09*%
%ADD17O,0.1X0.07*%
%ADD18O,0.055X0.085*%
%ADD19O,0.085X0.06*%
%ADD20O,0.075X0.06*%
%ADD21R,0.06X0.08*%
%ADD22R,0.08X0.06*%
%ADD23R,0.055X0.035*%
%ADD24O,0.0984X0.0594*%
%ADD25O,0.0984X0.06*%
%ADD26R,0.063X0.063*%
%ADD27O,0.06X0.075*%
%ADD28C,0.04*%
%ADD29C,0.015*%
%ADD30C,0.008*%
%ADD31C,0.01*%
%ADD32C,0.024*%
G04 APERTURE END LIST*
G54D10*
G54D11*
X71949Y-48170D03*
X71949Y-49170D03*
X70949Y-48170D03*
X70949Y-49170D03*
X69949Y-48170D03*
X69949Y-49170D03*
X68949Y-48170D03*
X68949Y-49170D03*
X67949Y-48170D03*
X67949Y-49170D03*
X66949Y-48170D03*
X66949Y-49170D03*
X65949Y-48170D03*
X65949Y-49170D03*
X64949Y-48170D03*
X64949Y-49170D03*
X63949Y-48170D03*
X63949Y-49170D03*
X62949Y-48170D03*
X62949Y-49170D03*
X61949Y-48170D03*
X61949Y-49170D03*
X60949Y-48170D03*
X60949Y-49170D03*
X59949Y-48170D03*
X59949Y-49170D03*
G54D12*
X41402Y-45342D03*
X62898Y-35283D03*
G54D13*
X64820Y-30520D03*
X65820Y-30520D03*
X66820Y-30520D03*
X67820Y-30520D03*
G54D14*
X58246Y-48116D03*
X58246Y-46116D03*
G54D15*
X68070Y-34120D03*
X68070Y-36120D03*
X65070Y-34120D03*
X65070Y-36120D03*
G54D16*
X67670Y-31750D03*
X67670Y-32770D03*
X66870Y-31750D03*
X66870Y-32770D03*
X66070Y-31750D03*
X66070Y-32770D03*
G54D17*
X64870Y-32260D03*
X68870Y-32260D03*
G54D14*
X61914Y-43204D03*
X59914Y-43204D03*
G54D18*
X52423Y-36816D03*
X47423Y-36816D03*
X47423Y-39808D03*
X52423Y-39808D03*
X51423Y-39808D03*
X50423Y-39808D03*
X49423Y-39808D03*
X48423Y-39808D03*
X51423Y-36816D03*
X50423Y-36816D03*
X49423Y-36816D03*
X48423Y-36816D03*
G54D13*
X63720Y-31520D03*
X63720Y-30520D03*
X63720Y-29520D03*
X57220Y-31520D03*
X57220Y-30520D03*
X57220Y-29520D03*
X55220Y-31520D03*
X55220Y-30520D03*
X55220Y-29520D03*
X48720Y-31520D03*
X48720Y-30520D03*
X48720Y-29520D03*
G54D19*
X44370Y-40760D03*
X44370Y-41760D03*
X44370Y-42760D03*
G54D14*
X61914Y-44136D03*
X59914Y-44136D03*
G54D20*
X70950Y-43150D03*
X70950Y-42150D03*
X70950Y-41150D03*
X70950Y-40150D03*
X70950Y-39150D03*
G54D21*
X57508Y-43008D03*
X58808Y-43008D03*
X57166Y-40779D03*
X58466Y-40779D03*
G54D22*
X63783Y-39283D03*
X63783Y-40583D03*
G54D23*
X69910Y-44085D03*
X69910Y-43335D03*
G54D20*
X71946Y-33906D03*
X71946Y-34906D03*
X71946Y-35906D03*
X71946Y-36906D03*
X69970Y-30420D03*
X69970Y-29420D03*
X71948Y-38028D03*
X70948Y-38028D03*
G54D23*
X49720Y-31645D03*
X49720Y-32395D03*
X54220Y-31645D03*
X54220Y-32395D03*
X58220Y-31645D03*
X58220Y-32395D03*
X62720Y-31645D03*
X62720Y-32395D03*
G54D15*
X48420Y-42720D03*
X48420Y-40720D03*
X51420Y-42720D03*
X51420Y-40720D03*
G54D11*
X71951Y-45149D03*
X71951Y-46149D03*
X70951Y-45149D03*
X70951Y-46149D03*
X69951Y-45149D03*
X69951Y-46149D03*
X68951Y-45149D03*
X68951Y-46149D03*
X67951Y-45149D03*
X67951Y-46149D03*
X66951Y-45149D03*
X66951Y-46149D03*
X65951Y-45149D03*
X65951Y-46149D03*
X64951Y-45149D03*
X64951Y-46149D03*
X63951Y-45149D03*
X63951Y-46149D03*
X62951Y-45149D03*
X62951Y-46149D03*
X61951Y-45149D03*
X61951Y-46149D03*
X60951Y-45149D03*
X60951Y-46149D03*
X59951Y-45149D03*
X59951Y-46149D03*
G54D24*
X72192Y-32822D03*
G54D25*
X72192Y-30066D03*
G54D20*
X68970Y-29420D03*
X68970Y-30420D03*
G54D14*
X56183Y-42714D03*
X53383Y-42714D03*
G54D26*
X50850Y-47775D03*
X50063Y-47775D03*
X49275Y-47775D03*
X48488Y-47775D03*
X50850Y-49550D03*
X50063Y-49550D03*
X49275Y-49550D03*
X48488Y-49550D03*
X61520Y-30120D03*
X61520Y-30907D03*
G54D20*
X70947Y-44150D03*
X71947Y-44150D03*
G54D26*
X51270Y-30120D03*
X51270Y-30907D03*
X53020Y-30120D03*
X53020Y-30907D03*
X59770Y-30120D03*
X59770Y-30907D03*
X46750Y-44225D03*
X45963Y-44225D03*
X45175Y-44225D03*
X44388Y-44225D03*
X46750Y-46000D03*
X45963Y-46000D03*
X45175Y-46000D03*
X44388Y-46000D03*
X46750Y-47775D03*
X45963Y-47775D03*
X45175Y-47775D03*
X44388Y-47775D03*
X46750Y-49550D03*
X45963Y-49550D03*
X45175Y-49550D03*
X44388Y-49550D03*
X50850Y-44225D03*
X50063Y-44225D03*
X49275Y-44225D03*
X48488Y-44225D03*
X50850Y-46000D03*
X50063Y-46000D03*
X49275Y-46000D03*
X48488Y-46000D03*
G54D20*
X70952Y-33906D03*
X70952Y-34906D03*
X70952Y-35906D03*
X70952Y-36906D03*
G54D27*
X65820Y-29420D03*
X66820Y-29420D03*
X67820Y-29420D03*
X70970Y-29020D03*
X71970Y-29020D03*
G54D20*
X71950Y-43150D03*
X71950Y-42150D03*
X71950Y-41150D03*
X71950Y-40150D03*
X71950Y-39150D03*
G54D28*
X58152Y-42874D03*
X60670Y-39720D03*
X68880Y-42546D03*
X54957Y-34056D03*
X52848Y-44241D03*
X62684Y-39741D03*
X59153Y-38505D03*
X52140Y-42240D03*
X53832Y-40838D03*
X58145Y-45020D03*
X59703Y-40266D03*
X68964Y-39742D03*
X67118Y-42544D03*
X59160Y-40881D03*
X46320Y-39735D03*
X62792Y-33198D03*
X68667Y-37266D03*
X69120Y-35187D03*
X64818Y-38067D03*
X67019Y-33755D03*
X54266Y-35456D03*
X53715Y-36681D03*
X54804Y-35463D03*
X48561Y-33675D03*
X56640Y-36195D03*
X59316Y-36393D03*
X52673Y-35721D03*
X58830Y-36393D03*
X57129Y-36201D03*
X52668Y-33906D03*
X58314Y-33660D03*
X60670Y-37770D03*
X61638Y-32844D03*
X61554Y-36098D03*
X64620Y-34970D03*
X61554Y-36648D03*
X55776Y-39374D03*
X53856Y-44247D03*
X60375Y-35631D03*
X57661Y-39931D03*
X59577Y-42405D03*
X63456Y-44676D03*
X70353Y-30929D03*
X66417Y-41694D03*
X62290Y-39410D03*
X65351Y-38129D03*
X66459Y-39225D03*
X69780Y-42544D03*
X69920Y-33456D03*
X66628Y-37136D03*
X66459Y-34119D03*
X50199Y-35643D03*
X55782Y-34902D03*
X51032Y-33624D03*
X59716Y-37767D03*
X58154Y-42363D03*
X60445Y-45647D03*
X61120Y-44070D03*
X57408Y-35334D03*
X55756Y-33082D03*
X60736Y-33268D03*
X57798Y-40766D03*
X66420Y-40916D03*
X58145Y-45520D03*
X60762Y-40398D03*
X53345Y-44220D03*
X60847Y-36343D03*
X55366Y-40870D03*
X70106Y-31446D03*
X71208Y-33320D03*
X57417Y-46845D03*
X71694Y-33330D03*
X55926Y-40851D03*
X57416Y-47399D03*
X70353Y-31932D03*
X58617Y-39456D03*
X52000Y-44800D03*
X43107Y-45144D03*
X52000Y-45400D03*
X43107Y-46746D03*
X48983Y-32463D03*
X52668Y-34952D03*
X59853Y-34848D03*
X60341Y-34848D03*
X62637Y-42444D03*
X61120Y-42120D03*
X58049Y-39454D03*
X62446Y-41716D03*
X62868Y-41356D03*
X65112Y-33024D03*
X54642Y-39431D03*
X55377Y-35466D03*
X60670Y-39020D03*
X60670Y-38520D03*
X61553Y-41292D03*
X59703Y-39759D03*
X61553Y-37141D03*
X69918Y-33975D03*
X61292Y-32165D03*
X59855Y-33273D03*
X52668Y-32502D03*
X52668Y-33318D03*
X58220Y-30770D03*
X62720Y-30770D03*
X54220Y-30770D03*
X49720Y-30770D03*
X62874Y-38478D03*
X62289Y-40095D03*
X62640Y-43012D03*
X66084Y-44036D03*
X60288Y-36352D03*
X62902Y-36953D03*
X62906Y-37769D03*
X60120Y-40970D03*
X57369Y-42279D03*
X57370Y-41546D03*
X67928Y-46991D03*
X61120Y-43520D03*
X67587Y-43596D03*
X69921Y-32946D03*
X62181Y-34439D03*
X55936Y-34394D03*
X52671Y-34395D03*
X64098Y-36126D03*
G54D29*
X68878Y-42544D02*
X67118Y-42544D01*
X49275Y-44225D02*
X49275Y-44575D01*
G54D30*
X58466Y-40234D02*
X58466Y-40779D01*
G54D31*
X59637Y-39087D02*
X60270Y-39720D01*
G54D29*
X53490Y-42240D02*
X52140Y-42240D01*
X58149Y-42877D02*
X58152Y-42874D01*
X63506Y-39741D02*
X68963Y-39741D01*
X69910Y-43335D02*
X69910Y-43190D01*
X62684Y-39741D02*
X63506Y-39741D01*
G54D31*
X59160Y-40349D02*
X59243Y-40266D01*
X56095Y-33975D02*
X56290Y-34170D01*
G54D29*
X67118Y-42383D02*
X67118Y-42544D01*
X69910Y-43190D02*
X70950Y-42150D01*
X45175Y-44675D02*
X45175Y-44225D01*
X45293Y-44793D02*
X45175Y-44675D01*
X51813Y-44241D02*
X51261Y-44793D01*
X67118Y-42544D02*
X67118Y-42546D01*
X70950Y-42150D02*
X69468Y-42150D01*
G54D31*
X59160Y-40881D02*
X58568Y-40881D01*
G54D29*
X54957Y-34056D02*
X54960Y-34056D01*
G54D31*
X58466Y-40234D02*
X58466Y-40779D01*
G54D29*
X45297Y-44793D02*
X45500Y-44793D01*
X57642Y-42874D02*
X57508Y-43008D01*
X67351Y-42150D02*
X67118Y-42383D01*
G54D30*
X60670Y-39720D02*
X60270Y-39720D01*
G54D29*
X69468Y-42150D02*
X67351Y-42150D01*
G54D31*
X56425Y-38505D02*
X56751Y-38505D01*
X59153Y-38505D02*
X59153Y-39087D01*
X56751Y-38505D02*
X59153Y-38505D01*
X58568Y-40881D02*
X58466Y-40779D01*
G54D29*
X68878Y-42544D02*
X68880Y-42546D01*
X53832Y-41898D02*
X53490Y-42240D01*
G54D30*
X59153Y-39547D02*
X58466Y-40234D01*
G54D29*
X63783Y-40018D02*
X63506Y-39741D01*
G54D31*
X56082Y-33975D02*
X55038Y-33975D01*
X59243Y-40266D02*
X59703Y-40266D01*
X59153Y-39087D02*
X59637Y-39087D01*
X58568Y-40881D02*
X58466Y-40779D01*
G54D29*
X58152Y-42874D02*
X57642Y-42874D01*
X63783Y-40583D02*
X63783Y-40018D01*
G54D31*
X59153Y-39547D02*
X58466Y-40234D01*
X55038Y-33975D02*
X54957Y-34056D01*
G54D29*
X58145Y-45020D02*
X58149Y-42877D01*
X49275Y-44575D02*
X49493Y-44793D01*
X48412Y-44793D02*
X48972Y-44793D01*
G54D31*
X58568Y-40881D02*
X58466Y-40779D01*
X56290Y-38370D02*
X56425Y-38505D01*
G54D29*
X45500Y-44793D02*
X48412Y-44793D01*
G54D31*
X59160Y-40881D02*
X59160Y-40349D01*
X55770Y-33975D02*
X56082Y-33975D01*
G54D29*
X53832Y-40838D02*
X53832Y-41898D01*
X45500Y-44793D02*
X45293Y-44793D01*
G54D31*
X56082Y-33975D02*
X56095Y-33975D01*
X56290Y-34170D02*
X56290Y-38370D01*
X60270Y-39720D02*
X60670Y-39720D01*
X59153Y-38505D02*
X59154Y-38505D01*
G54D29*
X52848Y-44241D02*
X51813Y-44241D01*
X48972Y-44793D02*
X49493Y-44793D01*
X68963Y-39741D02*
X68964Y-39742D01*
G54D31*
X59153Y-39087D02*
X59153Y-39547D01*
G54D29*
X49493Y-44793D02*
X51261Y-44793D01*
X67020Y-33756D02*
X67019Y-33755D01*
G54D31*
X65550Y-37713D02*
X65847Y-38010D01*
G54D29*
X69120Y-35187D02*
X69120Y-34983D01*
X63660Y-28477D02*
X65590Y-28477D01*
G54D32*
X70952Y-36906D02*
X71946Y-36906D01*
G54D31*
X64818Y-38013D02*
X65118Y-37713D01*
X65847Y-38010D02*
X68463Y-38010D01*
G54D29*
X46700Y-36100D02*
X46320Y-36480D01*
X67020Y-34520D02*
X67020Y-33756D01*
G54D31*
X64818Y-38067D02*
X64818Y-38013D01*
G54D29*
X47920Y-35520D02*
X47920Y-35820D01*
G54D31*
X68463Y-38010D02*
X68667Y-37806D01*
G54D29*
X52988Y-36100D02*
X53622Y-36100D01*
X67220Y-34720D02*
X67020Y-34520D01*
X68470Y-34720D02*
X67220Y-34720D01*
X47920Y-35820D02*
X48200Y-36100D01*
G54D31*
X68667Y-37806D02*
X68667Y-37266D01*
G54D29*
X69052Y-37266D02*
X68667Y-37266D01*
X47445Y-36100D02*
X46700Y-36100D01*
X49800Y-36100D02*
X48200Y-36100D01*
X66627Y-33620D02*
X62986Y-33620D01*
X47920Y-28720D02*
X47920Y-35820D01*
X46320Y-36480D02*
X46320Y-39735D01*
X66320Y-31610D02*
X66070Y-31860D01*
X68857Y-34720D02*
X68470Y-34720D01*
X70952Y-36906D02*
X69412Y-36906D01*
X65820Y-28707D02*
X65590Y-28477D01*
X48163Y-28477D02*
X47920Y-28720D01*
G54D32*
X66070Y-31860D02*
X66070Y-32660D01*
G54D29*
X65820Y-29420D02*
X65820Y-28707D01*
G54D31*
X65118Y-37713D02*
X65550Y-37713D01*
G54D29*
X49920Y-28477D02*
X62752Y-28477D01*
X69120Y-34983D02*
X68857Y-34720D01*
X48200Y-36100D02*
X47640Y-36100D01*
X67020Y-34520D02*
X67020Y-34479D01*
X67020Y-34479D02*
X67020Y-33878D01*
X66627Y-33620D02*
X66884Y-33620D01*
X66884Y-33620D02*
X67019Y-33755D01*
X63660Y-28477D02*
X62752Y-28477D01*
X49920Y-28477D02*
X48163Y-28477D01*
X66762Y-33620D02*
X66627Y-33620D01*
X47640Y-36100D02*
X47445Y-36100D01*
X52988Y-36100D02*
X49800Y-36100D01*
X69412Y-36906D02*
X69052Y-37266D01*
X53622Y-36100D02*
X54266Y-35456D01*
X62792Y-33198D02*
X62792Y-33426D01*
X62986Y-33620D02*
X62792Y-33426D01*
X67820Y-29067D02*
X68075Y-28812D01*
X67820Y-29420D02*
X67820Y-29067D01*
X68075Y-28812D02*
X70762Y-28812D01*
X70762Y-28812D02*
X70970Y-29020D01*
G54D31*
X54804Y-35463D02*
X54804Y-35592D01*
X54804Y-35592D02*
X53715Y-36681D01*
X59316Y-36393D02*
X59316Y-35859D01*
G54D30*
X51597Y-33243D02*
X51905Y-33551D01*
G54D31*
X51905Y-35512D02*
X51905Y-35399D01*
X52116Y-35723D02*
X51905Y-35512D01*
X52673Y-35721D02*
X52695Y-35723D01*
G54D29*
X48720Y-31520D02*
X48720Y-31750D01*
G54D31*
X52695Y-35723D02*
X52116Y-35723D01*
G54D29*
X48720Y-31750D02*
X48480Y-31990D01*
G54D31*
X56640Y-36195D02*
X56640Y-35931D01*
X56640Y-35931D02*
X56799Y-35772D01*
G54D30*
X50862Y-33243D02*
X51597Y-33243D01*
G54D29*
X48480Y-31990D02*
X48480Y-33594D01*
X48480Y-33594D02*
X48561Y-33675D01*
G54D31*
X51905Y-35399D02*
X51905Y-33551D01*
X56799Y-35772D02*
X57005Y-35772D01*
X59316Y-35859D02*
X59229Y-35772D01*
G54D30*
X50463Y-33243D02*
X50862Y-33243D01*
G54D31*
X57005Y-35772D02*
X57248Y-35772D01*
G54D30*
X50031Y-33675D02*
X50463Y-33243D01*
X48561Y-33675D02*
X50031Y-33675D01*
G54D31*
X59229Y-35772D02*
X57248Y-35772D01*
X57129Y-36201D02*
X58638Y-36201D01*
X58830Y-36393D02*
X58830Y-36297D01*
X58830Y-36393D02*
X58638Y-36201D01*
X53417Y-33906D02*
X54245Y-33906D01*
X53417Y-33906D02*
X54273Y-33906D01*
X54273Y-33906D02*
X54929Y-33250D01*
X52668Y-33906D02*
X53417Y-33906D01*
X54929Y-31811D02*
X55220Y-31520D01*
X54245Y-33906D02*
X54538Y-33613D01*
X54929Y-33250D02*
X54929Y-31811D01*
G54D29*
X57220Y-32070D02*
X57220Y-32566D01*
X57220Y-32566D02*
X58314Y-33660D01*
G54D31*
X58314Y-33870D02*
X59934Y-35490D01*
G54D29*
X57220Y-31520D02*
X57220Y-32070D01*
G54D31*
X60670Y-37770D02*
X60422Y-37770D01*
X59934Y-35490D02*
X59934Y-35609D01*
X59934Y-36533D02*
X59934Y-37282D01*
X59934Y-35609D02*
X59934Y-36533D01*
X60422Y-37770D02*
X59934Y-37282D01*
X58314Y-33669D02*
X58314Y-33870D01*
X58314Y-33669D02*
X58314Y-33660D01*
G54D29*
X57220Y-32070D02*
X57220Y-32496D01*
G54D30*
X61638Y-36014D02*
X61554Y-36098D01*
X61638Y-32816D02*
X61638Y-36014D01*
G54D29*
X61638Y-32816D02*
X61638Y-32844D01*
G54D30*
X62293Y-32844D02*
X63412Y-32844D01*
X61638Y-36014D02*
X61554Y-36098D01*
X63720Y-32536D02*
X63412Y-32844D01*
X63720Y-31520D02*
X63720Y-32536D01*
X61638Y-32844D02*
X62293Y-32844D01*
X61638Y-32844D02*
X61638Y-36014D01*
X61638Y-36014D02*
X61554Y-36098D01*
X64020Y-33920D02*
X64620Y-34520D01*
X63420Y-33920D02*
X64020Y-33920D01*
X62034Y-36512D02*
X61898Y-36648D01*
X61898Y-36648D02*
X61554Y-36648D01*
X61814Y-34300D02*
X61814Y-34186D01*
X61814Y-34300D02*
X61814Y-35718D01*
X61814Y-35718D02*
X62034Y-35938D01*
X61814Y-34186D02*
X62080Y-33920D01*
X62034Y-35938D02*
X62034Y-36512D01*
X62080Y-33920D02*
X63420Y-33920D01*
X64620Y-34520D02*
X64620Y-34970D01*
G54D31*
X71740Y-47610D02*
X71949Y-47819D01*
X63949Y-47821D02*
X64160Y-47610D01*
X71951Y-45149D02*
X72217Y-45149D01*
X72419Y-45351D02*
X72419Y-47901D01*
X64160Y-47610D02*
X71740Y-47610D01*
X63949Y-48170D02*
X63949Y-47821D01*
X71949Y-47819D02*
X71949Y-48170D01*
X72217Y-45149D02*
X72419Y-45351D01*
X72150Y-48170D02*
X71949Y-48170D01*
X72419Y-47901D02*
X72150Y-48170D01*
X65688Y-42105D02*
X63320Y-42105D01*
X69949Y-49170D02*
X69949Y-49601D01*
X62951Y-45829D02*
X63130Y-45650D01*
G54D29*
X69608Y-32656D02*
X69081Y-33183D01*
G54D31*
X69949Y-49170D02*
X69949Y-49667D01*
G54D29*
X62990Y-28998D02*
X64287Y-28998D01*
X55720Y-28998D02*
X56220Y-28998D01*
X69081Y-33446D02*
X69081Y-33456D01*
X56220Y-32180D02*
X56220Y-31520D01*
G54D31*
X68127Y-45650D02*
X69452Y-45650D01*
G54D30*
X71337Y-37584D02*
X71448Y-37695D01*
X62421Y-42105D02*
X62285Y-42241D01*
G54D31*
X56932Y-33082D02*
X59716Y-35866D01*
X60543Y-38120D02*
X61205Y-38120D01*
X61120Y-44313D02*
X61467Y-44660D01*
X60543Y-38120D02*
X60069Y-38120D01*
G54D29*
X66414Y-42631D02*
X66687Y-42904D01*
G54D31*
X60587Y-35628D02*
X60375Y-35631D01*
X66110Y-48670D02*
X63150Y-48670D01*
G54D30*
X71448Y-37700D02*
X71332Y-37584D01*
X71950Y-39150D02*
X71950Y-38779D01*
G54D29*
X48720Y-29186D02*
X48908Y-28998D01*
G54D31*
X65951Y-45809D02*
X66110Y-45650D01*
G54D29*
X69081Y-33183D02*
X69081Y-33446D01*
X64287Y-28998D02*
X64398Y-28998D01*
G54D31*
X67951Y-45474D02*
X68127Y-45650D01*
G54D29*
X69608Y-32355D02*
X69608Y-32656D01*
X55575Y-33600D02*
X55275Y-33300D01*
G54D31*
X71523Y-30862D02*
X71523Y-29467D01*
G54D29*
X57408Y-35334D02*
X57048Y-35334D01*
G54D31*
X63150Y-48670D02*
X60449Y-48670D01*
X62949Y-48871D02*
X63150Y-48670D01*
G54D32*
X46194Y-42714D02*
X45410Y-43498D01*
G54D29*
X63260Y-28998D02*
X63450Y-28998D01*
G54D32*
X48413Y-42713D02*
X48420Y-42720D01*
G54D29*
X58928Y-42404D02*
X58852Y-42404D01*
G54D32*
X44370Y-41760D02*
X45255Y-41760D01*
G54D31*
X66150Y-45650D02*
X66045Y-45650D01*
G54D29*
X49861Y-28998D02*
X49692Y-28998D01*
X63450Y-28998D02*
X63579Y-28998D01*
X58852Y-42404D02*
X58808Y-42448D01*
X66401Y-39283D02*
X66459Y-39225D01*
G54D30*
X62285Y-42833D02*
X61914Y-43204D01*
G54D29*
X55275Y-32735D02*
X55580Y-32430D01*
G54D31*
X71523Y-29467D02*
X71970Y-29020D01*
G54D29*
X50610Y-33754D02*
X50740Y-33624D01*
X63720Y-29520D02*
X63720Y-29139D01*
G54D31*
X66045Y-45650D02*
X68127Y-45650D01*
G54D29*
X63783Y-39283D02*
X62417Y-39283D01*
G54D31*
X62290Y-39205D02*
X61479Y-38394D01*
X57798Y-40068D02*
X57661Y-39931D01*
X55782Y-39368D02*
X55776Y-39374D01*
G54D29*
X53383Y-42714D02*
X53856Y-43187D01*
X48152Y-29197D02*
X48152Y-35372D01*
G54D31*
X70380Y-30929D02*
X71456Y-30929D01*
X61467Y-45493D02*
X61313Y-45647D01*
G54D29*
X57220Y-28998D02*
X60960Y-28998D01*
G54D31*
X59716Y-37767D02*
X59716Y-35866D01*
G54D29*
X48720Y-29520D02*
X48720Y-29186D01*
G54D31*
X69452Y-45650D02*
X69951Y-46149D01*
X72644Y-49477D02*
X72267Y-49854D01*
G54D29*
X56220Y-31520D02*
X56220Y-28998D01*
G54D31*
X55756Y-33082D02*
X56932Y-33082D01*
X63456Y-44676D02*
X63456Y-45452D01*
G54D29*
X50417Y-35643D02*
X50199Y-35643D01*
G54D30*
X72516Y-33906D02*
X72644Y-34034D01*
G54D29*
X49861Y-28998D02*
X54757Y-28998D01*
X69920Y-33456D02*
X69081Y-33456D01*
X57798Y-40766D02*
X57392Y-40776D01*
G54D31*
X69949Y-49667D02*
X70136Y-49854D01*
G54D29*
X55275Y-33300D02*
X55275Y-33020D01*
X63783Y-39283D02*
X66401Y-39283D01*
X49692Y-28998D02*
X48908Y-28998D01*
G54D31*
X69949Y-49009D02*
X69949Y-49170D01*
G54D29*
X58532Y-43284D02*
X58808Y-43008D01*
G54D31*
X70353Y-30929D02*
X70380Y-30929D01*
X57798Y-40766D02*
X57798Y-40068D01*
G54D29*
X48351Y-28998D02*
X48152Y-29197D01*
G54D30*
X63320Y-42105D02*
X62421Y-42105D01*
G54D31*
X67951Y-45149D02*
X67951Y-45474D01*
X61120Y-44070D02*
X61120Y-44313D01*
G54D29*
X59565Y-42404D02*
X59577Y-42405D01*
X56728Y-28998D02*
X57220Y-28998D01*
G54D32*
X51420Y-42720D02*
X53377Y-42720D01*
G54D29*
X62417Y-39283D02*
X62290Y-39410D01*
G54D31*
X61313Y-45647D02*
X60445Y-45647D01*
G54D30*
X71332Y-37584D02*
X71337Y-37584D01*
G54D29*
X55220Y-28998D02*
X55220Y-29520D01*
G54D31*
X69615Y-37584D02*
X68969Y-38230D01*
G54D29*
X71946Y-33906D02*
X70952Y-33906D01*
G54D31*
X53379Y-42718D02*
X53383Y-42714D01*
G54D29*
X48152Y-35372D02*
X48423Y-35643D01*
X58195Y-42404D02*
X58154Y-42363D01*
G54D30*
X71448Y-38277D02*
X71448Y-37700D01*
X69615Y-37584D02*
X70953Y-37584D01*
G54D29*
X69420Y-42904D02*
X69780Y-42544D01*
G54D30*
X72644Y-34047D02*
X72644Y-34034D01*
G54D32*
X46208Y-42713D02*
X46209Y-42714D01*
G54D31*
X66080Y-48670D02*
X66110Y-48670D01*
G54D29*
X57798Y-40766D02*
X57179Y-40766D01*
G54D32*
X46209Y-42714D02*
X46194Y-42714D01*
G54D29*
X64477Y-28998D02*
X64558Y-28998D01*
G54D32*
X46208Y-42713D02*
X48413Y-42713D01*
G54D29*
X55646Y-28998D02*
X55720Y-28998D01*
G54D31*
X68120Y-48670D02*
X69610Y-48670D01*
G54D29*
X55970Y-32430D02*
X56220Y-32180D01*
X70353Y-30929D02*
X70011Y-30929D01*
G54D32*
X45255Y-41760D02*
X46208Y-42713D01*
G54D29*
X53856Y-44247D02*
X53856Y-43187D01*
X58928Y-42404D02*
X58195Y-42404D01*
G54D31*
X60736Y-33268D02*
X60736Y-35479D01*
G54D29*
X56861Y-35147D02*
X56861Y-33880D01*
X57048Y-35334D02*
X56861Y-35147D01*
X64820Y-29260D02*
X64820Y-30520D01*
X70634Y-41150D02*
X70400Y-40916D01*
G54D31*
X67949Y-48170D02*
X67949Y-48499D01*
X71456Y-30929D02*
X71523Y-30862D01*
G54D30*
X72644Y-34214D02*
X72644Y-34848D01*
G54D29*
X50740Y-33624D02*
X51032Y-33624D01*
G54D31*
X65951Y-46149D02*
X65951Y-45809D01*
G54D30*
X62285Y-42241D02*
X62285Y-42833D01*
X72644Y-34848D02*
X72644Y-44499D01*
G54D29*
X64287Y-28998D02*
X64477Y-28998D01*
X64558Y-28998D02*
X64820Y-29260D01*
X68070Y-33662D02*
X68070Y-34120D01*
X68276Y-33456D02*
X68070Y-33662D01*
X69608Y-31332D02*
X69608Y-32175D01*
X50610Y-33898D02*
X50610Y-35450D01*
G54D31*
X69615Y-37584D02*
X71332Y-37584D01*
G54D29*
X69608Y-32175D02*
X69608Y-32355D01*
X54992Y-28998D02*
X55220Y-28998D01*
X64477Y-28998D02*
X64485Y-28998D01*
X66628Y-37136D02*
X66628Y-36101D01*
X65071Y-34119D02*
X65070Y-34120D01*
X66459Y-34119D02*
X65071Y-34119D01*
X66459Y-35932D02*
X66628Y-36101D01*
X66459Y-34119D02*
X66459Y-35932D01*
G54D31*
X61467Y-44660D02*
X61467Y-45493D01*
G54D29*
X55275Y-33020D02*
X55275Y-32735D01*
G54D30*
X72503Y-33906D02*
X72644Y-34047D01*
G54D29*
X59565Y-42404D02*
X58928Y-42404D01*
G54D31*
X68969Y-38230D02*
X65452Y-38230D01*
X62290Y-39410D02*
X62290Y-39205D01*
X66099Y-41694D02*
X66417Y-41694D01*
G54D29*
X50610Y-33898D02*
X50610Y-33754D01*
G54D31*
X66110Y-45650D02*
X66150Y-45650D01*
G54D30*
X72644Y-49477D02*
X72267Y-49854D01*
G54D29*
X48908Y-28998D02*
X48351Y-28998D01*
G54D30*
X70953Y-37584D02*
X71262Y-37584D01*
G54D32*
X44752Y-43498D02*
X44388Y-43862D01*
G54D29*
X69081Y-33456D02*
X68276Y-33456D01*
X70011Y-30929D02*
X69608Y-31332D01*
X60960Y-28998D02*
X62990Y-28998D01*
G54D32*
X53377Y-42720D02*
X53383Y-42714D01*
G54D31*
X69610Y-48670D02*
X69949Y-49009D01*
G54D29*
X70400Y-40916D02*
X66420Y-40916D01*
G54D31*
X61205Y-38120D02*
X61479Y-38394D01*
G54D29*
X58808Y-43008D02*
X58808Y-42448D01*
G54D31*
X63654Y-45650D02*
X63130Y-45650D01*
G54D29*
X66687Y-42904D02*
X69420Y-42904D01*
G54D31*
X55782Y-34902D02*
X55782Y-39368D01*
X65949Y-49170D02*
X65949Y-48801D01*
G54D29*
X57220Y-28998D02*
X57220Y-29520D01*
X54757Y-28998D02*
X54992Y-28998D01*
G54D31*
X65452Y-38230D02*
X65351Y-38129D01*
G54D30*
X70953Y-37584D02*
X71332Y-37584D01*
X71946Y-33906D02*
X72503Y-33906D01*
G54D31*
X60736Y-35479D02*
X60587Y-35628D01*
G54D30*
X72644Y-49477D02*
X72644Y-49167D01*
G54D29*
X63720Y-29139D02*
X63579Y-28998D01*
G54D31*
X62949Y-49170D02*
X62949Y-48871D01*
G54D29*
X62990Y-28998D02*
X63260Y-28998D01*
X66417Y-42628D02*
X66414Y-42631D01*
G54D30*
X72644Y-44499D02*
X72644Y-49167D01*
G54D31*
X63456Y-45452D02*
X63654Y-45650D01*
G54D29*
X58532Y-43284D02*
X58808Y-43008D01*
G54D31*
X62951Y-46149D02*
X62951Y-45829D01*
X66110Y-48670D02*
X68120Y-48670D01*
G54D30*
X71448Y-38277D02*
X71950Y-38779D01*
G54D29*
X57179Y-40766D02*
X57166Y-40779D01*
G54D31*
X65949Y-48801D02*
X66080Y-48670D01*
X60449Y-48670D02*
X59949Y-48170D01*
G54D29*
X70950Y-41150D02*
X70634Y-41150D01*
X56220Y-28998D02*
X56728Y-28998D01*
G54D31*
X70136Y-49854D02*
X72267Y-49854D01*
G54D30*
X72516Y-33906D02*
X72644Y-34034D01*
G54D29*
X66417Y-41694D02*
X66417Y-42628D01*
G54D31*
X66099Y-41694D02*
X65688Y-42105D01*
G54D29*
X56581Y-33600D02*
X55575Y-33600D01*
X56861Y-33880D02*
X56581Y-33600D01*
G54D31*
X60069Y-38120D02*
X59716Y-37767D01*
G54D29*
X55580Y-32430D02*
X55970Y-32430D01*
G54D32*
X44388Y-43862D02*
X44388Y-44225D01*
X45410Y-43498D02*
X45000Y-43498D01*
G54D29*
X48423Y-35643D02*
X50199Y-35643D01*
X55220Y-28998D02*
X55646Y-28998D01*
G54D31*
X66045Y-45650D02*
X63654Y-45650D01*
G54D32*
X48420Y-42720D02*
X51420Y-42720D01*
G54D31*
X67949Y-48499D02*
X68120Y-48670D01*
G54D29*
X50610Y-35450D02*
X50417Y-35643D01*
G54D30*
X72644Y-34214D02*
X72644Y-34047D01*
X71946Y-33906D02*
X72516Y-33906D01*
G54D32*
X45000Y-43498D02*
X44752Y-43498D01*
G54D30*
X59358Y-42954D02*
X59358Y-43178D01*
G54D29*
X46300Y-43554D02*
X49370Y-43554D01*
G54D30*
X61020Y-41670D02*
X61299Y-41670D01*
X60300Y-42462D02*
X59996Y-42766D01*
X59996Y-42766D02*
X59546Y-42766D01*
G54D29*
X46158Y-43554D02*
X46300Y-43554D01*
G54D30*
X60762Y-40398D02*
X60762Y-41412D01*
G54D29*
X53044Y-43554D02*
X53345Y-43855D01*
X50063Y-43837D02*
X50346Y-43554D01*
X52545Y-43554D02*
X53044Y-43554D01*
X46146Y-43554D02*
X45963Y-43737D01*
G54D30*
X58617Y-45348D02*
X58445Y-45520D01*
X58445Y-45520D02*
X58145Y-45520D01*
G54D29*
X49370Y-43554D02*
X50346Y-43554D01*
G54D30*
X59358Y-43178D02*
X59358Y-43274D01*
X61084Y-42462D02*
X60300Y-42462D01*
G54D29*
X46300Y-43554D02*
X46146Y-43554D01*
G54D30*
X61520Y-41670D02*
X61713Y-41863D01*
G54D29*
X45963Y-43737D02*
X45963Y-44225D01*
G54D30*
X60762Y-41412D02*
X61020Y-41670D01*
X61464Y-42462D02*
X61084Y-42462D01*
G54D29*
X53345Y-43855D02*
X53345Y-44220D01*
G54D30*
X58617Y-44795D02*
X58617Y-45348D01*
X59358Y-43494D02*
X58617Y-44235D01*
X59546Y-42766D02*
X59358Y-42954D01*
G54D29*
X50346Y-43554D02*
X52545Y-43554D01*
G54D30*
X58617Y-44235D02*
X58617Y-44795D01*
G54D29*
X49370Y-43554D02*
X49700Y-43554D01*
G54D30*
X61713Y-41863D02*
X61713Y-42099D01*
X61299Y-41670D02*
X61520Y-41670D01*
X61713Y-42099D02*
X61713Y-42291D01*
X61542Y-42462D02*
X61464Y-42462D01*
X61713Y-42291D02*
X61542Y-42462D01*
G54D29*
X53044Y-43554D02*
X53330Y-43840D01*
G54D30*
X59358Y-43494D02*
X59358Y-43178D01*
X61084Y-42462D02*
X60846Y-42462D01*
G54D29*
X50063Y-44225D02*
X50063Y-43837D01*
G54D31*
X64592Y-38466D02*
X64422Y-38296D01*
X65751Y-38466D02*
X65212Y-38466D01*
X60847Y-36343D02*
X60847Y-36493D01*
X69728Y-38635D02*
X69438Y-38635D01*
X60858Y-36981D02*
X62001Y-38124D01*
X60847Y-36981D02*
X60858Y-36981D01*
G54D30*
X71451Y-38859D02*
X71227Y-38635D01*
G54D31*
X60847Y-36462D02*
X60847Y-36493D01*
G54D30*
X71950Y-40150D02*
X71950Y-39925D01*
G54D31*
X64348Y-38296D02*
X63388Y-38296D01*
X65212Y-38466D02*
X64592Y-38466D01*
X69438Y-38635D02*
X71227Y-38635D01*
G54D30*
X71451Y-39426D02*
X71451Y-38859D01*
G54D31*
X60847Y-36343D02*
X60847Y-36981D01*
X71227Y-38635D02*
X71229Y-38637D01*
X69438Y-38635D02*
X69019Y-38635D01*
G54D29*
X71950Y-40150D02*
X71950Y-40140D01*
G54D31*
X63388Y-38296D02*
X63216Y-38124D01*
X69019Y-38635D02*
X68850Y-38466D01*
X63216Y-38124D02*
X62001Y-38124D01*
X64422Y-38296D02*
X64348Y-38296D01*
X68850Y-38466D02*
X65751Y-38466D01*
G54D30*
X71950Y-39925D02*
X71451Y-39426D01*
G54D31*
X55518Y-43938D02*
X55368Y-43788D01*
X55368Y-40872D02*
X55366Y-40870D01*
X70106Y-31446D02*
X70106Y-31464D01*
X57204Y-43938D02*
X56080Y-43938D01*
X57417Y-44622D02*
X57417Y-44151D01*
X70744Y-32431D02*
X70294Y-32431D01*
X70106Y-31464D02*
X69962Y-31608D01*
X70998Y-32685D02*
X70744Y-32431D01*
X71208Y-32895D02*
X70744Y-32431D01*
X69962Y-31608D02*
X69962Y-32099D01*
X71208Y-33320D02*
X71208Y-32895D01*
X69962Y-32099D02*
X70294Y-32431D01*
X57417Y-44151D02*
X57204Y-43938D01*
X55368Y-43788D02*
X55368Y-40872D01*
X56080Y-43938D02*
X55518Y-43938D01*
X57417Y-44622D02*
X57417Y-46845D01*
X57470Y-43695D02*
X57627Y-43852D01*
X55926Y-40851D02*
X55926Y-42039D01*
G54D30*
X71541Y-33177D02*
X71694Y-33330D01*
G54D31*
X55559Y-43526D02*
X55728Y-43695D01*
X57627Y-45520D02*
X57627Y-46101D01*
X57627Y-46101D02*
X57627Y-46326D01*
X55926Y-42039D02*
X55559Y-42406D01*
X57416Y-47399D02*
X57461Y-47399D01*
G54D30*
X70997Y-31932D02*
X71271Y-31932D01*
X71271Y-31932D02*
X71541Y-32202D01*
G54D31*
X57627Y-45520D02*
X57627Y-44150D01*
X57627Y-43852D02*
X57627Y-44150D01*
X70353Y-31932D02*
X70997Y-31932D01*
G54D30*
X71541Y-32202D02*
X71541Y-33177D01*
G54D31*
X55728Y-43695D02*
X57470Y-43695D01*
G54D30*
X71541Y-32202D02*
X71534Y-32195D01*
G54D31*
X55559Y-42406D02*
X55559Y-43526D01*
X57461Y-47399D02*
X57762Y-47098D01*
X57627Y-46326D02*
X57762Y-46461D01*
X57762Y-47098D02*
X57762Y-46461D01*
X47025Y-39110D02*
X52963Y-39110D01*
X56799Y-38963D02*
X55897Y-39865D01*
X54420Y-39865D02*
X53718Y-39865D01*
X46418Y-40760D02*
X46802Y-40376D01*
X58617Y-39423D02*
X58157Y-38963D01*
X56800Y-38962D02*
X56799Y-38963D01*
X55897Y-39865D02*
X54420Y-39865D01*
X46802Y-39333D02*
X47025Y-39110D01*
X46802Y-40376D02*
X46802Y-39333D01*
X58617Y-39456D02*
X58617Y-39423D01*
X52963Y-39110D02*
X53718Y-39865D01*
X56799Y-38963D02*
X58157Y-38963D01*
X44370Y-40760D02*
X46418Y-40760D01*
X51720Y-44800D02*
X52000Y-44800D01*
X51376Y-45144D02*
X51720Y-44800D01*
X50920Y-45144D02*
X51376Y-45144D01*
X50620Y-45144D02*
X50920Y-45144D01*
X50393Y-45144D02*
X50620Y-45144D01*
X43107Y-45144D02*
X50393Y-45144D01*
X51000Y-45440D02*
X51400Y-45440D01*
X50920Y-45440D02*
X51000Y-45440D01*
X51960Y-45440D02*
X52000Y-45400D01*
X51960Y-45440D02*
X51000Y-45440D01*
X43107Y-46746D02*
X43579Y-46746D01*
X43579Y-46746D02*
X43691Y-46634D01*
X43691Y-45644D02*
X43895Y-45440D01*
X43691Y-46634D02*
X43691Y-45644D01*
X43895Y-45440D02*
X50936Y-45440D01*
X50936Y-45440D02*
X50920Y-45440D01*
G54D30*
X51270Y-32115D02*
X51270Y-30907D01*
X49652Y-32463D02*
X49720Y-32395D01*
X49652Y-32463D02*
X49720Y-32395D01*
X50990Y-32395D02*
X51270Y-32115D01*
X49652Y-32463D02*
X48983Y-32463D01*
X49720Y-32395D02*
X50990Y-32395D01*
G54D31*
X52815Y-32151D02*
X53193Y-32151D01*
X52227Y-32604D02*
X52227Y-31343D01*
X52227Y-34692D02*
X52227Y-33854D01*
X52663Y-30907D02*
X53020Y-30907D01*
X53193Y-32151D02*
X53437Y-32395D01*
X52487Y-34952D02*
X52227Y-34692D01*
X52493Y-32151D02*
X52815Y-32151D01*
X52227Y-32604D02*
X52227Y-32417D01*
X52227Y-32417D02*
X52493Y-32151D01*
X52227Y-31343D02*
X52663Y-30907D01*
X53437Y-32395D02*
X54220Y-32395D01*
X52668Y-34952D02*
X52487Y-34952D01*
X52227Y-33854D02*
X52227Y-32604D01*
G54D29*
X59059Y-32880D02*
X59059Y-33502D01*
X59059Y-31268D02*
X59059Y-32649D01*
X59059Y-32880D02*
X59059Y-32649D01*
X59059Y-34054D02*
X59853Y-34848D01*
X58220Y-32395D02*
X58805Y-32395D01*
X59059Y-31268D02*
X59420Y-30907D01*
X59059Y-33502D02*
X59059Y-34054D01*
X58805Y-32395D02*
X59059Y-32649D01*
X59770Y-30907D02*
X59420Y-30907D01*
X61215Y-31780D02*
X61867Y-31780D01*
X62482Y-32395D02*
X62720Y-32395D01*
X60341Y-34560D02*
X60341Y-34848D01*
X59444Y-33470D02*
X59444Y-33929D01*
X60053Y-34272D02*
X60341Y-34560D01*
X61520Y-30907D02*
X61520Y-31475D01*
X60561Y-31780D02*
X61215Y-31780D01*
X59444Y-32156D02*
X59820Y-31780D01*
X59444Y-33929D02*
X59787Y-34272D01*
X59820Y-31780D02*
X60561Y-31780D01*
X59787Y-34272D02*
X60053Y-34272D01*
X59444Y-33470D02*
X59444Y-32156D01*
X61520Y-31475D02*
X61215Y-31780D01*
X61867Y-31780D02*
X62482Y-32395D01*
X70950Y-43150D02*
X70950Y-44147D01*
X68840Y-43150D02*
X68733Y-43150D01*
X69910Y-44085D02*
X70882Y-44085D01*
X69150Y-43910D02*
X69150Y-43460D01*
X70882Y-44085D02*
X70947Y-44150D01*
G54D31*
X56588Y-39659D02*
X56588Y-41022D01*
G54D29*
X68733Y-43150D02*
X66340Y-43150D01*
X70950Y-44147D02*
X70947Y-44150D01*
G54D31*
X56588Y-41348D02*
X57144Y-41904D01*
X56588Y-41022D02*
X56588Y-41181D01*
G54D29*
X69910Y-44085D02*
X69325Y-44085D01*
G54D31*
X56793Y-39454D02*
X56588Y-39659D01*
X60904Y-41904D02*
X61120Y-42120D01*
X56588Y-41181D02*
X56588Y-41348D01*
G54D29*
X65634Y-42444D02*
X66340Y-43150D01*
G54D31*
X58049Y-39454D02*
X57618Y-39454D01*
G54D29*
X62637Y-42444D02*
X65634Y-42444D01*
G54D31*
X70882Y-44085D02*
X70947Y-44150D01*
G54D29*
X69325Y-44085D02*
X69150Y-43910D01*
X69150Y-43460D02*
X68840Y-43150D01*
G54D31*
X57618Y-39454D02*
X56793Y-39454D01*
X57144Y-41904D02*
X60070Y-41904D01*
X60070Y-41904D02*
X60904Y-41904D01*
G54D30*
X71448Y-42078D02*
X71448Y-41856D01*
X71950Y-42850D02*
X71950Y-43150D01*
X71448Y-42348D02*
X71448Y-42078D01*
X62446Y-41716D02*
X64386Y-41716D01*
X71237Y-41645D02*
X70532Y-41645D01*
X71448Y-41856D02*
X71237Y-41645D01*
X65125Y-41716D02*
X65529Y-41312D01*
X65529Y-41312D02*
X70199Y-41312D01*
X71950Y-42850D02*
X71448Y-42348D01*
X64386Y-41716D02*
X65125Y-41716D01*
X70199Y-41312D02*
X70532Y-41645D01*
G54D31*
X65687Y-40482D02*
X64813Y-41356D01*
G54D30*
X70862Y-40650D02*
X70364Y-40650D01*
G54D31*
X70196Y-40482D02*
X65687Y-40482D01*
G54D30*
X71950Y-41822D02*
X71448Y-41320D01*
X71950Y-42150D02*
X71950Y-41822D01*
X71274Y-40650D02*
X70862Y-40650D01*
X71448Y-40824D02*
X71274Y-40650D01*
G54D31*
X62868Y-41356D02*
X64813Y-41356D01*
G54D30*
X71448Y-41320D02*
X71448Y-40824D01*
G54D31*
X70364Y-40650D02*
X70196Y-40482D01*
X67670Y-31860D02*
X67847Y-31860D01*
G54D32*
X66870Y-31860D02*
X67670Y-31860D01*
G54D31*
X67847Y-31860D02*
X68358Y-31349D01*
X68358Y-31349D02*
X68358Y-30147D01*
X68568Y-29937D02*
X69487Y-29937D01*
X68358Y-30147D02*
X68568Y-29937D01*
X69487Y-29937D02*
X69970Y-30420D01*
X65487Y-29933D02*
X66307Y-29933D01*
X65324Y-31010D02*
X65324Y-30096D01*
X65559Y-31245D02*
X65324Y-31010D01*
X66307Y-29933D02*
X66820Y-29420D01*
X65487Y-29933D02*
X65494Y-29926D01*
X65559Y-32692D02*
X65559Y-32899D01*
X65559Y-32692D02*
X65559Y-31245D01*
X65434Y-33024D02*
X65112Y-33024D01*
X65559Y-32899D02*
X65434Y-33024D01*
X65324Y-30096D02*
X65487Y-29933D01*
X68970Y-31497D02*
X68760Y-31707D01*
G54D32*
X66870Y-32660D02*
X67670Y-32660D01*
G54D31*
X68166Y-32164D02*
X67670Y-32660D01*
X68369Y-31707D02*
X68166Y-31910D01*
X68970Y-30420D02*
X68970Y-31497D01*
X68166Y-31910D02*
X68166Y-32164D01*
X68760Y-31707D02*
X68369Y-31707D01*
X55377Y-35466D02*
X55377Y-35982D01*
X54642Y-39431D02*
X54642Y-36717D01*
X55377Y-35982D02*
X54642Y-36717D01*
G54D30*
X60670Y-39020D02*
X61620Y-39020D01*
G54D31*
X60071Y-44136D02*
X60642Y-43565D01*
X59914Y-44136D02*
X60071Y-44136D01*
G54D29*
X59914Y-44136D02*
X59724Y-44136D01*
X59248Y-47762D02*
X58894Y-48116D01*
G54D30*
X61620Y-39020D02*
X61782Y-39182D01*
X61782Y-39537D02*
X61782Y-39663D01*
X62086Y-41873D02*
X62086Y-42432D01*
G54D29*
X59724Y-44136D02*
X59248Y-44612D01*
G54D30*
X61782Y-39182D02*
X61782Y-39382D01*
X61782Y-40173D02*
X61782Y-40407D01*
X61782Y-39663D02*
X61782Y-40173D01*
G54D29*
X58894Y-48116D02*
X58246Y-48116D01*
G54D30*
X60954Y-42786D02*
X60642Y-43098D01*
G54D29*
X59248Y-44612D02*
X59248Y-47762D01*
G54D30*
X60642Y-43565D02*
X60642Y-43098D01*
X62086Y-42432D02*
X62086Y-42521D01*
X61782Y-39382D02*
X61782Y-39537D01*
X61821Y-42786D02*
X60954Y-42786D01*
X61782Y-40407D02*
X62086Y-40711D01*
X62086Y-40711D02*
X62086Y-41873D01*
X62086Y-42521D02*
X61821Y-42786D01*
G54D31*
X58912Y-44246D02*
X58912Y-44795D01*
G54D30*
X61575Y-40613D02*
X61892Y-40930D01*
X61892Y-42260D02*
X61892Y-42486D01*
X61449Y-39354D02*
X61575Y-39480D01*
G54D31*
X59914Y-43244D02*
X58912Y-44246D01*
G54D30*
X61575Y-39825D02*
X61575Y-40023D01*
G54D31*
X58674Y-46116D02*
X58246Y-46116D01*
G54D30*
X61892Y-42486D02*
X61754Y-42624D01*
X61575Y-40023D02*
X61575Y-40064D01*
G54D31*
X59914Y-43204D02*
X59914Y-43244D01*
G54D30*
X60320Y-39162D02*
X60512Y-39354D01*
X60320Y-38620D02*
X60320Y-38678D01*
G54D31*
X58912Y-44795D02*
X58912Y-45878D01*
X58912Y-45878D02*
X58674Y-46116D01*
G54D30*
X61754Y-42624D02*
X60494Y-42624D01*
X61575Y-40064D02*
X61575Y-40613D01*
X60494Y-42624D02*
X59914Y-43204D01*
X60512Y-39354D02*
X61449Y-39354D01*
X61892Y-41787D02*
X61892Y-42260D01*
X60420Y-38520D02*
X60320Y-38620D01*
X61892Y-40930D02*
X61892Y-41787D01*
X60670Y-38520D02*
X60420Y-38520D01*
X60320Y-38678D02*
X60320Y-39162D01*
X61575Y-39480D02*
X61575Y-39575D01*
X61892Y-42260D02*
X61892Y-42374D01*
X61575Y-39575D02*
X61575Y-39825D01*
X61269Y-40053D02*
X59997Y-40053D01*
X61553Y-41292D02*
X61553Y-41033D01*
X59997Y-40053D02*
X59703Y-39759D01*
X61413Y-40893D02*
X61413Y-40197D01*
X61413Y-40197D02*
X61269Y-40053D01*
X61553Y-41033D02*
X61413Y-40893D01*
G54D31*
X69918Y-33975D02*
X69918Y-35761D01*
X69918Y-35761D02*
X69559Y-36120D01*
G54D29*
X63612Y-36513D02*
X62579Y-36513D01*
X64020Y-36513D02*
X64677Y-36513D01*
X64677Y-36513D02*
X65070Y-36120D01*
G54D31*
X61553Y-37141D02*
X61554Y-37142D01*
X69559Y-36120D02*
X68070Y-36120D01*
G54D29*
X61553Y-37141D02*
X61951Y-37141D01*
X62579Y-36513D02*
X61951Y-37141D01*
X63612Y-36513D02*
X64020Y-36513D01*
G54D31*
X59855Y-32587D02*
X60277Y-32165D01*
X59855Y-33273D02*
X59855Y-32587D01*
X60277Y-32165D02*
X61292Y-32165D01*
G54D30*
X52668Y-32502D02*
X52668Y-33318D01*
G54D29*
X58220Y-31645D02*
X58220Y-30770D01*
X62720Y-31645D02*
X62720Y-30770D01*
X54220Y-31395D02*
X54220Y-30770D01*
X54220Y-30770D02*
X54220Y-31645D01*
X49720Y-31645D02*
X49720Y-30770D01*
G54D31*
X64272Y-38478D02*
X62874Y-38478D01*
X64521Y-38694D02*
X64305Y-38478D01*
G54D30*
X62895Y-38478D02*
X63152Y-38478D01*
G54D31*
X68664Y-39005D02*
X68353Y-38694D01*
X68353Y-38694D02*
X65136Y-38694D01*
X64899Y-38694D02*
X64521Y-38694D01*
X64305Y-38478D02*
X64272Y-38478D01*
G54D30*
X70805Y-39005D02*
X70950Y-39150D01*
G54D31*
X70805Y-39005D02*
X70950Y-39150D01*
G54D30*
X64272Y-38478D02*
X62895Y-38478D01*
G54D31*
X69606Y-39005D02*
X68664Y-39005D01*
X65136Y-38694D02*
X64899Y-38694D01*
X69606Y-39005D02*
X70805Y-39005D01*
X62858Y-40150D02*
X63105Y-40397D01*
X62857Y-40149D02*
X62343Y-40149D01*
X70950Y-40150D02*
X65367Y-40150D01*
G54D29*
X62408Y-40150D02*
X62289Y-40095D01*
G54D31*
X63105Y-40397D02*
X62857Y-40149D01*
X62727Y-40150D02*
X62858Y-40150D01*
G54D29*
X62343Y-40149D02*
X62289Y-40095D01*
G54D31*
X63105Y-40713D02*
X63105Y-40929D01*
X63306Y-41130D02*
X64206Y-41130D01*
X64206Y-41130D02*
X64387Y-41130D01*
X63105Y-40713D02*
X63105Y-40397D01*
X62727Y-40150D02*
X62408Y-40150D01*
X63105Y-40929D02*
X63306Y-41130D01*
X64387Y-41130D02*
X65367Y-40150D01*
X66083Y-43470D02*
X65625Y-43012D01*
X65625Y-43012D02*
X62640Y-43012D01*
X66084Y-44036D02*
X66083Y-43470D01*
X60288Y-36442D02*
X60288Y-36547D01*
X60288Y-36352D02*
X60288Y-36547D01*
X68007Y-39384D02*
X67499Y-38876D01*
X67499Y-38876D02*
X64412Y-38876D01*
X64308Y-38772D02*
X63600Y-38772D01*
X69961Y-39384D02*
X69741Y-39384D01*
X60288Y-36686D02*
X60489Y-36887D01*
X60288Y-36686D02*
X60288Y-36352D01*
X63036Y-38934D02*
X62536Y-38934D01*
X63198Y-38772D02*
X63036Y-38934D01*
X60489Y-36887D02*
X62536Y-38934D01*
X69741Y-39384D02*
X69531Y-39384D01*
G54D30*
X71451Y-40329D02*
X71451Y-39834D01*
X71950Y-40828D02*
X71451Y-40329D01*
X71451Y-39834D02*
X71277Y-39660D01*
G54D31*
X70237Y-39660D02*
X69961Y-39384D01*
G54D30*
X71950Y-41150D02*
X71950Y-40828D01*
G54D31*
X64412Y-38876D02*
X64308Y-38772D01*
G54D30*
X70817Y-39660D02*
X70237Y-39660D01*
X71277Y-39660D02*
X70817Y-39660D01*
G54D31*
X63600Y-38772D02*
X63198Y-38772D01*
X69531Y-39384D02*
X68007Y-39384D01*
X69920Y-36420D02*
X68570Y-36420D01*
X65090Y-37226D02*
X63736Y-37226D01*
X66008Y-37226D02*
X65698Y-37226D01*
X68070Y-36920D02*
X68070Y-37270D01*
X62902Y-36953D02*
X63463Y-36953D01*
G54D29*
X70952Y-34906D02*
X71946Y-34906D01*
G54D31*
X65698Y-37226D02*
X65149Y-37226D01*
X66308Y-37526D02*
X66008Y-37226D01*
X68570Y-36420D02*
X68070Y-36920D01*
X70514Y-34906D02*
X70322Y-35098D01*
X70322Y-36018D02*
X69920Y-36420D01*
X63736Y-37226D02*
X63463Y-36953D01*
X68070Y-37270D02*
X67814Y-37526D01*
X67341Y-37526D02*
X66994Y-37526D01*
X66994Y-37526D02*
X66308Y-37526D01*
X65149Y-37226D02*
X65090Y-37226D01*
X70952Y-34906D02*
X70514Y-34906D01*
X67814Y-37526D02*
X67341Y-37526D01*
X70322Y-35098D02*
X70322Y-36018D01*
X68770Y-36620D02*
X68320Y-37070D01*
X63409Y-37769D02*
X62906Y-37769D01*
G54D29*
X70952Y-35906D02*
X71946Y-35906D01*
G54D31*
X70270Y-36620D02*
X68770Y-36620D01*
X64719Y-37454D02*
X63724Y-37454D01*
X66171Y-37776D02*
X65849Y-37454D01*
X63724Y-37454D02*
X63409Y-37769D01*
X65540Y-37454D02*
X65520Y-37454D01*
X65520Y-37454D02*
X64719Y-37454D01*
X70952Y-35938D02*
X70270Y-36620D01*
X68118Y-37772D02*
X68320Y-37570D01*
X65849Y-37454D02*
X65540Y-37454D01*
X70952Y-35906D02*
X70952Y-35938D01*
X68320Y-37570D02*
X68320Y-37070D01*
X67120Y-37772D02*
X66175Y-37772D01*
X66175Y-37772D02*
X66171Y-37776D01*
X67120Y-37772D02*
X68118Y-37772D01*
X60120Y-40970D02*
X60120Y-41364D01*
X56334Y-40647D02*
X56334Y-42102D01*
X60120Y-41364D02*
X59938Y-41546D01*
X56182Y-40495D02*
X56334Y-40647D01*
X57369Y-42279D02*
X57370Y-42280D01*
X57370Y-41546D02*
X59938Y-41546D01*
X55909Y-40495D02*
X56182Y-40495D01*
X55909Y-40495D02*
X55450Y-40495D01*
X56334Y-42102D02*
X56511Y-42279D01*
X55450Y-40495D02*
X51645Y-40495D01*
X56511Y-42279D02*
X57369Y-42279D01*
X51645Y-40495D02*
X51420Y-40720D01*
X68951Y-46149D02*
X68951Y-46759D01*
X67298Y-44496D02*
X65303Y-44496D01*
X62145Y-43676D02*
X63872Y-43676D01*
X65303Y-44496D02*
X64692Y-44496D01*
X70450Y-44738D02*
X70450Y-46628D01*
X67365Y-44496D02*
X67298Y-44496D01*
X62070Y-43676D02*
X61655Y-43676D01*
X70450Y-46786D02*
X70450Y-46628D01*
X68951Y-46759D02*
X68726Y-46984D01*
X67752Y-44496D02*
X67433Y-44496D01*
X61276Y-43676D02*
X61120Y-43520D01*
X61276Y-43676D02*
X62070Y-43676D01*
X70208Y-44496D02*
X70450Y-44738D01*
X67935Y-46984D02*
X67928Y-46991D01*
X67587Y-43596D02*
X67587Y-44342D01*
X67433Y-44496D02*
X67365Y-44496D01*
X67587Y-44342D02*
X67433Y-44496D01*
X62145Y-43676D02*
X62070Y-43676D01*
X68726Y-46984D02*
X67935Y-46984D01*
X70252Y-46984D02*
X70450Y-46786D01*
X69660Y-46984D02*
X68726Y-46984D01*
X67752Y-44496D02*
X70208Y-44496D01*
X63872Y-43676D02*
X64692Y-44496D01*
X69660Y-46984D02*
X70252Y-46984D01*
G54D32*
X70949Y-49170D02*
X71949Y-49170D01*
X71951Y-46149D02*
X71442Y-46149D01*
G54D31*
X72472Y-44393D02*
X72472Y-34711D01*
X71442Y-46149D02*
X71442Y-44780D01*
G54D29*
X70308Y-34191D02*
X70523Y-34406D01*
X70308Y-33813D02*
X70308Y-33144D01*
X70308Y-33144D02*
X70110Y-32946D01*
G54D31*
X72213Y-44652D02*
X72472Y-44393D01*
X72300Y-34406D02*
X72352Y-34406D01*
G54D29*
X70110Y-32946D02*
X69921Y-32946D01*
G54D31*
X71442Y-44780D02*
X71570Y-44652D01*
X72352Y-34406D02*
X72472Y-34526D01*
X72472Y-34526D02*
X72472Y-34711D01*
G54D32*
X71442Y-46149D02*
X70951Y-46149D01*
G54D31*
X71922Y-44652D02*
X72213Y-44652D01*
X71570Y-44652D02*
X71922Y-44652D01*
G54D29*
X70308Y-33813D02*
X70308Y-33939D01*
X70308Y-33939D02*
X70308Y-34191D01*
X70523Y-34406D02*
X72300Y-34406D01*
X55935Y-34395D02*
X55936Y-34394D01*
X62227Y-34439D02*
X62481Y-34185D01*
X62481Y-34185D02*
X63846Y-34185D01*
X53123Y-34678D02*
X55370Y-34678D01*
X55370Y-34678D02*
X55653Y-34395D01*
X62181Y-34439D02*
X62227Y-34439D01*
X52671Y-34395D02*
X52840Y-34395D01*
X63846Y-34185D02*
X64098Y-34437D01*
X64098Y-34437D02*
X64098Y-36126D01*
X55653Y-34395D02*
X55935Y-34395D01*
X52840Y-34395D02*
X53123Y-34678D01*
M02*
