G04 (created by PCBNEW (2013-07-07 BZR 4022)-stable) date 9/7/2556 23:50:31*
%MOIN*%
G04 Gerber Fmt 3.4, Leading zero omitted, Abs format*
%FSLAX34Y34*%
G01*
G70*
G90*
G04 APERTURE LIST*
%ADD10C,0.00590551*%
%ADD11C,0.0075*%
%ADD12C,0.012*%
%ADD13C,0.01*%
%ADD14C,0.015*%
%ADD15C,0.008*%
%ADD16C,0.0026*%
%ADD17C,0.004*%
%ADD18C,0.006*%
%ADD19C,0.005*%
%ADD20C,0.0059*%
%ADD21C,0.0035*%
%ADD22C,0.0062*%
G04 APERTURE END LIST*
G54D10*
G54D11*
X72511Y-29357D02*
X72811Y-29257D01*
X72511Y-29157D01*
X72811Y-29057D02*
X72611Y-29057D01*
X72511Y-29057D02*
X72525Y-29071D01*
X72540Y-29057D01*
X72525Y-29042D01*
X72511Y-29057D01*
X72540Y-29057D01*
X72611Y-28914D02*
X72811Y-28914D01*
X72640Y-28914D02*
X72625Y-28900D01*
X72611Y-28871D01*
X72611Y-28828D01*
X72625Y-28800D01*
X72654Y-28785D01*
X72811Y-28785D01*
X64661Y-29878D02*
X64904Y-29878D01*
X64932Y-29864D01*
X64947Y-29850D01*
X64961Y-29821D01*
X64961Y-29764D01*
X64947Y-29735D01*
X64932Y-29721D01*
X64904Y-29707D01*
X64661Y-29707D01*
X64875Y-29578D02*
X64875Y-29435D01*
X64961Y-29607D02*
X64661Y-29507D01*
X64961Y-29407D01*
X64961Y-29135D02*
X64818Y-29235D01*
X64961Y-29307D02*
X64661Y-29307D01*
X64661Y-29192D01*
X64675Y-29164D01*
X64690Y-29150D01*
X64718Y-29135D01*
X64761Y-29135D01*
X64790Y-29150D01*
X64804Y-29164D01*
X64818Y-29192D01*
X64818Y-29307D01*
X64661Y-29050D02*
X64661Y-28878D01*
X64961Y-28964D02*
X64661Y-28964D01*
X68427Y-28441D02*
X68527Y-28741D01*
X68627Y-28441D01*
X68727Y-28741D02*
X68727Y-28541D01*
X68727Y-28598D02*
X68741Y-28570D01*
X68755Y-28555D01*
X68784Y-28541D01*
X68812Y-28541D01*
X68912Y-28541D02*
X68912Y-28841D01*
X68912Y-28555D02*
X68941Y-28541D01*
X68998Y-28541D01*
X69027Y-28555D01*
X69041Y-28570D01*
X69055Y-28598D01*
X69055Y-28684D01*
X69041Y-28712D01*
X69027Y-28727D01*
X68998Y-28741D01*
X68941Y-28741D01*
X68912Y-28727D01*
X69255Y-28841D02*
X69255Y-28412D01*
X69427Y-28441D02*
X69527Y-28741D01*
X69627Y-28441D01*
X69855Y-28541D02*
X69855Y-28741D01*
X69727Y-28541D02*
X69727Y-28698D01*
X69741Y-28727D01*
X69770Y-28741D01*
X69812Y-28741D01*
X69841Y-28727D01*
X69855Y-28712D01*
X69984Y-28727D02*
X70012Y-28741D01*
X70070Y-28741D01*
X70098Y-28727D01*
X70112Y-28698D01*
X70112Y-28684D01*
X70098Y-28655D01*
X70070Y-28641D01*
X70027Y-28641D01*
X69998Y-28627D01*
X69984Y-28598D01*
X69984Y-28584D01*
X69998Y-28555D01*
X70027Y-28541D01*
X70070Y-28541D01*
X70098Y-28555D01*
X70241Y-28741D02*
X70241Y-28441D01*
X70241Y-28555D02*
X70270Y-28541D01*
X70327Y-28541D01*
X70355Y-28555D01*
X70370Y-28570D01*
X70384Y-28598D01*
X70384Y-28684D01*
X70370Y-28712D01*
X70355Y-28727D01*
X70327Y-28741D01*
X70270Y-28741D01*
X70241Y-28727D01*
X66105Y-28441D02*
X65962Y-28441D01*
X65948Y-28584D01*
X65962Y-28570D01*
X65991Y-28555D01*
X66062Y-28555D01*
X66091Y-28570D01*
X66105Y-28584D01*
X66120Y-28612D01*
X66120Y-28684D01*
X66105Y-28712D01*
X66091Y-28727D01*
X66062Y-28741D01*
X65991Y-28741D01*
X65962Y-28727D01*
X65948Y-28712D01*
X66205Y-28441D02*
X66305Y-28741D01*
X66405Y-28441D01*
X66805Y-28841D02*
X66805Y-28412D01*
X67205Y-28441D02*
X67305Y-28741D01*
X67405Y-28441D01*
X67505Y-28741D02*
X67505Y-28541D01*
X67505Y-28441D02*
X67491Y-28455D01*
X67505Y-28470D01*
X67519Y-28455D01*
X67505Y-28441D01*
X67505Y-28470D01*
X67648Y-28541D02*
X67648Y-28741D01*
X67648Y-28570D02*
X67662Y-28555D01*
X67691Y-28541D01*
X67734Y-28541D01*
X67762Y-28555D01*
X67777Y-28584D01*
X67777Y-28741D01*
X64872Y-28431D02*
X64972Y-28731D01*
X65072Y-28431D01*
X65215Y-28731D02*
X65187Y-28717D01*
X65172Y-28702D01*
X65158Y-28674D01*
X65158Y-28588D01*
X65172Y-28560D01*
X65187Y-28545D01*
X65215Y-28531D01*
X65258Y-28531D01*
X65287Y-28545D01*
X65301Y-28560D01*
X65315Y-28588D01*
X65315Y-28674D01*
X65301Y-28702D01*
X65287Y-28717D01*
X65258Y-28731D01*
X65215Y-28731D01*
X65572Y-28531D02*
X65572Y-28731D01*
X65444Y-28531D02*
X65444Y-28688D01*
X65458Y-28717D01*
X65487Y-28731D01*
X65530Y-28731D01*
X65558Y-28717D01*
X65572Y-28702D01*
X65672Y-28531D02*
X65787Y-28531D01*
X65715Y-28431D02*
X65715Y-28688D01*
X65730Y-28717D01*
X65758Y-28731D01*
X65787Y-28731D01*
X40383Y-44191D02*
X40192Y-44191D01*
X40192Y-43791D01*
X40516Y-44191D02*
X40516Y-43791D01*
X40897Y-44191D02*
X40707Y-44191D01*
X40707Y-43791D01*
X41278Y-44001D02*
X41259Y-43982D01*
X41221Y-43963D01*
X41183Y-43963D01*
X41145Y-43982D01*
X41126Y-44001D01*
X41107Y-44039D01*
X41107Y-44077D01*
X41126Y-44115D01*
X41145Y-44134D01*
X41183Y-44153D01*
X41221Y-44153D01*
X41259Y-44134D01*
X41278Y-44115D01*
X41278Y-43963D02*
X41278Y-44115D01*
X41297Y-44134D01*
X41316Y-44134D01*
X41354Y-44115D01*
X41373Y-44077D01*
X41373Y-43982D01*
X41335Y-43925D01*
X41278Y-43887D01*
X41202Y-43868D01*
X41126Y-43887D01*
X41069Y-43925D01*
X41031Y-43982D01*
X41012Y-44058D01*
X41031Y-44134D01*
X41069Y-44191D01*
X41126Y-44230D01*
X41202Y-44249D01*
X41278Y-44230D01*
X41335Y-44191D01*
X41773Y-44153D02*
X41754Y-44172D01*
X41697Y-44191D01*
X41659Y-44191D01*
X41602Y-44172D01*
X41564Y-44134D01*
X41545Y-44096D01*
X41526Y-44020D01*
X41526Y-43963D01*
X41545Y-43887D01*
X41564Y-43849D01*
X41602Y-43810D01*
X41659Y-43791D01*
X41697Y-43791D01*
X41754Y-43810D01*
X41773Y-43830D01*
X41945Y-44191D02*
X41945Y-43791D01*
X42078Y-44077D01*
X42212Y-43791D01*
X42212Y-44191D01*
X42402Y-43791D02*
X42402Y-44115D01*
X42421Y-44153D01*
X42440Y-44172D01*
X42478Y-44191D01*
X42554Y-44191D01*
X42592Y-44172D01*
X42612Y-44153D01*
X42631Y-44115D01*
X42631Y-43791D01*
X39685Y-47707D02*
X39914Y-47707D01*
X39800Y-47821D02*
X39800Y-47592D01*
X56357Y-31935D02*
X56371Y-31892D01*
X56371Y-31821D01*
X56357Y-31792D01*
X56342Y-31778D01*
X56314Y-31764D01*
X56285Y-31764D01*
X56257Y-31778D01*
X56242Y-31792D01*
X56228Y-31821D01*
X56214Y-31878D01*
X56200Y-31907D01*
X56185Y-31921D01*
X56157Y-31935D01*
X56128Y-31935D01*
X56100Y-31921D01*
X56085Y-31907D01*
X56071Y-31878D01*
X56071Y-31807D01*
X56085Y-31764D01*
X56371Y-31635D02*
X56171Y-31635D01*
X56071Y-31635D02*
X56085Y-31650D01*
X56100Y-31635D01*
X56085Y-31621D01*
X56071Y-31635D01*
X56100Y-31635D01*
X56171Y-31364D02*
X56414Y-31364D01*
X56442Y-31378D01*
X56457Y-31392D01*
X56471Y-31421D01*
X56471Y-31464D01*
X56457Y-31492D01*
X56357Y-31364D02*
X56371Y-31392D01*
X56371Y-31450D01*
X56357Y-31478D01*
X56342Y-31492D01*
X56314Y-31507D01*
X56228Y-31507D01*
X56200Y-31492D01*
X56185Y-31478D01*
X56171Y-31450D01*
X56171Y-31392D01*
X56185Y-31364D01*
X56257Y-30992D02*
X56257Y-30764D01*
X56371Y-30878D02*
X56142Y-30878D01*
X56071Y-30478D02*
X56071Y-30621D01*
X56214Y-30635D01*
X56200Y-30621D01*
X56185Y-30592D01*
X56185Y-30521D01*
X56200Y-30492D01*
X56214Y-30478D01*
X56242Y-30464D01*
X56314Y-30464D01*
X56342Y-30478D01*
X56357Y-30492D01*
X56371Y-30521D01*
X56371Y-30592D01*
X56357Y-30621D01*
X56342Y-30635D01*
X56071Y-30378D02*
X56371Y-30278D01*
X56071Y-30178D01*
X56085Y-29692D02*
X56071Y-29721D01*
X56071Y-29764D01*
X56085Y-29807D01*
X56114Y-29835D01*
X56142Y-29850D01*
X56200Y-29864D01*
X56242Y-29864D01*
X56300Y-29850D01*
X56328Y-29835D01*
X56357Y-29807D01*
X56371Y-29764D01*
X56371Y-29735D01*
X56357Y-29692D01*
X56342Y-29678D01*
X56242Y-29678D01*
X56242Y-29735D01*
X56371Y-29550D02*
X56071Y-29550D01*
X56371Y-29378D01*
X56071Y-29378D01*
X56371Y-29235D02*
X56071Y-29235D01*
X56071Y-29164D01*
X56085Y-29121D01*
X56114Y-29092D01*
X56142Y-29078D01*
X56200Y-29064D01*
X56242Y-29064D01*
X56300Y-29078D01*
X56328Y-29092D01*
X56357Y-29121D01*
X56371Y-29164D01*
X56371Y-29235D01*
X41711Y-47716D02*
X41940Y-47716D01*
X41826Y-47830D02*
X41826Y-47601D01*
X40700Y-47710D02*
X40929Y-47710D01*
X40815Y-47824D02*
X40815Y-47595D01*
G54D12*
X43364Y-49290D02*
X43364Y-49823D01*
X43221Y-48985D02*
X43078Y-49557D01*
X43450Y-49557D01*
X43421Y-44573D02*
X43078Y-44573D01*
X43250Y-44573D02*
X43250Y-43773D01*
X43192Y-43888D01*
X43135Y-43964D01*
X43078Y-44002D01*
X51942Y-49366D02*
X51885Y-49328D01*
X51857Y-49290D01*
X51828Y-49214D01*
X51828Y-49176D01*
X51857Y-49100D01*
X51885Y-49061D01*
X51942Y-49023D01*
X52057Y-49023D01*
X52114Y-49061D01*
X52142Y-49100D01*
X52171Y-49176D01*
X52171Y-49214D01*
X52142Y-49290D01*
X52114Y-49328D01*
X52057Y-49366D01*
X51942Y-49366D01*
X51885Y-49404D01*
X51857Y-49442D01*
X51828Y-49519D01*
X51828Y-49671D01*
X51857Y-49747D01*
X51885Y-49785D01*
X51942Y-49823D01*
X52057Y-49823D01*
X52114Y-49785D01*
X52142Y-49747D01*
X52171Y-49671D01*
X52171Y-49519D01*
X52142Y-49442D01*
X52114Y-49404D01*
X52057Y-49366D01*
X51800Y-47273D02*
X52200Y-47273D01*
X51942Y-48073D01*
X52114Y-45523D02*
X52000Y-45523D01*
X51942Y-45561D01*
X51914Y-45600D01*
X51857Y-45714D01*
X51828Y-45866D01*
X51828Y-46171D01*
X51857Y-46247D01*
X51885Y-46285D01*
X51942Y-46323D01*
X52057Y-46323D01*
X52114Y-46285D01*
X52142Y-46247D01*
X52171Y-46171D01*
X52171Y-45980D01*
X52142Y-45904D01*
X52114Y-45866D01*
X52057Y-45828D01*
X51942Y-45828D01*
X51885Y-45866D01*
X51857Y-45904D01*
X51828Y-45980D01*
X52142Y-43773D02*
X51857Y-43773D01*
X51828Y-44154D01*
X51857Y-44116D01*
X51914Y-44078D01*
X52057Y-44078D01*
X52114Y-44116D01*
X52142Y-44154D01*
X52171Y-44230D01*
X52171Y-44421D01*
X52142Y-44497D01*
X52114Y-44535D01*
X52057Y-44573D01*
X51914Y-44573D01*
X51857Y-44535D01*
X51828Y-44497D01*
X43050Y-47273D02*
X43421Y-47273D01*
X43221Y-47578D01*
X43307Y-47578D01*
X43364Y-47616D01*
X43392Y-47654D01*
X43421Y-47730D01*
X43421Y-47921D01*
X43392Y-47997D01*
X43364Y-48035D01*
X43307Y-48073D01*
X43135Y-48073D01*
X43078Y-48035D01*
X43050Y-47997D01*
X43078Y-45600D02*
X43107Y-45561D01*
X43164Y-45523D01*
X43307Y-45523D01*
X43364Y-45561D01*
X43392Y-45600D01*
X43421Y-45676D01*
X43421Y-45752D01*
X43392Y-45866D01*
X43050Y-46323D01*
X43421Y-46323D01*
G54D13*
X56127Y-42093D02*
X56432Y-42093D01*
X56280Y-42245D02*
X56280Y-41941D01*
G54D12*
X63314Y-46841D02*
X63257Y-46812D01*
X63171Y-46812D01*
X63085Y-46841D01*
X63028Y-46898D01*
X63000Y-46955D01*
X62971Y-47070D01*
X62971Y-47155D01*
X63000Y-47270D01*
X63028Y-47327D01*
X63085Y-47384D01*
X63171Y-47412D01*
X63228Y-47412D01*
X63314Y-47384D01*
X63342Y-47355D01*
X63342Y-47155D01*
X63228Y-47155D01*
X63600Y-47412D02*
X63600Y-46812D01*
X63828Y-46812D01*
X63885Y-46841D01*
X63914Y-46870D01*
X63942Y-46927D01*
X63942Y-47012D01*
X63914Y-47070D01*
X63885Y-47098D01*
X63828Y-47127D01*
X63600Y-47127D01*
X64200Y-47412D02*
X64200Y-46812D01*
X64600Y-46812D02*
X64714Y-46812D01*
X64771Y-46841D01*
X64828Y-46898D01*
X64857Y-47012D01*
X64857Y-47212D01*
X64828Y-47327D01*
X64771Y-47384D01*
X64714Y-47412D01*
X64600Y-47412D01*
X64542Y-47384D01*
X64485Y-47327D01*
X64457Y-47212D01*
X64457Y-47012D01*
X64485Y-46898D01*
X64542Y-46841D01*
X64600Y-46812D01*
X65571Y-47412D02*
X65571Y-46812D01*
X65800Y-46812D01*
X65857Y-46841D01*
X65885Y-46870D01*
X65914Y-46927D01*
X65914Y-47012D01*
X65885Y-47070D01*
X65857Y-47098D01*
X65800Y-47127D01*
X65571Y-47127D01*
X66171Y-47412D02*
X66171Y-46812D01*
X66457Y-47412D02*
X66457Y-46812D01*
X66800Y-47412D01*
X66800Y-46812D01*
G54D11*
X62542Y-42485D02*
X62042Y-42485D01*
X62042Y-42295D01*
X62066Y-42247D01*
X62090Y-42223D01*
X62137Y-42200D01*
X62209Y-42200D01*
X62256Y-42223D01*
X62280Y-42247D01*
X62304Y-42295D01*
X62304Y-42485D01*
X62542Y-41985D02*
X62209Y-41985D01*
X62042Y-41985D02*
X62066Y-42009D01*
X62090Y-41985D01*
X62066Y-41961D01*
X62042Y-41985D01*
X62090Y-41985D01*
X62351Y-41747D02*
X62351Y-41366D01*
X62042Y-41200D02*
X62042Y-40914D01*
X62542Y-41057D02*
X62042Y-41057D01*
X62542Y-40676D02*
X62518Y-40723D01*
X62494Y-40747D01*
X62447Y-40771D01*
X62304Y-40771D01*
X62256Y-40747D01*
X62232Y-40723D01*
X62209Y-40676D01*
X62209Y-40604D01*
X62232Y-40557D01*
X62256Y-40533D01*
X62304Y-40509D01*
X62447Y-40509D01*
X62494Y-40533D01*
X62518Y-40557D01*
X62542Y-40604D01*
X62542Y-40676D01*
X62209Y-40295D02*
X62709Y-40295D01*
X62232Y-40295D02*
X62209Y-40247D01*
X62209Y-40152D01*
X62232Y-40104D01*
X62256Y-40080D01*
X62304Y-40057D01*
X62447Y-40057D01*
X62494Y-40080D01*
X62518Y-40104D01*
X62542Y-40152D01*
X62542Y-40247D01*
X62518Y-40295D01*
X62209Y-39842D02*
X62709Y-39842D01*
X62232Y-39842D02*
X62209Y-39795D01*
X62209Y-39700D01*
X62232Y-39652D01*
X62256Y-39628D01*
X62304Y-39604D01*
X62447Y-39604D01*
X62494Y-39628D01*
X62518Y-39652D01*
X62542Y-39700D01*
X62542Y-39795D01*
X62518Y-39842D01*
X62542Y-39390D02*
X62209Y-39390D01*
X62042Y-39390D02*
X62066Y-39414D01*
X62090Y-39390D01*
X62066Y-39366D01*
X62042Y-39390D01*
X62090Y-39390D01*
X62209Y-39152D02*
X62542Y-39152D01*
X62256Y-39152D02*
X62232Y-39128D01*
X62209Y-39080D01*
X62209Y-39009D01*
X62232Y-38961D01*
X62280Y-38938D01*
X62542Y-38938D01*
X62209Y-38485D02*
X62613Y-38485D01*
X62661Y-38509D01*
X62685Y-38533D01*
X62709Y-38580D01*
X62709Y-38652D01*
X62685Y-38699D01*
X62518Y-38485D02*
X62542Y-38533D01*
X62542Y-38628D01*
X62518Y-38676D01*
X62494Y-38699D01*
X62447Y-38723D01*
X62304Y-38723D01*
X62256Y-38699D01*
X62232Y-38676D01*
X62209Y-38628D01*
X62209Y-38533D01*
X62232Y-38485D01*
X62090Y-37890D02*
X62066Y-37866D01*
X62042Y-37819D01*
X62042Y-37699D01*
X62066Y-37652D01*
X62090Y-37628D01*
X62137Y-37604D01*
X62185Y-37604D01*
X62256Y-37628D01*
X62542Y-37914D01*
X62542Y-37604D01*
X62494Y-37390D02*
X62518Y-37366D01*
X62542Y-37390D01*
X62518Y-37414D01*
X62494Y-37390D01*
X62542Y-37390D01*
X62542Y-36890D02*
X62542Y-37176D01*
X62542Y-37033D02*
X62042Y-37033D01*
X62113Y-37080D01*
X62161Y-37128D01*
X62185Y-37176D01*
X62280Y-36509D02*
X62304Y-36438D01*
X62328Y-36414D01*
X62375Y-36390D01*
X62447Y-36390D01*
X62494Y-36414D01*
X62518Y-36438D01*
X62542Y-36485D01*
X62542Y-36676D01*
X62042Y-36676D01*
X62042Y-36509D01*
X62066Y-36461D01*
X62090Y-36438D01*
X62137Y-36414D01*
X62185Y-36414D01*
X62232Y-36438D01*
X62256Y-36461D01*
X62280Y-36509D01*
X62280Y-36676D01*
X69031Y-38542D02*
X69260Y-38542D01*
X69146Y-38656D02*
X69146Y-38427D01*
X67057Y-39760D02*
X67286Y-39760D01*
X67172Y-39874D02*
X67172Y-39645D01*
X54151Y-34653D02*
X54380Y-34653D01*
X54266Y-34767D02*
X54266Y-34538D01*
X55762Y-35517D02*
X55991Y-35517D01*
X55877Y-35631D02*
X55877Y-35402D01*
X62905Y-30927D02*
X63134Y-30927D01*
X63020Y-31041D02*
X63020Y-30812D01*
X62030Y-28479D02*
X62259Y-28479D01*
X62145Y-28593D02*
X62145Y-28364D01*
X58405Y-30927D02*
X58634Y-30927D01*
X58520Y-31041D02*
X58520Y-30812D01*
X58658Y-28516D02*
X58887Y-28516D01*
X58773Y-28630D02*
X58773Y-28401D01*
X54405Y-30927D02*
X54634Y-30927D01*
X54520Y-31041D02*
X54520Y-30812D01*
X53605Y-28527D02*
X53834Y-28527D01*
X53720Y-28641D02*
X53720Y-28412D01*
X49905Y-30927D02*
X50134Y-30927D01*
X50020Y-31041D02*
X50020Y-30812D01*
X50105Y-28527D02*
X50334Y-28527D01*
X50220Y-28641D02*
X50220Y-28412D01*
G54D12*
X69493Y-35612D02*
X69112Y-35812D01*
X69493Y-35955D02*
X68693Y-35955D01*
X68693Y-35727D01*
X68731Y-35670D01*
X68770Y-35641D01*
X68846Y-35612D01*
X68960Y-35612D01*
X69036Y-35641D01*
X69074Y-35670D01*
X69112Y-35727D01*
X69112Y-35955D01*
X68693Y-35355D02*
X69341Y-35355D01*
X69417Y-35327D01*
X69455Y-35298D01*
X69493Y-35241D01*
X69493Y-35127D01*
X69455Y-35070D01*
X69417Y-35041D01*
X69341Y-35012D01*
X68693Y-35012D01*
X69493Y-34727D02*
X68693Y-34727D01*
X69493Y-34384D01*
X68693Y-34384D01*
G54D11*
X63243Y-28862D02*
X63300Y-28881D01*
X63396Y-28881D01*
X63434Y-28862D01*
X63453Y-28843D01*
X63472Y-28805D01*
X63472Y-28767D01*
X63453Y-28729D01*
X63434Y-28710D01*
X63396Y-28691D01*
X63320Y-28672D01*
X63281Y-28653D01*
X63262Y-28634D01*
X63243Y-28596D01*
X63243Y-28558D01*
X63262Y-28520D01*
X63281Y-28500D01*
X63320Y-28481D01*
X63415Y-28481D01*
X63472Y-28500D01*
X63586Y-28481D02*
X63720Y-28881D01*
X63853Y-28481D01*
X64158Y-28615D02*
X64158Y-28881D01*
X64062Y-28462D02*
X63967Y-28748D01*
X64215Y-28748D01*
X56743Y-28862D02*
X56800Y-28881D01*
X56896Y-28881D01*
X56934Y-28862D01*
X56953Y-28843D01*
X56972Y-28805D01*
X56972Y-28767D01*
X56953Y-28729D01*
X56934Y-28710D01*
X56896Y-28691D01*
X56820Y-28672D01*
X56781Y-28653D01*
X56762Y-28634D01*
X56743Y-28596D01*
X56743Y-28558D01*
X56762Y-28520D01*
X56781Y-28500D01*
X56820Y-28481D01*
X56915Y-28481D01*
X56972Y-28500D01*
X57086Y-28481D02*
X57220Y-28881D01*
X57353Y-28481D01*
X57448Y-28481D02*
X57696Y-28481D01*
X57562Y-28634D01*
X57620Y-28634D01*
X57658Y-28653D01*
X57677Y-28672D01*
X57696Y-28710D01*
X57696Y-28805D01*
X57677Y-28843D01*
X57658Y-28862D01*
X57620Y-28881D01*
X57505Y-28881D01*
X57467Y-28862D01*
X57448Y-28843D01*
X54743Y-28862D02*
X54800Y-28881D01*
X54896Y-28881D01*
X54934Y-28862D01*
X54953Y-28843D01*
X54972Y-28805D01*
X54972Y-28767D01*
X54953Y-28729D01*
X54934Y-28710D01*
X54896Y-28691D01*
X54820Y-28672D01*
X54781Y-28653D01*
X54762Y-28634D01*
X54743Y-28596D01*
X54743Y-28558D01*
X54762Y-28520D01*
X54781Y-28500D01*
X54820Y-28481D01*
X54915Y-28481D01*
X54972Y-28500D01*
X55086Y-28481D02*
X55220Y-28881D01*
X55353Y-28481D01*
X55467Y-28520D02*
X55486Y-28500D01*
X55524Y-28481D01*
X55620Y-28481D01*
X55658Y-28500D01*
X55677Y-28520D01*
X55696Y-28558D01*
X55696Y-28596D01*
X55677Y-28653D01*
X55448Y-28881D01*
X55696Y-28881D01*
X48243Y-28862D02*
X48300Y-28881D01*
X48396Y-28881D01*
X48434Y-28862D01*
X48453Y-28843D01*
X48472Y-28805D01*
X48472Y-28767D01*
X48453Y-28729D01*
X48434Y-28710D01*
X48396Y-28691D01*
X48320Y-28672D01*
X48281Y-28653D01*
X48262Y-28634D01*
X48243Y-28596D01*
X48243Y-28558D01*
X48262Y-28520D01*
X48281Y-28500D01*
X48320Y-28481D01*
X48415Y-28481D01*
X48472Y-28500D01*
X48586Y-28481D02*
X48720Y-28881D01*
X48853Y-28481D01*
X49196Y-28881D02*
X48967Y-28881D01*
X49081Y-28881D02*
X49081Y-28481D01*
X49043Y-28539D01*
X49005Y-28577D01*
X48967Y-28596D01*
G54D13*
X61169Y-29102D02*
X61169Y-28602D01*
X61288Y-28602D01*
X61359Y-28626D01*
X61407Y-28673D01*
X61430Y-28721D01*
X61454Y-28816D01*
X61454Y-28888D01*
X61430Y-28983D01*
X61407Y-29030D01*
X61359Y-29078D01*
X61288Y-29102D01*
X61169Y-29102D01*
X59754Y-29054D02*
X59730Y-29078D01*
X59659Y-29102D01*
X59611Y-29102D01*
X59540Y-29078D01*
X59492Y-29030D01*
X59469Y-28983D01*
X59445Y-28888D01*
X59445Y-28816D01*
X59469Y-28721D01*
X59492Y-28673D01*
X59540Y-28626D01*
X59611Y-28602D01*
X59659Y-28602D01*
X59730Y-28626D01*
X59754Y-28650D01*
X52835Y-28840D02*
X52907Y-28864D01*
X52930Y-28888D01*
X52954Y-28935D01*
X52954Y-29007D01*
X52930Y-29054D01*
X52907Y-29078D01*
X52859Y-29102D01*
X52669Y-29102D01*
X52669Y-28602D01*
X52835Y-28602D01*
X52883Y-28626D01*
X52907Y-28650D01*
X52930Y-28697D01*
X52930Y-28745D01*
X52907Y-28792D01*
X52883Y-28816D01*
X52835Y-28840D01*
X52669Y-28840D01*
X50980Y-28959D02*
X51219Y-28959D01*
X50933Y-29102D02*
X51100Y-28602D01*
X51266Y-29102D01*
G54D14*
X47642Y-35441D02*
X43587Y-35441D01*
X48036Y-28197D02*
X47642Y-28197D01*
X57327Y-50244D02*
X56933Y-50244D01*
X56933Y-45087D02*
X52681Y-45087D01*
X72445Y-47685D02*
X72445Y-49654D01*
X72445Y-49654D02*
X59453Y-49654D01*
X59453Y-49654D02*
X59453Y-47685D01*
X59453Y-47685D02*
X72445Y-47685D01*
X72918Y-50244D02*
X72918Y-28197D01*
X72918Y-28197D02*
X48036Y-28197D01*
X47642Y-28197D02*
X47642Y-35441D01*
X43587Y-35441D02*
X43587Y-43236D01*
X43587Y-43236D02*
X39453Y-43236D01*
X39453Y-43236D02*
X39453Y-50244D01*
X39453Y-50244D02*
X52682Y-50244D01*
X52682Y-50244D02*
X52682Y-45087D01*
X56933Y-45087D02*
X56933Y-50244D01*
X57327Y-50244D02*
X72918Y-50244D01*
X72918Y-50244D02*
X72918Y-28197D01*
X72918Y-28197D02*
X72918Y-50244D01*
G54D15*
X72449Y-49670D02*
X72449Y-47670D01*
X72449Y-47670D02*
X59449Y-47670D01*
X72449Y-47670D02*
X59449Y-47670D01*
X59449Y-49670D02*
X72449Y-49670D01*
X72449Y-49670D02*
X72449Y-47670D01*
X59449Y-47670D02*
X59449Y-49670D01*
G54D12*
X64320Y-30020D02*
X64320Y-30020D01*
X64320Y-31020D02*
X64320Y-30020D01*
X64320Y-30020D02*
X64320Y-30020D01*
X64320Y-30020D02*
X68320Y-30020D01*
X68320Y-30020D02*
X68320Y-31020D01*
X68320Y-31020D02*
X64320Y-31020D01*
X65320Y-31020D02*
X65320Y-30020D01*
G54D16*
X40281Y-48681D02*
X40281Y-48759D01*
X40281Y-48759D02*
X40359Y-48759D01*
X40359Y-48681D02*
X40359Y-48759D01*
X40281Y-48681D02*
X40359Y-48681D01*
X40045Y-48897D02*
X40045Y-49034D01*
X40045Y-49034D02*
X40143Y-49034D01*
X40143Y-48897D02*
X40143Y-49034D01*
X40045Y-48897D02*
X40143Y-48897D01*
X40045Y-49034D02*
X40045Y-49074D01*
X40045Y-49074D02*
X40516Y-49074D01*
X40516Y-49034D02*
X40516Y-49074D01*
X40045Y-49034D02*
X40516Y-49034D01*
X40536Y-49034D02*
X40536Y-49074D01*
X40536Y-49074D02*
X40595Y-49074D01*
X40595Y-49034D02*
X40595Y-49074D01*
X40536Y-49034D02*
X40595Y-49034D01*
X40045Y-48366D02*
X40045Y-48406D01*
X40045Y-48406D02*
X40516Y-48406D01*
X40516Y-48366D02*
X40516Y-48406D01*
X40045Y-48366D02*
X40516Y-48366D01*
X40536Y-48366D02*
X40536Y-48406D01*
X40536Y-48406D02*
X40595Y-48406D01*
X40595Y-48366D02*
X40595Y-48406D01*
X40536Y-48366D02*
X40595Y-48366D01*
X40045Y-48897D02*
X40045Y-48956D01*
X40045Y-48956D02*
X40143Y-48956D01*
X40143Y-48897D02*
X40143Y-48956D01*
X40045Y-48897D02*
X40143Y-48897D01*
G54D17*
X40025Y-49330D02*
X40025Y-48110D01*
X40025Y-48110D02*
X40615Y-48110D01*
X40615Y-48110D02*
X40615Y-49330D01*
X40615Y-49330D02*
X40025Y-49330D01*
X40123Y-48504D02*
G75*
G03X40124Y-48936I196J-215D01*
G74*
G01*
X40516Y-48504D02*
G75*
G03X40124Y-48503I-196J-215D01*
G74*
G01*
X40516Y-48935D02*
G75*
G03X40515Y-48503I-196J215D01*
G74*
G01*
X40123Y-48935D02*
G75*
G03X40515Y-48936I196J215D01*
G74*
G01*
G54D18*
X57746Y-49866D02*
X57246Y-49366D01*
X57246Y-44866D02*
X57746Y-44366D01*
X58746Y-44366D02*
X59246Y-44866D01*
X58746Y-49866D02*
X59246Y-49366D01*
X57246Y-49366D02*
X57246Y-44866D01*
X57746Y-49866D02*
X58746Y-49866D01*
X59246Y-49366D02*
X59246Y-44866D01*
X58746Y-44366D02*
X57746Y-44366D01*
G54D19*
X67570Y-35120D02*
G75*
G03X67570Y-35120I-1000J0D01*
G74*
G01*
X65070Y-33620D02*
X68070Y-33620D01*
X68070Y-33620D02*
X68070Y-36620D01*
X68070Y-36620D02*
X65070Y-36620D01*
X65070Y-33620D02*
X65070Y-36620D01*
G54D20*
X65020Y-31260D02*
X65370Y-31260D01*
X65020Y-31510D02*
X65020Y-31260D01*
X68820Y-31260D02*
X68370Y-31260D01*
X68820Y-31860D02*
X68820Y-31260D01*
X68820Y-33260D02*
X68820Y-31860D01*
X65020Y-33260D02*
X65020Y-31460D01*
X68720Y-33260D02*
X68820Y-33260D01*
X65370Y-33260D02*
X65020Y-33260D01*
X68370Y-33260D02*
X68720Y-33260D01*
G54D15*
X65370Y-31260D02*
X68370Y-31260D01*
X68370Y-33260D02*
X65370Y-33260D01*
X65370Y-33260D02*
X65370Y-31260D01*
X68370Y-31260D02*
X68370Y-33260D01*
G54D12*
X62314Y-43604D02*
X59514Y-43604D01*
X59514Y-43604D02*
X59514Y-42804D01*
X59514Y-42804D02*
X62314Y-42804D01*
X62314Y-42804D02*
X62314Y-43604D01*
X62314Y-43404D02*
X62114Y-43604D01*
G54D16*
X41281Y-48681D02*
X41281Y-48759D01*
X41281Y-48759D02*
X41359Y-48759D01*
X41359Y-48681D02*
X41359Y-48759D01*
X41281Y-48681D02*
X41359Y-48681D01*
X41045Y-48897D02*
X41045Y-49034D01*
X41045Y-49034D02*
X41143Y-49034D01*
X41143Y-48897D02*
X41143Y-49034D01*
X41045Y-48897D02*
X41143Y-48897D01*
X41045Y-49034D02*
X41045Y-49074D01*
X41045Y-49074D02*
X41516Y-49074D01*
X41516Y-49034D02*
X41516Y-49074D01*
X41045Y-49034D02*
X41516Y-49034D01*
X41536Y-49034D02*
X41536Y-49074D01*
X41536Y-49074D02*
X41595Y-49074D01*
X41595Y-49034D02*
X41595Y-49074D01*
X41536Y-49034D02*
X41595Y-49034D01*
X41045Y-48366D02*
X41045Y-48406D01*
X41045Y-48406D02*
X41516Y-48406D01*
X41516Y-48366D02*
X41516Y-48406D01*
X41045Y-48366D02*
X41516Y-48366D01*
X41536Y-48366D02*
X41536Y-48406D01*
X41536Y-48406D02*
X41595Y-48406D01*
X41595Y-48366D02*
X41595Y-48406D01*
X41536Y-48366D02*
X41595Y-48366D01*
X41045Y-48897D02*
X41045Y-48956D01*
X41045Y-48956D02*
X41143Y-48956D01*
X41143Y-48897D02*
X41143Y-48956D01*
X41045Y-48897D02*
X41143Y-48897D01*
G54D17*
X41025Y-49330D02*
X41025Y-48110D01*
X41025Y-48110D02*
X41615Y-48110D01*
X41615Y-48110D02*
X41615Y-49330D01*
X41615Y-49330D02*
X41025Y-49330D01*
X41123Y-48504D02*
G75*
G03X41124Y-48936I196J-215D01*
G74*
G01*
X41516Y-48504D02*
G75*
G03X41124Y-48503I-196J-215D01*
G74*
G01*
X41516Y-48935D02*
G75*
G03X41515Y-48503I-196J215D01*
G74*
G01*
X41123Y-48935D02*
G75*
G03X41515Y-48936I196J215D01*
G74*
G01*
G54D16*
X42281Y-48681D02*
X42281Y-48759D01*
X42281Y-48759D02*
X42359Y-48759D01*
X42359Y-48681D02*
X42359Y-48759D01*
X42281Y-48681D02*
X42359Y-48681D01*
X42045Y-48897D02*
X42045Y-49034D01*
X42045Y-49034D02*
X42143Y-49034D01*
X42143Y-48897D02*
X42143Y-49034D01*
X42045Y-48897D02*
X42143Y-48897D01*
X42045Y-49034D02*
X42045Y-49074D01*
X42045Y-49074D02*
X42516Y-49074D01*
X42516Y-49034D02*
X42516Y-49074D01*
X42045Y-49034D02*
X42516Y-49034D01*
X42536Y-49034D02*
X42536Y-49074D01*
X42536Y-49074D02*
X42595Y-49074D01*
X42595Y-49034D02*
X42595Y-49074D01*
X42536Y-49034D02*
X42595Y-49034D01*
X42045Y-48366D02*
X42045Y-48406D01*
X42045Y-48406D02*
X42516Y-48406D01*
X42516Y-48366D02*
X42516Y-48406D01*
X42045Y-48366D02*
X42516Y-48366D01*
X42536Y-48366D02*
X42536Y-48406D01*
X42536Y-48406D02*
X42595Y-48406D01*
X42595Y-48366D02*
X42595Y-48406D01*
X42536Y-48366D02*
X42595Y-48366D01*
X42045Y-48897D02*
X42045Y-48956D01*
X42045Y-48956D02*
X42143Y-48956D01*
X42143Y-48897D02*
X42143Y-48956D01*
X42045Y-48897D02*
X42143Y-48897D01*
G54D17*
X42025Y-49330D02*
X42025Y-48110D01*
X42025Y-48110D02*
X42615Y-48110D01*
X42615Y-48110D02*
X42615Y-49330D01*
X42615Y-49330D02*
X42025Y-49330D01*
X42123Y-48504D02*
G75*
G03X42124Y-48936I196J-215D01*
G74*
G01*
X42516Y-48504D02*
G75*
G03X42124Y-48503I-196J-215D01*
G74*
G01*
X42516Y-48935D02*
G75*
G03X42515Y-48503I-196J215D01*
G74*
G01*
X42123Y-48935D02*
G75*
G03X42515Y-48936I196J215D01*
G74*
G01*
G54D15*
X57253Y-37621D02*
X57503Y-37371D01*
X57503Y-37371D02*
X61153Y-37371D01*
X61153Y-37371D02*
X61253Y-37471D01*
X61253Y-37471D02*
X61253Y-41271D01*
X61253Y-41271D02*
X61153Y-41371D01*
X61153Y-41371D02*
X57353Y-41371D01*
X57353Y-41371D02*
X57253Y-41271D01*
X57253Y-41271D02*
X57253Y-37621D01*
X58003Y-37871D02*
G75*
G03X58003Y-37871I-250J0D01*
G74*
G01*
G54D14*
X56261Y-36304D02*
X56261Y-40320D01*
X56261Y-40320D02*
X43584Y-40320D01*
X43584Y-36304D02*
X43584Y-40320D01*
X43584Y-36304D02*
X56261Y-36304D01*
G54D15*
X70280Y-42080D02*
X70280Y-40880D01*
X70280Y-40880D02*
X67480Y-40880D01*
X67480Y-40880D02*
X67480Y-42080D01*
X70280Y-43280D02*
X70280Y-43580D01*
X70280Y-43580D02*
X69680Y-44480D01*
X69680Y-44480D02*
X68080Y-44480D01*
X68080Y-44480D02*
X67480Y-43580D01*
X67480Y-43580D02*
X67480Y-43280D01*
G54D12*
X64220Y-32020D02*
X63220Y-32020D01*
X63220Y-32020D02*
X63220Y-29020D01*
X63220Y-29020D02*
X64220Y-29020D01*
X64220Y-29020D02*
X64220Y-32020D01*
X63220Y-31020D02*
X64220Y-31020D01*
X57720Y-32020D02*
X56720Y-32020D01*
X56720Y-32020D02*
X56720Y-29020D01*
X56720Y-29020D02*
X57720Y-29020D01*
X57720Y-29020D02*
X57720Y-32020D01*
X56720Y-31020D02*
X57720Y-31020D01*
X55720Y-32020D02*
X54720Y-32020D01*
X54720Y-32020D02*
X54720Y-29020D01*
X54720Y-29020D02*
X55720Y-29020D01*
X55720Y-29020D02*
X55720Y-32020D01*
X54720Y-31020D02*
X55720Y-31020D01*
X49220Y-32020D02*
X48220Y-32020D01*
X48220Y-32020D02*
X48220Y-29020D01*
X48220Y-29020D02*
X49220Y-29020D01*
X49220Y-29020D02*
X49220Y-32020D01*
X48220Y-31020D02*
X49220Y-31020D01*
G54D14*
X50126Y-33163D02*
G75*
G03X50126Y-33163I-55J0D01*
G74*
G01*
X51448Y-32887D02*
X51448Y-36037D01*
X51448Y-36037D02*
X49716Y-36037D01*
X49716Y-32887D02*
X49716Y-36037D01*
X49716Y-32887D02*
X51448Y-32887D01*
X59834Y-33151D02*
G75*
G03X59834Y-33151I-55J0D01*
G74*
G01*
X61156Y-32875D02*
X61156Y-36025D01*
X61156Y-36025D02*
X59424Y-36025D01*
X59424Y-32875D02*
X59424Y-36025D01*
X59424Y-32875D02*
X61156Y-32875D01*
X47441Y-40264D02*
X47441Y-43256D01*
X44881Y-40264D02*
X47440Y-40264D01*
X44882Y-43257D02*
X47441Y-43257D01*
G54D12*
X43870Y-40260D02*
X44870Y-40260D01*
X44870Y-40260D02*
X44870Y-43260D01*
X44870Y-43260D02*
X43870Y-43260D01*
X43870Y-43260D02*
X43870Y-40260D01*
X44870Y-41260D02*
X43870Y-41260D01*
G54D15*
X57580Y-33900D02*
X57580Y-34300D01*
X57580Y-34300D02*
X57180Y-35200D01*
X57180Y-35200D02*
X55980Y-35200D01*
X55980Y-35200D02*
X55580Y-34300D01*
X55580Y-34300D02*
X55580Y-33500D01*
X55580Y-33500D02*
X55980Y-32600D01*
X55980Y-32600D02*
X57180Y-32600D01*
X57180Y-32600D02*
X57580Y-33500D01*
X57580Y-33500D02*
X57580Y-33900D01*
X57580Y-33900D02*
G75*
G03X57580Y-33900I-1000J0D01*
G74*
G01*
G54D12*
X62314Y-44536D02*
X59514Y-44536D01*
X59514Y-44536D02*
X59514Y-43736D01*
X59514Y-43736D02*
X62314Y-43736D01*
X62314Y-43736D02*
X62314Y-44536D01*
X62314Y-44336D02*
X62114Y-44536D01*
X71450Y-43650D02*
X70450Y-43650D01*
X70450Y-43650D02*
X70450Y-38650D01*
X70450Y-38650D02*
X71450Y-38650D01*
X71450Y-38650D02*
X71450Y-43650D01*
X71450Y-42650D02*
X70450Y-42650D01*
G54D14*
X53160Y-34031D02*
X53160Y-34331D01*
X53160Y-34331D02*
X54360Y-34331D01*
X54360Y-34331D02*
X54360Y-34031D01*
X54360Y-34031D02*
X53160Y-34031D01*
X63542Y-33123D02*
X63242Y-33123D01*
X63242Y-33123D02*
X63242Y-34323D01*
X63242Y-34323D02*
X63542Y-34323D01*
X63542Y-34323D02*
X63542Y-33123D01*
G54D19*
X70320Y-38370D02*
G75*
G03X70320Y-38370I-50J0D01*
G74*
G01*
X70270Y-37920D02*
X70270Y-38320D01*
X70270Y-38320D02*
X69670Y-38320D01*
X69670Y-38320D02*
X69670Y-37920D01*
X69670Y-37520D02*
X69670Y-37120D01*
X69670Y-37120D02*
X70270Y-37120D01*
X70270Y-37120D02*
X70270Y-37520D01*
X70320Y-36970D02*
G75*
G03X70320Y-36970I-50J0D01*
G74*
G01*
X70270Y-36520D02*
X70270Y-36920D01*
X70270Y-36920D02*
X69670Y-36920D01*
X69670Y-36920D02*
X69670Y-36520D01*
X69670Y-36120D02*
X69670Y-35720D01*
X69670Y-35720D02*
X70270Y-35720D01*
X70270Y-35720D02*
X70270Y-36120D01*
X41070Y-46470D02*
G75*
G03X41070Y-46470I-50J0D01*
G74*
G01*
X41020Y-46920D02*
X41020Y-46520D01*
X41020Y-46520D02*
X41620Y-46520D01*
X41620Y-46520D02*
X41620Y-46920D01*
X41620Y-47320D02*
X41620Y-47720D01*
X41620Y-47720D02*
X41020Y-47720D01*
X41020Y-47720D02*
X41020Y-47320D01*
X42070Y-46470D02*
G75*
G03X42070Y-46470I-50J0D01*
G74*
G01*
X42020Y-46920D02*
X42020Y-46520D01*
X42020Y-46520D02*
X42620Y-46520D01*
X42620Y-46520D02*
X42620Y-46920D01*
X42620Y-47320D02*
X42620Y-47720D01*
X42620Y-47720D02*
X42020Y-47720D01*
X42020Y-47720D02*
X42020Y-47320D01*
G54D12*
X72446Y-33406D02*
X72446Y-33406D01*
X71446Y-33406D02*
X72446Y-33406D01*
X72446Y-33406D02*
X72446Y-33406D01*
X72446Y-33406D02*
X72446Y-37406D01*
X72446Y-37406D02*
X71446Y-37406D01*
X71446Y-37406D02*
X71446Y-33406D01*
X71446Y-34406D02*
X72446Y-34406D01*
G54D19*
X70320Y-35570D02*
G75*
G03X70320Y-35570I-50J0D01*
G74*
G01*
X70270Y-35120D02*
X70270Y-35520D01*
X70270Y-35520D02*
X69670Y-35520D01*
X69670Y-35520D02*
X69670Y-35120D01*
X69670Y-34720D02*
X69670Y-34320D01*
X69670Y-34320D02*
X70270Y-34320D01*
X70270Y-34320D02*
X70270Y-34720D01*
G54D15*
X63676Y-42998D02*
X63676Y-42098D01*
X65376Y-42098D02*
X65376Y-42998D01*
X63676Y-40798D02*
X63676Y-39898D01*
X65376Y-39898D02*
X65376Y-40798D01*
X63676Y-39898D02*
X65376Y-39898D01*
X65376Y-42998D02*
X63676Y-42998D01*
G54D12*
X70470Y-30920D02*
X69470Y-30920D01*
X69470Y-30920D02*
X69470Y-28920D01*
X69470Y-28920D02*
X70470Y-28920D01*
X70470Y-28920D02*
X70470Y-30920D01*
X72448Y-37528D02*
X72448Y-38528D01*
X72448Y-38528D02*
X70448Y-38528D01*
X70448Y-38528D02*
X70448Y-37528D01*
X70448Y-37528D02*
X72448Y-37528D01*
G54D16*
X58181Y-29481D02*
X58181Y-29559D01*
X58181Y-29559D02*
X58259Y-29559D01*
X58259Y-29481D02*
X58259Y-29559D01*
X58181Y-29481D02*
X58259Y-29481D01*
X57945Y-29697D02*
X57945Y-29834D01*
X57945Y-29834D02*
X58043Y-29834D01*
X58043Y-29697D02*
X58043Y-29834D01*
X57945Y-29697D02*
X58043Y-29697D01*
X57945Y-29834D02*
X57945Y-29874D01*
X57945Y-29874D02*
X58416Y-29874D01*
X58416Y-29834D02*
X58416Y-29874D01*
X57945Y-29834D02*
X58416Y-29834D01*
X58436Y-29834D02*
X58436Y-29874D01*
X58436Y-29874D02*
X58495Y-29874D01*
X58495Y-29834D02*
X58495Y-29874D01*
X58436Y-29834D02*
X58495Y-29834D01*
X57945Y-29166D02*
X57945Y-29206D01*
X57945Y-29206D02*
X58416Y-29206D01*
X58416Y-29166D02*
X58416Y-29206D01*
X57945Y-29166D02*
X58416Y-29166D01*
X58436Y-29166D02*
X58436Y-29206D01*
X58436Y-29206D02*
X58495Y-29206D01*
X58495Y-29166D02*
X58495Y-29206D01*
X58436Y-29166D02*
X58495Y-29166D01*
X57945Y-29697D02*
X57945Y-29756D01*
X57945Y-29756D02*
X58043Y-29756D01*
X58043Y-29697D02*
X58043Y-29756D01*
X57945Y-29697D02*
X58043Y-29697D01*
G54D17*
X57925Y-30130D02*
X57925Y-28910D01*
X57925Y-28910D02*
X58515Y-28910D01*
X58515Y-28910D02*
X58515Y-30130D01*
X58515Y-30130D02*
X57925Y-30130D01*
X58023Y-29304D02*
G75*
G03X58024Y-29736I196J-215D01*
G74*
G01*
X58416Y-29304D02*
G75*
G03X58024Y-29303I-196J-215D01*
G74*
G01*
X58416Y-29735D02*
G75*
G03X58415Y-29303I-196J215D01*
G74*
G01*
X58023Y-29735D02*
G75*
G03X58415Y-29736I196J215D01*
G74*
G01*
G54D16*
X62681Y-29481D02*
X62681Y-29559D01*
X62681Y-29559D02*
X62759Y-29559D01*
X62759Y-29481D02*
X62759Y-29559D01*
X62681Y-29481D02*
X62759Y-29481D01*
X62445Y-29697D02*
X62445Y-29834D01*
X62445Y-29834D02*
X62543Y-29834D01*
X62543Y-29697D02*
X62543Y-29834D01*
X62445Y-29697D02*
X62543Y-29697D01*
X62445Y-29834D02*
X62445Y-29874D01*
X62445Y-29874D02*
X62916Y-29874D01*
X62916Y-29834D02*
X62916Y-29874D01*
X62445Y-29834D02*
X62916Y-29834D01*
X62936Y-29834D02*
X62936Y-29874D01*
X62936Y-29874D02*
X62995Y-29874D01*
X62995Y-29834D02*
X62995Y-29874D01*
X62936Y-29834D02*
X62995Y-29834D01*
X62445Y-29166D02*
X62445Y-29206D01*
X62445Y-29206D02*
X62916Y-29206D01*
X62916Y-29166D02*
X62916Y-29206D01*
X62445Y-29166D02*
X62916Y-29166D01*
X62936Y-29166D02*
X62936Y-29206D01*
X62936Y-29206D02*
X62995Y-29206D01*
X62995Y-29166D02*
X62995Y-29206D01*
X62936Y-29166D02*
X62995Y-29166D01*
X62445Y-29697D02*
X62445Y-29756D01*
X62445Y-29756D02*
X62543Y-29756D01*
X62543Y-29697D02*
X62543Y-29756D01*
X62445Y-29697D02*
X62543Y-29697D01*
G54D17*
X62425Y-30130D02*
X62425Y-28910D01*
X62425Y-28910D02*
X63015Y-28910D01*
X63015Y-28910D02*
X63015Y-30130D01*
X63015Y-30130D02*
X62425Y-30130D01*
X62523Y-29304D02*
G75*
G03X62524Y-29736I196J-215D01*
G74*
G01*
X62916Y-29304D02*
G75*
G03X62524Y-29303I-196J-215D01*
G74*
G01*
X62916Y-29735D02*
G75*
G03X62915Y-29303I-196J215D01*
G74*
G01*
X62523Y-29735D02*
G75*
G03X62915Y-29736I196J215D01*
G74*
G01*
G54D19*
X66346Y-43828D02*
X66426Y-43828D01*
X66946Y-44578D02*
X65146Y-44578D01*
X65146Y-44578D02*
X65146Y-44328D01*
X65786Y-43078D02*
X65786Y-44578D01*
X65656Y-43078D02*
X65656Y-44578D01*
X66946Y-43328D02*
X66946Y-43078D01*
X66946Y-43078D02*
X65146Y-43078D01*
X65146Y-43078D02*
X65146Y-43328D01*
X66946Y-44328D02*
X66946Y-44578D01*
X66096Y-43828D02*
X66346Y-44015D01*
X66346Y-44015D02*
X66346Y-43828D01*
X66346Y-43828D02*
X66346Y-43641D01*
X66346Y-43641D02*
X66096Y-43828D01*
X66096Y-43828D02*
X66096Y-43953D01*
X66096Y-43953D02*
X66158Y-44015D01*
X66096Y-43828D02*
X66096Y-43703D01*
X66096Y-43703D02*
X66034Y-43641D01*
X66096Y-43828D02*
X65659Y-43828D01*
X63920Y-43820D02*
X64000Y-43820D01*
X64520Y-44570D02*
X62720Y-44570D01*
X62720Y-44570D02*
X62720Y-44320D01*
X63360Y-43070D02*
X63360Y-44570D01*
X63230Y-43070D02*
X63230Y-44570D01*
X64520Y-43320D02*
X64520Y-43070D01*
X64520Y-43070D02*
X62720Y-43070D01*
X62720Y-43070D02*
X62720Y-43320D01*
X64520Y-44320D02*
X64520Y-44570D01*
X63670Y-43820D02*
X63920Y-44007D01*
X63920Y-44007D02*
X63920Y-43820D01*
X63920Y-43820D02*
X63920Y-43633D01*
X63920Y-43633D02*
X63670Y-43820D01*
X63670Y-43820D02*
X63670Y-43945D01*
X63670Y-43945D02*
X63732Y-44007D01*
X63670Y-43820D02*
X63670Y-43695D01*
X63670Y-43695D02*
X63608Y-43633D01*
X63670Y-43820D02*
X63233Y-43820D01*
G54D14*
X68788Y-37273D02*
X68197Y-36682D01*
X67410Y-36682D02*
X68197Y-36682D01*
X68788Y-38060D02*
X68788Y-37273D01*
X68788Y-38887D02*
X68197Y-39438D01*
X68788Y-38060D02*
X68788Y-38887D01*
X67410Y-39438D02*
X68197Y-39438D01*
X66032Y-38060D02*
X66032Y-36682D01*
X67410Y-36682D02*
X66071Y-36682D01*
X66032Y-38060D02*
X66032Y-39399D01*
X66032Y-39399D02*
X66032Y-39438D01*
X66032Y-39438D02*
X67410Y-39438D01*
X68670Y-38060D02*
G75*
G03X68670Y-38060I-1260J0D01*
G74*
G01*
G54D19*
X55407Y-33055D02*
X54507Y-33055D01*
X54507Y-33055D02*
X54507Y-33705D01*
X55407Y-34405D02*
X55407Y-35055D01*
X55407Y-35055D02*
X54507Y-35055D01*
X54507Y-35055D02*
X54507Y-34405D01*
X55407Y-33705D02*
X55407Y-33055D01*
X69964Y-40568D02*
X69964Y-39668D01*
X69964Y-39668D02*
X69314Y-39668D01*
X68614Y-40568D02*
X67964Y-40568D01*
X67964Y-40568D02*
X67964Y-39668D01*
X67964Y-39668D02*
X68614Y-39668D01*
X69314Y-40568D02*
X69964Y-40568D01*
G54D15*
X67416Y-41202D02*
X67416Y-41602D01*
X67416Y-41602D02*
X67016Y-42502D01*
X67016Y-42502D02*
X65816Y-42502D01*
X65816Y-42502D02*
X65416Y-41602D01*
X65416Y-41602D02*
X65416Y-40802D01*
X65416Y-40802D02*
X65816Y-39902D01*
X65816Y-39902D02*
X67016Y-39902D01*
X67016Y-39902D02*
X67416Y-40802D01*
X67416Y-40802D02*
X67416Y-41202D01*
X67416Y-41202D02*
G75*
G03X67416Y-41202I-1000J0D01*
G74*
G01*
G54D16*
X49681Y-29481D02*
X49681Y-29559D01*
X49681Y-29559D02*
X49759Y-29559D01*
X49759Y-29481D02*
X49759Y-29559D01*
X49681Y-29481D02*
X49759Y-29481D01*
X49445Y-29697D02*
X49445Y-29834D01*
X49445Y-29834D02*
X49543Y-29834D01*
X49543Y-29697D02*
X49543Y-29834D01*
X49445Y-29697D02*
X49543Y-29697D01*
X49445Y-29834D02*
X49445Y-29874D01*
X49445Y-29874D02*
X49916Y-29874D01*
X49916Y-29834D02*
X49916Y-29874D01*
X49445Y-29834D02*
X49916Y-29834D01*
X49936Y-29834D02*
X49936Y-29874D01*
X49936Y-29874D02*
X49995Y-29874D01*
X49995Y-29834D02*
X49995Y-29874D01*
X49936Y-29834D02*
X49995Y-29834D01*
X49445Y-29166D02*
X49445Y-29206D01*
X49445Y-29206D02*
X49916Y-29206D01*
X49916Y-29166D02*
X49916Y-29206D01*
X49445Y-29166D02*
X49916Y-29166D01*
X49936Y-29166D02*
X49936Y-29206D01*
X49936Y-29206D02*
X49995Y-29206D01*
X49995Y-29166D02*
X49995Y-29206D01*
X49936Y-29166D02*
X49995Y-29166D01*
X49445Y-29697D02*
X49445Y-29756D01*
X49445Y-29756D02*
X49543Y-29756D01*
X49543Y-29697D02*
X49543Y-29756D01*
X49445Y-29697D02*
X49543Y-29697D01*
G54D17*
X49425Y-30130D02*
X49425Y-28910D01*
X49425Y-28910D02*
X50015Y-28910D01*
X50015Y-28910D02*
X50015Y-30130D01*
X50015Y-30130D02*
X49425Y-30130D01*
X49523Y-29304D02*
G75*
G03X49524Y-29736I196J-215D01*
G74*
G01*
X49916Y-29304D02*
G75*
G03X49524Y-29303I-196J-215D01*
G74*
G01*
X49916Y-29735D02*
G75*
G03X49915Y-29303I-196J215D01*
G74*
G01*
X49523Y-29735D02*
G75*
G03X49915Y-29736I196J215D01*
G74*
G01*
G54D16*
X54181Y-29481D02*
X54181Y-29559D01*
X54181Y-29559D02*
X54259Y-29559D01*
X54259Y-29481D02*
X54259Y-29559D01*
X54181Y-29481D02*
X54259Y-29481D01*
X53945Y-29697D02*
X53945Y-29834D01*
X53945Y-29834D02*
X54043Y-29834D01*
X54043Y-29697D02*
X54043Y-29834D01*
X53945Y-29697D02*
X54043Y-29697D01*
X53945Y-29834D02*
X53945Y-29874D01*
X53945Y-29874D02*
X54416Y-29874D01*
X54416Y-29834D02*
X54416Y-29874D01*
X53945Y-29834D02*
X54416Y-29834D01*
X54436Y-29834D02*
X54436Y-29874D01*
X54436Y-29874D02*
X54495Y-29874D01*
X54495Y-29834D02*
X54495Y-29874D01*
X54436Y-29834D02*
X54495Y-29834D01*
X53945Y-29166D02*
X53945Y-29206D01*
X53945Y-29206D02*
X54416Y-29206D01*
X54416Y-29166D02*
X54416Y-29206D01*
X53945Y-29166D02*
X54416Y-29166D01*
X54436Y-29166D02*
X54436Y-29206D01*
X54436Y-29206D02*
X54495Y-29206D01*
X54495Y-29166D02*
X54495Y-29206D01*
X54436Y-29166D02*
X54495Y-29166D01*
X53945Y-29697D02*
X53945Y-29756D01*
X53945Y-29756D02*
X54043Y-29756D01*
X54043Y-29697D02*
X54043Y-29756D01*
X53945Y-29697D02*
X54043Y-29697D01*
G54D17*
X53925Y-30130D02*
X53925Y-28910D01*
X53925Y-28910D02*
X54515Y-28910D01*
X54515Y-28910D02*
X54515Y-30130D01*
X54515Y-30130D02*
X53925Y-30130D01*
X54023Y-29304D02*
G75*
G03X54024Y-29736I196J-215D01*
G74*
G01*
X54416Y-29304D02*
G75*
G03X54024Y-29303I-196J-215D01*
G74*
G01*
X54416Y-29735D02*
G75*
G03X54415Y-29303I-196J215D01*
G74*
G01*
X54023Y-29735D02*
G75*
G03X54415Y-29736I196J215D01*
G74*
G01*
G54D15*
X65380Y-36640D02*
X65380Y-37540D01*
X63680Y-37540D02*
X63680Y-36640D01*
X65380Y-38840D02*
X65380Y-39740D01*
X63680Y-39740D02*
X63680Y-38840D01*
X65380Y-39740D02*
X63680Y-39740D01*
X63680Y-36640D02*
X65380Y-36640D01*
G54D19*
X50920Y-41720D02*
G75*
G03X50920Y-41720I-1000J0D01*
G74*
G01*
X51420Y-43220D02*
X48420Y-43220D01*
X48420Y-43220D02*
X48420Y-40220D01*
X48420Y-40220D02*
X51420Y-40220D01*
X51420Y-43220D02*
X51420Y-40220D01*
X53454Y-40538D02*
G75*
G03X53454Y-40538I-50J0D01*
G74*
G01*
X52954Y-40538D02*
X53354Y-40538D01*
X53354Y-40538D02*
X53354Y-41138D01*
X53354Y-41138D02*
X52954Y-41138D01*
X52554Y-41138D02*
X52154Y-41138D01*
X52154Y-41138D02*
X52154Y-40538D01*
X52154Y-40538D02*
X52554Y-40538D01*
G54D15*
X72451Y-44649D02*
X59451Y-44649D01*
X59451Y-46649D02*
X72451Y-46649D01*
X72451Y-46649D02*
X72451Y-44649D01*
X59451Y-44649D02*
X59451Y-46649D01*
G54D16*
X49681Y-31981D02*
X49681Y-32059D01*
X49681Y-32059D02*
X49759Y-32059D01*
X49759Y-31981D02*
X49759Y-32059D01*
X49681Y-31981D02*
X49759Y-31981D01*
X49445Y-32197D02*
X49445Y-32334D01*
X49445Y-32334D02*
X49543Y-32334D01*
X49543Y-32197D02*
X49543Y-32334D01*
X49445Y-32197D02*
X49543Y-32197D01*
X49445Y-32334D02*
X49445Y-32374D01*
X49445Y-32374D02*
X49916Y-32374D01*
X49916Y-32334D02*
X49916Y-32374D01*
X49445Y-32334D02*
X49916Y-32334D01*
X49936Y-32334D02*
X49936Y-32374D01*
X49936Y-32374D02*
X49995Y-32374D01*
X49995Y-32334D02*
X49995Y-32374D01*
X49936Y-32334D02*
X49995Y-32334D01*
X49445Y-31666D02*
X49445Y-31706D01*
X49445Y-31706D02*
X49916Y-31706D01*
X49916Y-31666D02*
X49916Y-31706D01*
X49445Y-31666D02*
X49916Y-31666D01*
X49936Y-31666D02*
X49936Y-31706D01*
X49936Y-31706D02*
X49995Y-31706D01*
X49995Y-31666D02*
X49995Y-31706D01*
X49936Y-31666D02*
X49995Y-31666D01*
X49445Y-32197D02*
X49445Y-32256D01*
X49445Y-32256D02*
X49543Y-32256D01*
X49543Y-32197D02*
X49543Y-32256D01*
X49445Y-32197D02*
X49543Y-32197D01*
G54D17*
X49425Y-32630D02*
X49425Y-31410D01*
X49425Y-31410D02*
X50015Y-31410D01*
X50015Y-31410D02*
X50015Y-32630D01*
X50015Y-32630D02*
X49425Y-32630D01*
X49523Y-31804D02*
G75*
G03X49524Y-32236I196J-215D01*
G74*
G01*
X49916Y-31804D02*
G75*
G03X49524Y-31803I-196J-215D01*
G74*
G01*
X49916Y-32235D02*
G75*
G03X49915Y-31803I-196J215D01*
G74*
G01*
X49523Y-32235D02*
G75*
G03X49915Y-32236I196J215D01*
G74*
G01*
G54D16*
X54181Y-31981D02*
X54181Y-32059D01*
X54181Y-32059D02*
X54259Y-32059D01*
X54259Y-31981D02*
X54259Y-32059D01*
X54181Y-31981D02*
X54259Y-31981D01*
X53945Y-32197D02*
X53945Y-32334D01*
X53945Y-32334D02*
X54043Y-32334D01*
X54043Y-32197D02*
X54043Y-32334D01*
X53945Y-32197D02*
X54043Y-32197D01*
X53945Y-32334D02*
X53945Y-32374D01*
X53945Y-32374D02*
X54416Y-32374D01*
X54416Y-32334D02*
X54416Y-32374D01*
X53945Y-32334D02*
X54416Y-32334D01*
X54436Y-32334D02*
X54436Y-32374D01*
X54436Y-32374D02*
X54495Y-32374D01*
X54495Y-32334D02*
X54495Y-32374D01*
X54436Y-32334D02*
X54495Y-32334D01*
X53945Y-31666D02*
X53945Y-31706D01*
X53945Y-31706D02*
X54416Y-31706D01*
X54416Y-31666D02*
X54416Y-31706D01*
X53945Y-31666D02*
X54416Y-31666D01*
X54436Y-31666D02*
X54436Y-31706D01*
X54436Y-31706D02*
X54495Y-31706D01*
X54495Y-31666D02*
X54495Y-31706D01*
X54436Y-31666D02*
X54495Y-31666D01*
X53945Y-32197D02*
X53945Y-32256D01*
X53945Y-32256D02*
X54043Y-32256D01*
X54043Y-32197D02*
X54043Y-32256D01*
X53945Y-32197D02*
X54043Y-32197D01*
G54D17*
X53925Y-32630D02*
X53925Y-31410D01*
X53925Y-31410D02*
X54515Y-31410D01*
X54515Y-31410D02*
X54515Y-32630D01*
X54515Y-32630D02*
X53925Y-32630D01*
X54023Y-31804D02*
G75*
G03X54024Y-32236I196J-215D01*
G74*
G01*
X54416Y-31804D02*
G75*
G03X54024Y-31803I-196J-215D01*
G74*
G01*
X54416Y-32235D02*
G75*
G03X54415Y-31803I-196J215D01*
G74*
G01*
X54023Y-32235D02*
G75*
G03X54415Y-32236I196J215D01*
G74*
G01*
G54D16*
X58181Y-31981D02*
X58181Y-32059D01*
X58181Y-32059D02*
X58259Y-32059D01*
X58259Y-31981D02*
X58259Y-32059D01*
X58181Y-31981D02*
X58259Y-31981D01*
X57945Y-32197D02*
X57945Y-32334D01*
X57945Y-32334D02*
X58043Y-32334D01*
X58043Y-32197D02*
X58043Y-32334D01*
X57945Y-32197D02*
X58043Y-32197D01*
X57945Y-32334D02*
X57945Y-32374D01*
X57945Y-32374D02*
X58416Y-32374D01*
X58416Y-32334D02*
X58416Y-32374D01*
X57945Y-32334D02*
X58416Y-32334D01*
X58436Y-32334D02*
X58436Y-32374D01*
X58436Y-32374D02*
X58495Y-32374D01*
X58495Y-32334D02*
X58495Y-32374D01*
X58436Y-32334D02*
X58495Y-32334D01*
X57945Y-31666D02*
X57945Y-31706D01*
X57945Y-31706D02*
X58416Y-31706D01*
X58416Y-31666D02*
X58416Y-31706D01*
X57945Y-31666D02*
X58416Y-31666D01*
X58436Y-31666D02*
X58436Y-31706D01*
X58436Y-31706D02*
X58495Y-31706D01*
X58495Y-31666D02*
X58495Y-31706D01*
X58436Y-31666D02*
X58495Y-31666D01*
X57945Y-32197D02*
X57945Y-32256D01*
X57945Y-32256D02*
X58043Y-32256D01*
X58043Y-32197D02*
X58043Y-32256D01*
X57945Y-32197D02*
X58043Y-32197D01*
G54D17*
X57925Y-32630D02*
X57925Y-31410D01*
X57925Y-31410D02*
X58515Y-31410D01*
X58515Y-31410D02*
X58515Y-32630D01*
X58515Y-32630D02*
X57925Y-32630D01*
X58023Y-31804D02*
G75*
G03X58024Y-32236I196J-215D01*
G74*
G01*
X58416Y-31804D02*
G75*
G03X58024Y-31803I-196J-215D01*
G74*
G01*
X58416Y-32235D02*
G75*
G03X58415Y-31803I-196J215D01*
G74*
G01*
X58023Y-32235D02*
G75*
G03X58415Y-32236I196J215D01*
G74*
G01*
G54D16*
X62681Y-31981D02*
X62681Y-32059D01*
X62681Y-32059D02*
X62759Y-32059D01*
X62759Y-31981D02*
X62759Y-32059D01*
X62681Y-31981D02*
X62759Y-31981D01*
X62445Y-32197D02*
X62445Y-32334D01*
X62445Y-32334D02*
X62543Y-32334D01*
X62543Y-32197D02*
X62543Y-32334D01*
X62445Y-32197D02*
X62543Y-32197D01*
X62445Y-32334D02*
X62445Y-32374D01*
X62445Y-32374D02*
X62916Y-32374D01*
X62916Y-32334D02*
X62916Y-32374D01*
X62445Y-32334D02*
X62916Y-32334D01*
X62936Y-32334D02*
X62936Y-32374D01*
X62936Y-32374D02*
X62995Y-32374D01*
X62995Y-32334D02*
X62995Y-32374D01*
X62936Y-32334D02*
X62995Y-32334D01*
X62445Y-31666D02*
X62445Y-31706D01*
X62445Y-31706D02*
X62916Y-31706D01*
X62916Y-31666D02*
X62916Y-31706D01*
X62445Y-31666D02*
X62916Y-31666D01*
X62936Y-31666D02*
X62936Y-31706D01*
X62936Y-31706D02*
X62995Y-31706D01*
X62995Y-31666D02*
X62995Y-31706D01*
X62936Y-31666D02*
X62995Y-31666D01*
X62445Y-32197D02*
X62445Y-32256D01*
X62445Y-32256D02*
X62543Y-32256D01*
X62543Y-32197D02*
X62543Y-32256D01*
X62445Y-32197D02*
X62543Y-32197D01*
G54D17*
X62425Y-32630D02*
X62425Y-31410D01*
X62425Y-31410D02*
X63015Y-31410D01*
X63015Y-31410D02*
X63015Y-32630D01*
X63015Y-32630D02*
X62425Y-32630D01*
X62523Y-31804D02*
G75*
G03X62524Y-32236I196J-215D01*
G74*
G01*
X62916Y-31804D02*
G75*
G03X62524Y-31803I-196J-215D01*
G74*
G01*
X62916Y-32235D02*
G75*
G03X62915Y-31803I-196J215D01*
G74*
G01*
X62523Y-32235D02*
G75*
G03X62915Y-32236I196J215D01*
G74*
G01*
G54D14*
X72192Y-29672D02*
X71346Y-29672D01*
X71346Y-29672D02*
X70598Y-29672D01*
X70598Y-29672D02*
X70598Y-30755D01*
X70598Y-30755D02*
X70598Y-33216D01*
X70598Y-33216D02*
X72763Y-33216D01*
X72763Y-33216D02*
X72763Y-31405D01*
X72192Y-29672D02*
X72763Y-29672D01*
X72763Y-29672D02*
X72763Y-29731D01*
X72763Y-31444D02*
X72763Y-29731D01*
G54D12*
X68470Y-28920D02*
X69470Y-28920D01*
X69470Y-28920D02*
X69470Y-30920D01*
X69470Y-30920D02*
X68470Y-30920D01*
X68470Y-30920D02*
X68470Y-28920D01*
G54D14*
X56792Y-42714D02*
G75*
G03X56792Y-42714I-2009J0D01*
G74*
G01*
X56033Y-42714D02*
G75*
G03X56033Y-42714I-1250J0D01*
G74*
G01*
X48488Y-46692D02*
X47700Y-46692D01*
X47700Y-46692D02*
X47700Y-47775D01*
X48881Y-48464D02*
X47700Y-48464D01*
X47700Y-48464D02*
X47700Y-47775D01*
X51637Y-48464D02*
X50456Y-48464D01*
X48488Y-46692D02*
X49275Y-46692D01*
X51637Y-47775D02*
X51637Y-48464D01*
X51637Y-46692D02*
X50850Y-46692D01*
X50850Y-46692D02*
X50063Y-46692D01*
X50063Y-46692D02*
X49275Y-46692D01*
X51637Y-46692D02*
X51637Y-47775D01*
X48488Y-48467D02*
X47700Y-48467D01*
X47700Y-48467D02*
X47700Y-49550D01*
X48881Y-50239D02*
X47700Y-50239D01*
X47700Y-50239D02*
X47700Y-49550D01*
X51637Y-50239D02*
X50456Y-50239D01*
X48488Y-48467D02*
X49275Y-48467D01*
X51637Y-49550D02*
X51637Y-50239D01*
X51637Y-48467D02*
X50850Y-48467D01*
X50850Y-48467D02*
X50063Y-48467D01*
X50063Y-48467D02*
X49275Y-48467D01*
X51637Y-48467D02*
X51637Y-49550D01*
X62209Y-30648D02*
X62209Y-31703D01*
X62209Y-29329D02*
X62209Y-30384D01*
X61520Y-31695D02*
X62209Y-31695D01*
X61520Y-29333D02*
X62209Y-29333D01*
X60437Y-29333D02*
X60437Y-30120D01*
X60437Y-30120D02*
X60437Y-30907D01*
X60437Y-30907D02*
X60437Y-31695D01*
X60437Y-31695D02*
X61520Y-31695D01*
X60437Y-29333D02*
X61520Y-29333D01*
G54D19*
X68331Y-47526D02*
G75*
G03X68331Y-47526I-50J0D01*
G74*
G01*
X68731Y-47526D02*
X68331Y-47526D01*
X68331Y-47526D02*
X68331Y-46926D01*
X68331Y-46926D02*
X68731Y-46926D01*
X69131Y-46926D02*
X69531Y-46926D01*
X69531Y-46926D02*
X69531Y-47526D01*
X69531Y-47526D02*
X69131Y-47526D01*
X40070Y-46470D02*
G75*
G03X40070Y-46470I-50J0D01*
G74*
G01*
X40020Y-46920D02*
X40020Y-46520D01*
X40020Y-46520D02*
X40620Y-46520D01*
X40620Y-46520D02*
X40620Y-46920D01*
X40620Y-47320D02*
X40620Y-47720D01*
X40620Y-47720D02*
X40020Y-47720D01*
X40020Y-47720D02*
X40020Y-47320D01*
G54D12*
X70447Y-44650D02*
X70447Y-43650D01*
X70447Y-43650D02*
X72447Y-43650D01*
X72447Y-43650D02*
X72447Y-44650D01*
X72447Y-44650D02*
X70447Y-44650D01*
G54D14*
X51959Y-30648D02*
X51959Y-31703D01*
X51959Y-29329D02*
X51959Y-30384D01*
X51270Y-31695D02*
X51959Y-31695D01*
X51270Y-29333D02*
X51959Y-29333D01*
X50187Y-29333D02*
X50187Y-30120D01*
X50187Y-30120D02*
X50187Y-30907D01*
X50187Y-30907D02*
X50187Y-31695D01*
X50187Y-31695D02*
X51270Y-31695D01*
X50187Y-29333D02*
X51270Y-29333D01*
X53709Y-30648D02*
X53709Y-31703D01*
X53709Y-29329D02*
X53709Y-30384D01*
X53020Y-31695D02*
X53709Y-31695D01*
X53020Y-29333D02*
X53709Y-29333D01*
X51937Y-29333D02*
X51937Y-30120D01*
X51937Y-30120D02*
X51937Y-30907D01*
X51937Y-30907D02*
X51937Y-31695D01*
X51937Y-31695D02*
X53020Y-31695D01*
X51937Y-29333D02*
X53020Y-29333D01*
X60459Y-30648D02*
X60459Y-31703D01*
X60459Y-29329D02*
X60459Y-30384D01*
X59770Y-31695D02*
X60459Y-31695D01*
X59770Y-29333D02*
X60459Y-29333D01*
X58687Y-29333D02*
X58687Y-30120D01*
X58687Y-30120D02*
X58687Y-30907D01*
X58687Y-30907D02*
X58687Y-31695D01*
X58687Y-31695D02*
X59770Y-31695D01*
X58687Y-29333D02*
X59770Y-29333D01*
X44388Y-43142D02*
X43600Y-43142D01*
X43600Y-43142D02*
X43600Y-44225D01*
X44781Y-44914D02*
X43600Y-44914D01*
X43600Y-44914D02*
X43600Y-44225D01*
X47537Y-44914D02*
X46356Y-44914D01*
X44388Y-43142D02*
X45175Y-43142D01*
X47537Y-44225D02*
X47537Y-44914D01*
X47537Y-43142D02*
X46750Y-43142D01*
X46750Y-43142D02*
X45963Y-43142D01*
X45963Y-43142D02*
X45175Y-43142D01*
X47537Y-43142D02*
X47537Y-44225D01*
X44388Y-44917D02*
X43600Y-44917D01*
X43600Y-44917D02*
X43600Y-46000D01*
X44781Y-46689D02*
X43600Y-46689D01*
X43600Y-46689D02*
X43600Y-46000D01*
X47537Y-46689D02*
X46356Y-46689D01*
X44388Y-44917D02*
X45175Y-44917D01*
X47537Y-46000D02*
X47537Y-46689D01*
X47537Y-44917D02*
X46750Y-44917D01*
X46750Y-44917D02*
X45963Y-44917D01*
X45963Y-44917D02*
X45175Y-44917D01*
X47537Y-44917D02*
X47537Y-46000D01*
X44388Y-46692D02*
X43600Y-46692D01*
X43600Y-46692D02*
X43600Y-47775D01*
X44781Y-48464D02*
X43600Y-48464D01*
X43600Y-48464D02*
X43600Y-47775D01*
X47537Y-48464D02*
X46356Y-48464D01*
X44388Y-46692D02*
X45175Y-46692D01*
X47537Y-47775D02*
X47537Y-48464D01*
X47537Y-46692D02*
X46750Y-46692D01*
X46750Y-46692D02*
X45963Y-46692D01*
X45963Y-46692D02*
X45175Y-46692D01*
X47537Y-46692D02*
X47537Y-47775D01*
X44388Y-48467D02*
X43600Y-48467D01*
X43600Y-48467D02*
X43600Y-49550D01*
X44781Y-50239D02*
X43600Y-50239D01*
X43600Y-50239D02*
X43600Y-49550D01*
X47537Y-50239D02*
X46356Y-50239D01*
X44388Y-48467D02*
X45175Y-48467D01*
X47537Y-49550D02*
X47537Y-50239D01*
X47537Y-48467D02*
X46750Y-48467D01*
X46750Y-48467D02*
X45963Y-48467D01*
X45963Y-48467D02*
X45175Y-48467D01*
X47537Y-48467D02*
X47537Y-49550D01*
X48488Y-43142D02*
X47700Y-43142D01*
X47700Y-43142D02*
X47700Y-44225D01*
X48881Y-44914D02*
X47700Y-44914D01*
X47700Y-44914D02*
X47700Y-44225D01*
X51637Y-44914D02*
X50456Y-44914D01*
X48488Y-43142D02*
X49275Y-43142D01*
X51637Y-44225D02*
X51637Y-44914D01*
X51637Y-43142D02*
X50850Y-43142D01*
X50850Y-43142D02*
X50063Y-43142D01*
X50063Y-43142D02*
X49275Y-43142D01*
X51637Y-43142D02*
X51637Y-44225D01*
X48488Y-44917D02*
X47700Y-44917D01*
X47700Y-44917D02*
X47700Y-46000D01*
X48881Y-46689D02*
X47700Y-46689D01*
X47700Y-46689D02*
X47700Y-46000D01*
X51637Y-46689D02*
X50456Y-46689D01*
X48488Y-44917D02*
X49275Y-44917D01*
X51637Y-46000D02*
X51637Y-46689D01*
X51637Y-44917D02*
X50850Y-44917D01*
X50850Y-44917D02*
X50063Y-44917D01*
X50063Y-44917D02*
X49275Y-44917D01*
X51637Y-44917D02*
X51637Y-46000D01*
G54D12*
X71452Y-33406D02*
X71452Y-33406D01*
X70452Y-33406D02*
X71452Y-33406D01*
X71452Y-33406D02*
X71452Y-33406D01*
X71452Y-33406D02*
X71452Y-37406D01*
X71452Y-37406D02*
X70452Y-37406D01*
X70452Y-37406D02*
X70452Y-33406D01*
X70452Y-34406D02*
X71452Y-34406D01*
X65320Y-29920D02*
X65320Y-28920D01*
X65320Y-28920D02*
X68320Y-28920D01*
X68320Y-28920D02*
X68320Y-29920D01*
X68320Y-29920D02*
X65320Y-29920D01*
X66320Y-28920D02*
X66320Y-29920D01*
X70470Y-29520D02*
X70470Y-28520D01*
X70470Y-28520D02*
X72470Y-28520D01*
X72470Y-28520D02*
X72470Y-29520D01*
X72470Y-29520D02*
X70470Y-29520D01*
X72450Y-43650D02*
X71450Y-43650D01*
X71450Y-43650D02*
X71450Y-38650D01*
X71450Y-38650D02*
X72450Y-38650D01*
X72450Y-38650D02*
X72450Y-43650D01*
X72450Y-42650D02*
X71450Y-42650D01*
G54D15*
X59476Y-47502D02*
X59476Y-47102D01*
X59628Y-47102D01*
X59666Y-47121D01*
X59685Y-47141D01*
X59704Y-47179D01*
X59704Y-47236D01*
X59685Y-47274D01*
X59666Y-47293D01*
X59628Y-47312D01*
X59476Y-47312D01*
X60085Y-47502D02*
X59857Y-47502D01*
X59971Y-47502D02*
X59971Y-47102D01*
X59933Y-47160D01*
X59895Y-47198D01*
X59857Y-47217D01*
X60466Y-47502D02*
X60238Y-47502D01*
X60352Y-47502D02*
X60352Y-47102D01*
X60314Y-47160D01*
X60276Y-47198D01*
X60238Y-47217D01*
G54D11*
X64418Y-31561D02*
X64418Y-31161D01*
X64532Y-31161D01*
X64561Y-31180D01*
X64575Y-31200D01*
X64590Y-31238D01*
X64590Y-31295D01*
X64575Y-31333D01*
X64561Y-31352D01*
X64532Y-31371D01*
X64418Y-31371D01*
X64704Y-31200D02*
X64718Y-31180D01*
X64747Y-31161D01*
X64818Y-31161D01*
X64847Y-31180D01*
X64861Y-31200D01*
X64875Y-31238D01*
X64875Y-31276D01*
X64861Y-31333D01*
X64690Y-31561D01*
X64875Y-31561D01*
G54D21*
X40098Y-50041D02*
X40098Y-49741D01*
X40170Y-49741D01*
X40212Y-49755D01*
X40241Y-49784D01*
X40255Y-49812D01*
X40270Y-49870D01*
X40270Y-49912D01*
X40255Y-49970D01*
X40241Y-49998D01*
X40212Y-50027D01*
X40170Y-50041D01*
X40098Y-50041D01*
X40555Y-50041D02*
X40384Y-50041D01*
X40470Y-50041D02*
X40470Y-49741D01*
X40441Y-49784D01*
X40412Y-49812D01*
X40384Y-49827D01*
G54D18*
X57839Y-46852D02*
X58172Y-47302D01*
X58172Y-46852D02*
X57839Y-47302D01*
X58624Y-47302D02*
X58339Y-47302D01*
X58482Y-47302D02*
X58482Y-46852D01*
X58434Y-46916D01*
X58386Y-46959D01*
X58339Y-46980D01*
G54D15*
X66013Y-35301D02*
X66070Y-35320D01*
X66166Y-35320D01*
X66204Y-35301D01*
X66223Y-35282D01*
X66242Y-35244D01*
X66242Y-35206D01*
X66223Y-35168D01*
X66204Y-35149D01*
X66166Y-35130D01*
X66089Y-35111D01*
X66051Y-35092D01*
X66032Y-35073D01*
X66013Y-35035D01*
X66013Y-34997D01*
X66032Y-34959D01*
X66051Y-34939D01*
X66089Y-34920D01*
X66185Y-34920D01*
X66242Y-34939D01*
X66375Y-34920D02*
X66470Y-35320D01*
X66547Y-35035D01*
X66623Y-35320D01*
X66718Y-34920D01*
X67080Y-35320D02*
X66851Y-35320D01*
X66966Y-35320D02*
X66966Y-34920D01*
X66927Y-34978D01*
X66889Y-35016D01*
X66851Y-35035D01*
G54D11*
X69647Y-33579D02*
X69661Y-33537D01*
X69661Y-33465D01*
X69647Y-33437D01*
X69632Y-33422D01*
X69604Y-33408D01*
X69575Y-33408D01*
X69547Y-33422D01*
X69532Y-33437D01*
X69518Y-33465D01*
X69504Y-33522D01*
X69490Y-33551D01*
X69475Y-33565D01*
X69447Y-33579D01*
X69418Y-33579D01*
X69390Y-33565D01*
X69375Y-33551D01*
X69361Y-33522D01*
X69361Y-33451D01*
X69375Y-33408D01*
X69361Y-33308D02*
X69661Y-33237D01*
X69447Y-33179D01*
X69661Y-33122D01*
X69361Y-33051D01*
X69390Y-32951D02*
X69375Y-32937D01*
X69361Y-32908D01*
X69361Y-32837D01*
X69375Y-32808D01*
X69390Y-32794D01*
X69418Y-32780D01*
X69447Y-32780D01*
X69490Y-32794D01*
X69661Y-32965D01*
X69661Y-32780D01*
X58789Y-43331D02*
X58774Y-43346D01*
X58732Y-43360D01*
X58703Y-43360D01*
X58660Y-43346D01*
X58632Y-43317D01*
X58617Y-43289D01*
X58603Y-43231D01*
X58603Y-43189D01*
X58617Y-43131D01*
X58632Y-43103D01*
X58660Y-43074D01*
X58703Y-43060D01*
X58732Y-43060D01*
X58774Y-43074D01*
X58789Y-43089D01*
X59074Y-43360D02*
X58903Y-43360D01*
X58989Y-43360D02*
X58989Y-43060D01*
X58960Y-43103D01*
X58932Y-43131D01*
X58903Y-43146D01*
X59260Y-43060D02*
X59289Y-43060D01*
X59317Y-43074D01*
X59332Y-43089D01*
X59346Y-43117D01*
X59360Y-43174D01*
X59360Y-43246D01*
X59346Y-43303D01*
X59332Y-43331D01*
X59317Y-43346D01*
X59289Y-43360D01*
X59260Y-43360D01*
X59232Y-43346D01*
X59217Y-43331D01*
X59203Y-43303D01*
X59189Y-43246D01*
X59189Y-43174D01*
X59203Y-43117D01*
X59217Y-43089D01*
X59232Y-43074D01*
X59260Y-43060D01*
G54D21*
X41098Y-50041D02*
X41098Y-49741D01*
X41170Y-49741D01*
X41212Y-49755D01*
X41241Y-49784D01*
X41255Y-49812D01*
X41270Y-49870D01*
X41270Y-49912D01*
X41255Y-49970D01*
X41241Y-49998D01*
X41212Y-50027D01*
X41170Y-50041D01*
X41098Y-50041D01*
X41384Y-49770D02*
X41398Y-49755D01*
X41427Y-49741D01*
X41498Y-49741D01*
X41527Y-49755D01*
X41541Y-49770D01*
X41555Y-49798D01*
X41555Y-49827D01*
X41541Y-49870D01*
X41370Y-50041D01*
X41555Y-50041D01*
X42098Y-50041D02*
X42098Y-49741D01*
X42170Y-49741D01*
X42212Y-49755D01*
X42241Y-49784D01*
X42255Y-49812D01*
X42270Y-49870D01*
X42270Y-49912D01*
X42255Y-49970D01*
X42241Y-49998D01*
X42212Y-50027D01*
X42170Y-50041D01*
X42098Y-50041D01*
X42370Y-49741D02*
X42555Y-49741D01*
X42455Y-49855D01*
X42498Y-49855D01*
X42527Y-49870D01*
X42541Y-49884D01*
X42555Y-49912D01*
X42555Y-49984D01*
X42541Y-50012D01*
X42527Y-50027D01*
X42498Y-50041D01*
X42412Y-50041D01*
X42384Y-50027D01*
X42370Y-50012D01*
G54D15*
X58165Y-37562D02*
X58165Y-38048D01*
X58184Y-38105D01*
X58203Y-38134D01*
X58241Y-38162D01*
X58317Y-38162D01*
X58355Y-38134D01*
X58374Y-38105D01*
X58393Y-38048D01*
X58393Y-37562D01*
X58793Y-38162D02*
X58565Y-38162D01*
X58679Y-38162D02*
X58679Y-37562D01*
X58641Y-37648D01*
X58603Y-37705D01*
X58565Y-37734D01*
G54D11*
X57463Y-39090D02*
X57463Y-38790D01*
X57577Y-38790D01*
X57605Y-38804D01*
X57620Y-38819D01*
X57634Y-38847D01*
X57634Y-38890D01*
X57620Y-38919D01*
X57605Y-38933D01*
X57577Y-38947D01*
X57463Y-38947D01*
X57763Y-39090D02*
X57763Y-38790D01*
X58077Y-39061D02*
X58063Y-39076D01*
X58020Y-39090D01*
X57991Y-39090D01*
X57948Y-39076D01*
X57920Y-39047D01*
X57905Y-39019D01*
X57891Y-38961D01*
X57891Y-38919D01*
X57905Y-38861D01*
X57920Y-38833D01*
X57948Y-38804D01*
X57991Y-38790D01*
X58020Y-38790D01*
X58063Y-38804D01*
X58077Y-38819D01*
X58363Y-39090D02*
X58191Y-39090D01*
X58277Y-39090D02*
X58277Y-38790D01*
X58248Y-38833D01*
X58220Y-38861D01*
X58191Y-38876D01*
X58534Y-38919D02*
X58505Y-38904D01*
X58491Y-38890D01*
X58477Y-38861D01*
X58477Y-38847D01*
X58491Y-38819D01*
X58505Y-38804D01*
X58534Y-38790D01*
X58591Y-38790D01*
X58620Y-38804D01*
X58634Y-38819D01*
X58648Y-38847D01*
X58648Y-38861D01*
X58634Y-38890D01*
X58620Y-38904D01*
X58591Y-38919D01*
X58534Y-38919D01*
X58505Y-38933D01*
X58491Y-38947D01*
X58477Y-38976D01*
X58477Y-39033D01*
X58491Y-39061D01*
X58505Y-39076D01*
X58534Y-39090D01*
X58591Y-39090D01*
X58620Y-39076D01*
X58634Y-39061D01*
X58648Y-39033D01*
X58648Y-38976D01*
X58634Y-38947D01*
X58620Y-38933D01*
X58591Y-38919D01*
X58877Y-38933D02*
X58777Y-38933D01*
X58777Y-39090D02*
X58777Y-38790D01*
X58920Y-38790D01*
X59163Y-38790D02*
X59105Y-38790D01*
X59077Y-38804D01*
X59063Y-38819D01*
X59034Y-38861D01*
X59020Y-38919D01*
X59020Y-39033D01*
X59034Y-39061D01*
X59048Y-39076D01*
X59077Y-39090D01*
X59134Y-39090D01*
X59163Y-39076D01*
X59177Y-39061D01*
X59191Y-39033D01*
X59191Y-38961D01*
X59177Y-38933D01*
X59163Y-38919D01*
X59134Y-38904D01*
X59077Y-38904D01*
X59048Y-38919D01*
X59034Y-38933D01*
X59020Y-38961D01*
X59448Y-38790D02*
X59391Y-38790D01*
X59363Y-38804D01*
X59348Y-38819D01*
X59320Y-38861D01*
X59305Y-38919D01*
X59305Y-39033D01*
X59320Y-39061D01*
X59334Y-39076D01*
X59363Y-39090D01*
X59420Y-39090D01*
X59448Y-39076D01*
X59463Y-39061D01*
X59477Y-39033D01*
X59477Y-38961D01*
X59463Y-38933D01*
X59448Y-38919D01*
X59420Y-38904D01*
X59363Y-38904D01*
X59334Y-38919D01*
X59320Y-38933D01*
X59305Y-38961D01*
X59691Y-38790D02*
X59691Y-39004D01*
X59677Y-39047D01*
X59648Y-39076D01*
X59605Y-39090D01*
X59577Y-39090D01*
X59977Y-38790D02*
X59834Y-38790D01*
X59820Y-38933D01*
X59834Y-38919D01*
X59863Y-38904D01*
X59934Y-38904D01*
X59963Y-38919D01*
X59977Y-38933D01*
X59991Y-38961D01*
X59991Y-39033D01*
X59977Y-39061D01*
X59963Y-39076D01*
X59934Y-39090D01*
X59863Y-39090D01*
X59834Y-39076D01*
X59820Y-39061D01*
X60177Y-38790D02*
X60205Y-38790D01*
X60234Y-38804D01*
X60248Y-38819D01*
X60263Y-38847D01*
X60277Y-38904D01*
X60277Y-38976D01*
X60263Y-39033D01*
X60248Y-39061D01*
X60234Y-39076D01*
X60205Y-39090D01*
X60177Y-39090D01*
X60148Y-39076D01*
X60134Y-39061D01*
X60120Y-39033D01*
X60105Y-38976D01*
X60105Y-38904D01*
X60120Y-38847D01*
X60134Y-38819D01*
X60148Y-38804D01*
X60177Y-38790D01*
X43741Y-36032D02*
X43784Y-36051D01*
X43855Y-36051D01*
X43884Y-36032D01*
X43898Y-36013D01*
X43912Y-35975D01*
X43912Y-35937D01*
X43898Y-35899D01*
X43884Y-35880D01*
X43855Y-35861D01*
X43798Y-35842D01*
X43770Y-35823D01*
X43755Y-35804D01*
X43741Y-35766D01*
X43741Y-35728D01*
X43755Y-35690D01*
X43770Y-35670D01*
X43798Y-35651D01*
X43870Y-35651D01*
X43912Y-35670D01*
X44027Y-35690D02*
X44041Y-35670D01*
X44070Y-35651D01*
X44141Y-35651D01*
X44170Y-35670D01*
X44184Y-35690D01*
X44198Y-35728D01*
X44198Y-35766D01*
X44184Y-35823D01*
X44012Y-36051D01*
X44198Y-36051D01*
G54D12*
X48760Y-38032D02*
X49160Y-38032D01*
X48903Y-38632D01*
X49360Y-38604D02*
X49446Y-38632D01*
X49589Y-38632D01*
X49646Y-38604D01*
X49674Y-38575D01*
X49703Y-38518D01*
X49703Y-38461D01*
X49674Y-38404D01*
X49646Y-38375D01*
X49589Y-38347D01*
X49474Y-38318D01*
X49417Y-38290D01*
X49389Y-38261D01*
X49360Y-38204D01*
X49360Y-38147D01*
X49389Y-38090D01*
X49417Y-38061D01*
X49474Y-38032D01*
X49617Y-38032D01*
X49703Y-38061D01*
X49960Y-38318D02*
X50160Y-38318D01*
X50246Y-38632D02*
X49960Y-38632D01*
X49960Y-38032D01*
X50246Y-38032D01*
X50817Y-38061D02*
X50760Y-38032D01*
X50674Y-38032D01*
X50589Y-38061D01*
X50532Y-38118D01*
X50503Y-38175D01*
X50474Y-38290D01*
X50474Y-38375D01*
X50503Y-38490D01*
X50532Y-38547D01*
X50589Y-38604D01*
X50674Y-38632D01*
X50732Y-38632D01*
X50817Y-38604D01*
X50846Y-38575D01*
X50846Y-38375D01*
X50732Y-38375D01*
X51103Y-38632D02*
X51103Y-38032D01*
X51303Y-38461D01*
X51503Y-38032D01*
X51503Y-38632D01*
X51789Y-38318D02*
X51989Y-38318D01*
X52074Y-38632D02*
X51789Y-38632D01*
X51789Y-38032D01*
X52074Y-38032D01*
X52332Y-38632D02*
X52332Y-38032D01*
X52674Y-38632D01*
X52674Y-38032D01*
X52874Y-38032D02*
X53217Y-38032D01*
X53046Y-38632D02*
X53046Y-38032D01*
X53389Y-38604D02*
X53474Y-38632D01*
X53617Y-38632D01*
X53674Y-38604D01*
X53703Y-38575D01*
X53732Y-38518D01*
X53732Y-38461D01*
X53703Y-38404D01*
X53674Y-38375D01*
X53617Y-38347D01*
X53503Y-38318D01*
X53446Y-38290D01*
X53417Y-38261D01*
X53389Y-38204D01*
X53389Y-38147D01*
X53417Y-38090D01*
X53446Y-38061D01*
X53503Y-38032D01*
X53646Y-38032D01*
X53732Y-38061D01*
X53932Y-38032D02*
X54332Y-38632D01*
X54332Y-38032D02*
X53932Y-38632D01*
X54817Y-38232D02*
X54817Y-38632D01*
X54674Y-38004D02*
X54532Y-38432D01*
X54903Y-38432D01*
G54D15*
X68394Y-43141D02*
X68394Y-42741D01*
X68622Y-43141D02*
X68451Y-42913D01*
X68622Y-42741D02*
X68394Y-42970D01*
X69003Y-43141D02*
X68775Y-43141D01*
X68889Y-43141D02*
X68889Y-42741D01*
X68851Y-42799D01*
X68813Y-42837D01*
X68775Y-42856D01*
X69137Y-42741D02*
X69384Y-42741D01*
X69251Y-42894D01*
X69308Y-42894D01*
X69346Y-42913D01*
X69365Y-42932D01*
X69384Y-42970D01*
X69384Y-43065D01*
X69365Y-43103D01*
X69346Y-43122D01*
X69308Y-43141D01*
X69194Y-43141D01*
X69156Y-43122D01*
X69137Y-43103D01*
X68003Y-42541D02*
X67870Y-42351D01*
X67775Y-42541D02*
X67775Y-42141D01*
X67927Y-42141D01*
X67965Y-42160D01*
X67984Y-42180D01*
X68003Y-42218D01*
X68003Y-42275D01*
X67984Y-42313D01*
X67965Y-42332D01*
X67927Y-42351D01*
X67775Y-42351D01*
X68327Y-42522D02*
X68289Y-42541D01*
X68213Y-42541D01*
X68175Y-42522D01*
X68156Y-42484D01*
X68156Y-42332D01*
X68175Y-42294D01*
X68213Y-42275D01*
X68289Y-42275D01*
X68327Y-42294D01*
X68346Y-42332D01*
X68346Y-42370D01*
X68156Y-42408D01*
X68689Y-42275D02*
X68689Y-42599D01*
X68670Y-42637D01*
X68651Y-42656D01*
X68613Y-42675D01*
X68556Y-42675D01*
X68518Y-42656D01*
X68689Y-42522D02*
X68651Y-42541D01*
X68575Y-42541D01*
X68537Y-42522D01*
X68518Y-42503D01*
X68499Y-42465D01*
X68499Y-42351D01*
X68518Y-42313D01*
X68537Y-42294D01*
X68575Y-42275D01*
X68651Y-42275D01*
X68689Y-42294D01*
X68841Y-42141D02*
X69089Y-42141D01*
X68956Y-42294D01*
X69013Y-42294D01*
X69051Y-42313D01*
X69070Y-42332D01*
X69089Y-42370D01*
X69089Y-42465D01*
X69070Y-42503D01*
X69051Y-42522D01*
X69013Y-42541D01*
X68899Y-42541D01*
X68860Y-42522D01*
X68841Y-42503D01*
X69260Y-42503D02*
X69280Y-42522D01*
X69260Y-42541D01*
X69241Y-42522D01*
X69260Y-42503D01*
X69260Y-42541D01*
X69413Y-42141D02*
X69660Y-42141D01*
X69527Y-42294D01*
X69584Y-42294D01*
X69622Y-42313D01*
X69641Y-42332D01*
X69660Y-42370D01*
X69660Y-42465D01*
X69641Y-42503D01*
X69622Y-42522D01*
X69584Y-42541D01*
X69470Y-42541D01*
X69432Y-42522D01*
X69413Y-42503D01*
X69775Y-42141D02*
X69908Y-42541D01*
X70041Y-42141D01*
G54D13*
X50555Y-35411D02*
X50555Y-35735D01*
X50574Y-35773D01*
X50593Y-35792D01*
X50631Y-35811D01*
X50707Y-35811D01*
X50745Y-35792D01*
X50764Y-35773D01*
X50783Y-35735D01*
X50783Y-35411D01*
X50955Y-35450D02*
X50974Y-35430D01*
X51012Y-35411D01*
X51107Y-35411D01*
X51145Y-35430D01*
X51164Y-35450D01*
X51183Y-35488D01*
X51183Y-35526D01*
X51164Y-35583D01*
X50936Y-35811D01*
X51183Y-35811D01*
G54D11*
X50701Y-35009D02*
X50701Y-35152D01*
X50401Y-35152D01*
X50544Y-34809D02*
X50558Y-34767D01*
X50572Y-34752D01*
X50601Y-34738D01*
X50644Y-34738D01*
X50672Y-34752D01*
X50687Y-34767D01*
X50701Y-34795D01*
X50701Y-34909D01*
X50401Y-34909D01*
X50401Y-34809D01*
X50415Y-34781D01*
X50430Y-34767D01*
X50458Y-34752D01*
X50487Y-34752D01*
X50515Y-34767D01*
X50530Y-34781D01*
X50544Y-34809D01*
X50544Y-34909D01*
X50701Y-34452D02*
X50701Y-34624D01*
X50701Y-34538D02*
X50401Y-34538D01*
X50444Y-34567D01*
X50472Y-34595D01*
X50487Y-34624D01*
X50530Y-34281D02*
X50515Y-34310D01*
X50501Y-34324D01*
X50472Y-34338D01*
X50458Y-34338D01*
X50430Y-34324D01*
X50415Y-34310D01*
X50401Y-34281D01*
X50401Y-34224D01*
X50415Y-34195D01*
X50430Y-34181D01*
X50458Y-34167D01*
X50472Y-34167D01*
X50501Y-34181D01*
X50515Y-34195D01*
X50530Y-34224D01*
X50530Y-34281D01*
X50544Y-34310D01*
X50558Y-34324D01*
X50587Y-34338D01*
X50644Y-34338D01*
X50672Y-34324D01*
X50687Y-34310D01*
X50701Y-34281D01*
X50701Y-34224D01*
X50687Y-34195D01*
X50672Y-34181D01*
X50644Y-34167D01*
X50587Y-34167D01*
X50558Y-34181D01*
X50544Y-34195D01*
X50530Y-34224D01*
X50401Y-34067D02*
X50401Y-33881D01*
X50515Y-33981D01*
X50515Y-33938D01*
X50530Y-33910D01*
X50544Y-33895D01*
X50572Y-33881D01*
X50644Y-33881D01*
X50672Y-33895D01*
X50687Y-33910D01*
X50701Y-33938D01*
X50701Y-34024D01*
X50687Y-34052D01*
X50672Y-34067D01*
X50401Y-33624D02*
X50401Y-33681D01*
X50415Y-33710D01*
X50430Y-33724D01*
X50472Y-33752D01*
X50530Y-33767D01*
X50644Y-33767D01*
X50672Y-33752D01*
X50687Y-33738D01*
X50701Y-33710D01*
X50701Y-33652D01*
X50687Y-33624D01*
X50672Y-33610D01*
X50644Y-33595D01*
X50572Y-33595D01*
X50544Y-33610D01*
X50530Y-33624D01*
X50515Y-33652D01*
X50515Y-33710D01*
X50530Y-33738D01*
X50544Y-33752D01*
X50572Y-33767D01*
X50701Y-33467D02*
X50401Y-33467D01*
X50615Y-33367D01*
X50401Y-33267D01*
X50701Y-33267D01*
G54D13*
X59705Y-33721D02*
X59705Y-34045D01*
X59724Y-34083D01*
X59743Y-34102D01*
X59781Y-34121D01*
X59857Y-34121D01*
X59895Y-34102D01*
X59914Y-34083D01*
X59933Y-34045D01*
X59933Y-33721D01*
X60086Y-33721D02*
X60333Y-33721D01*
X60200Y-33874D01*
X60257Y-33874D01*
X60295Y-33893D01*
X60314Y-33912D01*
X60333Y-33950D01*
X60333Y-34045D01*
X60314Y-34083D01*
X60295Y-34102D01*
X60257Y-34121D01*
X60143Y-34121D01*
X60105Y-34102D01*
X60086Y-34083D01*
G54D11*
X60916Y-35569D02*
X60916Y-35712D01*
X60616Y-35712D01*
X60759Y-35369D02*
X60773Y-35327D01*
X60787Y-35312D01*
X60816Y-35298D01*
X60859Y-35298D01*
X60887Y-35312D01*
X60902Y-35327D01*
X60916Y-35355D01*
X60916Y-35469D01*
X60616Y-35469D01*
X60616Y-35369D01*
X60630Y-35341D01*
X60645Y-35327D01*
X60673Y-35312D01*
X60702Y-35312D01*
X60730Y-35327D01*
X60745Y-35341D01*
X60759Y-35369D01*
X60759Y-35469D01*
X60916Y-35012D02*
X60916Y-35184D01*
X60916Y-35098D02*
X60616Y-35098D01*
X60659Y-35127D01*
X60687Y-35155D01*
X60702Y-35184D01*
X60745Y-34841D02*
X60730Y-34870D01*
X60716Y-34884D01*
X60687Y-34898D01*
X60673Y-34898D01*
X60645Y-34884D01*
X60630Y-34870D01*
X60616Y-34841D01*
X60616Y-34784D01*
X60630Y-34755D01*
X60645Y-34741D01*
X60673Y-34727D01*
X60687Y-34727D01*
X60716Y-34741D01*
X60730Y-34755D01*
X60745Y-34784D01*
X60745Y-34841D01*
X60759Y-34870D01*
X60773Y-34884D01*
X60802Y-34898D01*
X60859Y-34898D01*
X60887Y-34884D01*
X60902Y-34870D01*
X60916Y-34841D01*
X60916Y-34784D01*
X60902Y-34755D01*
X60887Y-34741D01*
X60859Y-34727D01*
X60802Y-34727D01*
X60773Y-34741D01*
X60759Y-34755D01*
X60745Y-34784D01*
X60616Y-34627D02*
X60616Y-34441D01*
X60730Y-34541D01*
X60730Y-34498D01*
X60745Y-34470D01*
X60759Y-34455D01*
X60787Y-34441D01*
X60859Y-34441D01*
X60887Y-34455D01*
X60902Y-34470D01*
X60916Y-34498D01*
X60916Y-34584D01*
X60902Y-34612D01*
X60887Y-34627D01*
X60616Y-34184D02*
X60616Y-34241D01*
X60630Y-34270D01*
X60645Y-34284D01*
X60687Y-34312D01*
X60745Y-34327D01*
X60859Y-34327D01*
X60887Y-34312D01*
X60902Y-34298D01*
X60916Y-34270D01*
X60916Y-34212D01*
X60902Y-34184D01*
X60887Y-34170D01*
X60859Y-34155D01*
X60787Y-34155D01*
X60759Y-34170D01*
X60745Y-34184D01*
X60730Y-34212D01*
X60730Y-34270D01*
X60745Y-34298D01*
X60759Y-34312D01*
X60787Y-34327D01*
X60916Y-34027D02*
X60616Y-34027D01*
X60830Y-33927D01*
X60616Y-33827D01*
X60916Y-33827D01*
G54D13*
X45944Y-41881D02*
X45944Y-41481D01*
X46172Y-41881D02*
X46001Y-41653D01*
X46172Y-41481D02*
X45944Y-41710D01*
X46553Y-41881D02*
X46325Y-41881D01*
X46439Y-41881D02*
X46439Y-41481D01*
X46401Y-41539D01*
X46363Y-41577D01*
X46325Y-41596D01*
X46801Y-41481D02*
X46839Y-41481D01*
X46877Y-41500D01*
X46896Y-41520D01*
X46915Y-41558D01*
X46934Y-41634D01*
X46934Y-41729D01*
X46915Y-41805D01*
X46896Y-41843D01*
X46877Y-41862D01*
X46839Y-41881D01*
X46801Y-41881D01*
X46763Y-41862D01*
X46744Y-41843D01*
X46725Y-41805D01*
X46706Y-41729D01*
X46706Y-41634D01*
X46725Y-41558D01*
X46744Y-41520D01*
X46763Y-41500D01*
X46801Y-41481D01*
G54D18*
X56531Y-35869D02*
X56516Y-35884D01*
X56473Y-35898D01*
X56445Y-35898D01*
X56402Y-35884D01*
X56373Y-35855D01*
X56359Y-35827D01*
X56345Y-35769D01*
X56345Y-35727D01*
X56359Y-35669D01*
X56373Y-35641D01*
X56402Y-35612D01*
X56445Y-35598D01*
X56473Y-35598D01*
X56516Y-35612D01*
X56531Y-35627D01*
X56802Y-35598D02*
X56659Y-35598D01*
X56645Y-35741D01*
X56659Y-35727D01*
X56688Y-35712D01*
X56759Y-35712D01*
X56788Y-35727D01*
X56802Y-35741D01*
X56816Y-35769D01*
X56816Y-35841D01*
X56802Y-35869D01*
X56788Y-35884D01*
X56759Y-35898D01*
X56688Y-35898D01*
X56659Y-35884D01*
X56645Y-35869D01*
X56408Y-34411D02*
X56237Y-34411D01*
X56322Y-34411D02*
X56322Y-34011D01*
X56294Y-34069D01*
X56265Y-34107D01*
X56237Y-34126D01*
X56594Y-34011D02*
X56622Y-34011D01*
X56651Y-34030D01*
X56665Y-34050D01*
X56680Y-34088D01*
X56694Y-34164D01*
X56694Y-34259D01*
X56680Y-34335D01*
X56665Y-34373D01*
X56651Y-34392D01*
X56622Y-34411D01*
X56594Y-34411D01*
X56565Y-34392D01*
X56551Y-34373D01*
X56537Y-34335D01*
X56522Y-34259D01*
X56522Y-34164D01*
X56537Y-34088D01*
X56551Y-34050D01*
X56565Y-34030D01*
X56594Y-34011D01*
X56951Y-34145D02*
X56951Y-34411D01*
X56822Y-34145D02*
X56822Y-34354D01*
X56837Y-34392D01*
X56865Y-34411D01*
X56908Y-34411D01*
X56937Y-34392D01*
X56951Y-34373D01*
X57194Y-34202D02*
X57094Y-34202D01*
X57094Y-34411D02*
X57094Y-34011D01*
X57237Y-34011D01*
G54D11*
X58838Y-44269D02*
X58823Y-44284D01*
X58781Y-44298D01*
X58752Y-44298D01*
X58709Y-44284D01*
X58681Y-44255D01*
X58666Y-44227D01*
X58652Y-44169D01*
X58652Y-44127D01*
X58666Y-44069D01*
X58681Y-44041D01*
X58709Y-44012D01*
X58752Y-43998D01*
X58781Y-43998D01*
X58823Y-44012D01*
X58838Y-44027D01*
X59123Y-44298D02*
X58952Y-44298D01*
X59038Y-44298D02*
X59038Y-43998D01*
X59009Y-44041D01*
X58981Y-44069D01*
X58952Y-44084D01*
X59409Y-44298D02*
X59238Y-44298D01*
X59323Y-44298D02*
X59323Y-43998D01*
X59295Y-44041D01*
X59266Y-44069D01*
X59238Y-44084D01*
G54D19*
X53454Y-34847D02*
X53434Y-34885D01*
X53396Y-34923D01*
X53339Y-34980D01*
X53320Y-35018D01*
X53320Y-35056D01*
X53415Y-35037D02*
X53396Y-35075D01*
X53358Y-35113D01*
X53282Y-35132D01*
X53149Y-35132D01*
X53073Y-35113D01*
X53034Y-35075D01*
X53015Y-35037D01*
X53015Y-34961D01*
X53034Y-34923D01*
X53073Y-34885D01*
X53149Y-34866D01*
X53282Y-34866D01*
X53358Y-34885D01*
X53396Y-34923D01*
X53415Y-34961D01*
X53415Y-35037D01*
X53415Y-34485D02*
X53415Y-34713D01*
X53415Y-34599D02*
X53015Y-34599D01*
X53073Y-34637D01*
X53111Y-34675D01*
X53130Y-34713D01*
X63971Y-33040D02*
X63942Y-33025D01*
X63914Y-32997D01*
X63871Y-32954D01*
X63842Y-32940D01*
X63814Y-32940D01*
X63828Y-33011D02*
X63800Y-32997D01*
X63771Y-32968D01*
X63757Y-32911D01*
X63757Y-32811D01*
X63771Y-32754D01*
X63800Y-32725D01*
X63828Y-32711D01*
X63885Y-32711D01*
X63914Y-32725D01*
X63942Y-32754D01*
X63957Y-32811D01*
X63957Y-32911D01*
X63942Y-32968D01*
X63914Y-32997D01*
X63885Y-33011D01*
X63828Y-33011D01*
X64071Y-32740D02*
X64085Y-32725D01*
X64114Y-32711D01*
X64185Y-32711D01*
X64214Y-32725D01*
X64228Y-32740D01*
X64242Y-32768D01*
X64242Y-32797D01*
X64228Y-32840D01*
X64057Y-33011D01*
X64242Y-33011D01*
X69928Y-37882D02*
X69828Y-37739D01*
X69756Y-37882D02*
X69756Y-37582D01*
X69870Y-37582D01*
X69899Y-37596D01*
X69913Y-37611D01*
X69928Y-37639D01*
X69928Y-37682D01*
X69913Y-37711D01*
X69899Y-37725D01*
X69870Y-37739D01*
X69756Y-37739D01*
X70213Y-37882D02*
X70042Y-37882D01*
X70128Y-37882D02*
X70128Y-37582D01*
X70099Y-37625D01*
X70070Y-37653D01*
X70042Y-37668D01*
X69910Y-36480D02*
X69810Y-36337D01*
X69738Y-36480D02*
X69738Y-36180D01*
X69852Y-36180D01*
X69881Y-36194D01*
X69895Y-36209D01*
X69910Y-36237D01*
X69910Y-36280D01*
X69895Y-36309D01*
X69881Y-36323D01*
X69852Y-36337D01*
X69738Y-36337D01*
X70024Y-36209D02*
X70038Y-36194D01*
X70067Y-36180D01*
X70138Y-36180D01*
X70167Y-36194D01*
X70181Y-36209D01*
X70195Y-36237D01*
X70195Y-36266D01*
X70181Y-36309D01*
X70010Y-36480D01*
X70195Y-36480D01*
X41272Y-47272D02*
X41172Y-47129D01*
X41100Y-47272D02*
X41100Y-46972D01*
X41214Y-46972D01*
X41243Y-46986D01*
X41257Y-47001D01*
X41272Y-47029D01*
X41272Y-47072D01*
X41257Y-47101D01*
X41243Y-47115D01*
X41214Y-47129D01*
X41100Y-47129D01*
X41529Y-47072D02*
X41529Y-47272D01*
X41457Y-46958D02*
X41386Y-47172D01*
X41572Y-47172D01*
X42280Y-47272D02*
X42180Y-47129D01*
X42108Y-47272D02*
X42108Y-46972D01*
X42222Y-46972D01*
X42251Y-46986D01*
X42265Y-47001D01*
X42280Y-47029D01*
X42280Y-47072D01*
X42265Y-47101D01*
X42251Y-47115D01*
X42222Y-47129D01*
X42108Y-47129D01*
X42551Y-46972D02*
X42408Y-46972D01*
X42394Y-47115D01*
X42408Y-47101D01*
X42437Y-47086D01*
X42508Y-47086D01*
X42537Y-47101D01*
X42551Y-47115D01*
X42565Y-47143D01*
X42565Y-47215D01*
X42551Y-47243D01*
X42537Y-47258D01*
X42508Y-47272D01*
X42437Y-47272D01*
X42408Y-47258D01*
X42394Y-47243D01*
X69914Y-35073D02*
X69814Y-34930D01*
X69742Y-35073D02*
X69742Y-34773D01*
X69856Y-34773D01*
X69885Y-34787D01*
X69899Y-34802D01*
X69914Y-34830D01*
X69914Y-34873D01*
X69899Y-34902D01*
X69885Y-34916D01*
X69856Y-34930D01*
X69742Y-34930D01*
X70171Y-34773D02*
X70114Y-34773D01*
X70085Y-34787D01*
X70071Y-34802D01*
X70042Y-34844D01*
X70028Y-34902D01*
X70028Y-35016D01*
X70042Y-35044D01*
X70056Y-35059D01*
X70085Y-35073D01*
X70142Y-35073D01*
X70171Y-35059D01*
X70185Y-35044D01*
X70199Y-35016D01*
X70199Y-34944D01*
X70185Y-34916D01*
X70171Y-34902D01*
X70142Y-34887D01*
X70085Y-34887D01*
X70056Y-34902D01*
X70042Y-34916D01*
X70028Y-34944D01*
G54D18*
X64233Y-41424D02*
X64116Y-41258D01*
X64033Y-41424D02*
X64033Y-41074D01*
X64166Y-41074D01*
X64199Y-41091D01*
X64216Y-41108D01*
X64233Y-41141D01*
X64233Y-41191D01*
X64216Y-41224D01*
X64199Y-41241D01*
X64166Y-41258D01*
X64033Y-41258D01*
X64566Y-41424D02*
X64366Y-41424D01*
X64466Y-41424D02*
X64466Y-41074D01*
X64433Y-41124D01*
X64399Y-41158D01*
X64366Y-41174D01*
X64699Y-41108D02*
X64716Y-41091D01*
X64749Y-41074D01*
X64833Y-41074D01*
X64866Y-41091D01*
X64883Y-41108D01*
X64899Y-41141D01*
X64899Y-41174D01*
X64883Y-41224D01*
X64683Y-41424D01*
X64899Y-41424D01*
G54D11*
X69851Y-31754D02*
X69551Y-31754D01*
X69551Y-31640D01*
X69565Y-31611D01*
X69580Y-31597D01*
X69608Y-31582D01*
X69651Y-31582D01*
X69680Y-31597D01*
X69694Y-31611D01*
X69708Y-31640D01*
X69708Y-31754D01*
X69851Y-31297D02*
X69851Y-31468D01*
X69851Y-31382D02*
X69551Y-31382D01*
X69594Y-31411D01*
X69622Y-31440D01*
X69637Y-31468D01*
X69551Y-31197D02*
X69551Y-31011D01*
X69665Y-31111D01*
X69665Y-31068D01*
X69680Y-31040D01*
X69694Y-31025D01*
X69722Y-31011D01*
X69794Y-31011D01*
X69822Y-31025D01*
X69837Y-31040D01*
X69851Y-31068D01*
X69851Y-31154D01*
X69837Y-31182D01*
X69822Y-31197D01*
G54D21*
X58936Y-29162D02*
X58636Y-29162D01*
X58636Y-29091D01*
X58650Y-29048D01*
X58679Y-29019D01*
X58707Y-29005D01*
X58765Y-28991D01*
X58807Y-28991D01*
X58865Y-29005D01*
X58893Y-29019D01*
X58922Y-29048D01*
X58936Y-29091D01*
X58936Y-29162D01*
X58636Y-28733D02*
X58636Y-28791D01*
X58650Y-28819D01*
X58665Y-28833D01*
X58707Y-28862D01*
X58765Y-28876D01*
X58879Y-28876D01*
X58907Y-28862D01*
X58922Y-28848D01*
X58936Y-28819D01*
X58936Y-28762D01*
X58922Y-28733D01*
X58907Y-28719D01*
X58879Y-28705D01*
X58807Y-28705D01*
X58779Y-28719D01*
X58765Y-28733D01*
X58750Y-28762D01*
X58750Y-28819D01*
X58765Y-28848D01*
X58779Y-28862D01*
X58807Y-28876D01*
X62311Y-29138D02*
X62011Y-29138D01*
X62011Y-29067D01*
X62025Y-29024D01*
X62054Y-28995D01*
X62082Y-28981D01*
X62140Y-28967D01*
X62182Y-28967D01*
X62240Y-28981D01*
X62268Y-28995D01*
X62297Y-29024D01*
X62311Y-29067D01*
X62311Y-29138D01*
X62011Y-28867D02*
X62011Y-28667D01*
X62311Y-28795D01*
X66153Y-43564D02*
X66153Y-43264D01*
X66225Y-43264D01*
X66267Y-43278D01*
X66296Y-43307D01*
X66310Y-43335D01*
X66325Y-43393D01*
X66325Y-43435D01*
X66310Y-43493D01*
X66296Y-43521D01*
X66267Y-43550D01*
X66225Y-43564D01*
X66153Y-43564D01*
X66496Y-43393D02*
X66467Y-43378D01*
X66453Y-43364D01*
X66439Y-43335D01*
X66439Y-43321D01*
X66453Y-43293D01*
X66467Y-43278D01*
X66496Y-43264D01*
X66553Y-43264D01*
X66582Y-43278D01*
X66596Y-43293D01*
X66610Y-43321D01*
X66610Y-43335D01*
X66596Y-43364D01*
X66582Y-43378D01*
X66553Y-43393D01*
X66496Y-43393D01*
X66467Y-43407D01*
X66453Y-43421D01*
X66439Y-43450D01*
X66439Y-43507D01*
X66453Y-43535D01*
X66467Y-43550D01*
X66496Y-43564D01*
X66553Y-43564D01*
X66582Y-43550D01*
X66596Y-43535D01*
X66610Y-43507D01*
X66610Y-43450D01*
X66596Y-43421D01*
X66582Y-43407D01*
X66553Y-43393D01*
X63678Y-43561D02*
X63678Y-43261D01*
X63750Y-43261D01*
X63792Y-43275D01*
X63821Y-43304D01*
X63835Y-43332D01*
X63850Y-43390D01*
X63850Y-43432D01*
X63835Y-43490D01*
X63821Y-43518D01*
X63792Y-43547D01*
X63750Y-43561D01*
X63678Y-43561D01*
X63992Y-43561D02*
X64050Y-43561D01*
X64078Y-43547D01*
X64092Y-43532D01*
X64121Y-43490D01*
X64135Y-43432D01*
X64135Y-43318D01*
X64121Y-43290D01*
X64107Y-43275D01*
X64078Y-43261D01*
X64021Y-43261D01*
X63992Y-43275D01*
X63978Y-43290D01*
X63964Y-43318D01*
X63964Y-43390D01*
X63978Y-43418D01*
X63992Y-43432D01*
X64021Y-43447D01*
X64078Y-43447D01*
X64107Y-43432D01*
X64121Y-43418D01*
X64135Y-43390D01*
G54D22*
X67343Y-38263D02*
X67324Y-38282D01*
X67267Y-38301D01*
X67229Y-38301D01*
X67171Y-38282D01*
X67133Y-38244D01*
X67114Y-38206D01*
X67095Y-38130D01*
X67095Y-38073D01*
X67114Y-37997D01*
X67133Y-37959D01*
X67171Y-37920D01*
X67229Y-37901D01*
X67267Y-37901D01*
X67324Y-37920D01*
X67343Y-37940D01*
X67724Y-38301D02*
X67495Y-38301D01*
X67610Y-38301D02*
X67610Y-37901D01*
X67571Y-37959D01*
X67533Y-37997D01*
X67495Y-38016D01*
G54D15*
X68281Y-38724D02*
X68738Y-38724D01*
X68510Y-38952D02*
X68510Y-38495D01*
G54D19*
X55461Y-34128D02*
X55476Y-34142D01*
X55490Y-34185D01*
X55490Y-34213D01*
X55476Y-34256D01*
X55447Y-34285D01*
X55419Y-34299D01*
X55361Y-34313D01*
X55319Y-34313D01*
X55261Y-34299D01*
X55233Y-34285D01*
X55204Y-34256D01*
X55190Y-34213D01*
X55190Y-34185D01*
X55204Y-34142D01*
X55219Y-34128D01*
X55319Y-33956D02*
X55304Y-33985D01*
X55290Y-33999D01*
X55261Y-34013D01*
X55247Y-34013D01*
X55219Y-33999D01*
X55204Y-33985D01*
X55190Y-33956D01*
X55190Y-33899D01*
X55204Y-33870D01*
X55219Y-33856D01*
X55247Y-33842D01*
X55261Y-33842D01*
X55290Y-33856D01*
X55304Y-33870D01*
X55319Y-33899D01*
X55319Y-33956D01*
X55333Y-33985D01*
X55347Y-33999D01*
X55376Y-34013D01*
X55433Y-34013D01*
X55461Y-33999D01*
X55476Y-33985D01*
X55490Y-33956D01*
X55490Y-33899D01*
X55476Y-33870D01*
X55461Y-33856D01*
X55433Y-33842D01*
X55376Y-33842D01*
X55347Y-33856D01*
X55333Y-33870D01*
X55319Y-33899D01*
X69063Y-40547D02*
X69078Y-40562D01*
X69092Y-40605D01*
X69092Y-40633D01*
X69078Y-40676D01*
X69049Y-40705D01*
X69021Y-40719D01*
X68963Y-40733D01*
X68921Y-40733D01*
X68863Y-40719D01*
X68835Y-40705D01*
X68806Y-40676D01*
X68792Y-40633D01*
X68792Y-40605D01*
X68806Y-40562D01*
X68821Y-40547D01*
X69092Y-40262D02*
X69092Y-40433D01*
X69092Y-40347D02*
X68792Y-40347D01*
X68835Y-40376D01*
X68863Y-40405D01*
X68878Y-40433D01*
X68792Y-39990D02*
X68792Y-40133D01*
X68935Y-40147D01*
X68921Y-40133D01*
X68906Y-40105D01*
X68906Y-40033D01*
X68921Y-40005D01*
X68935Y-39990D01*
X68963Y-39976D01*
X69035Y-39976D01*
X69063Y-39990D01*
X69078Y-40005D01*
X69092Y-40033D01*
X69092Y-40105D01*
X69078Y-40133D01*
X69063Y-40147D01*
G54D18*
X66223Y-40944D02*
X66208Y-40959D01*
X66166Y-40973D01*
X66137Y-40973D01*
X66094Y-40959D01*
X66066Y-40930D01*
X66051Y-40902D01*
X66037Y-40844D01*
X66037Y-40802D01*
X66051Y-40744D01*
X66066Y-40716D01*
X66094Y-40687D01*
X66137Y-40673D01*
X66166Y-40673D01*
X66208Y-40687D01*
X66223Y-40702D01*
X66337Y-40702D02*
X66351Y-40687D01*
X66380Y-40673D01*
X66451Y-40673D01*
X66480Y-40687D01*
X66494Y-40702D01*
X66508Y-40730D01*
X66508Y-40759D01*
X66494Y-40802D01*
X66323Y-40973D01*
X66508Y-40973D01*
X66794Y-40973D02*
X66623Y-40973D01*
X66708Y-40973D02*
X66708Y-40673D01*
X66680Y-40716D01*
X66651Y-40744D01*
X66623Y-40759D01*
X66244Y-41713D02*
X66073Y-41713D01*
X66158Y-41713D02*
X66158Y-41313D01*
X66130Y-41371D01*
X66101Y-41409D01*
X66073Y-41428D01*
X66430Y-41313D02*
X66458Y-41313D01*
X66487Y-41332D01*
X66501Y-41352D01*
X66516Y-41390D01*
X66530Y-41466D01*
X66530Y-41561D01*
X66516Y-41637D01*
X66501Y-41675D01*
X66487Y-41694D01*
X66458Y-41713D01*
X66430Y-41713D01*
X66401Y-41694D01*
X66387Y-41675D01*
X66373Y-41637D01*
X66358Y-41561D01*
X66358Y-41466D01*
X66373Y-41390D01*
X66387Y-41352D01*
X66401Y-41332D01*
X66430Y-41313D01*
X66787Y-41447D02*
X66787Y-41713D01*
X66658Y-41447D02*
X66658Y-41656D01*
X66673Y-41694D01*
X66701Y-41713D01*
X66744Y-41713D01*
X66773Y-41694D01*
X66787Y-41675D01*
X67030Y-41504D02*
X66930Y-41504D01*
X66930Y-41713D02*
X66930Y-41313D01*
X67073Y-41313D01*
G54D21*
X50449Y-29168D02*
X50149Y-29168D01*
X50149Y-29097D01*
X50163Y-29054D01*
X50192Y-29025D01*
X50220Y-29011D01*
X50278Y-28997D01*
X50320Y-28997D01*
X50378Y-29011D01*
X50406Y-29025D01*
X50435Y-29054D01*
X50449Y-29097D01*
X50449Y-29168D01*
X50249Y-28739D02*
X50449Y-28739D01*
X50135Y-28811D02*
X50349Y-28882D01*
X50349Y-28697D01*
X53818Y-29187D02*
X53518Y-29187D01*
X53518Y-29116D01*
X53532Y-29073D01*
X53561Y-29044D01*
X53589Y-29030D01*
X53647Y-29016D01*
X53689Y-29016D01*
X53747Y-29030D01*
X53775Y-29044D01*
X53804Y-29073D01*
X53818Y-29116D01*
X53818Y-29187D01*
X53518Y-28744D02*
X53518Y-28887D01*
X53661Y-28901D01*
X53647Y-28887D01*
X53632Y-28858D01*
X53632Y-28787D01*
X53647Y-28758D01*
X53661Y-28744D01*
X53689Y-28730D01*
X53761Y-28730D01*
X53789Y-28744D01*
X53804Y-28758D01*
X53818Y-28787D01*
X53818Y-28858D01*
X53804Y-28887D01*
X53789Y-28901D01*
G54D18*
X64305Y-38631D02*
X64188Y-38465D01*
X64105Y-38631D02*
X64105Y-38281D01*
X64238Y-38281D01*
X64271Y-38298D01*
X64288Y-38315D01*
X64305Y-38348D01*
X64305Y-38398D01*
X64288Y-38431D01*
X64271Y-38448D01*
X64238Y-38465D01*
X64105Y-38465D01*
X64638Y-38631D02*
X64438Y-38631D01*
X64538Y-38631D02*
X64538Y-38281D01*
X64505Y-38331D01*
X64471Y-38365D01*
X64438Y-38381D01*
X64971Y-38631D02*
X64771Y-38631D01*
X64871Y-38631D02*
X64871Y-38281D01*
X64838Y-38331D01*
X64805Y-38365D01*
X64771Y-38381D01*
G54D15*
X49336Y-41942D02*
X49393Y-41961D01*
X49489Y-41961D01*
X49527Y-41942D01*
X49546Y-41923D01*
X49565Y-41885D01*
X49565Y-41847D01*
X49546Y-41809D01*
X49527Y-41790D01*
X49489Y-41771D01*
X49412Y-41752D01*
X49374Y-41733D01*
X49355Y-41714D01*
X49336Y-41676D01*
X49336Y-41638D01*
X49355Y-41600D01*
X49374Y-41580D01*
X49412Y-41561D01*
X49508Y-41561D01*
X49565Y-41580D01*
X49698Y-41561D02*
X49793Y-41961D01*
X49870Y-41676D01*
X49946Y-41961D01*
X50041Y-41561D01*
X50155Y-41561D02*
X50403Y-41561D01*
X50270Y-41714D01*
X50327Y-41714D01*
X50365Y-41733D01*
X50384Y-41752D01*
X50403Y-41790D01*
X50403Y-41885D01*
X50384Y-41923D01*
X50365Y-41942D01*
X50327Y-41961D01*
X50212Y-41961D01*
X50174Y-41942D01*
X50155Y-41923D01*
G54D19*
X52902Y-41030D02*
X52759Y-41130D01*
X52902Y-41202D02*
X52602Y-41202D01*
X52602Y-41088D01*
X52616Y-41059D01*
X52631Y-41045D01*
X52659Y-41030D01*
X52702Y-41030D01*
X52731Y-41045D01*
X52745Y-41059D01*
X52759Y-41088D01*
X52759Y-41202D01*
X52902Y-40745D02*
X52902Y-40916D01*
X52902Y-40830D02*
X52602Y-40830D01*
X52645Y-40859D01*
X52673Y-40888D01*
X52688Y-40916D01*
X52602Y-40645D02*
X52602Y-40459D01*
X52716Y-40559D01*
X52716Y-40516D01*
X52731Y-40488D01*
X52745Y-40473D01*
X52773Y-40459D01*
X52845Y-40459D01*
X52873Y-40473D01*
X52888Y-40488D01*
X52902Y-40516D01*
X52902Y-40602D01*
X52888Y-40630D01*
X52873Y-40645D01*
G54D15*
X71432Y-47180D02*
X71432Y-46780D01*
X71584Y-46780D01*
X71622Y-46799D01*
X71641Y-46819D01*
X71660Y-46857D01*
X71660Y-46914D01*
X71641Y-46952D01*
X71622Y-46971D01*
X71584Y-46990D01*
X71432Y-46990D01*
X72041Y-47180D02*
X71813Y-47180D01*
X71927Y-47180D02*
X71927Y-46780D01*
X71889Y-46838D01*
X71851Y-46876D01*
X71813Y-46895D01*
X72403Y-46780D02*
X72213Y-46780D01*
X72194Y-46971D01*
X72213Y-46952D01*
X72251Y-46933D01*
X72346Y-46933D01*
X72384Y-46952D01*
X72403Y-46971D01*
X72422Y-47009D01*
X72422Y-47104D01*
X72403Y-47142D01*
X72384Y-47161D01*
X72346Y-47180D01*
X72251Y-47180D01*
X72213Y-47161D01*
X72194Y-47142D01*
G54D21*
X50179Y-32679D02*
X50179Y-32379D01*
X50251Y-32379D01*
X50294Y-32393D01*
X50322Y-32422D01*
X50336Y-32450D01*
X50351Y-32508D01*
X50351Y-32550D01*
X50336Y-32608D01*
X50322Y-32636D01*
X50294Y-32665D01*
X50251Y-32679D01*
X50179Y-32679D01*
X50636Y-32679D02*
X50465Y-32679D01*
X50551Y-32679D02*
X50551Y-32379D01*
X50522Y-32422D01*
X50494Y-32450D01*
X50465Y-32465D01*
X50822Y-32379D02*
X50851Y-32379D01*
X50879Y-32393D01*
X50894Y-32408D01*
X50908Y-32436D01*
X50922Y-32493D01*
X50922Y-32565D01*
X50908Y-32622D01*
X50894Y-32650D01*
X50879Y-32665D01*
X50851Y-32679D01*
X50822Y-32679D01*
X50794Y-32665D01*
X50779Y-32650D01*
X50765Y-32622D01*
X50751Y-32565D01*
X50751Y-32493D01*
X50765Y-32436D01*
X50779Y-32408D01*
X50794Y-32393D01*
X50822Y-32379D01*
X54753Y-32777D02*
X54753Y-32477D01*
X54825Y-32477D01*
X54868Y-32491D01*
X54896Y-32520D01*
X54910Y-32548D01*
X54925Y-32606D01*
X54925Y-32648D01*
X54910Y-32706D01*
X54896Y-32734D01*
X54868Y-32763D01*
X54825Y-32777D01*
X54753Y-32777D01*
X55210Y-32777D02*
X55039Y-32777D01*
X55125Y-32777D02*
X55125Y-32477D01*
X55096Y-32520D01*
X55068Y-32548D01*
X55039Y-32563D01*
X55496Y-32777D02*
X55325Y-32777D01*
X55410Y-32777D02*
X55410Y-32477D01*
X55382Y-32520D01*
X55353Y-32548D01*
X55325Y-32563D01*
X58715Y-32661D02*
X58715Y-32361D01*
X58787Y-32361D01*
X58830Y-32375D01*
X58858Y-32404D01*
X58872Y-32432D01*
X58887Y-32490D01*
X58887Y-32532D01*
X58872Y-32590D01*
X58858Y-32618D01*
X58830Y-32647D01*
X58787Y-32661D01*
X58715Y-32661D01*
X59172Y-32661D02*
X59001Y-32661D01*
X59087Y-32661D02*
X59087Y-32361D01*
X59058Y-32404D01*
X59030Y-32432D01*
X59001Y-32447D01*
X59287Y-32390D02*
X59301Y-32375D01*
X59330Y-32361D01*
X59401Y-32361D01*
X59430Y-32375D01*
X59444Y-32390D01*
X59458Y-32418D01*
X59458Y-32447D01*
X59444Y-32490D01*
X59272Y-32661D01*
X59458Y-32661D01*
X63205Y-32471D02*
X63205Y-32171D01*
X63277Y-32171D01*
X63320Y-32185D01*
X63348Y-32214D01*
X63362Y-32242D01*
X63377Y-32300D01*
X63377Y-32342D01*
X63362Y-32400D01*
X63348Y-32428D01*
X63320Y-32457D01*
X63277Y-32471D01*
X63205Y-32471D01*
X63662Y-32471D02*
X63491Y-32471D01*
X63577Y-32471D02*
X63577Y-32171D01*
X63548Y-32214D01*
X63520Y-32242D01*
X63491Y-32257D01*
X63762Y-32171D02*
X63948Y-32171D01*
X63848Y-32285D01*
X63891Y-32285D01*
X63920Y-32300D01*
X63934Y-32314D01*
X63948Y-32342D01*
X63948Y-32414D01*
X63934Y-32442D01*
X63920Y-32457D01*
X63891Y-32471D01*
X63805Y-32471D01*
X63777Y-32457D01*
X63762Y-32442D01*
G54D11*
X71765Y-31828D02*
X71465Y-31828D01*
X71465Y-31714D01*
X71479Y-31685D01*
X71494Y-31671D01*
X71522Y-31656D01*
X71565Y-31656D01*
X71594Y-31671D01*
X71608Y-31685D01*
X71622Y-31714D01*
X71622Y-31828D01*
X71765Y-31371D02*
X71765Y-31542D01*
X71765Y-31456D02*
X71465Y-31456D01*
X71508Y-31485D01*
X71536Y-31514D01*
X71551Y-31542D01*
X71494Y-31256D02*
X71479Y-31242D01*
X71465Y-31214D01*
X71465Y-31142D01*
X71479Y-31114D01*
X71494Y-31099D01*
X71522Y-31085D01*
X71551Y-31085D01*
X71594Y-31099D01*
X71765Y-31271D01*
X71765Y-31085D01*
X69261Y-31764D02*
X68961Y-31764D01*
X68961Y-31650D01*
X68975Y-31621D01*
X68990Y-31607D01*
X69018Y-31592D01*
X69061Y-31592D01*
X69090Y-31607D01*
X69104Y-31621D01*
X69118Y-31650D01*
X69118Y-31764D01*
X69261Y-31307D02*
X69261Y-31478D01*
X69261Y-31392D02*
X68961Y-31392D01*
X69004Y-31421D01*
X69032Y-31450D01*
X69047Y-31478D01*
X68961Y-31050D02*
X68961Y-31107D01*
X68975Y-31135D01*
X68990Y-31150D01*
X69032Y-31178D01*
X69090Y-31192D01*
X69204Y-31192D01*
X69232Y-31178D01*
X69247Y-31164D01*
X69261Y-31135D01*
X69261Y-31078D01*
X69247Y-31050D01*
X69232Y-31035D01*
X69204Y-31021D01*
X69132Y-31021D01*
X69104Y-31035D01*
X69090Y-31050D01*
X69075Y-31078D01*
X69075Y-31135D01*
X69090Y-31164D01*
X69104Y-31178D01*
X69132Y-31192D01*
G54D15*
X54305Y-42852D02*
X54362Y-42871D01*
X54457Y-42871D01*
X54495Y-42852D01*
X54514Y-42833D01*
X54533Y-42795D01*
X54533Y-42757D01*
X54514Y-42719D01*
X54495Y-42700D01*
X54457Y-42681D01*
X54381Y-42662D01*
X54343Y-42643D01*
X54324Y-42624D01*
X54305Y-42586D01*
X54305Y-42548D01*
X54324Y-42510D01*
X54343Y-42490D01*
X54381Y-42471D01*
X54476Y-42471D01*
X54533Y-42490D01*
X54705Y-42871D02*
X54705Y-42471D01*
X54857Y-42471D01*
X54895Y-42490D01*
X54914Y-42510D01*
X54933Y-42548D01*
X54933Y-42605D01*
X54914Y-42643D01*
X54895Y-42662D01*
X54857Y-42681D01*
X54705Y-42681D01*
X55314Y-42871D02*
X55086Y-42871D01*
X55200Y-42871D02*
X55200Y-42471D01*
X55162Y-42529D01*
X55124Y-42567D01*
X55086Y-42586D01*
G54D11*
X50490Y-47266D02*
X50490Y-46966D01*
X50605Y-46966D01*
X50633Y-46980D01*
X50647Y-46995D01*
X50662Y-47023D01*
X50662Y-47066D01*
X50647Y-47095D01*
X50633Y-47109D01*
X50605Y-47123D01*
X50490Y-47123D01*
X50947Y-47266D02*
X50776Y-47266D01*
X50862Y-47266D02*
X50862Y-46966D01*
X50833Y-47009D01*
X50805Y-47037D01*
X50776Y-47052D01*
X51047Y-46966D02*
X51247Y-46966D01*
X51119Y-47266D01*
X50520Y-49048D02*
X50520Y-48748D01*
X50635Y-48748D01*
X50663Y-48762D01*
X50677Y-48777D01*
X50692Y-48805D01*
X50692Y-48848D01*
X50677Y-48877D01*
X50663Y-48891D01*
X50635Y-48905D01*
X50520Y-48905D01*
X50977Y-49048D02*
X50806Y-49048D01*
X50892Y-49048D02*
X50892Y-48748D01*
X50863Y-48791D01*
X50835Y-48819D01*
X50806Y-48834D01*
X51149Y-48877D02*
X51120Y-48862D01*
X51106Y-48848D01*
X51092Y-48819D01*
X51092Y-48805D01*
X51106Y-48777D01*
X51120Y-48762D01*
X51149Y-48748D01*
X51206Y-48748D01*
X51235Y-48762D01*
X51249Y-48777D01*
X51263Y-48805D01*
X51263Y-48819D01*
X51249Y-48848D01*
X51235Y-48862D01*
X51206Y-48877D01*
X51149Y-48877D01*
X51120Y-48891D01*
X51106Y-48905D01*
X51092Y-48934D01*
X51092Y-48991D01*
X51106Y-49019D01*
X51120Y-49034D01*
X51149Y-49048D01*
X51206Y-49048D01*
X51235Y-49034D01*
X51249Y-49019D01*
X51263Y-48991D01*
X51263Y-48934D01*
X51249Y-48905D01*
X51235Y-48891D01*
X51206Y-48877D01*
X61595Y-32160D02*
X61595Y-31860D01*
X61767Y-32160D02*
X61638Y-31989D01*
X61767Y-31860D02*
X61595Y-32031D01*
X62024Y-31960D02*
X62024Y-32160D01*
X61952Y-31846D02*
X61881Y-32060D01*
X62067Y-32060D01*
G54D19*
X69065Y-47375D02*
X68946Y-47459D01*
X69065Y-47518D02*
X68815Y-47518D01*
X68815Y-47423D01*
X68827Y-47399D01*
X68839Y-47387D01*
X68862Y-47375D01*
X68898Y-47375D01*
X68922Y-47387D01*
X68934Y-47399D01*
X68946Y-47423D01*
X68946Y-47518D01*
X69065Y-47137D02*
X69065Y-47280D01*
X69065Y-47209D02*
X68815Y-47209D01*
X68850Y-47232D01*
X68874Y-47256D01*
X68886Y-47280D01*
X68898Y-46923D02*
X69065Y-46923D01*
X68803Y-46982D02*
X68981Y-47042D01*
X68981Y-46887D01*
X40139Y-47269D02*
X40039Y-47126D01*
X39967Y-47269D02*
X39967Y-46969D01*
X40082Y-46969D01*
X40110Y-46983D01*
X40124Y-46998D01*
X40139Y-47026D01*
X40139Y-47069D01*
X40124Y-47098D01*
X40110Y-47112D01*
X40082Y-47126D01*
X39967Y-47126D01*
X40424Y-47269D02*
X40253Y-47269D01*
X40339Y-47269D02*
X40339Y-46969D01*
X40310Y-47012D01*
X40282Y-47040D01*
X40253Y-47055D01*
X40696Y-46969D02*
X40553Y-46969D01*
X40539Y-47112D01*
X40553Y-47098D01*
X40582Y-47083D01*
X40653Y-47083D01*
X40682Y-47098D01*
X40696Y-47112D01*
X40710Y-47140D01*
X40710Y-47212D01*
X40696Y-47240D01*
X40682Y-47255D01*
X40653Y-47269D01*
X40582Y-47269D01*
X40553Y-47255D01*
X40539Y-47240D01*
G54D11*
X51039Y-32125D02*
X51039Y-31825D01*
X51211Y-32125D02*
X51082Y-31954D01*
X51211Y-31825D02*
X51039Y-31996D01*
X51496Y-32125D02*
X51325Y-32125D01*
X51411Y-32125D02*
X51411Y-31825D01*
X51382Y-31868D01*
X51353Y-31896D01*
X51325Y-31911D01*
X52817Y-32132D02*
X52817Y-31832D01*
X52989Y-32132D02*
X52860Y-31961D01*
X52989Y-31832D02*
X52817Y-32003D01*
X53103Y-31861D02*
X53117Y-31846D01*
X53146Y-31832D01*
X53217Y-31832D01*
X53246Y-31846D01*
X53260Y-31861D01*
X53274Y-31889D01*
X53274Y-31918D01*
X53260Y-31961D01*
X53089Y-32132D01*
X53274Y-32132D01*
X59495Y-32167D02*
X59495Y-31867D01*
X59667Y-32167D02*
X59538Y-31996D01*
X59667Y-31867D02*
X59495Y-32038D01*
X59767Y-31867D02*
X59952Y-31867D01*
X59852Y-31981D01*
X59895Y-31981D01*
X59924Y-31996D01*
X59938Y-32010D01*
X59952Y-32038D01*
X59952Y-32110D01*
X59938Y-32138D01*
X59924Y-32153D01*
X59895Y-32167D01*
X59809Y-32167D01*
X59781Y-32153D01*
X59767Y-32138D01*
X46534Y-43727D02*
X46534Y-43427D01*
X46648Y-43427D01*
X46677Y-43441D01*
X46691Y-43456D01*
X46706Y-43484D01*
X46706Y-43527D01*
X46691Y-43556D01*
X46677Y-43570D01*
X46648Y-43584D01*
X46534Y-43584D01*
X46977Y-43427D02*
X46834Y-43427D01*
X46820Y-43570D01*
X46834Y-43556D01*
X46863Y-43541D01*
X46934Y-43541D01*
X46963Y-43556D01*
X46977Y-43570D01*
X46991Y-43598D01*
X46991Y-43670D01*
X46977Y-43698D01*
X46963Y-43713D01*
X46934Y-43727D01*
X46863Y-43727D01*
X46834Y-43713D01*
X46820Y-43698D01*
X46539Y-45496D02*
X46539Y-45196D01*
X46653Y-45196D01*
X46682Y-45210D01*
X46696Y-45225D01*
X46711Y-45253D01*
X46711Y-45296D01*
X46696Y-45325D01*
X46682Y-45339D01*
X46653Y-45353D01*
X46539Y-45353D01*
X46968Y-45196D02*
X46911Y-45196D01*
X46882Y-45210D01*
X46868Y-45225D01*
X46839Y-45267D01*
X46825Y-45325D01*
X46825Y-45439D01*
X46839Y-45467D01*
X46853Y-45482D01*
X46882Y-45496D01*
X46939Y-45496D01*
X46968Y-45482D01*
X46982Y-45467D01*
X46996Y-45439D01*
X46996Y-45367D01*
X46982Y-45339D01*
X46968Y-45325D01*
X46939Y-45310D01*
X46882Y-45310D01*
X46853Y-45325D01*
X46839Y-45339D01*
X46825Y-45367D01*
X46539Y-47243D02*
X46539Y-46943D01*
X46653Y-46943D01*
X46682Y-46957D01*
X46696Y-46972D01*
X46711Y-47000D01*
X46711Y-47043D01*
X46696Y-47072D01*
X46682Y-47086D01*
X46653Y-47100D01*
X46539Y-47100D01*
X46811Y-46943D02*
X47011Y-46943D01*
X46882Y-47243D01*
X46541Y-49061D02*
X46541Y-48761D01*
X46655Y-48761D01*
X46684Y-48775D01*
X46698Y-48790D01*
X46713Y-48818D01*
X46713Y-48861D01*
X46698Y-48890D01*
X46684Y-48904D01*
X46655Y-48918D01*
X46541Y-48918D01*
X46884Y-48890D02*
X46855Y-48875D01*
X46841Y-48861D01*
X46827Y-48832D01*
X46827Y-48818D01*
X46841Y-48790D01*
X46855Y-48775D01*
X46884Y-48761D01*
X46941Y-48761D01*
X46970Y-48775D01*
X46984Y-48790D01*
X46998Y-48818D01*
X46998Y-48832D01*
X46984Y-48861D01*
X46970Y-48875D01*
X46941Y-48890D01*
X46884Y-48890D01*
X46855Y-48904D01*
X46841Y-48918D01*
X46827Y-48947D01*
X46827Y-49004D01*
X46841Y-49032D01*
X46855Y-49047D01*
X46884Y-49061D01*
X46941Y-49061D01*
X46970Y-49047D01*
X46984Y-49032D01*
X46998Y-49004D01*
X46998Y-48947D01*
X46984Y-48918D01*
X46970Y-48904D01*
X46941Y-48890D01*
X50642Y-43677D02*
X50642Y-43377D01*
X50756Y-43377D01*
X50785Y-43391D01*
X50799Y-43406D01*
X50814Y-43434D01*
X50814Y-43477D01*
X50799Y-43506D01*
X50785Y-43520D01*
X50756Y-43534D01*
X50642Y-43534D01*
X50956Y-43677D02*
X51014Y-43677D01*
X51042Y-43663D01*
X51056Y-43648D01*
X51085Y-43606D01*
X51099Y-43548D01*
X51099Y-43434D01*
X51085Y-43406D01*
X51071Y-43391D01*
X51042Y-43377D01*
X50985Y-43377D01*
X50956Y-43391D01*
X50942Y-43406D01*
X50928Y-43434D01*
X50928Y-43506D01*
X50942Y-43534D01*
X50956Y-43548D01*
X50985Y-43563D01*
X51042Y-43563D01*
X51071Y-43548D01*
X51085Y-43534D01*
X51099Y-43506D01*
X50478Y-45477D02*
X50478Y-45177D01*
X50593Y-45177D01*
X50621Y-45191D01*
X50635Y-45206D01*
X50650Y-45234D01*
X50650Y-45277D01*
X50635Y-45306D01*
X50621Y-45320D01*
X50593Y-45334D01*
X50478Y-45334D01*
X50935Y-45477D02*
X50764Y-45477D01*
X50850Y-45477D02*
X50850Y-45177D01*
X50821Y-45220D01*
X50793Y-45248D01*
X50764Y-45263D01*
X51121Y-45177D02*
X51150Y-45177D01*
X51178Y-45191D01*
X51193Y-45206D01*
X51207Y-45234D01*
X51221Y-45291D01*
X51221Y-45363D01*
X51207Y-45420D01*
X51193Y-45448D01*
X51178Y-45463D01*
X51150Y-45477D01*
X51121Y-45477D01*
X51093Y-45463D01*
X51078Y-45448D01*
X51064Y-45420D01*
X51050Y-45363D01*
X51050Y-45291D01*
X51064Y-45234D01*
X51078Y-45206D01*
X51093Y-45191D01*
X51121Y-45177D01*
X71622Y-29385D02*
X71322Y-29385D01*
X71322Y-29271D01*
X71336Y-29242D01*
X71351Y-29228D01*
X71379Y-29213D01*
X71422Y-29213D01*
X71451Y-29228D01*
X71465Y-29242D01*
X71479Y-29271D01*
X71479Y-29385D01*
X71351Y-29099D02*
X71336Y-29085D01*
X71322Y-29056D01*
X71322Y-28985D01*
X71336Y-28956D01*
X71351Y-28942D01*
X71379Y-28928D01*
X71408Y-28928D01*
X71451Y-28942D01*
X71622Y-29113D01*
X71622Y-28928D01*
X71322Y-28742D02*
X71322Y-28713D01*
X71336Y-28685D01*
X71351Y-28671D01*
X71379Y-28656D01*
X71436Y-28642D01*
X71508Y-28642D01*
X71565Y-28656D01*
X71593Y-28671D01*
X71608Y-28685D01*
X71622Y-28713D01*
X71622Y-28742D01*
X71608Y-28771D01*
X71593Y-28785D01*
X71565Y-28799D01*
X71508Y-28813D01*
X71436Y-28813D01*
X71379Y-28799D01*
X71351Y-28785D01*
X71336Y-28771D01*
X71322Y-28742D01*
M02*
