M48
;DRILL file {Pcbnew (2013-07-07 BZR 4022)-stable} date 9/7/2556 23:50:57
;FORMAT={-:-/ absolute / inch / decimal}
FMAT,2
INCH,TZ
T1C0.020
T2C0.028
T3C0.032
T4C0.034
T5C0.036
T6C0.039
T7C0.040
T8C0.044
T9C0.047
T10C0.125
%
G90
G05
M72
T1
X4.3107Y-4.5144
X4.3107Y-4.6746
X4.632Y-3.9735
X4.8561Y-3.3675
X4.8983Y-3.2463
X4.972Y-3.077
X5.0199Y-3.5643
X5.1032Y-3.3624
X5.2Y-4.48
X5.2Y-4.54
X5.214Y-4.224
X5.2668Y-3.2502
X5.2668Y-3.3318
X5.2668Y-3.3906
X5.2668Y-3.4952
X5.2671Y-3.4395
X5.2673Y-3.5721
X5.2848Y-4.4241
X5.3345Y-4.422
X5.3715Y-3.6681
X5.3832Y-4.0838
X5.3856Y-4.4247
X5.422Y-3.077
X5.4266Y-3.5456
X5.4642Y-3.9431
X5.4804Y-3.5463
X5.4957Y-3.4056
X5.5366Y-4.087
X5.5377Y-3.5466
X5.5756Y-3.3082
X5.5776Y-3.9374
X5.5782Y-3.4902
X5.5926Y-4.0851
X5.5936Y-3.4394
X5.664Y-3.6195
X5.7129Y-3.6201
X5.7369Y-4.2279
X5.737Y-4.1546
X5.7408Y-3.5334
X5.7416Y-4.7399
X5.7417Y-4.6845
X5.7661Y-3.9931
X5.7798Y-4.0766
X5.8049Y-3.9454
X5.8145Y-4.502
X5.8145Y-4.552
X5.8152Y-4.2874
X5.8154Y-4.2363
X5.822Y-3.077
X5.8314Y-3.366
X5.8617Y-3.9456
X5.883Y-3.6393
X5.9153Y-3.8505
X5.916Y-4.0881
X5.9316Y-3.6393
X5.9577Y-4.2405
X5.9703Y-3.9759
X5.9703Y-4.0266
X5.9716Y-3.7767
X5.9853Y-3.4848
X5.9855Y-3.3273
X6.012Y-4.097
X6.0288Y-3.6352
X6.0341Y-3.4848
X6.0375Y-3.5631
X6.0445Y-4.5647
X6.067Y-3.777
X6.067Y-3.852
X6.067Y-3.902
X6.067Y-3.972
X6.0736Y-3.3268
X6.0762Y-4.0398
X6.0847Y-3.6343
X6.112Y-4.212
X6.112Y-4.352
X6.112Y-4.407
X6.1292Y-3.2165
X6.1553Y-3.7141
X6.1553Y-4.1292
X6.1554Y-3.6098
X6.1554Y-3.6648
X6.1638Y-3.2844
X6.2181Y-3.4439
X6.2289Y-4.0095
X6.229Y-3.941
X6.2446Y-4.1716
X6.2637Y-4.2444
X6.264Y-4.3012
X6.2684Y-3.9741
X6.272Y-3.077
X6.2792Y-3.3198
X6.2868Y-4.1356
X6.2874Y-3.8478
X6.2902Y-3.6953
X6.2906Y-3.7769
X6.3456Y-4.4676
X6.4098Y-3.6126
X6.462Y-3.497
X6.4818Y-3.8067
X6.5112Y-3.3024
X6.5351Y-3.8129
X6.6084Y-4.4036
X6.6417Y-4.1694
X6.642Y-4.0916
X6.6459Y-3.4119
X6.6459Y-3.9225
X6.6628Y-3.7136
X6.7019Y-3.3755
X6.7118Y-4.2544
X6.7587Y-4.3596
X6.7928Y-4.6991
X6.8667Y-3.7266
X6.888Y-4.2546
X6.8964Y-3.9742
X6.912Y-3.5187
X6.978Y-4.2544
X6.9918Y-3.3975
X6.992Y-3.3456
X6.9921Y-3.2946
X7.0106Y-3.1446
X7.0353Y-3.0929
X7.0353Y-3.1932
X7.1208Y-3.332
X7.1694Y-3.333
T3
X4.7423Y-3.6816
X4.7423Y-3.9808
X4.8423Y-3.6816
X4.8423Y-3.9808
X4.9423Y-3.6816
X4.9423Y-3.9808
X5.0423Y-3.6816
X5.0423Y-3.9808
X5.1423Y-3.6816
X5.1423Y-3.9808
X5.2423Y-3.6816
X5.2423Y-3.9808
X5.3383Y-4.2714
X5.6183Y-4.2714
X5.8246Y-4.6116
X5.8246Y-4.8116
X5.9914Y-4.3204
X5.9914Y-4.4136
X6.1914Y-4.3204
X6.1914Y-4.4136
T4
X7.0947Y-4.415
T5
X4.437Y-4.076
X4.437Y-4.176
X4.437Y-4.276
X6.482Y-3.052
X6.582Y-3.052
X6.682Y-3.052
X6.782Y-3.052
X7.095Y-3.915
X7.095Y-4.015
X7.095Y-4.115
X7.095Y-4.215
X7.095Y-4.315
X7.0952Y-3.3906
X7.0952Y-3.4906
X7.0952Y-3.5906
X7.0952Y-3.6906
X7.097Y-2.902
X7.1946Y-3.3906
X7.1946Y-3.4906
X7.1946Y-3.5906
X7.1946Y-3.6906
X7.195Y-3.915
X7.195Y-4.015
X7.195Y-4.115
X7.195Y-4.215
X7.195Y-4.315
X7.197Y-2.902
T7
X4.872Y-2.952
X4.872Y-3.052
X4.872Y-3.152
X5.522Y-2.952
X5.522Y-3.052
X5.522Y-3.152
X5.722Y-2.952
X5.722Y-3.052
X5.722Y-3.152
X5.9949Y-4.817
X5.9949Y-4.917
X5.9951Y-4.5149
X5.9951Y-4.6149
X6.0949Y-4.817
X6.0949Y-4.917
X6.0951Y-4.5149
X6.0951Y-4.6149
X6.1949Y-4.817
X6.1949Y-4.917
X6.1951Y-4.5149
X6.1951Y-4.6149
X6.2949Y-4.817
X6.2949Y-4.917
X6.2951Y-4.5149
X6.2951Y-4.6149
X6.372Y-2.952
X6.372Y-3.052
X6.372Y-3.152
X6.3949Y-4.817
X6.3949Y-4.917
X6.3951Y-4.5149
X6.3951Y-4.6149
X6.4949Y-4.817
X6.4949Y-4.917
X6.4951Y-4.5149
X6.4951Y-4.6149
X6.582Y-2.942
X6.5949Y-4.817
X6.5949Y-4.917
X6.5951Y-4.5149
X6.5951Y-4.6149
X6.607Y-3.186
X6.607Y-3.266
X6.682Y-2.942
X6.687Y-3.186
X6.687Y-3.266
X6.6949Y-4.817
X6.6949Y-4.917
X6.6951Y-4.5149
X6.6951Y-4.6149
X6.767Y-3.186
X6.767Y-3.266
X6.782Y-2.942
X6.7949Y-4.817
X6.7949Y-4.917
X6.7951Y-4.5149
X6.7951Y-4.6149
X6.8949Y-4.817
X6.8949Y-4.917
X6.8951Y-4.5149
X6.8951Y-4.6149
X6.897Y-2.942
X6.897Y-3.042
X6.9949Y-4.817
X6.9949Y-4.917
X6.9951Y-4.5149
X6.9951Y-4.6149
X6.997Y-2.942
X6.997Y-3.042
X7.0948Y-3.8028
X7.0949Y-4.817
X7.0949Y-4.917
X7.0951Y-4.5149
X7.0951Y-4.6149
X7.1947Y-4.415
X7.1948Y-3.8028
X7.1949Y-4.817
X7.1949Y-4.917
X7.1951Y-4.5149
X7.1951Y-4.6149
T8
X4.842Y-4.072
X4.842Y-4.272
X5.142Y-4.072
X5.142Y-4.272
X6.507Y-3.412
X6.507Y-3.612
X6.807Y-3.412
X6.807Y-3.612
T9
X6.497Y-3.226
X6.877Y-3.226
T10
X4.1402Y-4.5342
X6.2898Y-3.5283
T2
X4.4388Y-4.4225G85X4.4388Y-4.4225
G05
X4.4388Y-4.6G85X4.4388Y-4.6
G05
X4.4388Y-4.7775G85X4.4388Y-4.7775
G05
X4.4388Y-4.955G85X4.4388Y-4.955
G05
X4.5175Y-4.4225G85X4.5175Y-4.4225
G05
X4.5175Y-4.6G85X4.5175Y-4.6
G05
X4.5175Y-4.7775G85X4.5175Y-4.7775
G05
X4.5175Y-4.955G85X4.5175Y-4.955
G05
X4.5963Y-4.4225G85X4.5963Y-4.4225
G05
X4.5963Y-4.6G85X4.5963Y-4.6
G05
X4.5963Y-4.7775G85X4.5963Y-4.7775
G05
X4.5963Y-4.955G85X4.5963Y-4.955
G05
X4.675Y-4.4225G85X4.675Y-4.4225
G05
X4.675Y-4.6G85X4.675Y-4.6
G05
X4.675Y-4.7775G85X4.675Y-4.7775
G05
X4.675Y-4.955G85X4.675Y-4.955
G05
X4.8488Y-4.4225G85X4.8488Y-4.4225
G05
X4.8488Y-4.6G85X4.8488Y-4.6
G05
X4.8488Y-4.7775G85X4.8488Y-4.7775
G05
X4.8488Y-4.955G85X4.8488Y-4.955
G05
X4.9275Y-4.4225G85X4.9275Y-4.4225
G05
X4.9275Y-4.6G85X4.9275Y-4.6
G05
X4.9275Y-4.7775G85X4.9275Y-4.7775
G05
X4.9275Y-4.955G85X4.9275Y-4.955
G05
X5.0063Y-4.4225G85X5.0063Y-4.4225
G05
X5.0063Y-4.6G85X5.0063Y-4.6
G05
X5.0063Y-4.7775G85X5.0063Y-4.7775
G05
X5.0063Y-4.955G85X5.0063Y-4.955
G05
X5.085Y-4.4225G85X5.085Y-4.4225
G05
X5.085Y-4.6G85X5.085Y-4.6
G05
X5.085Y-4.7775G85X5.085Y-4.7775
G05
X5.085Y-4.955G85X5.085Y-4.955
G05
X5.127Y-3.012G85X5.127Y-3.012
G05
X5.127Y-3.0907G85X5.127Y-3.0907
G05
X5.302Y-3.012G85X5.302Y-3.012
G05
X5.302Y-3.0907G85X5.302Y-3.0907
G05
X5.977Y-3.012G85X5.977Y-3.012
G05
X5.977Y-3.0907G85X5.977Y-3.0907
G05
X6.152Y-3.012G85X6.152Y-3.012
G05
X6.152Y-3.0907G85X6.152Y-3.0907
G05
T6
X7.2389Y-3.2822G85X7.1995Y-3.2822
G05
T7
X7.2386Y-3.0066G85X7.1998Y-3.0066
G05
T0
M30
